<?xml version="1.0" encoding="utf-8"?>
<!-- Generator: Adobe Illustrator 19.1.0, SVG Export Plug-In . SVG Version: 6.00 Build 0)  -->
<svg version="1.1" id="Layer_1" xmlns="http://www.w3.org/2000/svg" xmlns:xlink="http://www.w3.org/1999/xlink" x="0px" y="0px"
	 viewBox="-143 145 512 512" style="enable-background:new -143 145 512 512;" xml:space="preserve">
<g>
	<path d="M-143,145v512h512V145H-143z M339,627h-452V175h452V627z"/>
	<path d="M34.5,529h157c27.3,0,49.5-22.2,49.5-49.5V374.7v-52.3c0-27.3-22.2-49.5-49.5-49.5h-157c-27.3,0-49.5,22.2-49.5,49.5v52.3
		v104.8C-15,506.8,7.2,529,34.5,529z M205.8,302.5h5.7v5.6v37.8l-43.3,0.1l-0.1-43.4L205.8,302.5z M76.5,374.7
		c8.2-11.3,21.5-18.8,36.5-18.8s28.3,7.4,36.5,18.8c5.4,7.4,8.5,16.5,8.5,26.3c0,24.8-20.2,45.1-45.1,45.1C88,446.1,68,425.8,68,401
		C68,391.2,71.2,382.1,76.5,374.7z M10,374.7h38.2c-3.3,8.1-5.2,17-5.2,26.3c0,38.6,31.4,70,70,70c38.6,0,70-31.4,70-70
		c0-9.3-1.9-18.2-5.2-26.3H216v104.8c0,13.5-11,24.5-24.5,24.5h-157C21,504,10,493,10,479.5V374.7z"/>
</g>
</svg>
