<?xml version="1.0" encoding="utf-8"?>
<!-- Generator: Adobe Illustrator 19.1.0, SVG Export Plug-In . SVG Version: 6.00 Build 0)  -->
<svg version="1.1" id="Layer_1" xmlns="http://www.w3.org/2000/svg" xmlns:xlink="http://www.w3.org/1999/xlink" x="0px" y="0px"
	 viewBox="-271 273 256 256" style="enable-background:new -271 273 256 256;" xml:space="preserve">
<path d="M-64.5,273h-157c-27.3,0-49.5,22.2-49.5,49.5v52.3v104.8c0,27.3,22.2,49.5,49.5,49.5h157c27.3,0,49.5-22.2,49.5-49.5V374.7
	v-52.3C-15.1,295.2-37.3,273-64.5,273z M-50.3,302.5h5.7v5.6v37.8l-43.3,0.1l-0.1-43.4L-50.3,302.5z M-179.6,374.7
	c8.2-11.3,21.5-18.8,36.5-18.8s28.3,7.4,36.5,18.8c5.4,7.4,8.5,16.5,8.5,26.3c0,24.8-20.2,45.1-45.1,45.1s-44.9-20.3-44.9-45.1
	C-188.1,391.2-184.9,382.1-179.6,374.7z M-40,479.5C-40,493-51,504-64.5,504h-157c-13.5,0-24.5-11-24.5-24.5V374.7h38.2
	c-3.3,8.1-5.2,17-5.2,26.3c0,38.6,31.4,70,70,70c38.6,0,70-31.4,70-70c0-9.3-1.9-18.2-5.2-26.3H-40V479.5z"/>
</svg>
