<?xml version="1.0" encoding="utf-8"?>
<!-- Generator: Adobe Illustrator 19.1.0, SVG Export Plug-In . SVG Version: 6.00 Build 0)  -->
<svg version="1.1" id="Layer_1" xmlns="http://www.w3.org/2000/svg" xmlns:xlink="http://www.w3.org/1999/xlink" x="0px" y="0px"
	 viewBox="-143 145 512 512" style="enable-background:new -143 145 512 512;" xml:space="preserve">
<g>
	<path d="M-143,145v512h512V145H-143z M339,627h-452V175h452V627z"/>
	<path d="M-7.8,402.3c0,67.4,54.7,122.1,122.1,122.1c7.6,0,15.1-0.7,22.4-2c10,5.4,21.4,8.4,33.5,8.4c39.1,0,70.8-31.7,70.8-70.8
		c0-11.3-2.6-22-7.3-31.4c1.8-8.5,2.8-17.2,2.8-26.2c0-67.4-54.7-122.1-122.1-122.1c-7.1,0-14.1,0.6-20.9,1.8
		c-10.9-6.9-23.8-10.9-37.7-10.9C16.7,271.2-15,302.9-15,342c0,13.1,3.6,25.3,9.7,35.8C-6.9,385.7-7.8,393.9-7.8,402.3z
		 M142.1,425.4c-3.3-3.1-7.7-5.5-13-7.2c-5.5-1.7-13.1-3.6-22.4-5.6c-12.7-2.7-23.4-5.9-32-9.6c-8.8-3.7-15.8-8.9-21-15.4
		c-5.2-6.6-7.9-14.8-7.9-24.5c0-9.2,2.8-17.5,8.3-24.7c5.5-7.1,13.4-12.7,23.7-16.4c10.1-3.7,22.2-5.7,35.8-5.7
		c10.9,0,20.5,1.3,28.5,3.7c8.1,2.5,14.8,5.9,20.2,10.1c5.4,4.2,9.4,8.7,11.9,13.3c2.5,4.7,3.8,9.4,3.8,13.9c0,4.4-1.7,8.3-5,11.8
		s-7.6,5.2-12.5,5.2c-4.5,0-8.1-1.1-10.5-3.3c-2.3-2-4.7-5.2-7.3-9.7c-3-5.8-6.7-10.3-11-13.6c-4.1-3.1-11-4.7-20.4-4.7
		c-8.7,0-15.9,1.8-21.2,5.2c-5.1,3.3-7.6,7.2-7.6,11.7c0,2.8,0.8,5.1,2.4,7.1c1.7,2.1,4.2,4,7.3,5.5c3.2,1.6,6.5,2.9,9.8,3.8
		c3.4,0.9,9.1,2.3,16.9,4.1c9.9,2.1,19,4.5,27,7.1c8.1,2.6,15.2,5.8,20.9,9.5c5.8,3.8,10.5,8.7,13.8,14.5c3.3,5.9,5,13.1,5,21.5
		c-0.1,10.5-2.9,19.7-8.6,27.7c-5.6,8-14,14.3-24.8,18.8c-10.7,4.5-23.5,6.7-38.1,6.7c-17.5,0-32.2-3.1-43.7-9.2
		c-8.2-4.4-15-10.4-20.1-17.8c-5.2-7.5-7.8-14.9-7.8-22.1c0-4.5,1.7-8.3,5.1-11.5c3.3-3.2,7.6-4.7,12.7-4.7c4.2,0,7.8,1.2,10.8,3.7
		c2.8,2.4,5.2,5.9,7.2,10.5c2.2,5,4.5,9.1,7,12.4c2.4,3.2,5.9,5.8,10.2,7.9c4.4,2.1,10.4,3.2,17.7,3.2c10.1,0,18.4-2.2,24.6-6.4
		c6.1-4.1,9-9.1,9-15.2C146.8,432.2,145.3,428.4,142.1,425.4z"/>
</g>
</svg>
