<?xml version="1.0" encoding="utf-8"?>
<!-- Generator: Adobe Illustrator 19.1.0, SVG Export Plug-In . SVG Version: 6.00 Build 0)  -->
<svg version="1.1" id="Layer_1" xmlns="http://www.w3.org/2000/svg" xmlns:xlink="http://www.w3.org/1999/xlink" x="0px" y="0px"
	 viewBox="-143 145 512 512" style="enable-background:new -143 145 512 512;" xml:space="preserve">
<g>
	<path d="M166.8,397.4c-5.7-3.7-12.8-6.9-20.9-9.5c-8-2.6-17.1-4.9-27-7.1c-7.8-1.8-13.5-3.2-16.9-4.1c-3.3-0.9-6.6-2.2-9.8-3.8
		c-3.1-1.6-5.5-3.4-7.3-5.5c-1.6-2-2.4-4.3-2.4-7.1c0-4.5,2.5-8.4,7.6-11.7c5.3-3.5,12.4-5.2,21.2-5.2c9.4,0,16.3,1.6,20.4,4.7
		c4.2,3.2,7.9,7.8,11,13.6c2.6,4.5,5,7.7,7.3,9.7c2.4,2.2,6,3.3,10.5,3.3c5,0,9.2-1.8,12.5-5.2c3.3-3.5,5-7.4,5-11.8
		c0-4.5-1.3-9.2-3.8-13.9c-2.5-4.7-6.5-9.1-11.9-13.3c-5.3-4.2-12.1-7.6-20.2-10.1c-8-2.5-17.6-3.7-28.5-3.7
		c-13.6,0-25.7,1.9-35.8,5.7c-10.3,3.8-18.2,9.3-23.7,16.4c-5.5,7.2-8.3,15.5-8.3,24.7c0,9.7,2.7,17.9,7.9,24.5
		c5.2,6.5,12.2,11.6,21,15.4c8.6,3.6,19.3,6.9,32,9.6c9.3,2,16.9,3.8,22.4,5.6c5.3,1.7,9.7,4.1,13,7.2c3.2,3,4.7,6.8,4.7,11.6
		c0,6.1-2.9,11.1-9,15.2c-6.2,4.3-14.5,6.4-24.6,6.4c-7.3,0-13.3-1.1-17.7-3.2c-4.4-2.1-7.8-4.7-10.2-7.9c-2.5-3.3-4.8-7.5-7-12.4
		c-1.9-4.6-4.4-8.1-7.2-10.5c-2.9-2.5-6.6-3.7-10.8-3.7c-5.1,0-9.4,1.6-12.7,4.7c-3.4,3.2-5.1,7.1-5.1,11.5c0,7.2,2.6,14.6,7.8,22.1
		c5.1,7.4,11.9,13.4,20.1,17.8c11.5,6.1,26.2,9.2,43.7,9.2c14.6,0,27.4-2.3,38.1-6.7c10.8-4.5,19.2-10.8,24.8-18.8
		c5.7-8,8.5-17.2,8.5-27.2c0-8.4-1.7-15.6-5-21.5C177.3,406.1,172.7,401.2,166.8,397.4z"/>
	<path d="M-143,145v512h512V145H-143z M170.2,530.8c-12.1,0-23.5-3-33.5-8.4c-7.2,1.3-14.7,2-22.4,2c-67.4,0-122.1-54.7-122.1-122.1
		c0-8.4,0.8-16.6,2.5-24.5c-6.1-10.5-9.7-22.7-9.7-35.8c0-39.1,31.7-70.8,70.8-70.8c13.8,0,26.8,4,37.7,10.9
		c6.8-1.2,13.8-1.8,20.9-1.8c67.4,0,122.1,54.7,122.1,122.1c0,9-1,17.7-2.8,26.2c4.7,9.5,7.4,20.2,7.4,31.4
		C241,499.1,209.3,530.8,170.2,530.8z"/>
</g>
</svg>
