<?xml version="1.0" encoding="utf-8"?>
<!-- Generator: Adobe Illustrator 19.1.0, SVG Export Plug-In . SVG Version: 6.00 Build 0)  -->
<svg version="1.1" id="Layer_1" xmlns="http://www.w3.org/2000/svg" xmlns:xlink="http://www.w3.org/1999/xlink" x="0px" y="0px"
	 viewBox="-143 145 512 512" style="enable-background:new -143 145 512 512;" xml:space="preserve">
<g>
	<path d="M113,145c-141.4,0-256,114.6-256,256s114.6,256,256,256s256-114.6,256-256S254.4,145,113,145z M272.8,560.7
		c-20.8,20.8-44.9,37.1-71.8,48.4c-27.8,11.8-57.4,17.7-88,17.7c-30.5,0-60.1-6-88-17.7c-26.9-11.4-51.1-27.7-71.8-48.4
		c-20.8-20.8-37.1-44.9-48.4-71.8C-107,461.1-113,431.5-113,401s6-60.1,17.7-88c11.4-26.9,27.7-51.1,48.4-71.8
		c20.9-20.8,45-37.1,71.9-48.5C52.9,181,82.5,175,113,175s60.1,6,88,17.7c26.9,11.4,51.1,27.7,71.8,48.4
		c20.8,20.8,37.1,44.9,48.4,71.8c11.8,27.8,17.7,57.4,17.7,88c0,30.5-6,60.1-17.7,88C309.8,515.8,293.5,540,272.8,560.7z"/>
	<path d="M199.5,388.6c-2.2-0.7-4.4-1.4-6.5-2.1c-15.9-5-25.5-8-25.5-20.4c0-10.1,7.8-17.4,18.5-17.4c8.2,0,14.3,3.4,19.8,11.1
		c0.5,0.7,1.5,1,2.3,0.6l15.9-8.3c0.4-0.2,0.8-0.6,0.9-1.1c0.1-0.5,0.1-1-0.2-1.4c-8.6-15.3-21-22.7-38-22.7
		c-25.8,0-42.4,15.6-42.4,39.7c0,24.7,16.1,34.7,45.8,44.4c17.2,5.7,24.8,8.8,24.8,21c0,13.8-12.4,23.7-29.4,23.1
		c-17.8-0.6-23.2-10-29.9-25.4c-11.5-26.1-24.5-56.6-24.6-56.9c-13.1-30.2-39-47.5-71.2-47.5c-42.5,0-77,34.5-77,77s34.5,77,77,77
		c23.2,0,44.9-10.3,59.5-28.2c0.4-0.5,0.5-1.2,0.3-1.8l-9.7-22.4c-0.3-0.6-0.9-1-1.6-1.1c-0.7,0-1.3,0.4-1.7,1
		c-9.2,17.5-27.1,28.4-46.9,28.4c-29.1,0-52.8-23.7-52.8-52.9c0-29.1,23.7-52.9,52.8-52.9c21.2,0,40.6,12.6,48.4,31.4l24,54.8
		l2.8,6.2c10.9,25.3,26.8,36.6,51.8,36.7c29.7,0,52.1-19.7,52.1-45.8C239,406.6,224.5,396.7,199.5,388.6z"/>
</g>
</svg>
