<?xml version="1.0" encoding="utf-8"?>
<!-- Generator: Adobe Illustrator 19.1.0, SVG Export Plug-In . SVG Version: 6.00 Build 0)  -->
<svg version="1.1" id="Layer_1" xmlns="http://www.w3.org/2000/svg" xmlns:xlink="http://www.w3.org/1999/xlink" x="0px" y="0px"
	 viewBox="-143 145 512 512" style="enable-background:new -143 145 512 512;" xml:space="preserve">
<path d="M113,145c-141.4,0-256,114.6-256,256s114.6,256,256,256s256-114.6,256-256S254.4,145,113,145z M186.9,478.5
	c-25-0.1-40.9-11.4-51.8-36.7l-2.8-6.2l-24-54.8c-7.7-18.8-27.2-31.4-48.4-31.4c-29.1,0-52.8,23.7-52.8,52.9s23.7,52.9,52.8,52.9
	c19.8,0,37.7-10.9,46.9-28.4c0.3-0.6,0.9-1,1.7-1c0.7,0,1.3,0.4,1.6,1.1l9.7,22.4c0.3,0.6,0.2,1.3-0.3,1.8
	C104.8,469,83.1,479.3,60,479.3c-42.5,0-77-34.6-77-77c0-42.5,34.5-77,77-77c32.1,0,58.1,17.3,71.2,47.5
	c0.1,0.3,13.2,30.8,24.6,56.9c6.8,15.4,12.2,24.8,29.9,25.4c17,0.6,29.4-9.3,29.4-23.1c0-12.3-7.6-15.3-24.8-21
	c-29.7-9.8-45.8-19.8-45.8-44.4c0-24.1,16.7-39.7,42.4-39.7c16.9,0,29.4,7.4,38,22.7c0.2,0.4,0.3,0.9,0.2,1.4
	c-0.1,0.5-0.5,0.9-0.9,1.1l-16.1,8.2c-0.8,0.4-1.8,0.2-2.3-0.6c-5.5-7.7-11.6-11.1-19.8-11.1c-10.7,0-18.5,7.3-18.5,17.4
	c0,12.4,9.6,15.4,25.5,20.4c2.1,0.7,4.3,1.3,6.5,2.1c25,8.2,39.5,18,39.5,44.2C239,458.8,216.6,478.5,186.9,478.5z"/>
</svg>
