<?xml version="1.0" encoding="utf-8"?>
<!-- Generator: Adobe Illustrator 19.1.0, SVG Export Plug-In . SVG Version: 6.00 Build 0)  -->
<svg version="1.1" id="Layer_1" xmlns="http://www.w3.org/2000/svg" xmlns:xlink="http://www.w3.org/1999/xlink" x="0px" y="0px"
	 viewBox="-271 324 256 154" style="enable-background:new -271 324 256 154;" xml:space="preserve">
<path d="M-54.3,387.3c-2.2-0.7-4.4-1.4-6.5-2.1c-15.9-5-25.5-8-25.5-20.4c0-10.1,7.8-17.4,18.5-17.4c8.2,0,14.3,3.4,19.8,11.1
	c0.5,0.7,1.5,1,2.3,0.6l15.9-8.3c0.4-0.2,0.8-0.6,0.9-1.1s0.1-1-0.2-1.4c-8.6-15.3-21-22.7-38-22.7c-25.8,0-42.4,15.6-42.4,39.7
	c0,24.7,16.1,34.7,45.8,44.4c17.2,5.7,24.8,8.8,24.8,21c0,13.8-12.4,23.7-29.4,23.1c-17.8-0.6-23.2-10-29.9-25.4
	c-11.5-26.1-24.5-56.6-24.6-56.9c-13.1-30.2-39-47.5-71.2-47.5c-42.5,0-77,34.5-77,77s34.5,77,77,77c23.2,0,44.9-10.3,59.5-28.2
	c0.4-0.5,0.5-1.2,0.3-1.8l-9.7-22.4c-0.3-0.6-0.9-1-1.6-1.1c-0.7,0-1.3,0.4-1.7,1c-9.2,17.5-27.1,28.4-46.9,28.4
	c-29.1,0-52.8-23.7-52.8-52.9c0-29.1,23.7-52.9,52.8-52.9c21.2,0,40.6,12.6,48.4,31.4l24,54.8l2.8,6.2
	c10.9,25.3,26.8,36.6,51.8,36.7c29.7,0,52.1-19.7,52.1-45.8C-14.8,405.3-29.3,395.4-54.3,387.3z"/>
</svg>
