<?xml version="1.0" encoding="utf-8"?>
<!-- Generator: Adobe Illustrator 19.1.0, SVG Export Plug-In . SVG Version: 6.00 Build 0)  -->
<svg version="1.1" id="Layer_1" xmlns="http://www.w3.org/2000/svg" xmlns:xlink="http://www.w3.org/1999/xlink" x="0px" y="0px"
	 viewBox="-143 145 512 512" style="enable-background:new -143 145 512 512;" xml:space="preserve">
<g>
	<path d="M-143,145v512h512V145H-143z M339,627h-452V175h452V627z"/>
	<path d="M17,359c8.8,0,17,13.7,24.7,41.3c6.9,25.2,13.8,50.4,20.7,75.7c10.3,27.6,22.9,41.3,37.8,41.3c24.1,0,53.6-22.5,88.4-67.7
		c33.7-43.2,51.1-77.2,52.2-102.1c1.6-33.2-10.8-50.2-37.3-51.1c-35.6-1.1-59.7,18.8-72.3,59.7c6.5-2.7,12.8-4,18.9-4
		c13,0,18.7,7.3,17.2,21.8c-0.8,8.9-6.5,21.7-17.2,38.5s-18.8,25.2-24.1,25.2c-6.9,0-13.2-13-18.9-39c-1.9-7.6-5.4-27.1-10.3-58.5
		c-4.6-29-16.8-42.6-36.7-40.7c-8.5,0.8-21.1,8.4-37.9,23c-12.3,11-24.7,22.1-37.3,33.2l12,15.5C8.4,363,15.1,359,17,359z"/>
</g>
</svg>
