<?xml version="1.0" encoding="utf-8"?>
<!-- Generator: Adobe Illustrator 19.1.0, SVG Export Plug-In . SVG Version: 6.00 Build 0)  -->
<svg version="1.1" id="Layer_1" xmlns="http://www.w3.org/2000/svg" xmlns:xlink="http://www.w3.org/1999/xlink" x="0px" y="0px"
	 viewBox="-143 145 512 512" style="enable-background:new -143 145 512 512;" xml:space="preserve">
<g>
	<path d="M113,145c-141.4,0-256,114.6-256,256s114.6,256,256,256s256-114.6,256-256S254.4,145,113,145z M272.8,560.7
		c-20.8,20.8-44.9,37.1-71.8,48.4c-27.8,11.8-57.4,17.7-88,17.7c-30.5,0-60.1-6-88-17.7c-26.9-11.4-51.1-27.7-71.8-48.4
		c-20.8-20.8-37.1-44.9-48.4-71.8C-107,461.1-113,431.5-113,401s6-60.1,17.7-88c11.4-26.9,27.7-51.1,48.4-71.8
		c20.9-20.8,45-37.1,71.9-48.5C52.9,181,82.5,175,113,175s60.1,6,88,17.7c26.9,11.4,51.1,27.7,71.8,48.4
		c20.8,20.8,37.1,44.9,48.4,71.8c11.8,27.8,17.7,57.4,17.7,88c0,30.5-6,60.1-17.7,88C309.8,515.8,293.5,540,272.8,560.7z"/>
	<path d="M113,272.3c-70.7,0-128,57.3-128,128c0,52.4,31.5,97.4,76.6,117.2c-0.4-8.9-0.1-19.7,2.2-29.4
		c2.5-10.4,16.5-69.7,16.5-69.7s-4.1-8.2-4.1-20.2c0-19,11-33.1,24.7-33.1c11.6,0,17.3,8.7,17.3,19.2c0,11.7-7.5,29.2-11.3,45.4
		c-3.2,13.6,6.8,24.6,20.2,24.6c24.3,0,40.6-31.1,40.6-68c0-28-18.9-49-53.3-49c-38.8,0-63,28.9-63,61.3c0,11.2,3.3,19,8.4,25.1
		c2.4,2.8,2.7,3.9,1.8,7.1c-0.6,2.3-2,8-2.6,10.3c-0.9,3.2-3.5,4.4-6.4,3.2c-17.9-7.3-26.2-26.9-26.2-48.9c0-36.4,30.7-80,91.5-80
		c48.9,0,81,35.4,81,73.3c0,50.2-27.9,87.7-69.1,87.7c-13.8,0-26.8-7.5-31.3-15.9c0,0-7.4,29.5-9,35.2c-2.7,9.9-8,19.7-12.9,27.4
		c11.5,3.4,23.7,5.3,36.3,5.3c70.7,0,128-57.3,128-128C241,329.6,183.7,272.3,113,272.3z"/>
</g>
</svg>
