<?xml version="1.0" encoding="utf-8"?>
<!-- Generator: Adobe Illustrator 19.1.0, SVG Export Plug-In . SVG Version: 6.00 Build 0)  -->
<svg version="1.1" id="Layer_1" xmlns="http://www.w3.org/2000/svg" xmlns:xlink="http://www.w3.org/1999/xlink" x="0px" y="0px"
	 viewBox="-143 145 512 512" style="enable-background:new -143 145 512 512;" xml:space="preserve">
<path d="M-143,145v512h512V145H-143z M113,528.3c-12.6,0-24.8-1.9-36.3-5.3c4.9-7.7,10.2-17.6,12.9-27.4c1.6-5.7,9-35.2,9-35.2
	c4.4,8.5,17.4,15.9,31.3,15.9c41.2,0,69.1-37.5,69.1-87.7c0-38-32.2-73.3-81-73.3c-60.8,0-91.5,43.6-91.5,80
	c0,22,8.3,41.6,26.2,48.9c2.9,1.2,5.5,0,6.4-3.2c0.6-2.2,2-7.9,2.6-10.3c0.9-3.2,0.5-4.3-1.8-7.1c-5.1-6.1-8.4-13.9-8.4-25.1
	c0-32.3,24.2-61.3,63-61.3c34.4,0,53.3,21,53.3,49c0,36.9-16.3,68-40.6,68c-13.4,0-23.4-11.1-20.2-24.6
	c3.8-16.2,11.3-33.7,11.3-45.4c0-10.5-5.6-19.2-17.3-19.2c-13.7,0-24.7,14.2-24.7,33.1c0,12.1,4.1,20.2,4.1,20.2s-14,59.4-16.5,69.7
	c-2.3,9.7-2.6,20.5-2.2,29.4C16.5,497.8-15,452.7-15,400.3c0-70.7,57.3-128,128-128s128,57.3,128,128S183.7,528.3,113,528.3z"/>
</svg>
