<?xml version="1.0" encoding="utf-8"?>
<!-- Generator: Adobe Illustrator 19.1.0, SVG Export Plug-In . SVG Version: 6.00 Build 0)  -->
<svg version="1.1" id="Layer_1" xmlns="http://www.w3.org/2000/svg" xmlns:xlink="http://www.w3.org/1999/xlink" x="0px" y="0px"
	 viewBox="-143 145 512 512" style="enable-background:new -143 145 512 512;" xml:space="preserve">
<g>
	<path d="M329,145h-432c-22.1,0-40,17.9-40,40v432c0,22.1,17.9,40,40,40h432c22.1,0,40-17.9,40-40V185C369,162.9,351.1,145,329,145z
		 M339,617c0,5.5-4.5,10-10,10h-432c-5.5,0-10-4.5-10-10V185c0-5.5,4.5-10,10-10h432c5.5,0,10,4.5,10,10V617z"/>
	<path d="M126.9,482.2c-4.3-2.5-7.2-5.9-8.8-10.1c-1.6-4.2-2.4-13.7-2.4-28.6v-65.6h60.7v-40.2h-60.7V273H79.3
		c-1.6,13.2-4.6,24.1-9,32.6c-4.3,8.6-10.1,15.9-17.3,22c-7.2,6.1-15.8,10.8-25.9,14.1v36.2h28.3v89.8c0,11.7,1.2,20.6,3.7,26.8
		c2.4,6.2,6.9,12,13.2,17.5c6.3,5.5,14,9.7,23,12.6c9,2.9,19.3,4.4,31,4.4c10.3,0,19.9-1,28.8-3.1c8.9-2.1,18.8-5.7,29.7-10.8v-40.4
		c-12.6,8.4-25.5,12.6-38.5,12.6C139,487.3,132.5,485.6,126.9,482.2z"/>
</g>
</svg>
