<?xml version="1.0" encoding="utf-8"?>
<!-- Generator: Adobe Illustrator 19.1.0, SVG Export Plug-In . SVG Version: 6.00 Build 0)  -->
<svg version="1.1" id="Layer_1" xmlns="http://www.w3.org/2000/svg" xmlns:xlink="http://www.w3.org/1999/xlink" x="0px" y="0px"
	 viewBox="-143 145 512 512" style="enable-background:new -143 145 512 512;" xml:space="preserve">
<g>
	<path d="M113,145c-141.4,0-256,114.6-256,256s114.6,256,256,256s256-114.6,256-256S254.4,145,113,145z M272.8,560.7
		c-20.8,20.8-44.9,37.1-71.8,48.4c-27.8,11.8-57.4,17.7-88,17.7c-30.5,0-60.1-6-88-17.7c-26.9-11.4-51.1-27.7-71.8-48.4
		c-20.8-20.8-37.1-44.9-48.4-71.8C-107,461.1-113,431.5-113,401s6-60.1,17.7-88c11.4-26.9,27.7-51.1,48.4-71.8
		c20.9-20.8,45-37.1,71.9-48.5C52.9,181,82.5,175,113,175s60.1,6,88,17.7c26.9,11.4,51.1,27.7,71.8,48.4
		c20.8,20.8,37.1,44.9,48.4,71.8c11.8,27.8,17.7,57.4,17.7,88c0,30.5-6,60.1-17.7,88C309.8,515.8,293.5,540,272.8,560.7z"/>
	<path d="M126.9,482.2c-4.3-2.5-7.2-5.9-8.8-10.1c-1.6-4.2-2.4-13.7-2.4-28.6v-65.6h60.7v-40.2h-60.7V273H79.3
		c-1.6,13.2-4.6,24.1-9,32.6c-4.3,8.6-10.1,15.9-17.3,22c-7.2,6.1-15.8,10.8-25.9,14.1v36.2h28.3v89.8c0,11.7,1.2,20.6,3.7,26.8
		c2.4,6.2,6.9,12,13.2,17.5c6.3,5.5,14,9.7,23,12.6c9,2.9,19.3,4.4,31,4.4c10.3,0,19.9-1,28.8-3.1c8.9-2.1,18.8-5.7,29.7-10.8v-40.4
		c-12.6,8.4-25.5,12.6-38.5,12.6C139,487.3,132.5,485.6,126.9,482.2z"/>
</g>
</svg>
