<?xml version="1.0" encoding="utf-8"?>
<!-- Generator: Adobe Illustrator 19.1.0, SVG Export Plug-In . SVG Version: 6.00 Build 0)  -->
<svg version="1.1" id="Layer_1" xmlns="http://www.w3.org/2000/svg" xmlns:xlink="http://www.w3.org/1999/xlink" x="0px" y="0px"
	 viewBox="-143 145 157.7 256" style="enable-background:new -143 145 157.7 256;" xml:space="preserve">
<path d="M-24,359.3c-7.3,0-13.8-1.7-19.4-5.1c-4.3-2.5-7.2-5.9-8.8-10.1c-1.6-4.2-2.4-13.7-2.4-28.6v-65.6H6.1v-40.2h-60.7V145
	h-36.2c-1.7,13.2-4.7,24.1-9,32.6c-4.4,8.6-10.1,15.9-17.3,22c-7.2,6.1-15.8,10.8-25.9,14.1v36.2h28.3v89.8
	c0,11.7,1.2,20.6,3.7,26.8c2.4,6.2,6.8,12,13.2,17.5c6.3,5.4,14,9.6,23,12.6c8.9,2.9,19.3,4.4,31,4.4c10.3,0,19.9-1,28.8-3.1
	c8.9-2,18.7-5.7,29.7-10.8v-40.4C1.8,355.1-11,359.3-24,359.3z"/>
</svg>
