<?xml version="1.0" encoding="utf-8"?>
<!-- Generator: Adobe Illustrator 19.1.0, SVG Export Plug-In . SVG Version: 6.00 Build 0)  -->
<svg version="1.1" id="Layer_1" xmlns="http://www.w3.org/2000/svg" xmlns:xlink="http://www.w3.org/1999/xlink" x="0px" y="0px"
	 viewBox="-143 145 512 512" style="enable-background:new -143 145 512 512;" xml:space="preserve">
<path d="M329,145h-432c-22.1,0-40,17.9-40,40v432c0,22.1,17.9,40,40,40h432c22.1,0,40-17.9,40-40V185C369,162.9,351.1,145,329,145z
	 M185.2,515H185c-11,5.1-20.8,8.8-29.7,10.8c-8.9,2.1-18.5,3.1-28.8,3.1c-11.7,0-22.1-1.5-31-4.4c-9-3-16.7-7.2-23-12.6
	c-6.4-5.5-10.8-11.3-13.2-17.5c-2.5-6.2-3.7-15.1-3.7-26.8v-89.8H27.3v-36.2c10.1-3.3,18.7-8,25.9-14.1c7.2-6.1,12.9-13.4,17.3-22
	c4.3-8.5,7.3-19.4,9-32.6h36.4v64.7h60.7v40.2h-60.7v65.6c0,14.9,0.8,24.4,2.4,28.6c1.6,4.2,4.5,7.6,8.8,10.1
	c5.6,3.4,12.1,5.1,19.4,5.1c13,0,25.8-4.2,38.7-12.6V515z"/>
</svg>
