<?xml version="1.0" encoding="utf-8"?>
<!-- Generator: Adobe Illustrator 19.1.0, SVG Export Plug-In . SVG Version: 6.00 Build 0)  -->
<svg version="1.1" id="Layer_1" xmlns="http://www.w3.org/2000/svg" xmlns:xlink="http://www.w3.org/1999/xlink" x="0px" y="0px"
	 viewBox="-143 145 512 512" style="enable-background:new -143 145 512 512;" xml:space="preserve">
<g>
	<path d="M329,145h-432c-22.1,0-40,17.9-40,40v432c0,22.1,17.9,40,40,40h432c22.1,0,40-17.9,40-40V185C369,162.9,351.1,145,329,145z
		 M339,617c0,5.5-4.5,10-10,10h-432c-5.5,0-10-4.5-10-10V185c0-5.5,4.5-10,10-10h432c5.5,0,10,4.5,10,10V617z"/>
	<path d="M187.3,367.9c-1.4,0.9-2.3,0.8-3.6,0c-15.1-8.8-31.4-14.2-48.5-17.1c-5.8-1-11.6-1.6-17.6-2.3c4.8-13.6,9.5-27.1,14.3-40.7
		c11.1,2.6,22,5.4,32.9,7.7c2.9,0.6,4,1.8,4.7,4.8c2.9,13.6,16,22.4,30.2,20.7c13-1.5,23.4-13.3,23.5-26.6
		c0.1-12.3-7.8-23.1-19.5-26.6c-11.8-3.5-24.1,1.1-30.8,11.5c-1,1.5-1.8,1.7-3.5,1.3c-9.1-2.3-18.2-4.4-27.4-6.6
		c-6.7-1.6-13.4-3.2-20.2-4.8c-0.4,1-0.7,1.8-1,2.6c-6.4,18.2-12.8,36.4-19.2,54.6c-0.5,1.5-1.2,2.2-2.9,2.2
		c-3.2,0.1-6.3,0.3-9.5,0.6c-21,2.1-41.1,7.7-59.5,18.3c-1.6,0.9-2.7,1-4.3-0.1c-15.4-9.9-36.1-5.1-45.3,10.7
		c-2.3,4-3.3,8.7-4.9,13.1c0,2.6,0,5.1,0,7.7c0.8,2.8,1.5,5.8,2.5,8.5c1.9,5.1,5.2,9.2,9.3,12.7c0.7,0.6,1.4,1.7,1.3,2.4
		c-1.6,15.7,2.9,29.5,12.2,42c10.5,14.3,24.6,24,40.6,31.2c23.9,10.7,49.1,14.6,75.2,13.1c22.7-1.3,44.3-6.6,64.4-17.6
		c14.7-8.1,27.2-18.5,35.8-33.2c6.3-10.8,9-22.4,7.9-34.9c-0.1-0.7,0.1-1.8,0.6-2.2c6.9-5.5,11.1-12.6,12.5-21.4
		c0-0.2,0.2-0.5,0.3-0.7c0-2.7,0-5.5,0-8.2c-0.2-0.4-0.4-0.7-0.5-1.1C233.1,366.1,207.3,354.9,187.3,367.9z M195.9,302.4
		c6.4,0,11.5,5.1,11.5,11.6c0,6.4-5.1,11.6-11.5,11.7c-6.4,0-11.8-5.3-11.7-11.7C184.2,307.5,189.5,302.3,195.9,302.4z M-6.1,404
		c-4-6-3.5-14.2,1.1-19.7s12.2-7.7,18.4-5.1C5.3,386.2-1.4,394.3-6.1,404z M198.5,457.4c-9.3,11.8-21.6,19.5-35.2,25.3
		c-18.2,7.7-37.3,10.9-59.6,10.9c-21.2-0.2-44-4.7-65.1-16.2c-9.9-5.4-18.7-12.3-25.4-21.6C0.3,438,0.8,417.3,14.5,400.2
		c9.4-11.7,21.6-19.5,35.3-25.2c22-9.1,44.9-12.1,68.5-10.4c19.9,1.4,38.9,6.2,56.4,16c9.7,5.4,18.4,12.2,25,21.3
		C212.6,419.6,212.2,440,198.5,457.4z M219.6,404c-2.9-4.4-5.6-9-8.9-13.1c-3.2-4.1-7-7.8-10.7-11.8c6.3-2.6,14.1-0.3,18.7,5.6
		C223.2,390.3,223.5,398.5,219.6,404z"/>
	<path d="M140.6,455.1c-3.5,2.4-7.1,4.8-11,6.4c-11.8,4.6-24.1,5.1-36.6,2.8c-7-1.3-13.7-3.6-19.2-8.5c-3.8-3.4-8.6-3.5-11.6-0.1
		c-3.1,3.4-2.9,8.3,1,11.6c3.3,2.7,6.8,5.2,10.6,7.1c10.2,5.2,21.2,6.8,32.6,7.4c6.7-0.9,13.4-1.5,20-2.9
		c9.2-1.9,17.7-5.6,24.8-12.1c3.3-3.1,3.5-7.8,0.6-11C148.8,452.6,144.2,452.6,140.6,455.1z"/>
	<path d="M146.4,393.8c-12.2-0.3-22,9.1-22.2,21.1c-0.2,11.5,9.3,21.3,20.7,21.5c12.1,0.2,21.7-9,22-21
		C167.1,403.9,157.8,394.1,146.4,393.8z"/>
	<path d="M91.3,415.5c0.1-11.7-9.3-21.5-20.8-21.6c-12-0.2-21.6,9.1-21.8,21.1c-0.2,11.6,9.1,21.3,20.6,21.5
		C81.3,436.7,91.2,427.3,91.3,415.5z"/>
</g>
</svg>
