<?xml version="1.0" encoding="utf-8"?>
<!-- Generator: Adobe Illustrator 19.1.0, SVG Export Plug-In . SVG Version: 6.00 Build 0)  -->
<svg version="1.1" id="Layer_1" xmlns="http://www.w3.org/2000/svg" xmlns:xlink="http://www.w3.org/1999/xlink" x="0px" y="0px"
	 viewBox="-143 145 512 512" style="enable-background:new -143 145 512 512;" xml:space="preserve">
<g>
	<path d="M113,145c-141.4,0-256,114.6-256,256s114.6,256,256,256s256-114.6,256-256S254.4,145,113,145z M272.8,560.7
		c-20.8,20.8-44.9,37.1-71.8,48.4c-27.8,11.8-57.4,17.7-88,17.7c-30.5,0-60.1-6-88-17.7c-26.9-11.4-51.1-27.7-71.8-48.4
		c-20.8-20.8-37.1-44.9-48.4-71.8C-107,461.1-113,431.5-113,401s6-60.1,17.7-88c11.4-26.9,27.7-51.1,48.4-71.8
		c20.9-20.8,45-37.1,71.9-48.5C52.9,181,82.5,175,113,175s60.1,6,88,17.7c26.9,11.4,51.1,27.7,71.8,48.4
		c20.8,20.8,37.1,44.9,48.4,71.8c11.8,27.8,17.7,57.4,17.7,88c0,30.5-6,60.1-17.7,88C309.8,515.8,293.5,540,272.8,560.7z"/>
	<path d="M234.3,313.1c-10.2,6-21.4,10.4-33.4,12.8c-9.6-10.2-23.3-16.6-38.4-16.6c-29,0-52.6,23.6-52.6,52.6c0,4.1,0.4,8.1,1.4,12
		c-43.7-2.2-82.5-23.1-108.4-55c-4.5,7.8-7.1,16.8-7.1,26.5c0,18.2,9.3,34.3,23.4,43.8c-8.6-0.3-16.7-2.7-23.8-6.6v0.6
		c0,25.5,18.1,46.8,42.2,51.6c-4.4,1.2-9.1,1.9-13.9,1.9c-3.4,0-6.7-0.3-9.9-0.9c6.7,20.9,26.1,36.1,49.1,36.5
		c-18,14.1-40.7,22.5-65.3,22.5c-4.2,0-8.4-0.2-12.6-0.7c23.3,14.9,50.9,23.6,80.6,23.6c96.8,0,149.7-80.2,149.7-149.7
		c0-2.3,0-4.6-0.1-6.8c10.3-7.5,19.2-16.7,26.2-27.3c-9.4,4.2-19.6,7-30.2,8.3C222.1,335.7,230.4,325.4,234.3,313.1z"/>
</g>
</svg>
