<?xml version="1.0" encoding="utf-8"?>
<!-- Generator: Adobe Illustrator 19.1.0, SVG Export Plug-In . SVG Version: 6.00 Build 0)  -->
<svg version="1.1" id="Layer_1" xmlns="http://www.w3.org/2000/svg" xmlns:xlink="http://www.w3.org/1999/xlink" x="0px" y="0px"
	 viewBox="-143 145 512 512" style="enable-background:new -143 145 512 512;" xml:space="preserve">
<g>
	<path d="M-143,145v512h512V145H-143z M339,627h-452V175h452V627z"/>
	<path d="M-15,494.1c23.3,14.9,50.9,23.6,80.6,23.6c96.8,0,149.7-80.2,149.7-149.7c0-2.3,0-4.6-0.1-6.8
		c10.3-7.5,19.2-16.7,26.2-27.3c-9.4,4.2-19.6,7-30.2,8.3c10.9-6.5,19.2-16.8,23.1-29.1c-10.2,6-21.4,10.4-33.4,12.8
		c-9.6-10.2-23.3-16.6-38.4-16.6c-29,0-52.6,23.6-52.6,52.6c0,4.1,0.4,8.1,1.4,12c-43.7-2.2-82.5-23.1-108.4-55
		c-4.5,7.8-7.1,16.8-7.1,26.5c0,18.2,9.3,34.3,23.4,43.8c-8.6-0.3-16.7-2.7-23.8-6.6v0.6c0,25.5,18.1,46.8,42.2,51.6
		c-4.4,1.2-9.1,1.9-13.9,1.9c-3.4,0-6.7-0.3-9.9-0.9c6.7,20.9,26.1,36.1,49.1,36.5c-18,14.1-40.7,22.5-65.3,22.5
		C-6.6,494.8-10.8,494.6-15,494.1z"/>
</g>
</svg>
