<?xml version="1.0" encoding="utf-8"?>
<!-- Generator: Adobe Illustrator 19.1.0, SVG Export Plug-In . SVG Version: 6.00 Build 0)  -->
<svg version="1.1" id="Layer_1" xmlns="http://www.w3.org/2000/svg" xmlns:xlink="http://www.w3.org/1999/xlink" x="0px" y="0px"
	 viewBox="-143 145 512 512" style="enable-background:new -143 145 512 512;" xml:space="preserve">
<path d="M-143,145v512h512V145H-143z M178.1,333.5c-0.2-12-8.5-18.8-19.6-16.3c-9.5,2.1-14.8,9.1-14,18.8c0.3,3.4,0.6,6.9,1.2,10.2
	c2.3,13.7,7.6,26.1,17.3,36.3c10.6,11.2,24,16.9,38.9,19.5c2.7,0.5,5.5,0.8,8.2,1.2c0,9.5,0,18.8,0,28.7c-7.2-1-14.2-1.9-20.7-2.7
	c-8.2,11.9-16,23.8-24.3,35.4c-9.6,13.3-19.9,26.1-32.2,37c-5.3,4.7-10.8,9.3-18.4,9.8c-2.8,0-5.6,0-8.3,0
	c-7.9-2.5-13.8-8.2-19.9-13.2C64,479.9,47.9,457,36,430.9c-9.2-20.4-15.1-41.7-18.6-63.8c-2.5-15.6-3.6-31.4-3.9-47.2
	c0-0.8,0-1.6,0-2.5c10.7,0,21.2,0,31.9,0c0,4.1-0.1,8.1,0,12.1c0.9,28.5,6.6,56,18.1,82.2c11,24.9,26.8,46.2,48.4,63.5
	c19-16.2,33.8-35.6,45.6-57.7c-0.7-0.4-1.3-0.8-1.9-1.2c-23.6-13.8-37.4-34.4-42-61.2c-1.8-10.3-2.7-20.8-1-31.2
	c2.7-16,11.5-27.3,26.6-33.3c4.6-1.8,9.7-2.4,14.6-3.6c0.5-0.1,1-0.3,1.5-0.4c3.2,0,6.4,0,9.7,0c0.6,0.1,1.1,0.3,1.7,0.4
	c7,0.7,13.7,2.6,19.9,5.8c13.9,7.2,23,17.9,23.5,34.1c0.5,16.5,0.4,33.1-2,49.5c-0.2,1.6-0.7,2.2-2.4,2.2c-10.3-0.1-20.6,0-31,0
	c-0.6,0-1.2-0.1-2-0.1c0.2-0.9,0.4-1.6,0.5-2.3C176.5,362,178.4,347.9,178.1,333.5z"/>
</svg>
