<?xml version="1.0" encoding="utf-8"?>
<!-- Generator: Adobe Illustrator 19.1.0, SVG Export Plug-In . SVG Version: 6.00 Build 0)  -->
<svg version="1.1" id="Layer_1" xmlns="http://www.w3.org/2000/svg" xmlns:xlink="http://www.w3.org/1999/xlink" x="0px" y="0px"
	 viewBox="-143 145 512 512" style="enable-background:new -143 145 512 512;" xml:space="preserve">
<g>
	<path d="M113,145c-141.4,0-256,114.6-256,256s114.6,256,256,256s256-114.6,256-256S254.4,145,113,145z M272.8,560.7
		c-20.8,20.8-44.9,37.1-71.8,48.4c-27.8,11.8-57.4,17.7-88,17.7c-30.5,0-60.1-6-88-17.7c-26.9-11.4-51.1-27.7-71.8-48.4
		c-20.8-20.8-37.1-44.9-48.4-71.8C-107,461.1-113,431.5-113,401s6-60.1,17.7-88c11.4-26.9,27.7-51.1,48.4-71.8
		c20.9-20.8,45-37.1,71.9-48.5C52.9,181,82.5,175,113,175s60.1,6,88,17.7c26.9,11.4,51.1,27.7,71.8,48.4
		c20.8,20.8,37.1,44.9,48.4,71.8c11.8,27.8,17.7,57.4,17.7,88c0,30.5-6,60.1-17.7,88C309.8,515.8,293.5,540,272.8,560.7z"/>
	<path d="M172.7,378.2c0.8,0.1,1.4,0.1,2,0.1c10.3,0,20.6,0,31,0c1.7,0,2.2-0.6,2.4-2.2c2.4-16.4,2.6-33,2-49.5
		c-0.5-16.2-9.6-27-23.5-34.1c-6.2-3.2-12.9-5-19.9-5.8c-0.6-0.1-1.1-0.3-1.7-0.4c-3.2,0-6.4,0-9.7,0c-0.5,0.1-1,0.3-1.5,0.4
		c-4.9,1.2-10,1.8-14.6,3.6c-15.1,6-23.9,17.3-26.6,33.3c-1.7,10.5-0.9,20.9,1,31.2c4.7,26.8,18.4,47.4,42,61.2
		c0.6,0.4,1.2,0.8,1.9,1.2c-11.8,22.1-26.7,41.5-45.6,57.7c-21.6-17.3-37.4-38.6-48.4-63.5c-11.6-26.2-17.3-53.6-18.1-82.2
		c-0.1-4,0-8,0-12.1c-10.7,0-21.3,0-31.9,0c0,0.9,0,1.7,0,2.5c0.2,15.8,1.4,31.6,3.9,47.2c3.5,22.1,9.4,43.4,18.6,63.8
		c11.8,26.1,28,49,50.3,67.3c6.2,5.1,12,10.7,19.9,13.2c2.8,0,5.6,0,8.3,0c7.6-0.6,13.1-5.1,18.4-9.8c12.4-10.9,22.7-23.7,32.2-37
		c8.3-11.6,16.2-23.5,24.3-35.4c6.5,0.9,13.5,1.8,20.7,2.7c0-9.9,0-19.2,0-28.7c-2.7-0.4-5.4-0.7-8.2-1.2
		c-14.9-2.6-28.3-8.3-38.9-19.5c-9.7-10.2-15-22.6-17.3-36.3c-0.6-3.4-0.9-6.8-1.2-10.2c-0.8-9.7,4.5-16.7,14-18.8
		c11.1-2.5,19.4,4.3,19.6,16.3c0.3,14.3-1.6,28.5-4.9,42.4C173,376.6,172.9,377.3,172.7,378.2z"/>
</g>
</svg>
