<?xml version="1.0" encoding="utf-8"?>
<!-- Generator: Adobe Illustrator 19.1.0, SVG Export Plug-In . SVG Version: 6.00 Build 0)  -->
<svg version="1.1" id="Layer_1" xmlns="http://www.w3.org/2000/svg" xmlns:xlink="http://www.w3.org/1999/xlink" x="0px" y="0px"
	 viewBox="-143 145 512 512" style="enable-background:new -143 145 512 512;" xml:space="preserve">
<g>
	<path d="M329,145h-432c-22.1,0-40,17.9-40,40v432c0,22.1,17.9,40,40,40h432c22.1,0,40-17.9,40-40V185C369,162.9,351.1,145,329,145z
		 M339,617c0,5.5-4.5,10-10,10h-432c-5.5,0-10-4.5-10-10V185c0-5.5,4.5-10,10-10h432c5.5,0,10,4.5,10,10V617z"/>
	<path d="M172.7,378.2c0.8,0.1,1.4,0.1,2,0.1c10.3,0,20.6,0,31,0c1.7,0,2.2-0.6,2.4-2.2c2.4-16.4,2.6-33,2-49.5
		c-0.5-16.2-9.6-27-23.5-34.1c-6.2-3.2-12.9-5-19.9-5.8c-0.6-0.1-1.1-0.3-1.7-0.4c-3.2,0-6.4,0-9.7,0c-0.5,0.1-1,0.3-1.5,0.4
		c-4.9,1.2-10,1.8-14.6,3.6c-15.1,6-23.9,17.3-26.6,33.3c-1.7,10.5-0.9,20.9,1,31.2c4.7,26.8,18.4,47.4,42,61.2
		c0.6,0.4,1.2,0.8,1.9,1.2c-11.8,22.1-26.7,41.5-45.6,57.7c-21.6-17.3-37.4-38.6-48.4-63.5c-11.6-26.2-17.3-53.6-18.1-82.2
		c-0.1-4,0-8,0-12.1c-10.7,0-21.3,0-31.9,0c0,0.9,0,1.7,0,2.5c0.2,15.8,1.4,31.6,3.9,47.2c3.5,22.1,9.4,43.4,18.6,63.8
		c11.8,26.1,28,49,50.3,67.3c6.2,5.1,12,10.7,19.9,13.2c2.8,0,5.6,0,8.3,0c7.6-0.6,13.1-5.1,18.4-9.8c12.4-10.9,22.7-23.7,32.2-37
		c8.3-11.6,16.2-23.5,24.3-35.4c6.5,0.9,13.5,1.8,20.7,2.7c0-9.9,0-19.2,0-28.7c-2.7-0.4-5.4-0.7-8.2-1.2
		c-14.9-2.6-28.3-8.3-38.9-19.5c-9.7-10.2-15-22.6-17.3-36.3c-0.6-3.4-0.9-6.8-1.2-10.2c-0.8-9.7,4.5-16.7,14-18.8
		c11.1-2.5,19.4,4.3,19.6,16.3c0.3,14.3-1.6,28.5-4.9,42.4C173,376.6,172.9,377.3,172.7,378.2z"/>
</g>
</svg>
