<?xml version="1.0" encoding="utf-8"?>
<!-- Generator: Adobe Illustrator 19.1.0, SVG Export Plug-In . SVG Version: 6.00 Build 0)  -->
<svg version="1.1" id="Layer_1" xmlns="http://www.w3.org/2000/svg" xmlns:xlink="http://www.w3.org/1999/xlink" x="0px" y="0px"
	 viewBox="-271 287.5 256 226.5" style="enable-background:new -271 287.5 256 226.5;" xml:space="preserve">
<g>
	<path d="M-165.8,398.2c-8.8-4.5-21.1-9.2-34.6-9.2c-1.5,0-3.1,0.1-4.6,0.2c-13.5,1.1-25.8,4.6-34.5,7.6c-2.5,0.9-5.2,1.9-7.9,3
		l-23.6,82.1c17.9-7.2,32.4-10.1,44.5-10.1c20,0,33.9,7.7,47.1,16.5c4.9-16.5,21.4-72.9,24.5-83.7
		C-158.4,402.4-162,400.2-165.8,398.2z"/>
	<path d="M-140.7,415l-23.6,82c0,0,27.6,17,48.4,17c13.1,0,28.8-3.2,48.5-11.3l22.8-79.6c-17.3,6.2-32.2,8.5-44.7,8.5
		C-116.9,431.7-133.5,420.8-140.7,415z"/>
	<path d="M-195.9,369.2c19.2,0.2,32.8,7.9,45.5,16.3c4.8-16.4,19.2-65.8,24.1-82.5v-0.1c0,0-17-10.2-28.8-13.2
		c-5.6-1.3-12-2.2-19.1-2.2c-0.1,0-0.2,0-0.3,0c-12,0.2-26.4,3.1-44.1,10.4l-23.3,82c18.2-7.4,32.9-10.7,45.3-10.7
		C-196.4,369.2-196.2,369.2-195.9,369.2z"/>
	<path d="M-60.8,330.5c-26,0-43.1-11-50.6-16.9l-23.9,82.8c0.1,0.1,0.2,0.1,0.2,0.2c13.2,8.8,30.3,15.9,50.9,15.9
		c13.6,0,28.8-3.1,45.4-10.9v-0.1c0,0,0.1,0,0.2-0.1l23.6-81.3C-32.4,327.7-47.7,330.5-60.8,330.5z"/>
</g>
</svg>
