<?xml version="1.0" encoding="utf-8"?>
<!-- Generator: Adobe Illustrator 19.1.0, SVG Export Plug-In . SVG Version: 6.00 Build 0)  -->
<svg version="1.1" id="Layer_1" xmlns="http://www.w3.org/2000/svg" xmlns:xlink="http://www.w3.org/1999/xlink" x="0px" y="0px"
	 viewBox="-143 145 512 512" style="enable-background:new -143 145 512 512;" xml:space="preserve">
<g>
	<path d="M113,145c-141.4,0-256,114.6-256,256s114.6,256,256,256s256-114.6,256-256S254.4,145,113,145z M272.8,560.7
		c-20.8,20.8-44.9,37.1-71.8,48.4c-27.8,11.8-57.4,17.7-88,17.7c-30.5,0-60.1-6-88-17.7c-26.9-11.4-51.1-27.7-71.8-48.4
		c-20.8-20.8-37.1-44.9-48.4-71.8C-107,461.1-113,431.5-113,401s6-60.1,17.7-88c11.4-26.9,27.7-51.1,48.4-71.8
		c20.9-20.8,45-37.1,71.9-48.5C52.9,181,82.5,175,113,175s60.1,6,88,17.7c26.9,11.4,51.1,27.7,71.8,48.4
		c20.8,20.8,37.1,44.9,48.4,71.8c11.8,27.8,17.7,57.4,17.7,88c0,30.5-6,60.1-17.7,88C309.8,515.8,293.5,540,272.8,560.7z"/>
	<path d="M90.2,398.1c-8.8-4.5-21.1-9.2-34.6-9.2c-1.5,0-3.1,0.1-4.6,0.2c-13.5,1.1-25.8,4.6-34.5,7.6c-2.5,0.9-5.2,1.9-7.9,3
		L-15,481.8c17.9-7.2,32.4-10.1,44.5-10.1c20,0,33.9,7.7,47.1,16.5c4.9-16.5,21.4-72.9,24.5-83.7C97.6,402.3,94,400.1,90.2,398.1z"
		/>
	<path d="M115.3,414.9l-23.6,82c0,0,27.6,17,48.4,17c13.1,0,28.8-3.2,48.5-11.3l22.8-79.6c-17.3,6.2-32.2,8.5-44.7,8.5
		C139.1,431.6,122.5,420.7,115.3,414.9z"/>
	<path d="M60.1,369.1c19.2,0.2,32.8,7.9,45.5,16.3c4.8-16.4,19.2-65.8,24.1-82.5v-0.1c0,0-17-10.2-28.8-13.2
		c-5.6-1.3-12-2.2-19.1-2.2c-0.1,0-0.2,0-0.3,0c-12,0.2-26.4,3.1-44.1,10.4l-23.3,82c18.2-7.4,32.9-10.7,45.3-10.7
		C59.6,369.1,59.8,369.1,60.1,369.1z"/>
	<path d="M144.6,313.4l-23.9,82.8c0.1,0.1,0.2,0.1,0.2,0.2c13.2,8.8,30.3,15.9,50.9,15.9c13.6,0,28.8-3.1,45.4-10.9v-0.1
		c0,0,0.1,0,0.2-0.1l23.6-81.3c-17.4,7.6-32.7,10.4-45.8,10.4C169.3,330.4,152.2,319.3,144.6,313.4z"/>
</g>
</svg>
