<?xml version="1.0" encoding="utf-8"?>
<!-- Generator: Adobe Illustrator 19.1.0, SVG Export Plug-In . SVG Version: 6.00 Build 0)  -->
<svg version="1.1" id="Layer_1" xmlns="http://www.w3.org/2000/svg" xmlns:xlink="http://www.w3.org/1999/xlink" x="0px" y="0px"
	 viewBox="-143 145 512 512" style="enable-background:new -143 145 512 512;" xml:space="preserve">
<path d="M329,145h-432c-22.1,0-40,17.9-40,40v432c0,22.1,17.9,40,40,40h432c22.1,0,40-17.9,40-40V185C369,162.9,351.1,145,329,145z
	 M37.5,297.8c17.7-7.2,32.1-10.1,44.1-10.4c0.1,0,0.2,0,0.3,0c7.1,0,13.4,0.8,19.1,2.2c11.8,3,28.8,13.2,28.8,13.2v0.1
	c-4.9,16.7-19.3,66-24.1,82.5C93,377,79.4,369.3,60.2,369.1c-0.2,0-0.4,0-0.6,0c-12.4,0-27.1,3.3-45.3,10.7L37.5,297.8z M29.5,471.7
	c-12.2,0-26.6,2.9-44.5,10.1l23.7-82.1c2.7-1.1,5.3-2.1,7.9-3c8.6-3,20.9-6.5,34.5-7.6c1.5-0.1,3.1-0.2,4.6-0.2
	c13.5,0,25.8,4.7,34.6,9.2c3.8,2,7.3,4.2,10.9,6.5c-3.1,10.7-19.7,67.2-24.5,83.7C63.5,479.5,49.6,471.7,29.5,471.7z M188.5,502.6
	c-19.6,8.1-35.3,11.3-48.5,11.3c-20.7,0-48.4-17-48.4-17l23.6-82c7.2,5.7,23.8,16.6,51.2,16.6c12.6,0,27.5-2.3,44.7-8.5L188.5,502.6
	z M217.4,401.3c-0.1,0-0.1,0.1-0.2,0.1v0.1c-16.6,7.8-31.7,10.9-45.4,10.9c-20.6,0-37.8-7.1-50.9-15.9c-0.1-0.1-0.2-0.1-0.2-0.2
	l23.9-82.8c7.6,5.9,24.7,16.9,50.6,16.9c13.1,0,28.3-2.8,45.8-10.4L217.4,401.3z"/>
</svg>
