<?xml version="1.0" encoding="utf-8"?>
<!-- Generator: Adobe Illustrator 19.1.0, SVG Export Plug-In . SVG Version: 6.00 Build 0)  -->
<svg version="1.1" id="Layer_1" xmlns="http://www.w3.org/2000/svg" xmlns:xlink="http://www.w3.org/1999/xlink" x="0px" y="0px"
	 viewBox="-143 145 512 512" style="enable-background:new -143 145 512 512;" xml:space="preserve">
<g>
	<path d="M113,145c-141.4,0-256,114.6-256,256s114.6,256,256,256s256-114.6,256-256S254.4,145,113,145z M272.8,560.7
		c-20.8,20.8-44.9,37.1-71.8,48.4c-27.8,11.8-57.4,17.7-88,17.7c-30.5,0-60.1-6-88-17.7c-26.9-11.4-51.1-27.7-71.8-48.4
		c-20.8-20.8-37.1-44.9-48.4-71.8C-107,461.1-113,431.5-113,401s6-60.1,17.7-88c11.4-26.9,27.7-51.1,48.4-71.8
		c20.9-20.8,45-37.1,71.9-48.5C52.9,181,82.5,175,113,175s60.1,6,88,17.7c26.9,11.4,51.1,27.7,71.8,48.4
		c20.8,20.8,37.1,44.9,48.4,71.8c11.8,27.8,17.7,57.4,17.7,88c0,30.5-6,60.1-17.7,88C309.8,515.8,293.5,540,272.8,560.7z"/>
	<path d="M-15,401c0,50.6,29.4,94.5,72.1,115.2l-61-167.3C-11,364.8-15,382.4-15,401z"/>
	<path d="M115.3,412.2L76.9,523.8c11.5,3.4,23.6,5.2,36.2,5.2c14.9,0,29.2-2.6,42.5-7.3c-0.3-0.6-0.7-1.1-0.9-1.7L115.3,412.2z"/>
	<path d="M226.2,352.7c0,13-2.4,27.6-9.7,45.8l-39.1,113c38-22.2,63.6-63.4,63.6-110.6c0-22.3-5.7-43.2-15.7-61.4
		C225.9,343.7,226.2,348,226.2,352.7z"/>
	<path d="M199.4,394.5c0-15.8-5.7-26.8-10.6-35.3c-6.5-10.5-12.6-19.5-12.6-30c0-11.8,8.9-22.7,21.5-22.7c0.5,0,1.1,0.1,1.6,0.1
		c-22.8-20.9-53.1-33.6-86.4-33.6c-44.7,0-84.1,23-107,57.7c3,0.1,5.8,0.2,8.2,0.2c13.4,0,34.1-1.6,34.1-1.6
		c6.9-0.4,7.7,9.7,0.8,10.6c0,0-6.9,0.8-14.6,1.2L81,479.7l28-84l-20-54.6c-6.9-0.4-13.4-1.2-13.4-1.2c-6.9-0.4-6.1-11,0.8-10.6
		c0,0,21.1,1.6,33.7,1.6c13.4,0,34.1-1.6,34.1-1.6c6.9-0.4,7.7,9.7,0.8,10.6c0,0-6.9,0.8-14.6,1.2l46.3,137.6l12.8-42.6
		C196.2,419.3,199.4,405.5,199.4,394.5z"/>
</g>
</svg>
