<?xml version="1.0" encoding="utf-8"?>
<!-- Generator: Adobe Illustrator 19.1.0, SVG Export Plug-In . SVG Version: 6.00 Build 0)  -->
<svg version="1.1" id="Layer_1" xmlns="http://www.w3.org/2000/svg" xmlns:xlink="http://www.w3.org/1999/xlink" x="0px" y="0px"
	 viewBox="-143 145 512 512" style="enable-background:new -143 145 512 512;" xml:space="preserve">
<g>
	<path d="M329,145h-432c-22.1,0-40,17.9-40,40v432c0,22.1,17.9,40,40,40h432c22.1,0,40-17.9,40-40V185C369,162.9,351.1,145,329,145z
		 M339,617c0,5.5-4.5,10-10,10h-432c-5.5,0-10-4.5-10-10V185c0-5.5,4.5-10,10-10h432c5.5,0,10,4.5,10,10V617z"/>
	<path d="M115.3,412.2L76.9,523.8c11.5,3.4,23.6,5.2,36.2,5.2c14.9,0,29.2-2.6,42.5-7.3c-0.3-0.6-0.7-1.1-0.9-1.7L115.3,412.2z"/>
	<path d="M-15,401c0,50.6,29.4,94.5,72.1,115.2l-61-167.3C-11,364.8-15,382.4-15,401z"/>
	<path d="M226.2,352.7c0,13-2.4,27.6-9.7,45.8l-39.1,113c38-22.2,63.6-63.4,63.6-110.6c0-22.3-5.7-43.2-15.7-61.4
		C225.9,343.7,226.2,348,226.2,352.7z"/>
	<path d="M199.4,394.5c0-15.8-5.7-26.8-10.6-35.3c-6.5-10.5-12.6-19.5-12.6-30c0-11.8,8.9-22.7,21.5-22.7c0.5,0,1.1,0.1,1.6,0.1
		c-22.8-20.9-53.1-33.6-86.4-33.6c-44.7,0-84.1,23-107,57.7c3,0.1,5.8,0.2,8.2,0.2c13.4,0,34.1-1.6,34.1-1.6
		c6.9-0.4,7.7,9.7,0.8,10.6c0,0-6.9,0.8-14.6,1.2L81,479.7l28-84l-20-54.6c-6.9-0.4-13.4-1.2-13.4-1.2c-6.9-0.4-6.1-11,0.8-10.6
		c0,0,21.1,1.6,33.7,1.6c13.4,0,34.1-1.6,34.1-1.6c6.9-0.4,7.7,9.7,0.8,10.6c0,0-6.9,0.8-14.6,1.2l46.3,137.6l12.8-42.6
		C196.2,419.3,199.4,405.5,199.4,394.5z"/>
</g>
</svg>
