<?xml version="1.0" encoding="utf-8"?>
<!-- Generator: Adobe Illustrator 19.1.0, SVG Export Plug-In . SVG Version: 6.00 Build 0)  -->
<svg version="1.1" id="Layer_1" xmlns="http://www.w3.org/2000/svg" xmlns:xlink="http://www.w3.org/1999/xlink" x="0px" y="0px"
	 viewBox="-143 145 512 512" style="enable-background:new -143 145 512 512;" xml:space="preserve">
<path d="M-143,145v512h512V145H-143z M-15,401c0-18.6,4-36.2,11.1-52.1l61.1,167.3C14.4,495.5-15,451.6-15,401z M113,529
	c-12.6,0-24.7-1.8-36.2-5.2l38.4-111.6L154.5,520c0.2,0.6,0.6,1.2,0.9,1.7C142.2,526.4,127.9,529,113,529z M130.7,341
	c7.7-0.4,14.6-1.2,14.6-1.2c6.9-0.8,6.1-11-0.8-10.6c0,0-20.8,1.6-34.1,1.6c-12.6,0-33.7-1.6-33.7-1.6c-6.9-0.4-7.7,10.1-0.8,10.6
	c0,0,6.5,0.8,13.4,1.2l20,54.6l-28,84L34.7,341c7.7-0.4,14.6-1.2,14.6-1.2c6.9-0.8,6.1-11-0.8-10.6c0,0-20.7,1.6-34.1,1.6
	c-2.4,0-5.2-0.1-8.2-0.2c22.9-34.7,62.2-57.7,107-57.7c33.3,0,63.7,12.8,86.4,33.6c-0.6,0-1.1-0.1-1.6-0.1
	c-12.6,0-21.5,11-21.5,22.7c0,10.6,6.1,19.5,12.6,30c4.9,8.5,10.6,19.5,10.6,35.3c0,11-3.3,24.7-9.7,41.4l-12.8,42.6L130.7,341z
	 M177.4,511.6l39.1-113c7.3-18.3,9.7-32.9,9.7-45.8c0-4.7-0.3-9.1-0.9-13.2c10,18.2,15.7,39.2,15.7,61.4
	C241,448.2,215.4,489.4,177.4,511.6z"/>
</svg>
