<?xml version="1.0" encoding="utf-8"?>
<!-- Generator: Adobe Illustrator 19.1.0, SVG Export Plug-In . SVG Version: 6.00 Build 0)  -->
<svg version="1.1" id="Layer_1" xmlns="http://www.w3.org/2000/svg" xmlns:xlink="http://www.w3.org/1999/xlink" x="0px" y="0px"
	 viewBox="-143 145 512 512" style="enable-background:new -143 145 512 512;" xml:space="preserve">
<g>
	<path d="M-143,145v512h512V145H-143z M339,627h-452V175h452V627z"/>
	<path d="M177.4,511.6c38-22.2,63.6-63.4,63.6-110.6c0-22.3-5.7-43.2-15.7-61.4c0.6,4.1,0.9,8.5,0.9,13.2c0,13-2.4,27.6-9.7,45.8
		L177.4,511.6z"/>
	<path d="M115.3,412.2L76.9,523.8c11.5,3.4,23.6,5.2,36.2,5.2c14.9,0,29.2-2.6,42.5-7.3c-0.3-0.6-0.7-1.1-0.9-1.7L115.3,412.2z"/>
	<path d="M57.2,516.2L-3.9,348.9C-11,364.8-15,382.4-15,401C-15,451.6,14.4,495.5,57.2,516.2z"/>
	<path d="M48.4,329.2c6.9-0.4,7.7,9.7,0.8,10.6c0,0-6.9,0.8-14.6,1.2l46.6,138.6l28-84l-20-54.6c-6.9-0.4-13.4-1.2-13.4-1.2
		c-6.9-0.4-6.1-11,0.8-10.6c0,0,21.1,1.6,33.7,1.6c13.4,0,34.1-1.6,34.1-1.6c6.9-0.4,7.7,9.7,0.8,10.6c0,0-6.9,0.8-14.6,1.2
		l46.3,137.6l12.8-42.6c6.5-16.6,9.7-30.4,9.7-41.4c0-15.8-5.7-26.8-10.6-35.3c-6.5-10.5-12.6-19.5-12.6-30
		c0-11.8,8.9-22.7,21.5-22.7c0.5,0,1.1,0.1,1.6,0.1c-22.8-20.9-53.1-33.6-86.4-33.6c-44.7,0-84.1,23-107,57.7c3,0.1,5.8,0.2,8.2,0.2
		C27.7,330.8,48.4,329.2,48.4,329.2z"/>
</g>
</svg>
