<?xml version="1.0" encoding="utf-8"?>
<!-- Generator: Adobe Illustrator 19.1.0, SVG Export Plug-In . SVG Version: 6.00 Build 0)  -->
<svg version="1.1" id="Layer_1" xmlns="http://www.w3.org/2000/svg" xmlns:xlink="http://www.w3.org/1999/xlink" x="0px" y="0px"
	 viewBox="-143 145 512 512" style="enable-background:new -143 145 512 512;" xml:space="preserve">
<path d="M113,145c-141.4,0-256,114.6-256,256s114.6,256,256,256s256-114.6,256-256S254.4,145,113,145z M191.2,362.3
	c-6.3,1.7-63.6,46-67.4,56.8c-0.8,3.8,0.1,40.2,0.9,45.6c3.8,0.9,31,0.1,36,1l-0.6,11.2c-4.9-0.4-39.5-0.3-59.3-0.3
	c-10,0-42.3,1.1-52.2,0.8l1.9-10.7c5.4-0.4,28,1,32.9-4.2c2.5-2.6,1.7-37.2,0.9-43c-2.1-6.3-52.3-69-65.4-79.2H-15v-15.8H99.1v1.1
	c0.1,0,0.3,0,0.4,0.1l-0.4,2.6v12H64.7c15.3,22.3,37.3,49.3,46.7,62.3l46-41.5H130l-3.9-15.7h100.1l-0.7,1.1c0.1,0,0.2,0,0.4,0
	l-7.1,10.3c-0.1,0-0.2,0-0.2,0l-2.9,4.2h-18.5C194.7,361.5,192.6,362,191.2,362.3z M221.4,477.5l-8.4-0.6l-7.8-0.7l-0.1-16.8
	l9.8,1.2l8.8,0.4L221.4,477.5z M223.1,449.5l-15.3-1.2l-0.4-71.1c3.5,0.7,30.6,3.2,33.6,3.3L223.1,449.5z"/>
</svg>
