<?xml version="1.0" encoding="utf-8"?>
<!-- Generator: Adobe Illustrator 19.1.0, SVG Export Plug-In . SVG Version: 6.00 Build 0)  -->
<svg version="1.1" id="Layer_1" xmlns="http://www.w3.org/2000/svg" xmlns:xlink="http://www.w3.org/1999/xlink" x="0px" y="0px"
	 viewBox="-143 145 512 512" style="enable-background:new -143 145 512 512;" xml:space="preserve">
<g>
	<path d="M113,145c-141.4,0-256,114.6-256,256s114.6,256,256,256s256-114.6,256-256S254.4,145,113,145z M272.8,560.7
		c-20.8,20.8-44.9,37.1-71.8,48.4c-27.8,11.8-57.4,17.7-88,17.7c-30.5,0-60.1-6-88-17.7c-26.9-11.4-51.1-27.7-71.8-48.4
		c-20.8-20.8-37.1-44.9-48.4-71.8C-107,461.1-113,431.5-113,401s6-60.1,17.7-88c11.4-26.9,27.7-51.1,48.4-71.8
		c20.9-20.8,45-37.1,71.9-48.5C52.9,181,82.5,175,113,175s60.1,6,88,17.7c26.9,11.4,51.1,27.7,71.8,48.4
		c20.8,20.8,37.1,44.9,48.4,71.8c11.8,27.8,17.7,57.4,17.7,88c0,30.5-6,60.1-17.7,88C309.8,515.8,293.5,540,272.8,560.7z"/>
	<path d="M218.5,356.8c0.1,0,0.2,0,0.2,0l7.1-10.3c-0.1,0-0.3,0-0.4,0l0.7-1.1h-99.9l3.9,15.7h27.3l-46,41.5
		c-9.4-13-31.4-39.9-46.7-62.3h34.4v-12l0.4-2.6c-0.1,0-0.3-0.1-0.4-0.1v-1.1H-15v15.8h33.8c13.1,10.3,63.4,73,65.4,79.2
		c0.8,5.9,1.6,40.4-0.9,43c-4.9,5.2-27.5,3.8-32.9,4.2l-1.9,10.7c9.9,0.3,42.2-0.8,52.2-0.8c19.8,0,54.4-0.1,59.3,0.3l0.6-11.2
		c-5-0.8-32.3-0.1-36-1c-0.8-5.4-1.7-41.8-0.9-45.6c3.9-10.9,61.2-55.1,67.5-56.8c1.4-0.3,3.5-0.8,5.9-1.3h18.5L218.5,356.8z"/>
	<path d="M207.8,448.3l15.3,1.2l17.9-69c-3-0.1-30.1-2.7-33.6-3.3L207.8,448.3z"/>
	<polygon points="205.2,459.4 205.3,476.2 213,476.9 221.4,477.5 223.9,461 215,460.6 	"/>
</g>
</svg>
