<?xml version="1.0" standalone="no"?>
<!DOCTYPE svg PUBLIC "-//W3C//DTD SVG 1.1//EN" "http://www.w3.org/Graphics/SVG/1.1/DTD/svg11.dtd" >
<svg xmlns="http://www.w3.org/2000/svg">
<defs>
<font id="dcSocial" horiz-adv-x="1024">
<font-face units-per-em="1024" ascent="960" descent="-64" />
<missing-glyph horiz-adv-x="1024" />
<glyph unicode="&#x20;" horiz-adv-x="512" d="" />
<glyph unicode="&#xe900;" glyph-name="amazon" d="M876.342 130.876c-5.202 0-10.404-1.2-15.206-3.601-5.602-2.401-11.204-4.802-16.406-6.803l-7.603-3.201-10.004-4.002c-110.043-44.417-225.288-70.828-332.13-72.828-4.002 0-8.003 0-11.605 0-168.066 0-304.919 78.030-443.373 154.46-4.802 2.401-9.604 4.002-14.406 4.002-6.403 0-12.405-2.401-17.207-6.803s-7.603-10.804-7.203-17.207c0-8.403 4.402-16.006 10.804-21.208 129.651-112.844 272.106-217.285 463.381-217.685 3.601 0 7.603 0 11.204 0 121.648 2.801 259.301 44.017 366.143 110.843l0.8 0.4c14.005 8.403 28.011 18.007 41.216 28.411 8.003 6.002 14.005 15.606 14.005 25.61-1.601 17.607-16.406 29.612-32.413 29.612zM1024.4 192.9v0c-0.4 10.804-2.801 18.807-7.203 25.61l-0.8 1.601c-4.402 4.802-8.803 6.803-13.605 8.803-14.005 5.202-34.413 8.403-58.823 8.403-17.607 0-37.215-1.601-56.822-6.002v1.2l-19.608-6.403h-0.4l-11.204-3.601v-0.4c-13.205-5.602-24.81-12.005-36.014-20.008-6.803-5.202-12.405-12.005-12.805-22.409 0-5.602 2.801-12.005 7.603-16.006s10.404-5.202 15.206-5.202c1.2 0 2.401 0 3.201 0.4h1.601c9.604 2.001 23.609 3.201 40.016 5.602 14.005 1.601 29.211 2.801 42.016 2.801 9.204 0 17.607-0.4 23.209-2.001 2.801-0.4 4.802-1.2 6.002-2.001 0.4 0 0.8-0.4 0.8-0.4 0.4-0.8 0.4-2.801 0.4-5.602 0-10.804-4.402-30.812-10.804-50.42-6.002-19.608-13.605-39.215-18.407-52.42-1.2-3.201-2.001-6.403-2.001-10.004 0-5.202 2.001-11.605 6.403-16.006s10.404-6.002 15.206-6.002h0.4c7.203 0 13.605 2.801 18.807 7.203 50.020 44.818 67.226 116.846 68.027 157.261l-0.4 6.002zM567.021 675.089c-29.211-2.401-63.225-4.402-97.238-8.803-52.020-6.803-104.041-16.006-146.857-36.414-83.633-34.013-140.055-106.041-140.055-212.483 0-133.252 86.034-201.279 194.476-201.279 36.014 0 65.626 4.402 92.436 11.204 43.217 13.605 79.231 38.415 122.048 83.633 24.81-34.013 31.612-49.619 74.429-86.034 11.204-4.402 22.809-4.402 31.612 2.401 27.211 22.809 74.829 63.225 99.639 86.034 11.204 9.204 9.204 22.809 2.401 34.013-24.81 31.612-49.619 58.823-49.619 120.047v203.279c0 86.034 6.803 164.864-56.422 223.687-52.020 47.619-133.252 65.626-196.877 65.626h-27.211c-115.245-6.803-237.293-56.422-264.503-198.878-4.402-18.007 9.204-24.81 18.007-27.211l126.449-16.006c13.605 2.401 20.408 13.605 22.409 24.81 11.204 49.619 52.020 74.829 97.238 79.231h9.204c27.211 0 56.422-11.204 72.428-34.013 18.007-27.211 16.006-63.225 16.006-94.837v-18.007zM542.212 406.184c-16.006-31.612-42.817-52.020-72.428-58.823-4.402 0-11.204-2.401-18.007-2.401-49.619 0-79.231 38.415-79.231 94.837 0 72.428 42.817 106.442 97.238 122.048 29.211 6.803 63.225 9.204 97.238 9.204v-27.211c0-52.020 2.401-92.436-24.81-137.654z" />
<glyph unicode="&#xe901;" glyph-name="amazon-round" d="M512 960c-282.8 0-512-229.2-512-512s229.2-512 512-512 512 229.2 512 512-229.2 512-512 512zM531.6 618c-7.8 11.4-22.6 17-36.2 17h-4.6c-22.6-2.2-43-14.6-48.6-39.6-1.2-5.6-4.6-11.2-11.2-12.4l-63.2 8c-4.6 1.2-11.4 4.4-9 13.6 13.6 71.2 74.6 96 132.2 99.4h13.6c31.6 0 72.4-9 98.4-32.8 31.6-29.4 28.2-68.8 28.2-111.8v-101.6c0-30.6 12.4-44 24.8-60 3.4-5.6 4.6-12.4-1.2-17-12.4-11.2-36.2-31.6-49.8-43-4.4-3.4-10.2-3.4-15.8-1.2-21.4 18-24.8 26-37.2 43-21.4-22.6-39.6-35-61-41.8-13.6-3.4-28.2-5.6-46.2-5.6-54.2 0-97.2 33.8-97.2 100.6 0 53 28.2 89.2 70 106.2 21.4 10.2 47.4 14.6 73.4 18.2 17 2.2 34 3.4 48.6 4.4v9c-0.2 15.8 1 34-8 47.4zM702.6 262.2c-6.6-5.2-13.6-10-20.6-14.2l-0.4-0.2c-53.4-33.6-122.2-54-183-55.4-1.8 0-3.8 0-5.6 0-95.6 0-166.8 52.4-231.6 108.8-3.2 2.6-5.4 6.4-5.4 10.6 0 3.2 1.4 6.4 3.6 8.6 2.4 2.2 5.4 3.4 8.6 3.4 2.4 0 4.8-0.6 7.2-2 69.2-38.4 137.6-77.4 221.6-77.2 2 0 3.8 0 5.8 0 53.4 1.2 111 14.2 166 36.4v0l5 2 3.8 1.6c2.6 1.2 5.4 2.4 8.2 3.4 2.4 1.2 5 1.8 7.6 1.8 8 0 15.4-6 15.6-14.8 0.6-5-2.2-9.8-6.4-12.8zM734 239c-2.6-2-5.8-3.6-9.4-3.6h-0.2c-2.4 0-5.2 0.8-7.6 3-2.2 2.2-3.4 5.2-3.2 8 0 1.8 0.4 3.4 1 5 2.4 6.6 6.2 16.4 9.2 26.2 3.2 9.8 5.4 19.8 5.4 25.2 0 1.4-0.2 2.4-0.2 2.8 0 0-0.2 0.2-0.4 0.2-0.6 0.2-1.6 0.6-3 1-2.8 0.6-7 1-11.6 1-6.4 0-14-0.6-21-1.4-8.2-1.2-15.2-1.8-20-2.8h-0.8c-0.4 0-1-0.2-1.6-0.2-2.4 0-5.2 0.6-7.6 2.6s-3.8 5.2-3.8 8c0.2 5.2 3 8.6 6.4 11.2 5.6 4 11.4 7.4 18 10v0.2l5.6 1.8h0.2l9.8 3.2v-0.6c9.8 2.2 19.6 3 28.4 3 12.2 0 22.4-1.4 29.4-4.2 2.4-1 4.6-2 6.8-4.4l0.4-0.8c2.2-3.4 3.4-7.4 3.6-12.8v0-3.2c0-20.2-8.8-56-33.8-78.4zM539.4 509.6c-17 0-34-1.2-48.6-4.6-27.2-8-48.6-24.8-48.6-61 0-28.2 14.6-47.4 39.6-47.4 3.4 0 6.8 1.2 9 1.2 14.6 3.4 28.2 13.6 36.2 29.4 13.6 22.6 12.4 43 12.4 69v13.4z" />
<glyph unicode="&#xe902;" glyph-name="amazon-round-border" d="M512 960c-282.8 0-512-229.2-512-512s229.2-512 512-512 512 229.2 512 512-229.2 512-512 512zM831.6 128.6c-41.6-41.6-89.8-74.2-143.6-96.8-55.6-23.6-114.8-35.4-176-35.4-61 0-120.2 12-176 35.4-53.8 22.8-102.2 55.4-143.6 96.8-41.6 41.6-74.2 89.8-96.8 143.6-23.6 55.6-35.6 114.8-35.6 175.8s12 120.2 35.4 176c22.8 53.8 55.4 102.2 96.8 143.6 41.8 41.6 90 74.2 143.8 97 55.8 23.4 115 35.4 176 35.4s120.2-12 176-35.4c53.8-22.8 102.2-55.4 143.6-96.8 41.6-41.6 74.2-89.8 96.8-143.6 23.6-55.6 35.4-114.8 35.4-176 0-61-12-120.2-35.4-176-22.8-53.8-55.4-102.2-96.8-143.6zM694 289.6c-2.6 0-5.2-0.6-7.6-1.8-2.8-1.2-5.6-2.4-8.2-3.4l-3.8-1.6-5-2c-55-22.2-112.6-35.4-166-36.4-2 0-4 0-5.8 0-84 0-152.4 39-221.6 77.2-2.4 1.2-4.8 2-7.2 2-3.2 0-6.2-1.2-8.6-3.4s-3.8-5.4-3.6-8.6c0-4.2 2.2-8 5.4-10.6 64.8-56.4 136-108.6 231.6-108.8 1.8 0 3.8 0 5.6 0 60.8 1.4 129.6 22 183 55.4l0.4 0.2c7 4.2 14 9 20.6 14.2 4 3 7 7.8 7 12.8-0.8 8.8-8.2 14.8-16.2 14.8zM768 320.6c-0.2 5.4-1.4 9.4-3.6 12.8l-0.4 0.8c-2.2 2.4-4.4 3.4-6.8 4.4-7 2.6-17.2 4.2-29.4 4.2-8.8 0-18.6-0.8-28.4-3v0.6l-9.8-3.2h-0.2l-5.6-1.8v-0.2c-6.6-2.8-12.4-6-18-10-3.4-2.6-6.2-6-6.4-11.2 0-2.8 1.4-6 3.8-8s5.2-2.6 7.6-2.6c0.6 0 1.2 0 1.6 0.2h0.8c4.8 1 11.8 1.6 20 2.8 7 0.8 14.6 1.4 21 1.4 4.6 0 8.8-0.2 11.6-1 1.4-0.2 2.4-0.6 3-1 0.2 0 0.4-0.2 0.4-0.2 0.2-0.4 0.2-1.4 0.2-2.8 0-5.4-2.2-15.4-5.4-25.2-3-9.8-6.8-19.6-9.2-26.2-0.6-1.6-1-3.2-1-5 0-2.6 1-5.8 3.2-8s5.2-3 7.6-3h0.2c3.6 0 6.8 1.4 9.4 3.6 25 22.4 33.6 58.4 34 78.6l-0.2 3zM539.4 561.6c-14.6-1.2-31.6-2.2-48.6-4.4-26-3.4-52-8-73.4-18.2-41.8-17-70-53-70-106.2 0-66.6 43-100.6 97.2-100.6 18 0 32.8 2.2 46.2 5.6 21.6 6.8 39.6 19.2 61 41.8 12.4-17 15.8-24.8 37.2-43 5.6-2.2 11.4-2.2 15.8 1.2 13.6 11.4 37.4 31.6 49.8 43 5.6 4.6 4.6 11.4 1.2 17-12.4 15.8-24.8 29.4-24.8 60v101.6c0 43 3.4 82.4-28.2 111.8-26 23.8-66.6 32.8-98.4 32.8h-13.6c-57.6-3.4-118.6-28.2-132.2-99.4-2.2-9 4.6-12.4 9-13.6l63.2-8c6.8 1.2 10.2 6.8 11.2 12.4 5.6 24.8 26 37.4 48.6 39.6h4.6c13.6 0 28.2-5.6 36.2-17 9-13.6 8-31.6 8-47.4v-9zM527 427.2c-8-15.8-21.4-26-36.2-29.4-2.2 0-5.6-1.2-9-1.2-24.8 0-39.6 19.2-39.6 47.4 0 36.2 21.4 53.2 48.6 61 14.6 3.4 31.6 4.6 48.6 4.6v-13.6c0-26 1.2-46.2-12.4-68.8z" />
<glyph unicode="&#xe903;" glyph-name="amazon-rounded" d="M539.4 509.6c-17 0-34-1.2-48.6-4.6-27.2-8-48.6-24.8-48.6-61 0-28.2 14.6-47.4 39.6-47.4 3.4 0 6.8 1.2 9 1.2 14.6 3.4 28.2 13.6 36.2 29.4 13.6 22.6 12.4 43 12.4 69v13.4zM944 960h-864c-44.2 0-80-35.8-80-80v-864c0-44.2 35.8-80 80-80h864c44.2 0 80 35.8 80 80v864c0 44.2-35.8 80-80 80zM531.6 618c-7.8 11.4-22.6 17-36.2 17h-4.6c-22.6-2.2-43-14.6-48.6-39.6-1.2-5.6-4.6-11.2-11.2-12.4l-63.2 8c-4.6 1.2-11.4 4.4-9 13.6 13.6 71.2 74.6 96 132.2 99.4h13.6c31.6 0 72.4-9 98.4-32.8 31.6-29.4 28.2-68.8 28.2-111.8v-101.6c0-30.6 12.4-44 24.8-60 3.4-5.6 4.6-12.4-1.2-17-12.4-11.2-36.2-31.6-49.8-43-4.4-3.4-10.2-3.4-15.8-1.2-21.4 18-24.8 26-37.2 43-21.4-22.6-39.6-35-61-41.8-13.6-3.4-28.2-5.6-46.2-5.6-54.2 0-97.2 33.8-97.2 100.6 0 53 28.2 89.2 70 106.2 21.4 10.2 47.4 14.6 73.4 18.2 17 2.2 34 3.4 48.6 4.4v9c-0.2 15.8 1 34-8 47.4zM702.6 262.2c-6.6-5.2-13.6-10-20.6-14.2l-0.4-0.2c-53.4-33.6-122.2-54-183-55.4-1.8 0-3.8 0-5.6 0-95.6 0-166.8 52.4-231.6 108.8-3.2 2.6-5.4 6.4-5.4 10.6 0 3.2 1.4 6.4 3.6 8.6 2.4 2.2 5.4 3.4 8.6 3.4 2.4 0 4.8-0.6 7.2-2 69.2-38.4 137.6-77.4 221.6-77.2 2 0 3.8 0 5.8 0 53.4 1.2 111 14.2 166 36.4v0l5 2 3.8 1.6c2.6 1.2 5.4 2.4 8.2 3.4 2.4 1.2 5 1.8 7.6 1.8 8 0 15.4-6 15.6-14.8 0.6-5-2.2-9.8-6.4-12.8zM734 239c-2.6-2-5.8-3.6-9.4-3.6h-0.2c-2.4 0-5.2 0.8-7.6 3-2.2 2.2-3.4 5.2-3.2 8 0 1.8 0.4 3.4 1 5 2.4 6.6 6.2 16.4 9.2 26.2 3.2 9.8 5.4 19.8 5.4 25.2 0 1.4-0.2 2.4-0.2 2.8 0 0-0.2 0.2-0.4 0.2-0.6 0.2-1.6 0.6-3 1-2.8 0.6-7 1-11.6 1-6.4 0-14-0.6-21-1.4-8.2-1.2-15.2-1.8-20-2.8h-0.8c-0.4 0-1-0.2-1.6-0.2-2.4 0-5.2 0.6-7.6 2.6s-3.8 5.2-3.8 8c0.2 5.2 3 8.6 6.4 11.2 5.6 4 11.4 7.4 18 10v0.2l5.6 1.8h0.2l9.8 3.2v-0.6c9.8 2.2 19.6 3 28.4 3 12.2 0 22.4-1.4 29.4-4.2 2.4-1 4.6-2 6.8-4.4l0.4-0.8c2.2-3.4 3.4-7.4 3.6-12.8v0-3.2c0-20.2-8.8-56-33.8-78.4z" />
<glyph unicode="&#xe904;" glyph-name="amazon-rounded-border" d="M944 960h-864c-44.2 0-80-35.8-80-80v-864c0-44.2 35.8-80 80-80h864c44.2 0 80 35.8 80 80v864c0 44.2-35.8 80-80 80zM964 16c0-11-9-20-20-20h-864c-11 0-20 9-20 20v864c0 11 9 20 20 20h864c11 0 20-9 20-20v-864zM694 289.6c-2.6 0-5.2-0.6-7.6-1.8-2.8-1.2-5.6-2.4-8.2-3.4l-3.8-1.6-5-2c-55-22.2-112.6-35.4-166-36.4-2 0-4 0-5.8 0-84 0-152.4 39-221.6 77.2-2.4 1.2-4.8 2-7.2 2-3.2 0-6.2-1.2-8.6-3.4s-3.8-5.4-3.6-8.6c0-4.2 2.2-8 5.4-10.6 64.8-56.4 136-108.6 231.6-108.8 1.8 0 3.8 0 5.6 0 60.8 1.4 129.6 22 183 55.4l0.4 0.2c7 4.2 14 9 20.6 14.2 4 3 7 7.8 7 12.8-0.8 8.8-8.2 14.8-16.2 14.8zM768 320.6c-0.2 5.4-1.4 9.4-3.6 12.8l-0.4 0.8c-2.2 2.4-4.4 3.4-6.8 4.4-7 2.6-17.2 4.2-29.4 4.2-8.8 0-18.6-0.8-28.4-3v0.6l-9.8-3.2h-0.2l-5.6-1.8v-0.2c-6.6-2.8-12.4-6-18-10-3.4-2.6-6.2-6-6.4-11.2 0-2.8 1.4-6 3.8-8s5.2-2.6 7.6-2.6c0.6 0 1.2 0 1.6 0.2h0.8c4.8 1 11.8 1.6 20 2.8 7 0.8 14.6 1.4 21 1.4 4.6 0 8.8-0.2 11.6-1 1.4-0.2 2.4-0.6 3-1 0.2 0 0.4-0.2 0.4-0.2 0.2-0.4 0.2-1.4 0.2-2.8 0-5.4-2.2-15.4-5.4-25.2-3-9.8-6.8-19.6-9.2-26.2-0.6-1.6-1-3.2-1-5 0-2.6 1-5.8 3.2-8s5.2-3 7.6-3h0.2c3.6 0 6.8 1.4 9.4 3.6 25 22.4 33.6 58.4 34 78.6l-0.2 3zM539.4 561.6c-14.6-1.2-31.6-2.2-48.6-4.4-26-3.4-52-8-73.4-18.2-41.8-17-70-53-70-106.2 0-66.6 43-100.6 97.2-100.6 18 0 32.8 2.2 46.2 5.6 21.6 6.8 39.6 19.2 61 41.8 12.4-17 15.8-24.8 37.2-43 5.6-2.2 11.4-2.2 15.8 1.2 13.6 11.4 37.4 31.6 49.8 43 5.6 4.6 4.6 11.4 1.2 17-12.4 15.8-24.8 29.4-24.8 60v101.6c0 43 3.4 82.4-28.2 111.8-26 23.8-66.6 32.8-98.4 32.8h-13.6c-57.6-3.4-118.6-28.2-132.2-99.4-2.2-9 4.6-12.4 9-13.6l63.2-8c6.8 1.2 10.2 6.8 11.2 12.4 5.6 24.8 26 37.4 48.6 39.6h4.6c13.6 0 28.2-5.6 36.2-17 9-13.6 8-31.6 8-47.4v-9zM527 427.2c-8-15.8-21.4-26-36.2-29.4-2.2 0-5.6-1.2-9-1.2-24.8 0-39.6 19.2-39.6 47.4 0 36.2 21.4 53.2 48.6 61 14.6 3.4 31.6 4.6 48.6 4.6v-13.6c0-26 1.2-46.2-12.4-68.8z" />
<glyph unicode="&#xe905;" glyph-name="amazon-square" d="M539.4 509.6c-17 0-34-1.2-48.6-4.6-27.2-8-48.6-24.8-48.6-61 0-28.2 14.6-47.4 39.6-47.4 3.4 0 6.8 1.2 9 1.2 14.6 3.4 28.2 13.6 36.2 29.4 13.6 22.6 12.4 43 12.4 69v13.4zM0 960v-1024h1024v1024h-1024zM531.6 618c-7.8 11.4-22.6 17-36.2 17h-4.6c-22.6-2.2-43-14.6-48.6-39.6-1.2-5.6-4.6-11.2-11.2-12.4l-63.2 8c-4.6 1.2-11.4 4.4-9 13.6 13.6 71.2 74.6 96 132.2 99.4h13.6c31.6 0 72.4-9 98.4-32.8 31.6-29.4 28.2-68.8 28.2-111.8v-101.6c0-30.6 12.4-44 24.8-60 3.4-5.6 4.6-12.4-1.2-17-12.4-11.2-36.2-31.6-49.8-43-4.4-3.4-10.2-3.4-15.8-1.2-21.4 18-24.8 26-37.2 43-21.4-22.6-39.6-35-61-41.8-13.6-3.4-28.2-5.6-46.2-5.6-54.2 0-97.2 33.8-97.2 100.6 0 53 28.2 89.2 70 106.2 21.4 10.2 47.4 14.6 73.4 18.2 17 2.2 34 3.4 48.6 4.4v9c-0.2 15.8 1 34-8 47.4zM702.6 262.2c-6.6-5.2-13.6-10-20.6-14.2l-0.4-0.2c-53.4-33.6-122.2-54-183-55.4-1.8 0-3.8 0-5.6 0-95.6 0-166.8 52.4-231.6 108.8-3.2 2.6-5.4 6.4-5.4 10.6 0 3.2 1.4 6.4 3.6 8.6 2.4 2.2 5.4 3.4 8.6 3.4 2.4 0 4.8-0.6 7.2-2 69.2-38.4 137.6-77.4 221.6-77.2 2 0 3.8 0 5.8 0 53.4 1.2 111 14.2 166 36.4v0l5 2 3.8 1.6c2.6 1.2 5.4 2.4 8.2 3.4 2.4 1.2 5 1.8 7.6 1.8 8 0 15.4-6 15.6-14.8 0.6-5-2.2-9.8-6.4-12.8zM734 239c-2.6-2-5.8-3.6-9.4-3.6h-0.2c-2.4 0-5.2 0.8-7.6 3-2.2 2.2-3.4 5.2-3.2 8 0 1.8 0.4 3.4 1 5 2.4 6.6 6.2 16.4 9.2 26.2 3.2 9.8 5.4 19.8 5.4 25.2 0 1.4-0.2 2.4-0.2 2.8 0 0-0.2 0.2-0.4 0.2-0.6 0.2-1.6 0.6-3 1-2.8 0.6-7 1-11.6 1-6.4 0-14-0.6-21-1.4-8.2-1.2-15.2-1.8-20-2.8h-0.8c-0.4 0-1-0.2-1.6-0.2-2.4 0-5.2 0.6-7.6 2.6s-3.8 5.2-3.8 8c0.2 5.2 3 8.6 6.4 11.2 5.6 4 11.4 7.4 18 10v0.2l5.6 1.8h0.2l9.8 3.2v-0.6c9.8 2.2 19.6 3 28.4 3 12.2 0 22.4-1.4 29.4-4.2 2.4-1 4.6-2 6.8-4.4l0.4-0.8c2.2-3.4 3.4-7.4 3.6-12.8v0-3.2c0-20.2-8.8-56-33.8-78.4z" />
<glyph unicode="&#xe906;" glyph-name="amazon-square-border" d="M0 960v-1024h1024v1024h-1024zM964-4h-904v904h904v-904zM261.4 300.8c64.8-56.4 136-108.6 231.6-108.8 1.8 0 3.8 0 5.6 0 60.8 1.4 129.6 22 183 55.4l0.4 0.2c7 4.2 14 9 20.6 14.2 4 3 7 7.8 7 12.8-0.2 8.8-7.6 14.8-15.6 14.8-2.6 0-5.2-0.6-7.6-1.8-2.8-1.2-5.6-2.4-8.2-3.4l-3.8-1.6-5-2c-55-22.2-112.6-35.4-166-36.4-2 0-4 0-5.8 0-84 0-152.4 39-221.6 77.2-2.4 1.2-4.8 2-7.2 2-3.2 0-6.2-1.2-8.6-3.4s-3.8-5.4-3.6-8.6c-0.6-4.2 1.6-8 4.8-10.6zM663 305.8c2.4-2 5.2-2.6 7.6-2.6 0.6 0 1.2 0 1.6 0.2h0.8c4.8 1 11.8 1.6 20 2.8 7 0.8 14.6 1.4 21 1.4 4.6 0 8.8-0.2 11.6-1 1.4-0.2 2.4-0.6 3-1 0.2 0 0.4-0.2 0.4-0.2 0.2-0.4 0.2-1.4 0.2-2.8 0-5.4-2.2-15.4-5.4-25.2-3-9.8-6.8-19.6-9.2-26.2-0.6-1.6-1-3.2-1-5 0-2.6 1-5.8 3.2-8s5.2-3 7.6-3h0.2c3.6 0 6.8 1.4 9.4 3.6 25 22.4 33.6 58.4 34 78.6v3.2c-0.2 5.4-1.4 9.4-3.6 12.8l-0.4 0.8c-2.2 2.4-4.4 3.4-6.8 4.4-7 2.6-17.2 4.2-29.4 4.2-8.8 0-18.6-0.8-28.4-3v0.6l-9.8-3.2h-0.2l-5.6-1.8v-0.2c-6.6-2.8-12.4-6-18-10-3.4-2.6-6.2-6-6.4-11.2-0.2-3 1.2-6.4 3.6-8.2zM539.4 561.6c-14.6-1.2-31.6-2.2-48.6-4.4-26-3.4-52-8-73.4-18.2-41.8-17-70-53-70-106.2 0-66.6 43-100.6 97.2-100.6 18 0 32.8 2.2 46.2 5.6 21.6 6.8 39.6 19.2 61 41.8 12.4-17 15.8-24.8 37.2-43 5.6-2.2 11.4-2.2 15.8 1.2 13.6 11.4 37.4 31.6 49.8 43 5.6 4.6 4.6 11.4 1.2 17-12.4 15.8-24.8 29.4-24.8 60v101.6c0 43 3.4 82.4-28.2 111.8-26 23.8-66.6 32.8-98.4 32.8h-13.6c-57.6-3.4-118.6-28.2-132.2-99.4-2.2-9 4.6-12.4 9-13.6l63.2-8c6.8 1.2 10.2 6.8 11.2 12.4 5.6 24.8 26 37.4 48.6 39.6h4.6c13.6 0 28.2-5.6 36.2-17 9-13.6 8-31.6 8-47.4v-9zM527 427.2c-8-15.8-21.4-26-36.2-29.4-2.2 0-5.6-1.2-9-1.2-24.8 0-39.6 19.2-39.6 47.4 0 36.2 21.4 53.2 48.6 61 14.6 3.4 31.6 4.6 48.6 4.6v-13.6c0-26 1.2-46.2-12.4-68.8z" />
<glyph unicode="&#xe907;" glyph-name="android" d="M648.4 874.4l11.2 16.8 11.2 16.4 24.8 37.2c3.2 4.4 2 10.8-2.8 13.6-4.4 3.2-10.8 2-13.6-2.8l-48.8-73.2c-36 14-75.6 21.6-118 21.6-42 0-82-7.6-118-21.6l-48.8 73.2c-3.2 4.4-9.2 5.6-13.6 2.8-4.4-3.2-5.6-9.2-2.8-13.6l24.8-37.2 11.2-16.4 11.2-16.8c-84-39.2-141.2-113.2-141.2-198.4h554.8c-0.4 85.2-57.2 159.2-141.6 198.4zM393.2 755.6c-16.4 0-29.6 13.2-29.6 29.6s13.2 29.6 29.6 29.6c16.4 0 29.6-13.2 29.6-29.6s-13.2-29.6-29.6-29.6zM630.8 755.6c-16.4 0-29.6 13.2-29.6 29.6s13.2 29.6 29.6 29.6c16.4 0 29.6-13.2 29.6-29.6 0.4-16.4-12.8-29.6-29.6-29.6zM238.8 636.8l-4.4-0.4v-436c0-34.8 28-62.8 62.8-62.8h45.2c-1.6-5.2-2.4-10.8-2.4-16.4v-125.6c0-32.8 26.8-59.6 59.6-59.6s59.6 26.8 59.6 59.6v125.6c0 5.6-0.8 11.2-2.4 16.4h110.4c-1.6-5.2-2.4-10.8-2.4-16.4v-125.6c0-32.8 26.8-59.6 59.6-59.6s59.6 26.8 59.6 59.6v125.6c0 5.6-0.8 11.2-2.4 16.4h45.2c34.8 0 62.8 28 62.8 62.8v436.4h-550.8zM135.6 636.4c-32.8 0-59.6-26.8-59.6-59.6v-254.4c0-32.8 26.8-59.6 59.6-59.6s59.6 26.8 59.6 59.6v254.4c-0.4 33.2-26.8 59.6-59.6 59.6zM888.8 636.4c-32.8 0-59.6-26.8-59.6-59.6v-254.4c0-32.8 26.8-59.6 59.6-59.6s59.6 26.8 59.6 59.6v254.4c-0.4 33.2-26.8 59.6-59.6 59.6z" />
<glyph unicode="&#xe908;" glyph-name="android-round" d="M460.8 629.6c-8.2 0-14.8-6.6-14.8-14.8s6.6-14.8 14.8-14.8c8.2 0 14.8 6.6 14.8 14.8s-6.6 14.8-14.8 14.8zM579.6 629.6c-8.2 0-14.8-6.6-14.8-14.8s6.6-14.8 14.8-14.8c8.2 0 14.8 6.6 14.8 14.8 0.2 8.2-6.4 14.8-14.8 14.8zM512 960c-282.8 0-512-229.2-512-512s229.2-512 512-512 512 229.2 512 512-229.2 512-512 512zM361.6 383.6c0-16.4-13.4-29.8-29.8-29.8s-29.8 13.4-29.8 29.8v127.2c0 16.4 13.4 29.8 29.8 29.8s29.8-13.4 29.8-29.8v-127.2zM659 515.8v-193.4c0-17.4-14-31.4-31.4-31.4h-22.6c0.8-2.6 1.2-5.4 1.2-8.2v-62.8c0-16.4-13.4-29.8-29.8-29.8s-29.8 13.4-29.8 29.8v62.8c0 2.8 0.4 5.6 1.2 8.2h-55.2c0.8-2.6 1.2-5.4 1.2-8.2v-62.8c0-16.4-13.4-29.8-29.8-29.8s-29.8 13.4-29.8 29.8v62.8c0 2.8 0.4 5.6 1.2 8.2h-22.6c-17.4 0-31.4 14-31.4 31.4v218.2h277.6v-24.8zM381.4 560.2c0 42.4 28.4 79.6 70.6 99.2l-5.6 8.4-5.6 8.2-12.4 18.6c-1.4 2.2-0.8 5.4 1.4 6.8 2.2 1.6 5.4 0.8 6.8-1.4l24.4-36.6c18 7 37.8 10.8 59 10.8 21 0 41-3.8 59-10.8l24.4 36.6c1.4 2.2 4.6 3 6.8 1.4s3-4.6 1.4-6.8l-12.4-18.6-5.2-8.2-5.6-8.4c42-19.6 70.4-56.6 70.4-99.2h-277.4zM738.2 383.6c0-16.4-13.4-29.8-29.8-29.8s-29.8 13.4-29.8 29.8v127.2c0 16.4 13.4 29.8 29.8 29.8s29.8-13.4 29.8-29.8v-127.2z" />
<glyph unicode="&#xe909;" glyph-name="android-round-border" d="M512 960c-282.8 0-512-229.2-512-512s229.2-512 512-512 512 229.2 512 512-229.2 512-512 512zM831.6 128.6c-41.6-41.6-89.8-74.2-143.6-96.8-55.6-23.6-114.8-35.4-176-35.4-61 0-120.2 12-176 35.4-53.8 22.8-102.2 55.4-143.6 96.8-41.6 41.6-74.2 89.8-96.8 143.6-23.6 55.6-35.6 114.8-35.6 175.8s12 120.2 35.4 176c22.8 53.8 55.4 102.2 96.8 143.6 41.8 41.6 90 74.2 143.8 97 55.8 23.4 115 35.4 176 35.4s120.2-12 176-35.4c53.8-22.8 102.2-55.4 143.6-96.8 41.6-41.6 74.2-89.8 96.8-143.6 23.6-55.6 35.4-114.8 35.4-176 0-61-12-120.2-35.4-176-22.8-53.8-55.4-102.2-96.8-143.6zM588.4 659.4l5.6 8.4 5.6 8.2 12.4 18.6c1.6 2.2 1 5.4-1.4 6.8-2.2 1.6-5.4 1-6.8-1.4l-24.4-36.6c-18 7-37.8 10.8-59 10.8-21 0-41-3.8-59-10.8l-24.4 36.6c-1.6 2.2-4.6 2.8-6.8 1.4-2.2-1.6-2.8-4.6-1.4-6.8l12.4-18.6 5.6-8.2 5.6-8.4c-42-19.6-70.6-56.6-70.6-99.2h277.4c-0.2 42.6-28.6 79.6-70.8 99.2zM460.8 600c-8.2 0-14.8 6.6-14.8 14.8s6.6 14.8 14.8 14.8c8.2 0 14.8-6.6 14.8-14.8s-6.6-14.8-14.8-14.8zM579.6 600c-8.2 0-14.8 6.6-14.8 14.8s6.6 14.8 14.8 14.8c8.2 0 14.8-6.6 14.8-14.8 0.2-8.2-6.4-14.8-14.8-14.8zM383.6 540.4h-2.2v-218c0-17.4 14-31.4 31.4-31.4h22.6c-0.8-2.6-1.2-5.4-1.2-8.2v-62.8c0-16.4 13.4-29.8 29.8-29.8s29.8 13.4 29.8 29.8v62.8c0 2.8-0.4 5.6-1.2 8.2h55.2c-0.8-2.6-1.2-5.4-1.2-8.2v-62.8c0-16.4 13.4-29.8 29.8-29.8s29.8 13.4 29.8 29.8v62.8c0 2.8-0.4 5.6-1.2 8.2h22.6c17.4 0 31.4 14 31.4 31.4v218.2l-275.4-0.2zM332 540.4c-16.4 0-29.8-13.4-29.8-29.8v-127.2c0-16.4 13.4-29.8 29.8-29.8s29.8 13.4 29.8 29.8v127.2c-0.2 16.6-13.4 29.8-29.8 29.8zM708.6 540.4c-16.4 0-29.8-13.4-29.8-29.8v-127.2c0-16.4 13.4-29.8 29.8-29.8s29.8 13.4 29.8 29.8v127.2c-0.2 16.6-13.4 29.8-29.8 29.8z" />
<glyph unicode="&#xe90a;" glyph-name="android-rounded" d="M579.6 629.6c-8.2 0-14.8-6.6-14.8-14.8s6.6-14.8 14.8-14.8c8.2 0 14.8 6.6 14.8 14.8 0.2 8.2-6.4 14.8-14.8 14.8zM460.8 629.6c-8.2 0-14.8-6.6-14.8-14.8s6.6-14.8 14.8-14.8c8.2 0 14.8 6.6 14.8 14.8s-6.6 14.8-14.8 14.8zM944 960h-864c-44.2 0-80-35.8-80-80v-864c0-44.2 35.8-80 80-80h864c44.2 0 80 35.8 80 80v864c0 44.2-35.8 80-80 80zM361.6 383.6c0-16.4-13.4-29.8-29.8-29.8s-29.8 13.4-29.8 29.8v127.2c0 16.4 13.4 29.8 29.8 29.8s29.8-13.4 29.8-29.8v-127.2zM659 515.8v-193.4c0-17.4-14-31.4-31.4-31.4h-22.6c0.8-2.6 1.2-5.4 1.2-8.2v-62.8c0-16.4-13.4-29.8-29.8-29.8s-29.8 13.4-29.8 29.8v62.8c0 2.8 0.4 5.6 1.2 8.2h-55.2c0.8-2.6 1.2-5.4 1.2-8.2v-62.8c0-16.4-13.4-29.8-29.8-29.8s-29.8 13.4-29.8 29.8v62.8c0 2.8 0.4 5.6 1.2 8.2h-22.6c-17.4 0-31.4 14-31.4 31.4v218.2h277.6v-24.8zM381.4 560.2c0 42.4 28.4 79.6 70.6 99.2l-5.6 8.4-5.6 8.2-12.4 18.6c-1.4 2.2-0.8 5.4 1.4 6.8 2.2 1.6 5.4 0.8 6.8-1.4l24.4-36.6c18 7 37.8 10.8 59 10.8 21 0 41-3.8 59-10.8l24.4 36.6c1.4 2.2 4.6 3 6.8 1.4s3-4.6 1.4-6.8l-12.4-18.6-5.2-8.2-5.6-8.4c42-19.6 70.4-56.6 70.4-99.2h-277.4zM738.2 383.6c0-16.4-13.4-29.8-29.8-29.8s-29.8 13.4-29.8 29.8v127.2c0 16.4 13.4 29.8 29.8 29.8s29.8-13.4 29.8-29.8v-127.2z" />
<glyph unicode="&#xe90b;" glyph-name="android-rounded-border" d="M944 960h-864c-44.2 0-80-35.8-80-80v-864c0-44.2 35.8-80 80-80h864c44.2 0 80 35.8 80 80v864c0 44.2-35.8 80-80 80zM964 16c0-11-9-20-20-20h-864c-11 0-20 9-20 20v864c0 11 9 20 20 20h864c11 0 20-9 20-20v-864zM588.4 659.4l5.6 8.4 5.6 8.2 12.4 18.6c1.6 2.2 1 5.4-1.4 6.8-2.2 1.6-5.4 1-6.8-1.4l-24.4-36.6c-18 7-37.8 10.8-59 10.8-21 0-41-3.8-59-10.8l-24.4 36.6c-1.6 2.2-4.6 2.8-6.8 1.4-2.2-1.6-2.8-4.6-1.4-6.8l12.4-18.6 5.6-8.2 5.6-8.4c-42-19.6-70.6-56.6-70.6-99.2h277.4c-0.2 42.6-28.6 79.6-70.8 99.2zM460.8 600c-8.2 0-14.8 6.6-14.8 14.8s6.6 14.8 14.8 14.8c8.2 0 14.8-6.6 14.8-14.8s-6.6-14.8-14.8-14.8zM579.6 600c-8.2 0-14.8 6.6-14.8 14.8s6.6 14.8 14.8 14.8c8.2 0 14.8-6.6 14.8-14.8 0.2-8.2-6.4-14.8-14.8-14.8zM383.6 540.4h-2.2v-218c0-17.4 14-31.4 31.4-31.4h22.6c-0.8-2.6-1.2-5.4-1.2-8.2v-62.8c0-16.4 13.4-29.8 29.8-29.8s29.8 13.4 29.8 29.8v62.8c0 2.8-0.4 5.6-1.2 8.2h55.2c-0.8-2.6-1.2-5.4-1.2-8.2v-62.8c0-16.4 13.4-29.8 29.8-29.8s29.8 13.4 29.8 29.8v62.8c0 2.8-0.4 5.6-1.2 8.2h22.6c17.4 0 31.4 14 31.4 31.4v218.2l-275.4-0.2zM332 540.4c-16.4 0-29.8-13.4-29.8-29.8v-127.2c0-16.4 13.4-29.8 29.8-29.8s29.8 13.4 29.8 29.8v127.2c-0.2 16.6-13.4 29.8-29.8 29.8zM708.6 540.4c-16.4 0-29.8-13.4-29.8-29.8v-127.2c0-16.4 13.4-29.8 29.8-29.8s29.8 13.4 29.8 29.8v127.2c-0.2 16.6-13.4 29.8-29.8 29.8z" />
<glyph unicode="&#xe90c;" glyph-name="android-square" d="M460.8 629.6c-8.2 0-14.8-6.6-14.8-14.8s6.6-14.8 14.8-14.8c8.2 0 14.8 6.6 14.8 14.8s-6.6 14.8-14.8 14.8zM579.6 629.6c-8.2 0-14.8-6.6-14.8-14.8s6.6-14.8 14.8-14.8c8.2 0 14.8 6.6 14.8 14.8 0.2 8.2-6.4 14.8-14.8 14.8zM0 960v-1024h1024v1024h-1024zM361.6 383.6c0-16.4-13.4-29.8-29.8-29.8s-29.8 13.4-29.8 29.8v127.2c0 16.4 13.4 29.8 29.8 29.8s29.8-13.4 29.8-29.8v-127.2zM659 515.8v-193.4c0-17.4-14-31.4-31.4-31.4h-22.6c0.8-2.6 1.2-5.4 1.2-8.2v-62.8c0-16.4-13.4-29.8-29.8-29.8s-29.8 13.4-29.8 29.8v62.8c0 2.8 0.4 5.6 1.2 8.2h-55.2c0.8-2.6 1.2-5.4 1.2-8.2v-62.8c0-16.4-13.4-29.8-29.8-29.8s-29.8 13.4-29.8 29.8v62.8c0 2.8 0.4 5.6 1.2 8.2h-22.6c-17.4 0-31.4 14-31.4 31.4v218.2h277.6v-24.8zM381.4 560.2c0 42.4 28.4 79.6 70.6 99.2l-5.6 8.4-5.6 8.2-12.4 18.6c-1.4 2.2-0.8 5.4 1.4 6.8 2.2 1.6 5.4 0.8 6.8-1.4l24.4-36.6c18 7 37.8 10.8 59 10.8 21 0 41-3.8 59-10.8l24.4 36.6c1.4 2.2 4.6 3 6.8 1.4s3-4.6 1.4-6.8l-12.4-18.6-5.2-8.2-5.6-8.4c42-19.6 70.4-56.6 70.4-99.2h-277.4zM738.2 383.6c0-16.4-13.4-29.8-29.8-29.8s-29.8 13.4-29.8 29.8v127.2c0 16.4 13.4 29.8 29.8 29.8s29.8-13.4 29.8-29.8v-127.2z" />
<glyph unicode="&#xe90d;" glyph-name="android-square-border" d="M0 960v-1024h1024v1024h-1024zM964-4h-904v904h904v-904zM588.4 659.4l5.6 8.4 5.6 8.2 12.4 18.6c1.6 2.2 1 5.4-1.4 6.8-2.2 1.6-5.4 1-6.8-1.4l-24.4-36.6c-18 7-37.8 10.8-59 10.8-21 0-41-3.8-59-10.8l-24.4 36.6c-1.6 2.2-4.6 2.8-6.8 1.4-2.2-1.6-2.8-4.6-1.4-6.8l12.4-18.6 5.6-8.2 5.6-8.4c-42-19.6-70.6-56.6-70.6-99.2h277.4c-0.2 42.6-28.6 79.6-70.8 99.2zM460.8 600c-8.2 0-14.8 6.6-14.8 14.8s6.6 14.8 14.8 14.8c8.2 0 14.8-6.6 14.8-14.8s-6.6-14.8-14.8-14.8zM579.6 600c-8.2 0-14.8 6.6-14.8 14.8s6.6 14.8 14.8 14.8c8.2 0 14.8-6.6 14.8-14.8 0.2-8.2-6.4-14.8-14.8-14.8zM412.8 291h22.6c-0.8-2.6-1.2-5.4-1.2-8.2v-62.8c0-16.4 13.4-29.8 29.8-29.8s29.8 13.4 29.8 29.8v62.8c0 2.8-0.4 5.6-1.2 8.2h55.2c-0.8-2.6-1.2-5.4-1.2-8.2v-62.8c0-16.4 13.4-29.8 29.8-29.8s29.8 13.4 29.8 29.8v62.8c0 2.8-0.4 5.6-1.2 8.2h22.6c17.4 0 31.4 14 31.4 31.4v218.2h-277.6v-218.2c0-17.2 14.2-31.4 31.4-31.4zM332 353.8c16.4 0 29.8 13.4 29.8 29.8v127.2c0 16.4-13.4 29.8-29.8 29.8s-29.8-13.4-29.8-29.8v-127.2c0-16.4 13.4-29.8 29.8-29.8zM708.6 353.8c16.4 0 29.8 13.4 29.8 29.8v127.2c0 16.4-13.4 29.8-29.8 29.8s-29.8-13.4-29.8-29.8v-127.2c0-16.4 13.2-29.8 29.8-29.8z" />
<glyph unicode="&#xe90e;" glyph-name="apple" d="M952 208.8c-24-53.2-35.6-77.2-66.4-124-43.2-65.6-104-147.6-179.6-148.4-67.2-0.8-84.4 43.6-175.2 43.2s-110-44-177.2-43.2c-75.6 0.8-133.2 74.8-176.4 140.4-120.8 184-133.6 399.6-58.8 514.4 52.8 81.6 136.4 129.2 215.2 129.2 80 0 130-44 196.4-44 64 0 103.2 44 195.6 44 70 0 144-38 196.8-104-173.2-94.8-145.2-341.6 29.6-407.6v0zM655.2 793.6c33.6 43.2 59.2 104 50 166.4-54.8-3.6-119.2-38.8-156.4-84.4-34-41.2-62-102.4-51.2-162 59.6-2 121.6 34 157.6 80v0z" />
<glyph unicode="&#xe90f;" glyph-name="apple-round" d="M512 960c-282.8 0-512-229.2-512-512s229.2-512 512-512 512 229.2 512 512-229.2 512-512 512zM530.2 675.8c18.8 22.8 50.8 40.2 78.2 42.2 4.6-31.2-8.2-61.6-25-83.2-18-23.2-49-41-79-40-5.2 29.8 8.8 60.4 25.8 81zM698.8 280.2c-21.6-32.8-52-73.8-89.8-74.2-33.6-0.4-42.2 21.8-87.6 21.6s-55-22-88.6-21.6c-37.8 0.4-66.6 37.4-88.2 70.2-60.4 92-66.8 199.8-29.4 257.2 26.4 40.8 68.2 64.6 107.6 64.6 40 0 65-22 98.2-22 32 0 51.6 22 97.8 22 35 0 72-19 98.4-52-86.4-47.4-72.4-170.8 15-203.8-12.2-26.4-18-38.4-33.4-62z" />
<glyph unicode="&#xe910;" glyph-name="apple-round-border" d="M512 960c-282.8 0-512-229.2-512-512s229.2-512 512-512 512 229.2 512 512-229.2 512-512 512zM831.6 128.6c-41.6-41.6-89.8-74.2-143.6-96.8-55.6-23.6-114.8-35.4-176-35.4-61 0-120.2 12-176 35.4-53.8 22.8-102.2 55.4-143.6 96.8-41.6 41.6-74.2 89.8-96.8 143.6-23.6 55.6-35.6 114.8-35.6 175.8s12 120.2 35.4 176c22.8 53.8 55.4 102.2 96.8 143.6 41.8 41.6 90 74.2 143.8 97 55.8 23.4 115 35.4 176 35.4s120.2-12 176-35.4c53.8-22.8 102.2-55.4 143.6-96.8 41.6-41.6 74.2-89.8 96.8-143.6 23.6-55.6 35.4-114.8 35.4-176 0-61-12-120.2-35.4-176-22.8-53.8-55.4-102.2-96.8-143.6zM717.2 546.2c-26.4 33-63.4 52-98.4 52-46.2 0-65.8-22-97.8-22-33.2 0-58.2 22-98.2 22-39.4 0-81.2-23.8-107.6-64.6-37.4-57.4-31-165.2 29.4-257.2 21.6-32.8 50.4-69.8 88.2-70.2 33.6-0.4 43.2 21.4 88.6 21.6s54-22 87.6-21.6c37.8 0.4 68.2 41.4 89.8 74.2 15.4 23.4 21.2 35.4 33.2 62-87.4 33-101.4 156.4-14.8 203.8zM583.6 634.8c16.8 21.6 29.6 52 25 83.2-27.4-1.8-59.6-19.4-78.2-42.2-17-20.6-31-51.2-25.6-81 29.8-1 60.8 17 78.8 40z" />
<glyph unicode="&#xe911;" glyph-name="apple-rounded" d="M944 960h-864c-44.2 0-80-35.8-80-80v-864c0-44.2 35.8-80 80-80h864c44.2 0 80 35.8 80 80v864c0 44.2-35.8 80-80 80zM530.2 675.8c18.8 22.8 50.8 40.2 78.2 42.2 4.6-31.2-8.2-61.6-25-83.2-18-23.2-49-41-79-40-5.2 29.8 8.8 60.4 25.8 81zM698.8 280.2c-21.6-32.8-52-73.8-89.8-74.2-33.6-0.4-42.2 21.8-87.6 21.6s-55-22-88.6-21.6c-37.8 0.4-66.6 37.4-88.2 70.2-60.4 92-66.8 199.8-29.4 257.2 26.4 40.8 68.2 64.6 107.6 64.6 40 0 65-22 98.2-22 32 0 51.6 22 97.8 22 35 0 72-19 98.4-52-86.4-47.4-72.4-170.8 15-203.8-12.2-26.4-18-38.4-33.4-62z" />
<glyph unicode="&#xe912;" glyph-name="apple-rounded-border" d="M944 960h-864c-44.2 0-80-35.8-80-80v-864c0-44.2 35.8-80 80-80h864c44.2 0 80 35.8 80 80v864c0 44.2-35.8 80-80 80zM964 16c0-11-9-20-20-20h-864c-11 0-20 9-20 20v864c0 11 9 20 20 20h864c11 0 20-9 20-20v-864zM583.6 634.8c16.8 21.6 29.6 52 25 83.2-27.4-1.8-59.6-19.4-78.2-42.2-17-20.6-31-51.2-25.6-81 29.8-1 60.8 17 78.8 40zM717.2 546.2c-26.4 33-63.4 52-98.4 52-46.2 0-65.8-22-97.8-22-33.2 0-58.2 22-98.2 22-39.4 0-81.2-23.8-107.6-64.6-37.4-57.4-31-165.2 29.4-257.2 21.6-32.8 50.4-69.8 88.2-70.2 33.6-0.4 43.2 21.4 88.6 21.6s54-22 87.6-21.6c37.8 0.4 68.2 41.4 89.8 74.2 15.4 23.4 21.2 35.4 33.2 62-87.4 33-101.4 156.4-14.8 203.8z" />
<glyph unicode="&#xe913;" glyph-name="apple-square" d="M0 960v-1024h1024v1024h-1024zM530.2 675.8c18.8 22.8 50.8 40.2 78.2 42.2 4.6-31.2-8.2-61.6-25-83.2-18-23.2-49-41-79-40-5.2 29.8 8.8 60.4 25.8 81zM698.8 280.2c-21.6-32.8-52-73.8-89.8-74.2-33.6-0.4-42.2 21.8-87.6 21.6s-55-22-88.6-21.6c-37.8 0.4-66.6 37.4-88.2 70.2-60.4 92-66.8 199.8-29.4 257.2 26.4 40.8 68.2 64.6 107.6 64.6 40 0 65-22 98.2-22 32 0 51.6 22 97.8 22 35 0 72-19 98.4-52-86.4-47.4-72.4-170.8 15-203.8-12.2-26.4-18-38.4-33.4-62z" />
<glyph unicode="&#xe914;" glyph-name="apple-square-border" d="M0 960v-1024h1024v1024h-1024zM964-4h-904v904h904v-904zM583.6 634.8c16.8 21.6 29.6 52 25 83.2-27.4-1.8-59.6-19.4-78.2-42.2-17-20.6-31-51.2-25.6-81 29.8-1 60.8 17 78.8 40zM432.8 206.2c33.6-0.4 43.2 21.4 88.6 21.6s54-22 87.6-21.6c37.8 0.4 68.2 41.4 89.8 74.2 15.4 23.4 21.2 35.4 33.2 62-87.4 33-101.4 156.4-14.8 203.8-26.4 33-63.4 52-98.4 52-46.2 0-65.8-22-97.8-22-33.2 0-58.2 22-98.2 22-39.4 0-81.2-23.8-107.6-64.6-37.4-57.4-31-165.2 29.4-257.2 21.6-32.8 50.4-69.8 88.2-70.2z" />
<glyph unicode="&#xe915;" glyph-name="behance" d="M470 704.4c19.2-26.8 28.8-59.2 28.8-96.8 0-38.4-9.6-69.6-29.2-93.2-10.8-13.2-27.2-25.2-48.4-36 32.4-12 56.8-30.4 73.2-56s24.8-56.4 24.8-92.8c0-37.6-9.2-71.2-28.4-100.8-12-19.6-26.8-36.4-44.8-49.6-20-15.6-44-26-71.6-32-27.6-5.6-57.2-8.4-89.6-8.4h-284.8v633.2h306c76.8-1.2 131.6-23.6 164-67.6zM126 662v-139.6h154c27.6 0 49.6 5.2 66.8 15.6s25.6 29.2 25.6 55.6c0 29.6-11.2 48.8-34 58.4-19.6 6.4-44.4 10-74.8 10h-137.6zM126 418v-168.8h154c27.6 0 48.8 3.6 64 11.2 28 14 41.6 40 41.6 78.8 0 32.8-13.2 55.6-40.4 68-15.2 6.8-36 10.4-63.2 10.8h-156zM901.6 597.6c32.8-14.4 59.6-37.6 80.8-69.2 19.2-27.6 31.6-60 37.2-96.8 3.2-21.6 4.8-52.4 4-92.8h-340.8c2-46.8 18-80 48.8-98.8 18.8-11.6 41.2-17.6 67.6-17.6 27.6 0 50.4 7.2 68 21.6 9.6 7.6 18 18.4 25.2 32.4h124.8c-3.2-27.6-18.4-56-45.2-84.8-42-45.6-100.4-68.4-176-68.4-62.4 0-117.2 19.2-164.8 57.6s-71.6 100.8-71.6 187.2c0 81.2 21.6 143.2 64.4 186.4 43.2 43.2 98.8 64.8 167.2 64.8 41.2 0.4 78-6.8 110.4-21.6zM718.8 492c-17.2-18-28-42-32.8-72.4h210.8c-2.4 32.4-13.2 57.2-32.4 74-19.6 16.8-44 25.2-72.8 25.2-31.2 0-55.6-9.2-72.8-26.8zM925.6 742.4h-271.2v-78.8h271.2v78.8z" />
<glyph unicode="&#xe916;" glyph-name="behance-round" d="M688.2 471c-9.8 8.4-22 12.6-36.4 12.6-15.6 0-27.8-4.4-36.6-13.4-8.6-9-14-21-16.4-36.2h105.4c-0.8 16.2-6.4 28.4-16 37zM428.6 427.8c-7.6 3.4-18 5.2-31.6 5.4h-78v-84.4h77c13.8 0 24.4 1.8 32 5.6 14 7 20.8 20 20.8 39.4 0 16.4-6.8 27.8-20.2 34zM512 960c-282.8 0-512-229.2-512-512s229.2-512 512-512 512 229.2 512 512-229.2 512-512 512zM583.2 595.4h135.6v-39.4h-135.6v39.4zM501.4 338.8c-6-9.8-13.4-18.2-22.4-24.8-10-7.8-22-13-35.8-16-13.8-2.8-28.6-4.2-44.8-4.2h-142.4v316.4h153c38.6-0.6 66-11.8 82-33.8 9.6-13.4 14.4-29.6 14.4-48.4 0-19.2-4.8-34.8-14.6-46.6-5.4-6.6-13.6-12.6-24.2-18 16.2-6 28.4-15.2 36.6-28s12.4-28.2 12.4-46.4c0-18.4-4.8-35.2-14.2-50.2zM768 393.6h-170.4c1-23.4 9-40 24.4-49.4 9.4-5.8 20.6-8.8 33.8-8.8 13.8 0 25.2 3.6 34 10.8 4.8 3.8 9 9.2 12.6 16.2h62.4c-1.6-13.8-9.2-28-22.6-42.4-21-22.8-50.2-34.2-88-34.2-31.2 0-58.6 9.6-82.4 28.8s-35.8 50.4-35.8 93.6c0 40.6 10.8 71.6 32.2 93.2 21.6 21.6 49.4 32.4 83.6 32.4 20.4 0 38.8-3.6 55-11 16.4-7.2 29.8-18.8 40.4-34.6 9.6-13.8 15.8-30 18.6-48.4 1.8-10.6 2.4-26 2.2-46.2zM429.6 493.4c8.6 5.2 12.8 14.6 12.8 27.8 0 14.8-5.6 24.4-17 29.2-9.8 3.2-22.2 5-37.4 5h-68.8v-69.8h76.8c13.8-0.2 24.8 2.4 33.6 7.8z" />
<glyph unicode="&#xe917;" glyph-name="behance-round-border" d="M512 960c-282.8 0-512-229.2-512-512s229.2-512 512-512 512 229.2 512 512-229.2 512-512 512zM831.6 128.6c-41.6-41.6-89.8-74.2-143.6-96.8-55.6-23.6-114.8-35.4-176-35.4-61 0-120.2 12-176 35.4-53.8 22.8-102.2 55.4-143.6 96.8-41.6 41.6-74.2 89.8-96.8 143.6-23.6 55.6-35.6 114.8-35.6 175.8s12 120.2 35.4 176c22.8 53.8 55.4 102.2 96.8 143.6 41.8 41.6 90 74.2 143.8 97 55.8 23.4 115 35.4 176 35.4s120.2-12 176-35.4c53.8-22.8 102.2-55.4 143.6-96.8 41.6-41.6 74.2-89.8 96.8-143.6 23.6-55.6 35.4-114.8 35.4-176 0-61-12-120.2-35.4-176-22.8-53.8-55.4-102.2-96.8-143.6zM583.2 595.4h135.6v-39.4h-135.6v39.4zM747.2 488.4c-10.6 15.8-24 27.4-40.4 34.6-16.2 7.4-34.6 11-55.2 10.8-34.2 0-62-10.8-83.6-32.4-21.4-21.6-32.2-52.6-32.2-93.2 0-43.2 12-74.4 35.8-93.6s51.2-28.8 82.4-28.8c37.8 0 67 11.4 88 34.2 13.4 14.4 21 28.6 22.6 42.4h-62.4c-3.6-7-7.8-12.4-12.6-16.2-8.8-7.2-20.2-10.8-34-10.8-13.2 0-24.4 3-33.8 8.8-15.4 9.4-23.4 26-24.4 49.4h170.4c0.4 20.2-0.4 35.6-2 46.4-2.8 18.4-9 34.6-18.6 48.4zM599 434c2.4 15.2 7.8 27.2 16.4 36.2 8.6 8.8 20.8 13.4 36.4 13.4 14.4 0 26.6-4.2 36.4-12.6 9.6-8.4 15-20.8 16.2-37h-105.4zM466.6 463.4c10.6 5.4 18.8 11.4 24.2 18 9.8 11.8 14.6 27.4 14.6 46.6 0 18.8-4.8 35-14.4 48.4-16.2 22-43.6 33.2-82 33.8h-153v-316.6h142.4c16.2 0 31 1.4 44.8 4.2 13.8 3 25.8 8.2 35.8 16 9 6.6 16.4 15 22.4 24.8 9.6 14.8 14.2 31.6 14.2 50.4 0 18.2-4.2 33.6-12.4 46.4s-20.4 22-36.6 28zM319 555.2h68.8c15.2 0 27.6-1.8 37.4-5 11.4-4.8 17-14.4 17-29.2 0-13.2-4.2-22.6-12.8-27.8s-19.6-7.8-33.4-7.8h-77v69.8zM428 354.4c-7.6-3.8-18.2-5.6-32-5.6h-77v84.4h78c13.6-0.2 24-2 31.6-5.4 13.6-6.2 20.2-17.6 20.2-34 0-19.4-6.8-32.4-20.8-39.4z" />
<glyph unicode="&#xe918;" glyph-name="behance-rounded" d="M429.6 493.4c8.6 5.2 12.8 14.6 12.8 27.8 0 14.8-5.6 24.4-17 29.2-9.8 3.2-22.2 5-37.4 5h-68.8v-69.8h76.8c13.8-0.2 24.8 2.4 33.6 7.8zM688.2 471c-9.8 8.4-22 12.6-36.4 12.6-15.6 0-27.8-4.4-36.6-13.4-8.6-9-14-21-16.4-36.2h105.4c-0.8 16.2-6.4 28.4-16 37zM944 960h-864c-44.2 0-80-35.8-80-80v-864c0-44.2 35.8-80 80-80h864c44.2 0 80 35.8 80 80v864c0 44.2-35.8 80-80 80zM583.2 595.4h135.6v-39.4h-135.6v39.4zM501.4 338.8c-6-9.8-13.4-18.2-22.4-24.8-10-7.8-22-13-35.8-16-13.8-2.8-28.6-4.2-44.8-4.2h-142.4v316.4h153c38.6-0.6 66-11.8 82-33.8 9.6-13.4 14.4-29.6 14.4-48.4 0-19.2-4.8-34.8-14.6-46.6-5.4-6.6-13.6-12.6-24.2-18 16.2-6 28.4-15.2 36.6-28s12.4-28.2 12.4-46.4c0-18.4-4.8-35.2-14.2-50.2zM768 393.6h-170.4c1-23.4 9-40 24.4-49.4 9.4-5.8 20.6-8.8 33.8-8.8 13.8 0 25.2 3.6 34 10.8 4.8 3.8 9 9.2 12.6 16.2h62.4c-1.6-13.8-9.2-28-22.6-42.4-21-22.8-50.2-34.2-88-34.2-31.2 0-58.6 9.6-82.4 28.8s-35.8 50.4-35.8 93.6c0 40.6 10.8 71.6 32.2 93.2 21.6 21.6 49.4 32.4 83.6 32.4 20.4 0 38.8-3.6 55-11 16.4-7.2 29.8-18.8 40.4-34.6 9.6-13.8 15.8-30 18.6-48.4 1.8-10.6 2.4-26 2.2-46.2zM428.6 427.8c-7.6 3.4-18 5.2-31.6 5.4h-78v-84.4h77c13.8 0 24.4 1.8 32 5.6 14 7 20.8 20 20.8 39.4 0 16.4-6.8 27.8-20.2 34z" />
<glyph unicode="&#xe919;" glyph-name="behance-rounded-border" d="M944 960h-864c-44.2 0-80-35.8-80-80v-864c0-44.2 35.8-80 80-80h864c44.2 0 80 35.8 80 80v864c0 44.2-35.8 80-80 80zM964 16c0-11-9-20-20-20h-864c-11 0-20 9-20 20v864c0 11 9 20 20 20h864c11 0 20-9 20-20v-864zM747.2 488.4c-10.6 15.8-24 27.4-40.4 34.6-16.2 7.4-34.6 11-55.2 10.8-34.2 0-62-10.8-83.6-32.4-21.4-21.6-32.2-52.6-32.2-93.2 0-43.2 12-74.4 35.8-93.6s51.2-28.8 82.4-28.8c37.8 0 67 11.4 88 34.2 13.4 14.4 21 28.6 22.6 42.4h-62.4c-3.6-7-7.8-12.4-12.6-16.2-8.8-7.2-20.2-10.8-34-10.8-13.2 0-24.4 3-33.8 8.8-15.4 9.4-23.4 26-24.4 49.4h170.4c0.4 20.2-0.4 35.6-2 46.4-2.8 18.4-9 34.6-18.6 48.4zM599 434c2.4 15.2 7.8 27.2 16.4 36.2 8.6 8.8 20.8 13.4 36.4 13.4 14.4 0 26.6-4.2 36.4-12.6 9.6-8.4 15-20.8 16.2-37h-105.4zM583.2 595.4h135.6v-39.4h-135.6v39.4zM466.6 463.4c10.6 5.4 18.8 11.4 24.2 18 9.8 11.8 14.6 27.4 14.6 46.6 0 18.8-4.8 35-14.4 48.4-16.2 22-43.6 33.2-82 33.8h-153v-316.6h142.4c16.2 0 31 1.4 44.8 4.2 13.8 3 25.8 8.2 35.8 16 9 6.6 16.4 15 22.4 24.8 9.6 14.8 14.2 31.6 14.2 50.4 0 18.2-4.2 33.6-12.4 46.4s-20.4 22-36.6 28zM319 555.2h68.8c15.2 0 27.6-1.8 37.4-5 11.4-4.8 17-14.4 17-29.2 0-13.2-4.2-22.6-12.8-27.8s-19.6-7.8-33.4-7.8h-77v69.8zM428 354.4c-7.6-3.8-18.2-5.6-32-5.6h-77v84.4h78c13.6-0.2 24-2 31.6-5.4 13.6-6.2 20.2-17.6 20.2-34 0-19.4-6.8-32.4-20.8-39.4z" />
<glyph unicode="&#xe91a;" glyph-name="behance-square" d="M428.6 427.8c-7.6 3.4-18 5.2-31.6 5.4h-78v-84.4h77c13.8 0 24.4 1.8 32 5.6 14 7 20.8 20 20.8 39.4 0 16.4-6.8 27.8-20.2 34zM688.2 471c-9.8 8.4-22 12.6-36.4 12.6-15.6 0-27.8-4.4-36.6-13.4-8.6-9-14-21-16.4-36.2h105.4c-0.8 16.2-6.4 28.4-16 37zM429.6 493.4c8.6 5.2 12.8 14.6 12.8 27.8 0 14.8-5.6 24.4-17 29.2-9.8 3.2-22.2 5-37.4 5h-68.8v-69.8h76.8c13.8-0.2 24.8 2.4 33.6 7.8zM0 960v-1024h1024v1024h-1024zM583.2 595.4h135.6v-39.4h-135.6v39.4zM501.4 338.8c-6-9.8-13.4-18.2-22.4-24.8-10-7.8-22-13-35.8-16-13.8-2.8-28.6-4.2-44.8-4.2h-142.4v316.4h153c38.6-0.6 66-11.8 82-33.8 9.6-13.4 14.4-29.6 14.4-48.4 0-19.2-4.8-34.8-14.6-46.6-5.4-6.6-13.6-12.6-24.2-18 16.2-6 28.4-15.2 36.6-28s12.4-28.2 12.4-46.4c0-18.4-4.8-35.2-14.2-50.2zM768 393.6h-170.4c1-23.4 9-40 24.4-49.4 9.4-5.8 20.6-8.8 33.8-8.8 13.8 0 25.2 3.6 34 10.8 4.8 3.8 9 9.2 12.6 16.2h62.4c-1.6-13.8-9.2-28-22.6-42.4-21-22.8-50.2-34.2-88-34.2-31.2 0-58.6 9.6-82.4 28.8s-35.8 50.4-35.8 93.6c0 40.6 10.8 71.6 32.2 93.2 21.6 21.6 49.4 32.4 83.6 32.4 20.4 0 38.8-3.6 55-11 16.4-7.2 29.8-18.8 40.4-34.6 9.6-13.8 15.8-30 18.6-48.4 1.8-10.6 2.4-26 2.2-46.2z" />
<glyph unicode="&#xe91b;" glyph-name="behance-square-border" d="M0 960v-1024h1024v1024h-1024zM964-4h-904v904h904v-904zM583.2 595.4h135.6v-39.4h-135.6v39.4zM571.6 314.6c23.8-19.2 51.2-28.8 82.4-28.8 37.8 0 67 11.4 88 34.2 13.4 14.4 21 28.6 22.6 42.4h-62.4c-3.6-7-7.8-12.4-12.6-16.2-8.8-7.2-20.2-10.8-34-10.8-13.2 0-24.4 3-33.8 8.8-15.4 9.4-23.4 26-24.4 49.4h170.4c0.4 20.2-0.4 35.6-2 46.4-2.8 18.4-9 34.6-18.6 48.4-10.6 15.8-24 27.4-40.4 34.6-16.2 7.4-34.6 11-55.2 10.8-34.2 0-62-10.8-83.6-32.4-21.4-21.6-32.2-52.6-32.2-93.2 0-43.2 12-74.4 35.8-93.6zM615.4 470.2c8.6 8.8 20.8 13.4 36.4 13.4 14.4 0 26.6-4.2 36.4-12.6 9.6-8.4 15-20.8 16.2-37h-105.4c2.4 15.2 7.8 27.2 16.4 36.2zM443.2 297.8c13.8 3 25.8 8.2 35.8 16 9 6.6 16.4 15 22.4 24.8 9.6 14.8 14.2 31.6 14.2 50.4 0 18.2-4.2 33.6-12.4 46.4s-20.4 22-36.6 28c10.6 5.4 18.8 11.4 24.2 18 9.8 11.8 14.6 27.4 14.6 46.6 0 18.8-4.8 35-14.4 48.4-16.2 22-43.6 33.2-82 33.8h-153v-316.6h142.4c16.2 0 31 1.4 44.8 4.2zM319 555.2h68.8c15.2 0 27.6-1.8 37.4-5 11.4-4.8 17-14.4 17-29.2 0-13.2-4.2-22.6-12.8-27.8s-19.6-7.8-33.4-7.8h-77v69.8zM319 348.8v84.4h78c13.6-0.2 24-2 31.6-5.4 13.6-6.2 20.2-17.6 20.2-34 0-19.4-6.8-32.4-20.8-39.4-7.6-3.8-18.2-5.6-32-5.6h-77z" />
<glyph unicode="&#xe91c;" glyph-name="blogger" d="M1019.2 534.8l-8.4 17.6-14.4 11.2c-18.8 14.8-114-1.2-139.6 22.4-18 16.8-20.8 46.8-26.4 87.6-10.4 79.2-16.8 83.2-29.2 110-44.8 95.2-166.4 166.8-249.6 176.4h-226.4c-178 0-323.2-145.6-323.2-323.6v-377.6c0-177.6 145.6-322.8 323.2-322.8h371.6c177.6 0 322.4 145.6 323.2 322.8l2 261.6-2.8 14.4zM329.2 695.6h179.2c34.4 0 62-27.6 62-61.6s-27.6-62-62-62h-179.2c-34.4 0-62 28-62 62s28 61.6 62 61.6zM693.6 202.4h-364.4c-34.4 0-62 28-62 61.6 0 34 27.6 61.6 62 61.6h364.4c34 0 61.6-27.6 61.6-61.6 0-33.6-27.6-61.6-61.6-61.6z" />
<glyph unicode="&#xe91d;" glyph-name="blogger-round" d="M602.8 386.6h-182.2c-17.2 0-31-13.8-31-30.8 0-16.8 13.8-30.8 31-30.8h182.2c17 0 30.8 14 30.8 30.8 0 17-13.8 30.8-30.8 30.8zM420.6 510h89.6c17.2 0 31 14 31 31s-13.8 30.8-31 30.8h-89.6c-17.2 0-31-13.8-31-30.8s14-31 31-31zM512 960c-282.8 0-512-229.2-512-512s229.2-512 512-512 512 229.2 512 512-229.2 512-512 512zM766 353.4c-0.6-88.8-72.8-161.4-161.6-161.4h-185.8c-89 0-161.6 72.8-161.6 161.4v188.8c0 89 72.8 161.8 161.6 161.8h113.2c41.8-5 102.4-40.8 124.8-88.2 6.2-13.4 9.4-15.4 14.6-55 2.8-20.4 4-35.4 13.2-43.8 13-11.6 60.4-3.8 69.8-11.2l7.2-5.6 4.2-8.8 1.6-7.2-1.2-130.8z" />
<glyph unicode="&#xe91e;" glyph-name="blogger-round-border" d="M512 960c-282.8 0-512-229.2-512-512s229.2-512 512-512 512 229.2 512 512-229.2 512-512 512zM831.6 128.6c-41.6-41.6-89.8-74.2-143.6-96.8-55.6-23.6-114.8-35.4-176-35.4-61 0-120.2 12-176 35.4-53.8 22.8-102.2 55.4-143.6 96.8-41.6 41.6-74.2 89.8-96.8 143.6-23.6 55.6-35.6 114.8-35.6 175.8s12 120.2 35.4 176c22.8 53.8 55.4 102.2 96.8 143.6 41.8 41.6 90 74.2 143.8 97 55.8 23.4 115 35.4 176 35.4s120.2-12 176-35.4c53.8-22.8 102.2-55.4 143.6-96.8 41.6-41.6 74.2-89.8 96.8-143.6 23.6-55.6 35.4-114.8 35.4-176 0-61-12-120.2-35.4-176-22.8-53.8-55.4-102.2-96.8-143.6zM761.4 500.2l-7.2 5.6c-9.4 7.4-57-0.6-69.8 11.2-9 8.4-10.4 23.4-13.2 43.8-5.2 39.6-8.4 41.6-14.6 55-22.4 47.6-83.2 83.4-124.8 88.2h-113.2c-89 0-161.6-72.8-161.6-161.8v-188.8c0-88.8 72.8-161.4 161.6-161.4h185.8c88.8 0 161.2 72.8 161.6 161.4l1 130.8-1.4 7.2-4.2 8.8zM420.6 571.8h89.6c17.2 0 31-13.8 31-30.8s-13.8-31-31-31h-89.6c-17.2 0-31 14-31 31s14 30.8 31 30.8zM602.8 325.2h-182.2c-17.2 0-31 14-31 30.8 0 17 13.8 30.8 31 30.8h182.2c17 0 30.8-13.8 30.8-30.8 0-16.8-13.8-30.8-30.8-30.8z" />
<glyph unicode="&#xe91f;" glyph-name="blogger-rounded" d="M602.8 386.6h-182.2c-17.2 0-31-13.8-31-30.8 0-16.8 13.8-30.8 31-30.8h182.2c17 0 30.8 14 30.8 30.8 0 17-13.8 30.8-30.8 30.8zM420.6 510h89.6c17.2 0 31 14 31 31s-13.8 30.8-31 30.8h-89.6c-17.2 0-31-13.8-31-30.8s14-31 31-31zM944 960h-864c-44.2 0-80-35.8-80-80v-864c0-44.2 35.8-80 80-80h864c44.2 0 80 35.8 80 80v864c0 44.2-35.8 80-80 80zM766 353.4c-0.6-88.8-72.8-161.4-161.6-161.4h-185.8c-89 0-161.6 72.8-161.6 161.4v188.8c0 89 72.8 161.8 161.6 161.8h113.2c41.8-5 102.4-40.8 124.8-88.2 6.2-13.4 9.4-15.4 14.6-55 2.8-20.4 4-35.4 13.2-43.8 13-11.6 60.4-3.8 69.8-11.2l7.2-5.6 4.2-8.8 1.6-7.2-1.2-130.8z" />
<glyph unicode="&#xe920;" glyph-name="blogger-rounded-border" d="M944 960h-864c-44.2 0-80-35.8-80-80v-864c0-44.2 35.8-80 80-80h864c44.2 0 80 35.8 80 80v864c0 44.2-35.8 80-80 80zM964 16c0-11-9-20-20-20h-864c-11 0-20 9-20 20v864c0 11 9 20 20 20h864c11 0 20-9 20-20v-864zM761.4 500.2l-7.2 5.6c-9.4 7.4-57-0.6-69.8 11.2-9 8.4-10.4 23.4-13.2 43.8-5.2 39.6-8.4 41.6-14.6 55-22.4 47.6-83.2 83.4-124.8 88.2h-113.2c-89 0-161.6-72.8-161.6-161.8v-188.8c0-88.8 72.8-161.4 161.6-161.4h185.8c88.8 0 161.2 72.8 161.6 161.4l1 130.8-1.4 7.2-4.2 8.8zM420.6 571.8h89.6c17.2 0 31-13.8 31-30.8s-13.8-31-31-31h-89.6c-17.2 0-31 14-31 31s14 30.8 31 30.8zM602.8 325.2h-182.2c-17.2 0-31 14-31 30.8 0 17 13.8 30.8 31 30.8h182.2c17 0 30.8-13.8 30.8-30.8 0-16.8-13.8-30.8-30.8-30.8z" />
<glyph unicode="&#xe921;" glyph-name="blogger-square" d="M602.8 386.6h-182.2c-17.2 0-31-13.8-31-30.8 0-16.8 13.8-30.8 31-30.8h182.2c17 0 30.8 14 30.8 30.8 0 17-13.8 30.8-30.8 30.8zM420.6 510h89.6c17.2 0 31 14 31 31s-13.8 30.8-31 30.8h-89.6c-17.2 0-31-13.8-31-30.8s14-31 31-31zM0 960v-1024h1024v1024h-1024zM766 353.4c-0.6-88.8-72.8-161.4-161.6-161.4h-185.8c-89 0-161.6 72.8-161.6 161.4v188.8c0 89 72.8 161.8 161.6 161.8h113.2c41.8-5 102.4-40.8 124.8-88.2 6.2-13.4 9.4-15.4 14.6-55 2.8-20.4 4-35.4 13.2-43.8 13-11.6 60.4-3.8 69.8-11.2l7.2-5.6 4.2-8.8 1.6-7.2-1.2-130.8z" />
<glyph unicode="&#xe922;" glyph-name="blogger-square-border" d="M0 960v-1024h1024v1024h-1024zM964-4h-904v904h904v-904zM418.6 192h185.8c88.8 0 161.2 72.8 161.6 161.4l1 130.8-1.4 7.2-4.2 8.8-7.2 5.6c-9.4 7.4-57-0.6-69.8 11.2-9 8.4-10.4 23.4-13.2 43.8-5.2 39.6-8.4 41.6-14.6 55-22.4 47.6-83.2 83.4-124.8 88.2h-113.2c-89 0-161.6-72.8-161.6-161.8v-188.8c0-88.8 72.8-161.4 161.6-161.4zM420.6 571.8h89.6c17.2 0 31-13.8 31-30.8s-13.8-31-31-31h-89.6c-17.2 0-31 14-31 31s14 30.8 31 30.8zM420.6 386.8h182.2c17 0 30.8-13.8 30.8-30.8 0-16.8-13.8-30.8-30.8-30.8h-182.2c-17.2 0-31 14-31 30.8 0 17 13.8 30.8 31 30.8z" />
<glyph unicode="&#xe923;" glyph-name="deviantart" d="M590.4 534.8c-43.2 8-92.4 10.4-144.8 1.6l108.8-220.8 469.2 135.2c0 0-170.4 267.2-678 180.8-2.8-0.4-5.6-1.2-8.4-1.6l-49.2 100-146-16.8 59.6-122c-308-127.2-171.6-427.2-171.6-427.2l469.6 135.6-129.2 262.4c232 66.8 425.2-69.6 425.2-69.6l-159.6-43.2-45.6 85.6zM156.8 320c0 0-45.2 100 86.4 185.6l70-143.6-156.4-42z" />
<glyph unicode="&#xe924;" glyph-name="deviantart-round" d="M334.6 384.4l78.2 21.2-34.8 71.6c-66-42.8-43.4-92.8-43.4-92.8zM512 960c-282.8 0-512-229.2-512-512s229.2-512 512-512 512 229.2 512 512-229.2 512-512 512zM533.4 382.2l-54.4 110.4c26.2 4.4 50.8 3.2 72.4-0.8l23-42.6 79.8 21.6c0 0-96.8 68.2-212.6 34.8l64.6-131.2-235.2-67.8c0 0-68.2 150 85.8 213.6l-29.8 61 73 8.4 24.6-50c1.4 0.2 2.8 0.6 4.2 0.8 254 43 339.2-90.6 339.2-90.6l-234.6-67.6z" />
<glyph unicode="&#xe925;" glyph-name="deviantart-round-border" d="M512 960c-282.8 0-512-229.2-512-512s229.2-512 512-512 512 229.2 512 512-229.2 512-512 512zM831.6 128.6c-41.6-41.6-89.8-74.2-143.6-96.8-55.6-23.6-114.8-35.4-176-35.4-61 0-120.2 12-176 35.4-53.8 22.8-102.2 55.4-143.6 96.8-41.6 41.6-74.2 89.8-96.8 143.6-23.6 55.6-35.6 114.8-35.6 175.8s12 120.2 35.4 176c22.8 53.8 55.4 102.2 96.8 143.6 41.8 41.6 90 74.2 143.8 97 55.8 23.4 115 35.4 176 35.4s120.2-12 176-35.4c53.8-22.8 102.2-55.4 143.6-96.8 41.6-41.6 74.2-89.8 96.8-143.6 23.6-55.6 35.4-114.8 35.4-176 0-61-12-120.2-35.4-176-22.8-53.8-55.4-102.2-96.8-143.6zM429 540.2c-1.4-0.2-2.8-0.6-4.2-0.8l-24.6 50-73-8.4 29.8-61c-154-63.6-85.8-213.6-85.8-213.6l234.8 67.8-64.6 131.2c116 33.4 212.6-34.8 212.6-34.8l-79.8-21.6-22.8 42.8c-21.6 4-46.2 5.2-72.4 0.8l54.4-110.4 234.6 67.6c0 0-85.2 133.6-339 90.4zM334.6 384.4c0 0-22.6 50 43.2 92.8l35-71.8-78.2-21z" />
<glyph unicode="&#xe926;" glyph-name="deviantart-rounded" d="M334.6 384.4l78.2 21.2-34.8 71.6c-66-42.8-43.4-92.8-43.4-92.8zM944 960h-864c-44.2 0-80-35.8-80-80v-864c0-44.2 35.8-80 80-80h864c44.2 0 80 35.8 80 80v864c0 44.2-35.8 80-80 80zM533.4 382.2l-54.4 110.4c26.2 4.4 50.8 3.2 72.4-0.8l23-42.6 79.8 21.6c0 0-96.8 68.2-212.6 34.8l64.6-131.2-235.2-67.8c0 0-68.2 150 85.8 213.6l-29.8 61 73 8.4 24.6-50c1.4 0.2 2.8 0.6 4.2 0.8 254 43 339.2-90.6 339.2-90.6l-234.6-67.6z" />
<glyph unicode="&#xe927;" glyph-name="deviantart-rounded-border" d="M944 960h-864c-44.2 0-80-35.8-80-80v-864c0-44.2 35.8-80 80-80h864c44.2 0 80 35.8 80 80v864c0 44.2-35.8 80-80 80zM964 16c0-11-9-20-20-20h-864c-11 0-20 9-20 20v864c0 11 9 20 20 20h864c11 0 20-9 20-20v-864zM429 540.2c-1.4-0.2-2.8-0.6-4.2-0.8l-24.6 50-73-8.4 29.8-61c-154-63.6-85.8-213.6-85.8-213.6l234.8 67.8-64.6 131.2c116 33.4 212.6-34.8 212.6-34.8l-79.8-21.6-22.8 42.8c-21.6 4-46.2 5.2-72.4 0.8l54.4-110.4 234.6 67.6c0 0-85.2 133.6-339 90.4zM334.6 384.4c0 0-22.6 50 43.2 92.8l35-71.8-78.2-21z" />
<glyph unicode="&#xe928;" glyph-name="deviantart-square" d="M334.6 384.4l78.2 21.2-34.8 71.6c-66-42.8-43.4-92.8-43.4-92.8zM0 960v-1024h1024v1024h-1024zM533.4 382.2l-54.4 110.4c26.2 4.4 50.8 3.2 72.4-0.8l23-42.6 79.8 21.6c0 0-96.8 68.2-212.6 34.8l64.6-131.2-235.2-67.8c0 0-68.2 150 85.8 213.6l-29.8 61 73 8.4 24.6-50c1.4 0.2 2.8 0.6 4.2 0.8 254 43 339.2-90.6 339.2-90.6l-234.6-67.6z" />
<glyph unicode="&#xe929;" glyph-name="deviantart-square-border" d="M0 960v-1024h1024v1024h-1024zM964-4h-904v904h904v-904zM506 374.2l-64.6 131.2c116 33.4 212.6-34.8 212.6-34.8l-79.8-21.6-22.8 42.8c-21.6 4-46.2 5.2-72.4 0.8l54.4-110.4 234.6 67.6c0 0-85.2 133.6-339 90.4-1.4-0.2-2.8-0.6-4.2-0.8l-24.6 50-73-8.4 29.8-61c-154-63.6-85.8-213.6-85.8-213.6l234.8 67.8zM378 477.2l35-71.8-78.2-21.2c-0.2 0.2-22.8 50.2 43.2 93z" />
<glyph unicode="&#xe92a;" glyph-name="digg" d="M154 604.4h-154v-310.4h254v446h-100v-135.6zM154 377.2h-52v141.2h52v-141.2zM462.4 292.4v0h154.4v-48.4h-156v-87.2h256v446.4h-254.4v-310.8zM564.8 519.6h52.4v-141.2h-52.4v141.2zM770 603.2v-310.4h154v-48.8h-156v-87.2h256v446.4h-254zM924 378.4h-52v141.2h52v-141.2zM305.6 604.8h103.6v-312.4h-103.6v312.4zM305.6 734.4h103.6v-84.8h-103.6v84.8z" />
<glyph unicode="&#xe92b;" glyph-name="digg-round" d="M307 483h26v-70.6h-26v70.6zM691.8 483.6h26v-70.6h-26v70.6zM538.4 483.6h26.2v-70.6h-26.2v70.6zM512 960c-282.8 0-512-229.2-512-512s229.2-512 512-512 512 229.2 512 512-229.2 512-512 512zM383 370.8h-127v155.2h77v67.8h50v-223zM460.8 370h-51.8v156.2h51.8v-156.2zM460.8 548.8h-51.8v42.4h51.8v-42.4zM614.8 302.2h-128.2v43.6h78v24.2h-77v155.2h127.2v-223zM768 302.2h-128v43.6h78v24.2h-77v155.2h127v-223z" />
<glyph unicode="&#xe92c;" glyph-name="digg-round-border" d="M512 960c-282.8 0-512-229.2-512-512s229.2-512 512-512 512 229.2 512 512-229.2 512-512 512zM831.6 128.6c-41.6-41.6-89.8-74.2-143.6-96.8-55.6-23.6-114.8-35.4-176-35.4-61 0-120.2 12-176 35.4-53.8 22.8-102.2 55.4-143.6 96.8-41.6 41.6-74.2 89.8-96.8 143.6-23.6 55.6-35.6 114.8-35.6 175.8s12 120.2 35.4 176c22.8 53.8 55.4 102.2 96.8 143.6 41.8 41.6 90 74.2 143.8 97 55.8 23.4 115 35.4 176 35.4s120.2-12 176-35.4c53.8-22.8 102.2-55.4 143.6-96.8 41.6-41.6 74.2-89.8 96.8-143.6 23.6-55.6 35.4-114.8 35.4-176 0-61-12-120.2-35.4-176-22.8-53.8-55.4-102.2-96.8-143.6zM333 526h-77v-155.2h127v223h-50v-67.8zM333 412.4h-26v70.6h26v-70.6zM487.2 370v0h77.2v-24.2h-78v-43.6h128v223.2h-127.2v-155.4zM538.4 483.6h26.2v-70.6h-26.2v70.6zM641 370h77v-24.2h-78v-43.6h128v223.2h-127v-155.4zM691.8 483.6h26v-70.6h-26v70.6zM408.8 526.2h51.8v-156.2h-51.8v156.2zM408.8 591h51.8v-42.4h-51.8v42.4z" />
<glyph unicode="&#xe92d;" glyph-name="digg-rounded" d="M538.4 483.6h26.2v-70.6h-26.2v70.6zM691.8 483.6h26v-70.6h-26v70.6zM307 483h26v-70.6h-26v70.6zM944 960h-864c-44.2 0-80-35.8-80-80v-864c0-44.2 35.8-80 80-80h864c44.2 0 80 35.8 80 80v864c0 44.2-35.8 80-80 80zM383 370.8h-127v155.2h77v67.8h50v-223zM460.8 370h-51.8v156.2h51.8v-156.2zM460.8 548.8h-51.8v42.4h51.8v-42.4zM614.8 302.2h-128.2v43.6h78v24.2h-77v155.2h127.2v-223zM768 302.2h-128v43.6h78v24.2h-77v155.2h127v-223z" />
<glyph unicode="&#xe92e;" glyph-name="digg-rounded-border" d="M944 960h-864c-44.2 0-80-35.8-80-80v-864c0-44.2 35.8-80 80-80h864c44.2 0 80 35.8 80 80v864c0 44.2-35.8 80-80 80zM964 16c0-11-9-20-20-20h-864c-11 0-20 9-20 20v864c0 11 9 20 20 20h864c11 0 20-9 20-20v-864zM333 526h-77v-155.2h127v223h-50v-67.8zM333 412.4h-26v70.6h26v-70.6zM487.2 370v0h77.2v-24.2h-78v-43.6h128v223.2h-127.2v-155.4zM538.4 483.6h26.2v-70.6h-26.2v70.6zM641 370h77v-24.2h-78v-43.6h128v223.2h-127v-155.4zM691.8 483.6h26v-70.6h-26v70.6zM408.8 526.2h51.8v-156.2h-51.8v156.2zM408.8 591h51.8v-42.4h-51.8v42.4z" />
<glyph unicode="&#xe92f;" glyph-name="digg-square" d="M538.4 483.6h26.2v-70.6h-26.2v70.6zM307 483h26v-70.6h-26v70.6zM691.8 483.6h26v-70.6h-26v70.6zM0 960v-1024h1024v1024h-1024zM383 370.8h-127v155.2h77v67.8h50v-223zM460.8 370h-51.8v156.2h51.8v-156.2zM460.8 548.8h-51.8v42.4h51.8v-42.4zM614.8 302.2h-128.2v43.6h78v24.2h-77v155.2h127.2v-223zM768 302.2h-128v43.6h78v24.2h-77v155.2h127v-223z" />
<glyph unicode="&#xe930;" glyph-name="digg-square-border" d="M0 960v-1024h1024v1024h-1024zM964-4h-904v904h904v-904zM383 593.8h-50v-67.8h-77v-155.2h127v223zM333 412.4h-26v70.6h26v-70.6zM614.6 302.2v223.2h-127.2v-155.2h77v-24.4h-78v-43.6h128.2zM564.4 413h-26.2v70.6h26.2v-70.6zM768 302.2v223.2h-127v-155.2h77v-24.4h-78v-43.6h128zM718 413h-26v70.6h26v-70.6zM408.8 526.2h51.8v-156.2h-51.8v156.2zM408.8 591h51.8v-42.4h-51.8v42.4z" />
<glyph unicode="&#xe931;" glyph-name="dribbble" d="M1009.2 552.8c-6.8 32.8-16.8 64.8-30 96-12.8 30.4-28.8 59.2-47.2 86.4s-39.2 52-62 75.2c-23.2 23.2-48.8 44.4-75.2 62-27.2 18.4-56.8 34.4-86.4 47.2-30.8 13.2-62.8 23.2-96 30-33.6 6.8-68 10.4-102.8 10.4s-69.2-3.6-102.8-10.4c-32.8-6.8-64.8-16.8-95.6-30-30.4-12.8-59.2-28.8-86.4-47.2s-52.4-39.2-75.2-62-44-48.8-62-75.2c-18.4-27.2-34.4-56-47.2-86.4-13.2-30.8-23.2-62.8-30-96-6.8-33.6-10.4-68-10.4-102.8s3.6-69.2 10.4-102.8c6.8-32.8 16.8-64.8 30-95.6 12.8-30.4 28.8-59.2 47.2-86.8 18.4-27.2 39.2-52 62-75.2 23.2-23.2 48.8-44 75.2-62 27.2-18.4 56.8-34.4 86.4-47.2 30.8-13.2 62.8-23.2 95.6-30 33.6-6.8 68-10.4 102.8-10.4s68.8 3.6 102.8 10.4c32.8 6.8 64.8 16.8 96 30 30.4 12.8 59.2 28.8 86.4 47.2s52.4 39.2 75.2 62c23.2 23.2 44 48.8 62 75.2 18.4 27.2 34.4 56.4 47.2 86.8 13.2 30.8 23.2 62.8 30 95.6 6.8 33.6 10.4 68 10.4 102.8s-3.6 69.2-10.4 102.8zM509.6 885.6c110.4 0 210.8-41.2 287.6-108.8-1.2-1.6-62.8-96-227.6-157.6-74.4 136.8-156.4 245.6-163.2 254.4 33.2 7.6 67.6 12 103.2 12zM404.4 872.8c0 0.4 0.4 0.4 0 0v0zM323.6 844c6-7.6 86.4-117.2 162-251.2-209.2-55.2-390.8-53.2-402-52.8 27.6 134.8 118.4 246.8 240 304zM185.2 159.2c-69.2 76.8-111.6 178.8-111.6 290.8 0 4.8 0.4 9.2 0.4 13.6 7.6 0 222.8-5.2 447.2 62 12.4-24.4 24.4-49.6 35.6-74-5.6-1.6-11.6-3.2-17.2-5.2-235.2-76-354.4-287.2-354.4-287.2zM509.6 14.4c-101.6 0-194 34.8-268 92.4 1.6 3.2 86 182.8 342 272 0.8 0.4 2 0.8 2.8 0.8 61.2-159.2 86.4-292.4 92.8-330.8-52-22-109.6-34.4-169.6-34.4zM752.8 88.8c-4.4 26.4-27.6 154-84.8 311.2 140.8 22.4 262.8-16 271.6-19.2-19.2-121.2-89.2-226-186.8-292zM641.6 468.8c-3.2 7.6-6.4 14.8-9.6 22.4-9.2 21.6-18.8 42.4-29.2 63.2 172 70 242 171.2 242.8 172.4 60.8-74.4 98-169.2 99.2-272.4-6 1.2-153.6 33.2-303.2 14.4z" />
<glyph unicode="&#xe932;" glyph-name="dribbble-round" d="M499.8 519.8c-37.8 67.2-78.2 122-81.2 126-61-28.8-106.4-85-120.6-152.6 5.8-0.2 97-1.4 201.8 26.6zM527.2 446.4c2.8 1 5.8 1.8 8.6 2.6-5.4 12.4-11.4 25-17.8 37.2-112.6-33.6-220.6-31.2-224.4-31.2 0-2.2-0.2-4.6-0.2-6.8 0-56.2 21.2-107.4 56-146.2v0.2c0 0 59.8 106 177.8 144.2zM375.8 277c-1 0.8-2 1.6-3 2.4 1.2-0.8 2.2-1.8 3-2.4zM459.6 660.4c-0.2 0-0.4-0.2-0.8-0.2 0.6 0 0.8 0 0.8 0.2 0-0.2 0-0.2 0 0zM656.4 612c-38.6 34-89 54.6-144.4 54.6-17.8 0-35-2.2-51.6-6.2 3.2-4.4 44.4-58.8 81.8-127.6 82.4 31 113.6 78.4 114.2 79.2zM549.2 412.2c-129.6-45.2-171.6-136.6-171.6-136.6s-0.2 0.2-0.4 0.4c37.2-29.2 84-46.6 134.8-46.6 30.2 0 59.2 6.2 85.4 17.4-3.2 19.2-16 86-46.6 166-0.6-0.2-1.2-0.4-1.6-0.6zM512 960c-282.8 0-512-229.2-512-512s229.2-512 512-512 512 229.2 512 512-229.2 512-512 512zM762.8 396.4c-3.4-16.4-8.4-32.6-15-48-6.4-15.2-14.4-29.8-23.6-43.6-9.2-13.6-19.6-26.2-31.2-37.8s-24.4-22-37.8-31.2c-13.6-9.2-28.4-17.2-43.4-23.6-15.4-6.6-31.6-11.6-48.2-15-16.8-3.4-34.2-5.2-51.6-5.2s-34.8 1.8-51.6 5.2c-16.4 3.4-32.6 8.4-48 15-15.2 6.4-29.8 14.4-43.4 23.6s-26.2 19.6-37.8 31.2c-11.6 11.6-22 24.4-31.2 37.8-9.2 13.6-17.2 28.4-23.6 43.6-6.6 15.4-11.6 31.6-15 48-3.4 16.8-5.2 34.2-5.2 51.6s1.8 34.8 5.2 51.6c3.4 16.4 8.4 32.6 15 48.2 6.4 15.2 14.4 29.8 23.6 43.4s19.6 26.2 31.2 37.8 24.4 22.2 37.8 31.2c13.6 9.2 28.4 17.2 43.4 23.6 15.4 6.6 31.6 11.6 48 15 16.8 3.4 34.2 5.2 51.6 5.2s34.6-1.8 51.6-5.2c16.4-3.4 32.6-8.4 48.2-15 15.2-6.4 29.8-14.4 43.4-23.6s26.2-19.6 37.8-31.2c11.6-11.6 22-24.4 31.2-37.8 9.2-13.6 17.2-28.2 23.6-43.4 6.6-15.4 11.6-31.6 15-48.2 3.4-16.8 5.2-34.2 5.2-51.6s-1.8-34.8-5.2-51.6zM559 500.4c5-10.4 10-21 14.6-31.8 1.6-3.8 3.2-7.6 4.8-11.2 75.2 9.4 149.2-6.4 152.2-7.2-0.6 51.8-19 99.4-49.8 136.6-0.4-0.6-35.4-51.2-121.8-86.4zM591.6 422.8c28.6-78.8 40.4-143 42.6-156.2 49 33.2 84 85.6 93.8 146.6-4.6 1.6-65.8 21-136.4 9.6z" />
<glyph unicode="&#xe933;" glyph-name="dribbble-round-border" d="M512 960c-282.8 0-512-229.2-512-512s229.2-512 512-512 512 229.2 512 512-229.2 512-512 512zM831.6 128.6c-41.6-41.6-89.8-74.2-143.6-96.8-55.6-23.6-114.8-35.4-176-35.4-61 0-120.2 12-176 35.4-53.8 22.8-102.2 55.4-143.6 96.8-41.6 41.6-74.2 89.8-96.8 143.6-23.6 55.6-35.6 114.8-35.6 175.8s12 120.2 35.4 176c22.8 53.8 55.4 102.2 96.8 143.6 41.8 41.6 90 74.2 143.8 97 55.8 23.4 115 35.4 176 35.4s120.2-12 176-35.4c53.8-22.8 102.2-55.4 143.6-96.8 41.6-41.6 74.2-89.8 96.8-143.6 23.6-55.6 35.4-114.8 35.4-176 0-61-12-120.2-35.4-176-22.8-53.8-55.4-102.2-96.8-143.6zM747.8 547.8c-6.4 15.2-14.4 29.8-23.6 43.4s-19.6 26.2-31.2 37.8c-11.6 11.6-24.4 22.2-37.8 31.2-13.6 9.2-28.4 17.2-43.4 23.6-15.4 6.6-31.6 11.6-48.2 15-16.8 3.4-34.2 5.2-51.6 5.2s-34.8-1.8-51.6-5.2c-16.4-3.4-32.6-8.4-48-15-15.2-6.4-29.8-14.4-43.4-23.6s-26.2-19.6-37.8-31.2c-11.6-11.6-22-24.4-31.2-37.8-9.2-13.6-17.2-28.2-23.6-43.4-6.6-15.4-11.6-31.6-15-48.2-3.4-16.8-5.2-34.2-5.2-51.6s1.8-34.8 5.2-51.6c3.4-16.4 8.4-32.6 15-48 6.4-15.2 14.4-29.8 23.6-43.6 9.2-13.6 19.6-26.2 31.2-37.8s24.4-22 37.8-31.2c13.6-9.2 28.4-17.2 43.4-23.6 15.4-6.6 31.6-11.6 48-15 16.8-3.4 34.2-5.2 51.6-5.2s34.6 1.8 51.6 5.2c16.4 3.4 32.6 8.4 48.2 15 15.2 6.4 29.8 14.4 43.4 23.6s26.2 19.6 37.8 31.2 22 24.4 31.2 37.8c9.2 13.6 17.2 28.4 23.6 43.6 6.6 15.4 11.6 31.6 15 48 3.4 16.8 5.2 34.2 5.2 51.6s-1.8 34.8-5.2 51.6c-3.4 16.4-8.4 32.6-15 48.2zM512 666.6c55.4 0 105.8-20.6 144.4-54.6-0.6-0.8-31.6-48.2-114.2-79.2-37.4 68.6-78.4 123.2-81.8 127.6 16.6 4 33.8 6.2 51.6 6.2zM459.6 660.4c0 0 0 0 0 0-0.2 0 0 0 0 0zM418.8 645.8c3-3.8 43.4-58.8 81.2-126-105-27.8-196-26.8-201.8-26.6 14 67.6 59.6 123.8 120.6 152.6zM349.4 302c0 0 0 0 0 0-34.8 38.6-56 89.8-56 146 0 2.4 0.2 4.6 0.2 6.8 3.8 0 111.8-2.6 224.4 31.2 6.2-12.2 12.2-24.8 17.8-37.2-2.8-0.8-5.8-1.6-8.6-2.6-118-38.2-177.8-144.2-177.8-144.2zM512 229.4c-51 0-97.6 17.4-134.6 46.6 0.2-0.2 0.2-0.2 0.2-0.2s42 91.4 171.6 136.6c0.4 0.2 1 0.4 1.4 0.4 30.8-80 43.4-146.8 46.6-166-26-11.2-55-17.4-85.2-17.4zM634.2 266.6c-2.2 13.2-13.8 77.4-42.6 156.2 70.6 11.2 131.8-8 136.2-9.6-9.6-60.8-44.6-113.4-93.6-146.6zM578.4 457.4c-1.6 3.8-3.2 7.4-4.8 11.2-4.6 10.8-9.4 21.2-14.6 31.8 86.4 35.2 121.4 86 121.8 86.6 30.6-37.4 49.2-85 49.8-136.8-3.2 0.6-77.2 16.6-152.2 7.2z" />
<glyph unicode="&#xe934;" glyph-name="dribbble-rounded" d="M375.8 277c-0.8 0.6-1.8 1.6-3 2.4 1-0.8 2-1.6 3-2.4zM527.2 446.4c2.8 1 5.8 1.8 8.6 2.6-5.4 12.4-11.4 25-17.8 37.2-112.6-33.6-220.6-31.2-224.4-31.2 0-2.2-0.2-4.6-0.2-6.8 0-56.2 21.2-107.4 56-146.2v0.2c0 0 59.8 106 177.8 144.2zM499.8 519.8c-37.8 67.2-78.2 122-81.2 126-61-28.8-106.4-85-120.6-152.6 5.8-0.2 97-1.4 201.8 26.6zM656.4 612c-38.6 34-89 54.6-144.4 54.6-17.8 0-35-2.2-51.6-6.2 3.2-4.4 44.4-58.8 81.8-127.6 82.4 31 113.6 78.4 114.2 79.2zM459.6 660.4c-0.2 0-0.4-0.2-0.8-0.2 0.6 0 0.8 0 0.8 0.2zM549.2 412.2c-127.6-44.4-170.2-133.6-171.6-136.6 37.2-29 83.8-46.2 134.4-46.2 30.2 0 59.2 6.2 85.4 17.4-3.2 19.2-16 86-46.6 166-0.6-0.2-1.2-0.4-1.6-0.6zM377.6 275.6c0 0 0 0 0 0-0.2 0.2-0.2 0.2-0.4 0.4 0.2-0.2 0.4-0.4 0.4-0.4zM559 500.4c5-10.4 10-21 14.6-31.8 1.6-3.8 3.2-7.6 4.8-11.2 75.2 9.4 149.2-6.4 152.2-7.2-0.6 51.8-19 99.4-49.8 136.6-0.4-0.6-35.4-51.2-121.8-86.4zM944 960h-864c-44.2 0-80-35.8-80-80v-864c0-44.2 35.8-80 80-80h864c44.2 0 80 35.8 80 80v864c0 44.2-35.8 80-80 80zM762.8 396.4c-3.4-16.4-8.4-32.6-15-48-6.4-15.2-14.4-29.8-23.6-43.6-9.2-13.6-19.6-26.2-31.2-37.8s-24.4-22-37.8-31.2c-13.6-9.2-28.4-17.2-43.4-23.6-15.4-6.6-31.6-11.6-48.2-15-16.8-3.4-34.2-5.2-51.6-5.2s-34.8 1.8-51.6 5.2c-16.4 3.4-32.6 8.4-48 15-15.2 6.4-29.8 14.4-43.4 23.6s-26.2 19.6-37.8 31.2c-11.6 11.6-22 24.4-31.2 37.8-9.2 13.6-17.2 28.4-23.6 43.6-6.6 15.4-11.6 31.6-15 48-3.4 16.8-5.2 34.2-5.2 51.6s1.8 34.8 5.2 51.6c3.4 16.4 8.4 32.6 15 48.2 6.4 15.2 14.4 29.8 23.6 43.4s19.6 26.2 31.2 37.8 24.4 22.2 37.8 31.2c13.6 9.2 28.4 17.2 43.4 23.6 15.4 6.6 31.6 11.6 48 15 16.8 3.4 34.2 5.2 51.6 5.2s34.6-1.8 51.6-5.2c16.4-3.4 32.6-8.4 48.2-15 15.2-6.4 29.8-14.4 43.4-23.6s26.2-19.6 37.8-31.2c11.6-11.6 22-24.4 31.2-37.8 9.2-13.6 17.2-28.2 23.6-43.4 6.6-15.4 11.6-31.6 15-48.2 3.4-16.8 5.2-34.2 5.2-51.6s-1.8-34.8-5.2-51.6zM591.6 422.8c28.6-78.8 40.4-143 42.6-156.2 49 33.2 84 85.6 93.8 146.6-4.6 1.6-65.8 21-136.4 9.6z" />
<glyph unicode="&#xe935;" glyph-name="dribbble-rounded-border" d="M944 900c11 0 20-9 20-20v-864c0-11-9-20-20-20h-864c-11 0-20 9-20 20v864c0 11 9 20 20 20h864zM944 960h-864c-44.2 0-80-35.8-80-80v-864c0-44.2 35.8-80 80-80h864c44.2 0 80 35.8 80 80v864c0 44.2-35.8 80-80 80v0zM762.8 499.6c-3.4 16.4-8.4 32.6-15 48.2-6.4 15.2-14.4 29.8-23.6 43.4s-19.6 26.2-31.2 37.8-24.4 22.2-37.8 31.2c-13.6 9.2-28.4 17.2-43.4 23.6-15.4 6.6-31.6 11.6-48.2 15-16.8 3.4-34.2 5.2-51.6 5.2s-34.8-1.8-51.6-5.2c-16.4-3.4-32.6-8.4-48-15-15.2-6.4-29.8-14.4-43.4-23.6s-26.2-19.6-37.8-31.2c-11.6-11.6-22-24.4-31.2-37.8-9.2-13.6-17.2-28.2-23.6-43.4-6.6-15.4-11.6-31.6-15-48.2-3.4-16.8-5.2-34.2-5.2-51.6s1.8-34.8 5.2-51.6c3.4-16.4 8.4-32.6 15-48 6.4-15.2 14.4-29.8 23.6-43.6 9.2-13.6 19.6-26.2 31.2-37.8s24.4-22 37.8-31.2c13.6-9.2 28.4-17.2 43.4-23.6 15.4-6.6 31.6-11.6 48-15 16.8-3.4 34.2-5.2 51.6-5.2s34.6 1.8 51.6 5.2c16.4 3.4 32.6 8.4 48.2 15 15.2 6.4 29.8 14.4 43.4 23.6s26.2 19.6 37.8 31.2c11.6 11.6 22 24.4 31.2 37.8 9.2 13.6 17.2 28.4 23.6 43.6 6.6 15.4 11.6 31.6 15 48 3.4 16.8 5.2 34.2 5.2 51.6s-1.8 34.8-5.2 51.6zM730.6 450.2c-3.2 0.6-77.2 16.6-152.2 7.2-1.6 3.8-3.2 7.4-4.8 11.2-4.6 10.8-9.4 21.2-14.6 31.8 86.4 35.2 121.4 86 121.8 86.6 30.6-37.4 49.2-85 49.8-136.8zM656.4 612c-0.6-0.8-31.6-48.2-114.2-79.2-37.4 68.6-78.4 123.2-81.8 127.6 16.6 4 33.8 6.2 51.6 6.2 55.4 0 105.8-20.6 144.4-54.6zM459.6 660.4c0-0.2 0-0.2 0 0 0 0-0.2-0.2-0.8-0.2 0.4 0 0.6 0 0.8 0.2zM418.8 645.8c3-3.8 43.4-58.8 81.2-126-105-27.8-196-26.8-201.8-26.6 14 67.6 59.6 123.8 120.6 152.6zM293.4 448c0 2.4 0.2 4.6 0.2 6.8 3.8 0 111.8-2.6 224.4 31.2 6.2-12.2 12.2-24.8 17.8-37.2-2.8-0.8-5.8-1.6-8.6-2.6-118-38.2-177.8-144.2-177.8-144.2s0 0 0-0.2c-34.8 38.8-56 90-56 146.2zM512 229.4c-53 0-101.4 18.8-139.2 50.2 2.8-2.4 4.8-3.8 4.8-3.8s42 91.4 171.6 136.6c0.4 0.2 1 0.4 1.4 0.4 30.8-80 43.4-146.8 46.6-166-26-11.2-55-17.4-85.2-17.4zM634.2 266.6c-2.2 13.2-13.8 77.4-42.6 156.2 70.6 11.2 131.8-8 136.2-9.6-9.6-60.8-44.6-113.4-93.6-146.6z" />
<glyph unicode="&#xe936;" glyph-name="dribbble-square" d="M499.8 519.8c-37.8 67.2-78.2 122-81.2 126-61-28.8-106.4-85-120.6-152.6 5.8-0.2 97-1.4 201.8 26.6zM527.2 446.4c2.8 1 5.8 1.8 8.6 2.6-5.4 12.4-11.4 25-17.8 37.2-112.6-33.6-220.6-31.2-224.4-31.2 0-2.2-0.2-4.6-0.2-6.8 0-56.2 21.2-107.4 56-146.2v0.2c0 0 59.8 106 177.8 144.2zM459.6 660.4c-0.2 0-0.4-0.2-0.8-0.2 0.6 0 0.8 0 0.8 0.2 0-0.2 0-0.2 0 0zM656.4 612c-38.6 34-89 54.6-144.4 54.6-17.8 0-35-2.2-51.6-6.2 3.2-4.4 44.4-58.8 81.8-127.6 82.4 31 113.6 78.4 114.2 79.2zM375.8 277c-1 0.8-2 1.6-3 2.4 1.2-0.8 2.2-1.8 3-2.4zM0 960v-1024h1024v1024h-1024zM762.8 396.4c-3.4-16.4-8.4-32.6-15-48-6.4-15.2-14.4-29.8-23.6-43.6-9.2-13.6-19.6-26.2-31.2-37.8s-24.4-22-37.8-31.2c-13.6-9.2-28.4-17.2-43.4-23.6-15.4-6.6-31.6-11.6-48.2-15-16.8-3.4-34.2-5.2-51.6-5.2s-34.8 1.8-51.6 5.2c-16.4 3.4-32.6 8.4-48 15-15.2 6.4-29.8 14.4-43.4 23.6s-26.2 19.6-37.8 31.2c-11.6 11.6-22 24.4-31.2 37.8-9.2 13.6-17.2 28.4-23.6 43.6-6.6 15.4-11.6 31.6-15 48-3.4 16.8-5.2 34.2-5.2 51.6s1.8 34.8 5.2 51.6c3.4 16.4 8.4 32.6 15 48.2 6.4 15.2 14.4 29.8 23.6 43.4s19.6 26.2 31.2 37.8 24.4 22.2 37.8 31.2c13.6 9.2 28.4 17.2 43.4 23.6 15.4 6.6 31.6 11.6 48 15 16.8 3.4 34.2 5.2 51.6 5.2s34.6-1.8 51.6-5.2c16.4-3.4 32.6-8.4 48.2-15 15.2-6.4 29.8-14.4 43.4-23.6s26.2-19.6 37.8-31.2c11.6-11.6 22-24.4 31.2-37.8 9.2-13.6 17.2-28.2 23.6-43.4 6.6-15.4 11.6-31.6 15-48.2 3.4-16.8 5.2-34.2 5.2-51.6s-1.8-34.8-5.2-51.6zM559 500.4c5-10.4 10-21 14.6-31.8 1.6-3.8 3.2-7.6 4.8-11.2 75.2 9.4 149.2-6.4 152.2-7.2-0.6 51.8-19 99.4-49.8 136.6-0.4-0.6-35.4-51.2-121.8-86.4zM549.2 412.2c-129.6-45.2-171.6-136.6-171.6-136.6s-0.2 0.2-0.4 0.4c37.2-29.2 84-46.6 134.8-46.6 30.2 0 59.2 6.2 85.4 17.4-3.2 19.2-16 86-46.6 166-0.6-0.2-1.2-0.4-1.6-0.6zM591.6 422.8c28.6-78.8 40.4-143 42.6-156.2 49 33.2 84 85.6 93.8 146.6-4.6 1.6-65.8 21-136.4 9.6z" />
<glyph unicode="&#xe937;" glyph-name="dribbble-square-border" d="M0 960v-1024h1024v1024h-1024zM964-4h-904v904h904v-904zM276.4 348.4c6.4-15.2 14.4-29.8 23.6-43.6 9.2-13.6 19.6-26.2 31.2-37.8s24.4-22 37.8-31.2c13.6-9.2 28.4-17.2 43.4-23.6 15.4-6.6 31.6-11.6 48-15 16.8-3.4 34.2-5.2 51.6-5.2s34.6 1.8 51.6 5.2c16.4 3.4 32.6 8.4 48.2 15 15.2 6.4 29.8 14.4 43.4 23.6s26.2 19.6 37.8 31.2 22 24.4 31.2 37.8c9.2 13.6 17.2 28.4 23.6 43.6 6.6 15.4 11.6 31.6 15 48 3.4 16.8 5.2 34.2 5.2 51.6s-1.8 34.8-5.2 51.6c-3.4 16.4-8.4 32.6-15 48.2-6.4 15.2-14.4 29.8-23.6 43.4s-19.6 26.2-31.2 37.8c-11.6 11.6-24.4 22.2-37.8 31.2-13.6 9.2-28.4 17.2-43.4 23.6-15.4 6.6-31.6 11.6-48.2 15-16.8 3.4-34.2 5.2-51.6 5.2s-34.8-1.8-51.6-5.2c-16.4-3.4-32.6-8.4-48-15-15.2-6.4-29.8-14.4-43.4-23.6s-26.2-19.6-37.8-31.2c-11.6-11.6-22-24.4-31.2-37.8-9.2-13.6-17.2-28.2-23.6-43.4-6.6-15.4-11.6-31.6-15-48.2-3.4-16.8-5.2-34.2-5.2-51.6s1.8-34.8 5.2-51.6c3.4-16.4 8.4-32.6 15-48zM512 229.4c-51 0-97.6 17.4-134.6 46.6 0.2-0.2 0.2-0.2 0.2-0.2s42 91.4 171.6 136.6c0.4 0.2 1 0.4 1.4 0.4 30.8-80 43.4-146.8 46.6-166-26-11.2-55-17.4-85.2-17.4zM634.2 266.6c-2.2 13.2-13.8 77.4-42.6 156.2 70.6 11.2 131.8-8 136.2-9.6-9.6-60.8-44.6-113.4-93.6-146.6zM680.8 587c30.6-37.4 49.2-85 49.8-136.8-3.2 0.6-77.2 16.6-152.2 7.2-1.6 3.8-3.2 7.4-4.8 11.2-4.6 10.8-9.4 21.2-14.6 31.8 86.4 35.2 121.4 86 121.8 86.6zM512 666.6c55.4 0 105.8-20.6 144.4-54.6-0.6-0.8-31.6-48.2-114.2-79.2-37.4 68.6-78.4 123.2-81.8 127.6 16.6 4 33.8 6.2 51.6 6.2zM459.4 660.2c0 0.2 0.2 0.2 0 0 0.2 0.2 0.2 0.2 0 0zM418.8 645.8c3-3.8 43.4-58.8 81.2-126-105-27.8-196-26.8-201.8-26.6 14 67.6 59.6 123.8 120.6 152.6zM293.6 454.8c3.8 0 111.8-2.6 224.4 31.2 6.2-12.2 12.2-24.8 17.8-37.2-2.8-0.8-5.8-1.6-8.6-2.6-118-38.2-177.8-144.2-177.8-144.2s0 0 0-0.2c-34.8 38.8-56 90-56 146.2 0 2.4 0.2 4.6 0.2 6.8z" />
<glyph unicode="&#xe938;" glyph-name="dropbox" d="M0 394l301.2-196.4 210.8 175.6-303.6 187.6zM301.2 924l-301.2-196.4 208.4-166.8 303.6 187.6zM1024 727.6l-301.2 196.4-210.8-175.6 303.6-187.6zM512 373.2l210.8-175.6 301.2 196.4-208.4 166.8zM512.8 335.6l-211.6-175.6-90.4 59.2v-66.4l302-180.8 301.6 180.8v66.4l-90.4-59.2z" />
<glyph unicode="&#xe939;" glyph-name="dropbox-round" d="M360.2 504.4l151.8-93.8 151.8 93.8-151.8 93.8zM512 960c-282.8 0-512-229.2-512-512s229.2-512 512-512 512 229.2 512 512-229.2 512-512 512zM663.2 300.4l-151-90.4-151 90.4v33.2l45.2-29.6 105.8 87.6 105.8-87.6 45.2 29.6v-33.2zM768 421l-150.6-98.2-105.4 87.8-105.4-87.8-150.6 98.2 104.2 83.4-104.2 83.4 150.6 98.2 105.4-87.8 105.4 87.8 150.6-98.2-104.2-83.4 104.2-83.4z" />
<glyph unicode="&#xe93a;" glyph-name="dropbox-round-border" d="M512 960c-282.8 0-512-229.2-512-512s229.2-512 512-512 512 229.2 512 512-229.2 512-512 512zM831.6 128.6c-41.6-41.6-89.8-74.2-143.6-96.8-55.6-23.6-114.8-35.4-176-35.4-61 0-120.2 12-176 35.4-53.8 22.8-102.2 55.4-143.6 96.8-41.6 41.6-74.2 89.8-96.8 143.6-23.6 55.6-35.6 114.8-35.6 175.8s12 120.2 35.4 176c22.8 53.8 55.4 102.2 96.8 143.6 41.8 41.6 90 74.2 143.8 97 55.8 23.4 115 35.4 176 35.4s120.2-12 176-35.4c53.8-22.8 102.2-55.4 143.6-96.8 41.6-41.6 74.2-89.8 96.8-143.6 23.6-55.6 35.4-114.8 35.4-176 0-61-12-120.2-35.4-176-22.8-53.8-55.4-102.2-96.8-143.6zM256 421l150.6-98.2 105.4 87.8-151.8 93.8zM406.6 686l-150.6-98.2 104.2-83.4 151.8 93.8zM617.4 686l-105.4-87.8 151.8-93.8 104.2 83.4zM617.4 322.8l150.6 98.2-104.2 83.4-151.8-93.8zM512.4 391.8l-105.8-87.8-45.2 29.6v-33.2l151-90.4 150.8 90.4v33.2l-45.2-29.6z" />
<glyph unicode="&#xe93b;" glyph-name="dropbox-rounded" d="M360.2 504.4l151.8-93.8 151.8 93.8-151.8 93.8zM944 960h-864c-44.2 0-80-35.8-80-80v-864c0-44.2 35.8-80 80-80h864c44.2 0 80 35.8 80 80v864c0 44.2-35.8 80-80 80zM663.2 300.4l-151-90.4-151 90.4v33.2l45.2-29.6 105.8 87.6 105.8-87.6 45.2 29.6v-33.2zM768 421l-150.6-98.2-105.4 87.8-105.4-87.8-150.6 98.2 104.2 83.4-104.2 83.4 150.6 98.2 105.4-87.8 105.4 87.8 150.6-98.2-104.2-83.4 104.2-83.4z" />
<glyph unicode="&#xe93c;" glyph-name="dropbox-rounded-border" d="M944 960h-864c-44.2 0-80-35.8-80-80v-864c0-44.2 35.8-80 80-80h864c44.2 0 80 35.8 80 80v864c0 44.2-35.8 80-80 80zM964 16c0-11-9-20-20-20h-864c-11 0-20 9-20 20v864c0 11 9 20 20 20h864c11 0 20-9 20-20v-864zM256 421l150.6-98.2 105.4 87.8-151.8 93.8zM406.6 686l-150.6-98.2 104.2-83.4 151.8 93.8zM617.4 686l-105.4-87.8 151.8-93.8 104.2 83.4zM617.4 322.8l150.6 98.2-104.2 83.4-151.8-93.8zM512.4 391.8l-105.8-87.8-45.2 29.6v-33.2l151-90.4 150.8 90.4v33.2l-45.2-29.6z" />
<glyph unicode="&#xe93d;" glyph-name="dropbox-square" d="M360.2 504.4l151.8-93.8 151.8 93.8-151.8 93.8zM0 960v-1024h1024v1024h-1024zM663.2 300.4l-151-90.4-151 90.4v33.2l45.2-29.6 105.8 87.6 105.8-87.6 45.2 29.6v-33.2zM768 421l-150.6-98.2-105.4 87.8-105.4-87.8-150.6 98.2 104.2 83.4-104.2 83.4 150.6 98.2 105.4-87.8 105.4 87.8 150.6-98.2-104.2-83.4 104.2-83.4z" />
<glyph unicode="&#xe93e;" glyph-name="dropbox-square-border" d="M0 960v-1024h1024v1024h-1024zM964-4h-904v904h904v-904zM406.6 322.8l105.4 87.8-151.8 93.8-104.2-83.4zM406.6 686l-150.6-98.2 104.2-83.4 151.8 93.8zM768 587.8l-150.6 98.2-105.4-87.8 151.8-93.8zM617.4 322.8l150.6 98.2-104.2 83.4-151.8-93.8zM512.4 391.8l-105.8-87.8-45.2 29.6v-33.2l151-90.4 150.8 90.4v33.2l-45.2-29.6z" />
<glyph unicode="&#xe93f;" glyph-name="ebay" d="M579.319 338.963v0c-27.496 5.689-44.879 21.807-54.36 43.299-1.896 4.109-3.477 8.533-4.741 12.958-2.844 10.43-4.425 22.123-4.425 34.449v0.316c0 18.015 2.844 33.185 8.533 45.511 5.373 12.010 12.958 21.491 22.756 28.444-10.746 7.269-24.652 11.378-43.931 11.378-28.444 0-47.407-7.269-64.158-29.393h-0.948v135.585h-78.38v-112.83c1.264-0.316 2.212-0.948 3.477-1.58 30.025-11.694 47.407-28.444 56.573-48.988 9.165-20.227 10.114-42.983 8.217-67.951v0c-0.316-4.741-4.109-8.533-8.849-8.533h-59.101v-7.585h57.205c4.741-0.316 8.533-4.425 8.533-9.481-0.632-14.854-6.637-28.128-17.067-39.19-9.798-10.43-23.704-19.279-41.402-26.548-2.212-1.896-2.844-2.212-5.373-2.528l-1.896-0.948v-43.615h74.588v28.128h1.264c14.222-24.652 35.714-33.817 66.37-33.817 60.998 0 74.588 46.775 78.064 91.97l-0.948 0.948zM503.467 384.158c0-65.422-4.425-92.286-33.185-92.286-27.18 0-31.921 27.18-31.921 92.286 0 50.884 0 86.914 31.921 86.914 34.449-0.316 33.185-36.346 33.185-86.914zM362.193 307.042c34.449 13.906 53.096 33.501 54.36 58.469h-146.015c0-19.595-10.43-41.402-61.63-41.402-63.21 0-64.474 40.454-64.474 67.635h274.647c3.477 46.775-3.793 85.965-59.101 107.457-12.326 5.689-26.232 8.849-42.983 12.010-27.18 5.373-62.894 8.849-107.773 8.849-188.998 0-209.225-53.412-209.225-115.358 0-71.427 24.020-121.679 209.225-121.679 42.667 0 79.644 4.425 109.037 9.481 15.486 3.477 29.709 7.901 41.719 13.274 0.948 0 0.948 0 2.212 1.264zM208.909 480.553c68.899 0 66.686-31.605 66.686-53.096h-131.16c0 18.647-0.948 53.096 64.474 53.096zM748.405 449.58l-7.901 14.538-78.696 145.699-2.844 5.373c-7.585 0.632-15.802 1.264-24.652 1.264-30.025 0-55.941-4.425-73.956-17.383-18.963-11.062-29.709-31.605-29.709-62.894h78.38c0 20.227 1.264 40.138 29.709 40.138 28.76 0 31.921-16.435 31.921-37.926v-20.859c-44.879 1.264-88.81 0-116.622-19.595-18.963-12.958-29.709-34.765-29.709-68.267 0-39.19 15.486-73.007 55.941-81.541 5.689-1.264 11.694-1.264 18.963-1.264 34.449 0 56.889 12.958 73.323 38.874h1.264l3.477-34.449h73.956c-1.264 16.435-3.477 32.553-3.477 48.988v49.304h0.632zM632.099 391.427c-26.232 0-30.025 23.072-30.025 41.086 0 45.511 30.025 42.667 68.899 44.879 0-28.444 7.269-85.965-38.874-85.965zM917.175 648.691l-79.328-154.864-73.956 154.864h-112.83l18.647-34.449 110.933-205.432v-127.052h103.348v127.052l138.114 239.881z" />
<glyph unicode="&#xe940;" glyph-name="ebay-round" d="M569.8 432.4c0-11.4 2.4-26 19-26 29.2 0 24.6 36.4 24.6 54.4-24.6-1.4-43.6 0.6-43.6-28.4zM486.4 456.6c-20.4 0-20.4-22.8-20.4-54.8 0-41.4 3-58.4 20.2-58.4 18.2 0 21 17.2 21 58.4 0.2 32 1 54.8-20.8 54.8zM320.8 462.8c-41.4 0-40.8-21.8-40.8-33.6h83c0 13.6 1.6 33.6-42.2 33.6zM512 960c-282.8 0-512-229.2-512-512s229.2-512 512-512 512 229.2 512 512-229.2 512-512 512zM321 337.6c-117.4 0-132.4 31.6-132.4 77 0 39.2 12.8 73 132.4 73 28.4 0 51.2-2.2 68.2-5.6 10.6-1.8 19.6-4 27.2-7.6 35.2-13.6 39.8-38.4 37.4-68h-173.6c0-17.2 0.8-42.8 40.8-42.8 32.4 0 39 13.8 39 26.2h92.4c-0.8-16-12.6-28.2-34.4-37-0.8-0.8-0.8-0.8-1.4-0.8-7.8-3.6-16.6-6.4-26.4-8.4-18.8-3.2-42.2-6-69.2-6zM506.6 315c-19.6 0-33.2 5.6-42 21.4h-0.8v-17.8h-47.2v27.6l1.2 0.6c1.6 0 2 0.2 3.4 1.6 11.2 4.6 20 10.2 26.2 16.8 6.8 7.2 10.4 15.4 10.8 24.8 0.2 3.2-2.2 6-5.4 6h-36.2v4.8h37.4c3 0 5.4 2.4 5.6 5.4 1.2 15.6 0.6 30.2-5.2 43-5.8 13-16.8 23.6-35.8 31-0.6 0.4-1.4 0.6-2.2 1v71.4h49.6v-85.8h0.8c10.6 13.8 22.6 18.6 40.6 18.6 12.2 0 21-2.6 27.8-7.2-6.2-4.6-11-10.6-14.4-18-3.6-7.8-5.4-17.4-5.4-28.8v-0.2c0-7.6 0.8-15 2.8-21.8 0.8-2.8 1.8-5.4 3-8.2 6-13.6 17-23.8 34.2-27.4h0.2l0.6-0.2c-2.4-29-11-58.6-49.6-58.6zM618 381l-2.2 21.8h-0.8c-10.6-16.4-24.6-24.6-46.4-24.6-4.6 0-8.4 0-12 0.8-25.6 5.4-35.4 26.8-35.4 51.6 0 21.2 6.6 35 18.8 43.2 17.4 12.4 45.2 13.2 73.8 12.4v13.2c0 13.6-2 24-20.2 24-18 0-18.8-12.4-18.8-25.4h-49.6c0 20 6.8 32.8 18.8 39.8 11.2 8.2 27.8 11 46.8 11 5.6 0 10.8-0.4 15.6-0.8l1.8-3.4 49.8-92.2 5-9.2v-31.2c0-10.4 1.4-20.6 2.2-31h-47.2zM748.2 417.4v-80.4h-65.4v80.4l-20.2 37.8-61.6 114h71.4l46.8-98 50.4 98h66.2l-87.6-151.8z" />
<glyph unicode="&#xe941;" glyph-name="ebay-round-border" d="M512 960c-282.8 0-512-229.2-512-512s229.2-512 512-512 512 229.2 512 512-229.2 512-512 512zM831.6 128.6c-41.6-41.6-89.8-74.2-143.6-96.8-55.6-23.6-114.8-35.4-176-35.4-61 0-120.2 12-176 35.4-53.8 22.8-102.2 55.4-143.6 96.8-41.6 41.6-74.2 89.8-96.8 143.6-23.6 55.6-35.6 114.8-35.6 175.8s12 120.2 35.4 176c22.8 53.8 55.4 102.2 96.8 143.6 41.8 41.6 90 74.2 143.8 97 55.8 23.4 115 35.4 176 35.4s120.2-12 176-35.4c53.8-22.8 102.2-55.4 143.6-96.8 41.6-41.6 74.2-89.8 96.8-143.6 23.6-55.6 35.4-114.8 35.4-176 0-61-12-120.2-35.4-176-22.8-53.8-55.4-102.2-96.8-143.6zM521 400.6c-1.2 2.6-2.2 5.4-3 8.2-1.8 6.6-2.8 14-2.8 21.8v0.2c0 11.4 1.8 21 5.4 28.8 3.4 7.6 8.2 13.6 14.4 18-6.8 4.6-15.6 7.2-27.8 7.2-18 0-30-4.6-40.6-18.6h-0.6v85.8h-49.6v-71.4c0.8-0.2 1.4-0.6 2.2-1 19-7.4 30-18 35.8-31 5.8-12.8 6.4-27.2 5.2-43-0.2-3-2.6-5.4-5.6-5.4h-37.4v-4.8h36.2c3-0.2 5.4-2.8 5.4-6-0.4-9.4-4.2-17.8-10.8-24.8-6.2-6.6-15-12.2-26.2-16.8-1.4-1.2-1.8-1.4-3.4-1.6l-1.2-0.6v-27.6h47.2v17.8h0.8c9-15.6 22.6-21.4 42-21.4 38.6 0 47.2 29.6 49.4 58.2l-0.6 0.6c-17.4 3.6-28.4 13.8-34.4 27.4zM507.4 401.8c0-41.4-2.8-58.4-21-58.4-17.2 0-20.2 17.2-20.2 58.4 0 32.2 0 55 20.2 55 21.8-0.2 21-23 21-55zM418 353c21.8 8.8 33.6 21.2 34.4 37h-92.4c0-12.4-6.6-26.2-39-26.2-40 0-40.8 25.6-40.8 42.8h173.8c2.2 29.6-2.4 54.4-37.4 68-7.8 3.6-16.6 5.6-27.2 7.6-17.2 3.4-39.8 5.6-68.2 5.6-119.6 0-132.4-33.8-132.4-73 0-45.2 15.2-77 132.4-77 27 0 50.4 2.8 69 6 9.8 2.2 18.8 5 26.4 8.4 0.6 0 0.6 0 1.4 0.8zM321 462.8c43.6 0 42.2-20 42.2-33.6h-83c0 11.8-0.6 33.6 40.8 33.6zM662 443.2h0.4l-5 9.2-49.8 92.2-1.8 3.4c-4.8 0.4-10 0.8-15.6 0.8-19 0-35.4-2.8-46.8-11-12-7-18.8-20-18.8-39.8h49.6c0 12.8 0.8 25.4 18.8 25.4 18.2 0 20.2-10.4 20.2-24v-13.2c-28.4 0.8-56.2 0-73.8-12.4-12-8.2-18.8-22-18.8-43.2 0-24.8 9.8-46.2 35.4-51.6 3.6-0.8 7.4-0.8 12-0.8 21.8 0 36 8.2 46.4 24.6h0.8l2.2-21.8h46.8c-0.8 10.4-2.2 20.6-2.2 31v31.2zM588.8 406.4c-16.6 0-19 14.6-19 26 0 28.8 19 27 43.6 28.4 0-18 4.6-54.4-24.6-54.4zM719 471.2l-46.8 98h-71.4l11.8-21.8 70.2-130v-80.4h65.4v80.4l87.4 151.8h-66.4z" />
<glyph unicode="&#xe942;" glyph-name="ebay-rounded" d="M320.8 462.8c-41.4 0-40.8-21.8-40.8-33.6h83c0 13.6 1.6 33.6-42.2 33.6zM486.4 456.6c-20.4 0-20.4-22.8-20.4-54.8 0-41.4 3-58.4 20.2-58.4 18.2 0 21 17.2 21 58.4 0.2 32 1 54.8-20.8 54.8zM569.8 432.4c0-11.4 2.4-26 19-26 29.2 0 24.6 36.4 24.6 54.4-24.6-1.4-43.6 0.6-43.6-28.4zM944 960h-864c-44.2 0-80-35.8-80-80v-864c0-44.2 35.8-80 80-80h864c44.2 0 80 35.8 80 80v864c0 44.2-35.8 80-80 80zM321 337.6c-117.4 0-132.4 31.6-132.4 77 0 39.2 12.8 73 132.4 73 28.4 0 51.2-2.2 68.2-5.6 10.6-1.8 19.6-4 27.2-7.6 35.2-13.6 39.8-38.4 37.4-68h-173.6c0-17.2 0.8-42.8 40.8-42.8 32.4 0 39 13.8 39 26.2h92.4c-0.8-16-12.6-28.2-34.4-37-0.8-0.8-0.8-0.8-1.4-0.8-7.8-3.6-16.6-6.4-26.4-8.4-18.8-3.2-42.2-6-69.2-6zM506.6 315c-19.6 0-33.2 5.6-42 21.4h-0.8v-17.8h-47.2v27.6l1.2 0.6c1.6 0 2 0.2 3.4 1.6 11.2 4.6 20 10.2 26.2 16.8 6.8 7.2 10.4 15.4 10.8 24.8 0.2 3.2-2.2 6-5.4 6h-36.2v4.8h37.4c3 0 5.4 2.4 5.6 5.4 1.2 15.6 0.6 30.2-5.2 43-5.8 13-16.8 23.6-35.8 31-0.6 0.4-1.4 0.6-2.2 1v71.4h49.6v-85.8h0.8c10.6 13.8 22.6 18.6 40.6 18.6 12.2 0 21-2.6 27.8-7.2-6.2-4.6-11-10.6-14.4-18-3.6-7.8-5.4-17.4-5.4-28.8v-0.2c0-7.6 0.8-15 2.8-21.8 0.8-2.8 1.8-5.4 3-8.2 6-13.6 17-23.8 34.2-27.4h0.2l0.6-0.2c-2.4-29-11-58.6-49.6-58.6zM618 381l-2.2 21.8h-0.8c-10.6-16.4-24.6-24.6-46.4-24.6-4.6 0-8.4 0-12 0.8-25.6 5.4-35.4 26.8-35.4 51.6 0 21.2 6.6 35 18.8 43.2 17.4 12.4 45.2 13.2 73.8 12.4v13.2c0 13.6-2 24-20.2 24-18 0-18.8-12.4-18.8-25.4h-49.6c0 20 6.8 32.8 18.8 39.8 11.2 8.2 27.8 11 46.8 11 5.6 0 10.8-0.4 15.6-0.8l1.8-3.4 49.8-92.2 5-9.2v-31.2c0-10.4 1.4-20.6 2.2-31h-47.2zM748.2 417.4v-80.4h-65.4v80.4l-20.2 37.8-61.6 114h71.4l46.8-98 50.4 98h66.2l-87.6-151.8z" />
<glyph unicode="&#xe943;" glyph-name="ebay-rounded-border" d="M944 960h-864c-44.2 0-80-35.8-80-80v-864c0-44.2 35.8-80 80-80h864c44.2 0 80 35.8 80 80v864c0 44.2-35.8 80-80 80zM964 16c0-11-9-20-20-20h-864c-11 0-20 9-20 20v864c0 11 9 20 20 20h864c11 0 20-9 20-20v-864zM521 400.6c-1.2 2.6-2.2 5.4-3 8.2-1.8 6.6-2.8 14-2.8 21.8v0.2c0 11.4 1.8 21 5.4 28.8 3.4 7.6 8.2 13.6 14.4 18-6.8 4.6-15.6 7.2-27.8 7.2-18 0-30-4.6-40.6-18.6h-0.6v85.8h-49.6v-71.4c0.8-0.2 1.4-0.6 2.2-1 19-7.4 30-18 35.8-31 5.8-12.8 6.4-27.2 5.2-43-0.2-3-2.6-5.4-5.6-5.4h-37.4v-4.8h36.2c3-0.2 5.4-2.8 5.4-6-0.4-9.4-4.2-17.8-10.8-24.8-6.2-6.6-15-12.2-26.2-16.8-1.4-1.2-1.8-1.4-3.4-1.6l-1.2-0.6v-27.6h47.2v17.8h0.8c9-15.6 22.6-21.4 42-21.4 38.6 0 47.2 29.6 49.4 58.2l-0.6 0.6c-17.4 3.6-28.4 13.8-34.4 27.4zM507.4 401.8c0-41.4-2.8-58.4-21-58.4-17.2 0-20.2 17.2-20.2 58.4 0 32.2 0 55 20.2 55 21.8-0.2 21-23 21-55zM418 353c21.8 8.8 33.6 21.2 34.4 37h-92.4c0-12.4-6.6-26.2-39-26.2-40 0-40.8 25.6-40.8 42.8h173.8c2.2 29.6-2.4 54.4-37.4 68-7.8 3.6-16.6 5.6-27.2 7.6-17.2 3.4-39.8 5.6-68.2 5.6-119.6 0-132.4-33.8-132.4-73 0-45.2 15.2-77 132.4-77 27 0 50.4 2.8 69 6 9.8 2.2 18.8 5 26.4 8.4 0.6 0 0.6 0 1.4 0.8zM321 462.8c43.6 0 42.2-20 42.2-33.6h-83c0 11.8-0.6 33.6 40.8 33.6zM662 443.2h0.4l-5 9.2-49.8 92.2-1.8 3.4c-4.8 0.4-10 0.8-15.6 0.8-19 0-35.4-2.8-46.8-11-12-7-18.8-20-18.8-39.8h49.6c0 12.8 0.8 25.4 18.8 25.4 18.2 0 20.2-10.4 20.2-24v-13.2c-28.4 0.8-56.2 0-73.8-12.4-12-8.2-18.8-22-18.8-43.2 0-24.8 9.8-46.2 35.4-51.6 3.6-0.8 7.4-0.8 12-0.8 21.8 0 36 8.2 46.4 24.6h0.8l2.2-21.8h46.8c-0.8 10.4-2.2 20.6-2.2 31v31.2zM588.8 406.4c-16.6 0-19 14.6-19 26 0 28.8 19 27 43.6 28.4 0-18 4.6-54.4-24.6-54.4zM719 471.2l-46.8 98h-71.4l11.8-21.8 70.2-130v-80.4h65.4v80.4l87.4 151.8h-66.4z" />
<glyph unicode="&#xe944;" glyph-name="ebay-square" d="M569.8 432.4c0-11.4 2.4-26 19-26 29.2 0 24.6 36.4 24.6 54.4-24.6-1.4-43.6 0.6-43.6-28.4zM320.8 462.8c-41.4 0-40.8-21.8-40.8-33.6h83c0 13.6 1.6 33.6-42.2 33.6zM0 960v-1024h1024v1024h-1024zM321 337.6c-117.4 0-132.4 31.6-132.4 77 0 39.2 12.8 73 132.4 73 28.4 0 51.2-2.2 68.2-5.6 10.6-1.8 19.6-4 27.2-7.6 35.2-13.6 39.8-38.4 37.4-68h-173.6c0-17.2 0.8-42.8 40.8-42.8 32.4 0 39 13.8 39 26.2h92.4c-0.8-16-12.6-28.2-34.4-37-0.8-0.8-0.8-0.8-1.4-0.8-7.8-3.6-16.6-6.4-26.4-8.4-18.8-3.2-42.2-6-69.2-6zM506.6 315c-19.6 0-33.2 5.6-42 21.4h-0.8v-17.8h-47.2v27.6l1.2 0.6c1.6 0 2 0.2 3.4 1.6 11.2 4.6 20 10.2 26.2 16.8 6.8 7.2 10.4 15.4 10.8 24.8 0.2 3.2-2.2 6-5.4 6h-36.2v4.8h37.4c3 0 5.4 2.4 5.6 5.4 1.2 15.6 0.6 30.2-5.2 43-5.8 13-16.8 23.6-35.8 31-0.6 0.4-1.4 0.6-2.2 1v71.4h49.6v-85.8h0.8c10.6 13.8 22.6 18.6 40.6 18.6 12.2 0 21-2.6 27.8-7.2-6.2-4.6-11-10.6-14.4-18-3.6-7.8-5.4-17.4-5.4-28.8v-0.2c0-7.6 0.8-15 2.8-21.8 0.8-2.8 1.8-5.4 3-8.2 6-13.6 17-23.8 34.2-27.4h0.2l0.6-0.2c-2.4-29-11-58.6-49.6-58.6zM618 381l-2.2 21.8h-0.8c-10.6-16.4-24.6-24.6-46.4-24.6-4.6 0-8.4 0-12 0.8-25.6 5.4-35.4 26.8-35.4 51.6 0 21.2 6.6 35 18.8 43.2 17.4 12.4 45.2 13.2 73.8 12.4v13.2c0 13.6-2 24-20.2 24-18 0-18.8-12.4-18.8-25.4h-49.6c0 20 6.8 32.8 18.8 39.8 11.2 8.2 27.8 11 46.8 11 5.6 0 10.8-0.4 15.6-0.8l1.8-3.4 49.8-92.2 5-9.2v-31.2c0-10.4 1.4-20.6 2.2-31h-47.2zM748.2 417.4v-80.4h-65.4v80.4l-20.2 37.8-61.6 114h71.4l46.8-98 50.4 98h66.2l-87.6-151.8zM486.4 456.6c-20.4 0-20.4-22.8-20.4-54.8 0-41.4 3-58.4 20.2-58.4 18.2 0 21 17.2 21 58.4 0.2 32 1 54.8-20.8 54.8z" />
<glyph unicode="&#xe945;" glyph-name="ebay-square-border" d="M0 960v-1024h1024v1024h-1024zM964-4h-904v904h904v-904zM454.4 448.8c5.8-12.8 6.4-27.2 5.2-43-0.2-3-2.6-5.4-5.6-5.4h-37.4v-4.8h36.2c3-0.2 5.4-2.8 5.4-6-0.4-9.4-4.2-17.8-10.8-24.8-6.2-6.6-15-12.2-26.2-16.8-1.4-1.2-1.8-1.4-3.4-1.6l-1.2-0.6v-27.6h47.2v17.8h0.8c9-15.6 22.6-21.4 42-21.4 38.6 0 47.2 29.6 49.4 58.2l-0.6 0.2h-0.2c-17.4 3.6-28.2 13.8-34.2 27.4-1.2 2.6-2.2 5.4-3 8.2-1.8 6.6-2.8 14-2.8 21.8v0.2c0 11.4 1.8 21 5.4 28.8 3.4 7.6 8.2 13.6 14.4 18-6.8 4.6-15.6 7.2-27.8 7.2-18 0-30-4.6-40.6-18.6h-0.6v85.8h-49.6v-71.4c0.8-0.2 1.4-0.6 2.2-1 19-7 30-17.6 35.8-30.6zM486.4 456.6c21.8 0 21-22.8 21-55 0-41.4-2.8-58.4-21-58.4-17.2 0-20.2 17.2-20.2 58.4-0.2 32.2-0.2 55 20.2 55zM321 337.6c27 0 50.4 2.8 69 6 9.8 2.2 18.8 5 26.4 8.4 0.8 0 0.8 0 1.4 0.8 21.8 8.8 33.6 21.2 34.4 37h-92.2c0-12.4-6.6-26.2-39-26.2-40 0-40.8 25.6-40.8 42.8h173.8c2.2 29.6-2.4 54.4-37.4 68-7.8 3.6-16.6 5.6-27.2 7.6-17.2 3.4-39.8 5.6-68.2 5.6-119.6 0-132.4-33.8-132.4-73-0.4-45.2 14.8-77 132.2-77zM321 462.8c43.6 0 42.2-20 42.2-33.6h-83c0 11.8-0.6 33.6 40.8 33.6zM593.2 523.2c18.2 0 20.2-10.4 20.2-24v-13.2c-28.4 0.8-56.2 0-73.8-12.4-12-8.2-18.8-22-18.8-43.2 0-24.8 9.8-46.2 35.4-51.6 3.6-0.8 7.4-0.8 12-0.8 21.8 0 36 8.2 46.4 24.6h0.8l2.2-21.8h46.8c-0.8 10.4-2.2 20.6-2.2 31v31.2l-5 9.2-49.8 92.2-1.8 3.4c-4.8 0.4-10 0.8-15.6 0.8-19 0-35.4-2.8-46.8-11-12-7-18.8-20-18.8-39.8h49.6c0.4 13 1.2 25.4 19.2 25.4zM588.8 406.4c-16.6 0-19 14.6-19 26 0 28.8 19 27 43.6 28.4 0-18 4.6-54.4-24.6-54.4zM662.4 455.2l20.4-37.8v-80.4h65.4v80.4l87.4 151.8h-66.4l-50.2-98-46.8 98h-71.4l11.8-21.8z" />
<glyph unicode="&#xe946;" glyph-name="facebook" d="M568.4 740.8c0 41.2 36.8 56 78 56s85.2-12.8 85.2-12.8l26.4 156.8c0 0-56 19.2-189.6 19.2-82 0-129.6-31.2-164.4-77.2-32.8-43.6-34-113.6-34-158.8v-102.8h-106v-153.2h106v-532h198.4v532h157.2l11.6 153.2h-168.8v119.6z" />
<glyph unicode="&#xe947;" glyph-name="facebook-round" d="M512 960c-282.8 0-512-229.2-512-512s229.2-512 512-512 512 229.2 512 512-229.2 512-512 512zM625 534.8l-5.8-76.6h-78.6v-266h-99.2v266h-53v76.6h53v51.4c0 22.6 0.6 57.6 17 79.4 17.4 23 41.2 38.6 82.2 38.6 66.8 0 94.8-9.6 94.8-9.6l-13.2-78.4c0 0-22 6.4-42.6 6.4s-39-7.4-39-28v-59.8h84.4z" />
<glyph unicode="&#xe948;" glyph-name="facebook-round-border" d="M512 960c-282.8 0-512-229.2-512-512s229.2-512 512-512 512 229.2 512 512-229.2 512-512 512zM831.6 128.6c-41.6-41.6-89.8-74.2-143.6-96.8-55.6-23.6-114.8-35.4-176-35.4-61 0-120.2 12-176 35.4-53.8 22.8-102.2 55.4-143.6 96.8-41.6 41.6-74.2 89.8-96.8 143.6-23.6 55.6-35.6 114.8-35.6 175.8s12 120.2 35.4 176c22.8 53.8 55.4 102.2 96.8 143.6 41.8 41.6 90 74.2 143.8 97 55.8 23.4 115 35.4 176 35.4s120.2-12 176-35.4c53.8-22.8 102.2-55.4 143.6-96.8 41.6-41.6 74.2-89.8 96.8-143.6 23.6-55.6 35.4-114.8 35.4-176 0-61-12-120.2-35.4-176-22.8-53.8-55.4-102.2-96.8-143.6zM579.6 622.6c20.6 0 42.6-6.4 42.6-6.4l13.2 78.4c0 0-28 9.6-94.8 9.6-41 0-64.8-15.6-82.2-38.6-16.4-21.8-17-56.8-17-79.4v-51.4h-53v-76.6h53v-266h99.2v266h78.6l5.8 76.6h-84.4v59.8c0 20.6 18.4 28 39 28z" />
<glyph unicode="&#xe949;" glyph-name="facebook-rounded" d="M944 960h-864c-44.2 0-80-35.8-80-80v-864c0-44.2 35.8-80 80-80h864c44.2 0 80 35.8 80 80v864c0 44.2-35.8 80-80 80zM625 534.8l-5.8-76.6h-78.6v-266h-99.2v266h-53v76.6h53v51.4c0 22.6 0.6 57.6 17 79.4 17.4 23 41.2 38.6 82.2 38.6 66.8 0 94.8-9.6 94.8-9.6l-13.2-78.4c0 0-22 6.4-42.6 6.4s-39-7.4-39-28v-59.8h84.4z" />
<glyph unicode="&#xe94a;" glyph-name="facebook-rounded-border" d="M944 960h-864c-44.2 0-80-35.8-80-80v-864c0-44.2 35.8-80 80-80h864c44.2 0 80 35.8 80 80v864c0 44.2-35.8 80-80 80zM964 16c0-11-9-20-20-20h-864c-11 0-20 9-20 20v864c0 11 9 20 20 20h864c11 0 20-9 20-20v-864zM579.6 622.6c20.6 0 42.6-6.4 42.6-6.4l13.2 78.4c0 0-28 9.6-94.8 9.6-41 0-64.8-15.6-82.2-38.6-16.4-21.8-17-56.8-17-79.4v-51.4h-53v-76.6h53v-266h99.2v266h78.6l5.8 76.6h-84.4v59.8c0 20.6 18.4 28 39 28z" />
<glyph unicode="&#xe94b;" glyph-name="facebook-square" d="M0 960v-1024h1024v1024h-1024zM625 534.8l-5.8-76.6h-78.6v-266h-99.2v266h-53v76.6h53v51.4c0 22.6 0.6 57.6 17 79.4 17.4 23 41.2 38.6 82.2 38.6 66.8 0 94.8-9.6 94.8-9.6l-13.2-78.4c0 0-22 6.4-42.6 6.4s-39-7.4-39-28v-59.8h84.4z" />
<glyph unicode="&#xe94c;" glyph-name="facebook-square-border" d="M0 960v-1024h1024v1024h-1024zM964-4h-904v904h904v-904zM441.4 192.2h99.2v266h78.6l5.8 76.6h-84.4v59.8c0 20.6 18.4 28 39 28s42.6-6.4 42.6-6.4l13.2 78.4c0 0-28 9.6-94.8 9.6-41 0-64.8-15.6-82.2-38.6-16.4-21.8-17-56.8-17-79.4v-51.4h-53v-76.6h53v-266z" />
<glyph unicode="&#xe94d;" glyph-name="flickr" d="M798.4 674c-124.8 0-225.6-101.2-225.6-225.6s100.8-225.6 225.6-225.6c124.8 0 225.6 101.2 225.6 225.6s-100.8 225.6-225.6 225.6zM225.6 674c-124.8 0-225.6-101.2-225.6-225.6s101.2-225.6 225.6-225.6c124.8 0 225.6 101.2 225.6 225.6s-100.8 225.6-225.6 225.6z" />
<glyph unicode="&#xe94e;" glyph-name="flickr-round" d="M512 960c-282.8 0-512-229.2-512-512s229.2-512 512-512 512 229.2 512 512-229.2 512-512 512zM368.8 335.2c-62.2 0-112.8 50.6-112.8 112.8s50.4 112.8 112.8 112.8c62.4 0 112.8-50.6 112.8-112.8s-50.4-112.8-112.8-112.8zM655.2 335.2c-62.4 0-112.8 50.6-112.8 112.8s50.4 112.8 112.8 112.8c62.2 0 112.8-50.6 112.8-112.8s-50.4-112.8-112.8-112.8z" />
<glyph unicode="&#xe94f;" glyph-name="flickr-round-border" d="M512 960c-282.8 0-512-229.2-512-512s229.2-512 512-512 512 229.2 512 512-229.2 512-512 512zM831.6 128.6c-41.6-41.6-89.8-74.2-143.6-96.8-55.6-23.6-114.8-35.4-176-35.4-61 0-120.2 12-176 35.4-53.8 22.8-102.2 55.4-143.6 96.8-41.6 41.6-74.2 89.8-96.8 143.6-23.6 55.6-35.6 114.8-35.6 175.8s12 120.2 35.4 176c22.8 53.8 55.4 102.2 96.8 143.6 41.8 41.6 90 74.2 143.8 97 55.8 23.4 115 35.4 176 35.4s120.2-12 176-35.4c53.8-22.8 102.2-55.4 143.6-96.8 41.6-41.6 74.2-89.8 96.8-143.6 23.6-55.6 35.4-114.8 35.4-176 0-61-12-120.2-35.4-176-22.8-53.8-55.4-102.2-96.8-143.6zM655.2 560.8c-62.4 0-112.8-50.6-112.8-112.8s50.4-112.8 112.8-112.8c62.4 0 112.8 50.6 112.8 112.8s-50.4 112.8-112.8 112.8zM368.8 560.8c-62.4 0-112.8-50.6-112.8-112.8s50.6-112.8 112.8-112.8c62.4 0 112.8 50.6 112.8 112.8s-50.4 112.8-112.8 112.8z" />
<glyph unicode="&#xe950;" glyph-name="flickr-rounded" d="M944 960h-864c-44.2 0-80-35.8-80-80v-864c0-44.2 35.8-80 80-80h864c44.2 0 80 35.8 80 80v864c0 44.2-35.8 80-80 80zM368.8 335.2c-62.2 0-112.8 50.6-112.8 112.8s50.4 112.8 112.8 112.8c62.4 0 112.8-50.6 112.8-112.8s-50.4-112.8-112.8-112.8zM655.2 335.2c-62.4 0-112.8 50.6-112.8 112.8s50.4 112.8 112.8 112.8c62.2 0 112.8-50.6 112.8-112.8s-50.4-112.8-112.8-112.8z" />
<glyph unicode="&#xe951;" glyph-name="flickr-rounded-border" d="M944 960h-864c-44.2 0-80-35.8-80-80v-864c0-44.2 35.8-80 80-80h864c44.2 0 80 35.8 80 80v864c0 44.2-35.8 80-80 80zM964 16c0-11-9-20-20-20h-864c-11 0-20 9-20 20v864c0 11 9 20 20 20h864c11 0 20-9 20-20v-864zM655.2 560.8c-62.4 0-112.8-50.6-112.8-112.8s50.4-112.8 112.8-112.8c62.4 0 112.8 50.6 112.8 112.8s-50.4 112.8-112.8 112.8zM368.8 560.8c-62.4 0-112.8-50.6-112.8-112.8s50.6-112.8 112.8-112.8c62.4 0 112.8 50.6 112.8 112.8s-50.4 112.8-112.8 112.8z" />
<glyph unicode="&#xe952;" glyph-name="flickr-square" d="M0 960v-1024h1024v1024h-1024zM368.8 335.2c-62.2 0-112.8 50.6-112.8 112.8s50.4 112.8 112.8 112.8c62.4 0 112.8-50.6 112.8-112.8s-50.4-112.8-112.8-112.8zM655.2 335.2c-62.4 0-112.8 50.6-112.8 112.8s50.4 112.8 112.8 112.8c62.2 0 112.8-50.6 112.8-112.8s-50.4-112.8-112.8-112.8z" />
<glyph unicode="&#xe953;" glyph-name="flickr-square-border" d="M0 960v-1024h1024v1024h-1024zM964-4h-904v904h904v-904zM655.2 335.2c62.4 0 112.8 50.6 112.8 112.8s-50.4 112.8-112.8 112.8c-62.4 0-112.8-50.6-112.8-112.8s50.4-112.8 112.8-112.8zM368.8 335.2c62.4 0 112.8 50.6 112.8 112.8s-50.4 112.8-112.8 112.8-112.8-50.6-112.8-112.8c0-62.2 50.6-112.8 112.8-112.8z" />
<glyph unicode="&#xe954;" glyph-name="forrst" d="M958.8-30.8l-424 976.8c-3.6 8.4-12 14-21.6 14-9.2 0-18-5.6-21.6-14l-425.6-976.8c-3.2-7.2-2.4-15.6 2-22.4s11.6-10.8 19.6-10.8h377.6v208l-101.2 70 16.8 24 84.4-58.4v166.4h96v-109.2l88 44.4 13.2-26-101.2-51.2v-80.4l161.6 81.6 13.2-26-174.8-88v-154h376c8 0 15.2 4 19.6 10.8 4.4 5.6 5.2 14 2 21.2z" />
<glyph unicode="&#xe955;" glyph-name="forrst-round" d="M512 960c-282.8 0-512-229.2-512-512s229.2-512 512-512 512 229.2 512 512-229.2 512-512 512zM734.2 197.4c-2.2-3.4-5.8-5.4-9.8-5.4h-188v77l87.4 44-6.6 13-80.8-40.8v40.6l50.6 25.4-6.6 13-44-22.2v54.6h-48v-83.2l-42.4 29.4-8.4-12 50.6-35v-103.8h-188.8c-4 0-7.6 2-9.8 5.4s-2.6 7.6-1 11.2l212.8 488.4c1.8 4.2 6 7 10.8 7s9-2.8 10.8-7l212-488.4c1.8-3.8 1.4-8-0.8-11.2z" />
<glyph unicode="&#xe956;" glyph-name="forrst-round-border" d="M512 960c-282.8 0-512-229.2-512-512s229.2-512 512-512 512 229.2 512 512-229.2 512-512 512zM831.6 128.6c-41.6-41.6-89.8-74.2-143.6-96.8-55.6-23.6-114.8-35.4-176-35.4-61 0-120.2 12-176 35.4-53.8 22.8-102.2 55.4-143.6 96.8-41.6 41.6-74.2 89.8-96.8 143.6-23.6 55.6-35.6 114.8-35.6 175.8s12 120.2 35.4 176c22.8 53.8 55.4 102.2 96.8 143.6 41.8 41.6 90 74.2 143.8 97 55.8 23.4 115 35.4 176 35.4s120.2-12 176-35.4c53.8-22.8 102.2-55.4 143.6-96.8 41.6-41.6 74.2-89.8 96.8-143.6 23.6-55.6 35.4-114.8 35.4-176 0-61-12-120.2-35.4-176-22.8-53.8-55.4-102.2-96.8-143.6zM523.2 697c-1.8 4.2-6 7-10.8 7-4.6 0-9-2.8-10.8-7l-212.8-488.6c-1.6-3.6-1.2-7.8 1-11.2s5.8-5.4 9.8-5.4h188.8v104l-50.6 35 8.4 12 42.2-29.2v83.2h48v-54.6l44 22.2 6.6-13-50.6-25.6v-40.2l80.8 40.8 6.6-13-87.4-44v-77h188c4 0 7.6 2 9.8 5.4 2.2 3.2 2.6 7.6 1 11.2l-212 488z" />
<glyph unicode="&#xe957;" glyph-name="forrst-rounded" d="M944 960h-864c-44.2 0-80-35.8-80-80v-864c0-44.2 35.8-80 80-80h864c44.2 0 80 35.8 80 80v864c0 44.2-35.8 80-80 80zM734.2 197.4c-2.2-3.4-5.8-5.4-9.8-5.4h-188v77l87.4 44-6.6 13-80.8-40.8v40.6l50.6 25.4-6.6 13-44-22.2v54.6h-48v-83.2l-42.4 29.4-8.4-12 50.6-35v-103.8h-188.8c-4 0-7.6 2-9.8 5.4s-2.6 7.6-1 11.2l212.8 488.4c1.8 4.2 6 7 10.8 7s9-2.8 10.8-7l212-488.4c1.8-3.8 1.4-8-0.8-11.2z" />
<glyph unicode="&#xe958;" glyph-name="forrst-rounded-border" d="M944 960h-864c-44.2 0-80-35.8-80-80v-864c0-44.2 35.8-80 80-80h864c44.2 0 80 35.8 80 80v864c0 44.2-35.8 80-80 80zM964 16c0-11-9-20-20-20h-864c-11 0-20 9-20 20v864c0 11 9 20 20 20h864c11 0 20-9 20-20v-864zM523.2 697c-1.8 4.2-6 7-10.8 7-4.6 0-9-2.8-10.8-7l-212.8-488.6c-1.6-3.6-1.2-7.8 1-11.2s5.8-5.4 9.8-5.4h188.8v104l-50.6 35 8.4 12 42.2-29.2v83.2h48v-54.6l44 22.2 6.6-13-50.6-25.6v-40.2l80.8 40.8 6.6-13-87.4-44v-77h188c4 0 7.6 2 9.8 5.4 2.2 3.2 2.6 7.6 1 11.2l-212 488z" />
<glyph unicode="&#xe959;" glyph-name="forrst-square" d="M0 960v-1024h1024v1024h-1024zM734.2 197.4c-2.2-3.4-5.8-5.4-9.8-5.4h-188v77l87.4 44-6.6 13-80.8-40.8v40.6l50.6 25.4-6.6 13-44-22.2v54.6h-48v-83.2l-42.4 29.4-8.4-12 50.6-35v-103.8h-188.8c-4 0-7.6 2-9.8 5.4s-2.6 7.6-1 11.2l212.8 488.4c1.8 4.2 6 7 10.8 7s9-2.8 10.8-7l212-488.4c1.8-3.8 1.4-8-0.8-11.2z" />
<glyph unicode="&#xe95a;" glyph-name="forrst-square-border" d="M0 960v-1024h1024v1024h-1024zM964-4h-904v904h904v-904zM299.6 192h188.8v103.8l-50.6 35 8.4 12 42.2-29.2v83.2h48v-54.6l44 22.2 6.6-13-50.6-25.6v-40.2l80.8 40.8 6.6-13-87.4-44v-77h188c4 0 7.6 2 9.8 5.4 2.2 3.2 2.6 7.6 1 11.2l-212 488.4c-1.8 4.2-6 7-10.8 7-4.6 0-9-2.8-10.8-7l-212.8-489c-1.6-3.6-1.2-7.8 1-11.2 2-3.2 5.8-5.2 9.8-5.2z" />
<glyph unicode="&#xe95b;" glyph-name="gdrive" d="M360 260.4h-5.6l-2.8-4.8-138.8-242.8-8.4-14.4h669.6l2.8 4.8 147.2 257.2h-16.8zM719.2 321.6l2.8-4.8h5.6l296.4 1.2-8.4 14.8-323.6 560-2.8 5.2h-5.6l-279.2-1.2-17.2-0.4 8.4-14.4zM486.8 606.4l-2.8 5.2-149.2 255.6-8.4-14.4-326.4-565.2 2.8-4.8 149.2-256 8.4 14.4 323.6 560.4z" />
<glyph unicode="&#xe95c;" glyph-name="gdrive-round" d="M512 960c-282.8 0-512-229.2-512-512s229.2-512 512-512 512 229.2 512 512-229.2 512-512 512zM332 237.4l-4.2 7.2-70.4 120.6-1.4 2.6 1.4 2.4 166 287.4 4.2-7.2 71.8-123-1.4-2.4-166-287.6zM763.8 346.8l-70.8-123.6h-334.6l4.2 7.4 70.8 123.6h334.6l-4.2-7.4zM759.6 383l-142.4-0.6-1.4 2.4-166 287.6h8.4l142.6 0.6 1.4-2.4 166-287.6h-8.6z" />
<glyph unicode="&#xe95d;" glyph-name="gdrive-round-border" d="M512 960c-282.8 0-512-229.2-512-512s229.2-512 512-512 512 229.2 512 512-229.2 512-512 512zM831.6 128.6c-41.6-41.6-89.8-74.2-143.6-96.8-55.6-23.6-114.8-35.4-176-35.4-61 0-120.2 12-176 35.4-53.8 22.8-102.2 55.4-143.6 96.8-41.6 41.6-74.2 89.8-96.8 143.6-23.6 55.6-35.6 114.8-35.6 175.8s12 120.2 35.4 176c22.8 53.8 55.4 102.2 96.8 143.6 41.8 41.6 90 74.2 143.8 97 55.8 23.4 115 35.4 176 35.4s120.2-12 176-35.4c53.8-22.8 102.2-55.4 143.6-96.8 41.6-41.6 74.2-89.8 96.8-143.6 23.6-55.6 35.4-114.8 35.4-176 0-61-12-120.2-35.4-176-22.8-53.8-55.4-102.2-96.8-143.6zM436 354.2h-2.8l-1.4-2.4-69.4-121.4-4.2-7.2h334.8l1.4 2.4 73.6 128.6h-8.4zM602 670.4l-1.4 2.6h-2.8l-139.6-0.6-8.6-0.2 4.2-7.2 163.2-282.6h2.8l148.2 0.6-4.2 7.4zM499.4 527.2l-1.4 2.6-74.6 127.8-4.2-7.2-163.2-282.6 1.4-2.4 74.6-128 4.2 7.2 161.8 280.2z" />
<glyph unicode="&#xe95e;" glyph-name="gdrive-rounded" d="M944 960h-864c-44.2 0-80-35.8-80-80v-864c0-44.2 35.8-80 80-80h864c44.2 0 80 35.8 80 80v864c0 44.2-35.8 80-80 80zM332 237.4l-4.2 7.2-70.4 120.6-1.4 2.6 1.4 2.4 166 287.4 4.2-7.2 71.8-123-1.4-2.4-166-287.6zM763.8 346.8l-70.8-123.6h-334.6l4.2 7.4 70.8 123.6h334.6l-4.2-7.4zM759.6 383l-142.4-0.6-1.4 2.4-166 287.6h8.4l142.6 0.6 1.4-2.4 166-287.6h-8.6z" />
<glyph unicode="&#xe95f;" glyph-name="gdrive-rounded-border" d="M944 960h-864c-44.2 0-80-35.8-80-80v-864c0-44.2 35.8-80 80-80h864c44.2 0 80 35.8 80 80v864c0 44.2-35.8 80-80 80zM964 16c0-11-9-20-20-20h-864c-11 0-20 9-20 20v864c0 11 9 20 20 20h864c11 0 20-9 20-20v-864zM436 354.2h-2.8l-1.4-2.4-69.4-121.4-4.2-7.2h334.8l1.4 2.4 73.6 128.6h-8.4zM602 670.4l-1.4 2.6h-2.8l-139.6-0.6-8.6-0.2 4.2-7.2 163.2-282.6h2.8l148.2 0.6-4.2 7.4zM499.4 527.2l-1.4 2.6-74.6 127.8-4.2-7.2-163.2-282.6 1.4-2.4 74.6-128 4.2 7.2 161.8 280.2z" />
<glyph unicode="&#xe960;" glyph-name="gdrive-square" d="M0 960v-1024h1024v1024h-1024zM332 237.4l-4.2 7.2-70.4 120.6-1.4 2.6 1.4 2.4 166 287.4 4.2-7.2 71.8-123-1.4-2.4-166-287.6zM763.8 346.8l-70.8-123.6h-334.6l4.2 7.4 70.8 123.6h334.6l-4.2-7.4zM759.6 383l-142.4-0.6-1.4 2.4-166 287.6h8.4l142.6 0.6 1.4-2.4 166-287.6h-8.6z" />
<glyph unicode="&#xe961;" glyph-name="gdrive-square-border" d="M0 960v-1024h1024v1024h-1024zM964-4h-904v904h904v-904zM436 354.2h-2.8l-1.4-2.4-69.4-121.4-4.2-7.2h334.8l1.4 2.4 73.6 128.6h-8.4zM615.6 384.8l1.4-2.4h2.8l148.2 0.6-4.2 7.4-161.8 280-1.4 2.6h-2.8l-139.6-0.6-8.6-0.2 4.2-7.2zM327.8 244.6l4.2-7.2 4.2 7.2 163.2 282.6-1.4 2.6-74.6 127.8-4.2-7.2-163.2-282.6 1.4-2.4z" />
<glyph unicode="&#xe962;" glyph-name="github" d="M947.49 629.615c-3.091 3.478-5.023 8.888-4.637 13.525 3.478 77.669-6.955 153.020-33.232 226.439-3.478 9.274-7.728 12.752-17.389 10.047-21.639-6.569-44.051-11.592-65.304-19.321-58.735-21.253-112.447-52.166-164.613-85.784-5.41-3.478-13.525-5.796-20.094-4.637-85.398 15.070-171.182 14.297-256.966 1.159-8.501-1.159-19.321 0.773-26.276 5.023-60.667 39.414-122.494 78.056-193.208 96.604-58.349 15.457-46.37 18.548-62.986-34.391-19.707-63.372-27.435-129.063-23.185-195.526 0.386-4.637-3.091-10.433-6.183-14.684-25.503-30.527-45.211-64.145-57.189-102.014-23.185-73.419-18.548-147.611-3.864-221.416 28.981-144.906 126.744-246.533 271.263-271.65 74.578-13.138 151.475-14.297 221.416-20.094 78.056 5.796 150.315 6.183 220.643 17.389 122.88 19.707 215.62 85.011 261.989 203.641 16.229 41.346 25.117 86.557 30.527 130.608 12.365 96.99-4.251 188.184-70.714 265.081zM879.094 226.198c-12.752-60.281-47.915-101.627-106.651-122.88-56.803-20.866-115.538-29.368-175.432-33.232-28.981-1.932-57.962-0.386-86.943-0.386-78.056-1.546-156.112 1.546-231.463 23.958-94.672 28.208-137.177 84.625-139.882 183.547-1.159 35.164 2.705 69.168 19.321 100.854 32.845 63.758 89.648 86.171 156.885 87.33 36.709 0.386 73.805-2.705 110.901-6.183 77.669-6.955 154.566 0.386 231.849 4.637 34.005 1.932 68.782 2.705 102.014-3.091 71.487-12.365 125.585-83.466 126.744-163.454 0-23.571-2.705-47.915-7.342-71.1zM291.743 358.738c-21.253-22.026-28.595-49.848-29.754-74.578 0-37.096 10.82-66.85 29.754-86.171 26.276-26.663 62.213-25.89 87.33 1.159 37.869 40.96 37.482 117.857 0 158.43-25.117 27.435-61.826 27.822-87.33 1.159zM647.632 361.829c-43.278-39.801-43.278-127.517 0-166.931 25.117-22.798 59.122-21.639 82.693 2.705 21.639 22.412 29.368 50.62 30.14 81.147-0.773 30.527-8.501 58.349-30.527 80.761-23.571 24.344-57.576 25.117-82.306 2.318z" />
<glyph unicode="&#xe963;" glyph-name="github-round" d="M640.2 453.2c-17.2 3-35.2 2.6-52.8 1.6-40-2.2-80-6-120-2.4-19 1.8-38.2 3.6-57.4 3.2-34.8-0.6-64-12-81.2-45.2-8.6-16.4-10.6-34-10-52.2 1.4-51.2 23.6-80.4 72.4-95 39.2-11.6 79.4-13.2 119.8-12.4 15 0 30-0.8 45 0.2 31 1.8 61.4 6.4 90.8 17.2 30.4 11.2 48.6 32.6 55.2 63.6 2.6 12 3.8 24.6 3.6 36.8-0.4 41.4-28.4 78.4-65.4 84.6zM443.4 317.8c-13-14.2-31.8-14.4-45.2-0.6-9.8 10-15.4 25.4-15.4 44.6 0.4 13 4.2 27.2 15.4 38.6 13.4 13.8 32.2 13.6 45.2-0.4 19.6-21.2 19.6-61 0-82.2zM625.2 316.8c-12.2-12.6-29.8-13-42.8-1.4-22.4 20.4-22.4 65.8 0 86.4 12.8 11.8 30.4 11.4 42.8-1.2 11.4-11.6 15.2-26.2 15.8-41.8-0.6-15.8-4.6-30.2-15.8-42zM512 960c-282.8 0-512-229.2-512-512s229.2-512 512-512 512 229.2 512 512-229.2 512-512 512zM774.4 403.2c-2.8-22.8-7.6-46.2-15.8-67.6-24-61.4-72-95.2-135.6-105.4-36.4-5.8-73.8-6-114.2-9-36.2 3.2-76 3.6-114.6 10.4-74.8 13.2-125.6 65.6-140.4 140.6-7.6 38.2-9.8 76.6 2 114.6 6.2 19.6 16.4 37 29.6 52.8 1.8 2 3.4 5 3.2 7.6-2.2 34.4 1.8 68.4 12 101.2 8.4 27.4 2.2 25.8 32.6 17.8 36.6-9.6 68.6-29.4 100-50 3.6-2.4 9.2-3.4 13.6-2.6 44.4 6.8 88.6 7.2 133-0.6 3.2-0.6 7.4 0.6 10.4 2.4 27 17.6 54.8 33.4 85.2 44.4 11 4 22.6 6.6 33.8 10 5 1.4 7.2-0.4 9-5.2 13.6-38 19.2-77 17.2-117.2-0.2-2.2 1-5.2 2.4-7 34.2-39.6 42.8-86.8 36.6-137.2z" />
<glyph unicode="&#xe964;" glyph-name="github-round-border" d="M512 960c-282.8 0-512-229.2-512-512s229.2-512 512-512 512 229.2 512 512-229.2 512-512 512zM831.6 128.6c-41.6-41.6-89.8-74.2-143.6-96.8-55.6-23.6-114.8-35.4-176-35.4-61 0-120.2 12-176 35.4-53.8 22.8-102.2 55.4-143.6 96.8-41.6 41.6-74.2 89.8-96.8 143.6-23.6 55.6-35.6 114.8-35.6 175.8s12 120.2 35.4 176c22.8 53.8 55.4 102.2 96.8 143.6 41.8 41.6 90 74.2 143.8 97 55.8 23.4 115 35.4 176 35.4s120.2-12 176-35.4c53.8-22.8 102.2-55.4 143.6-96.8 41.6-41.6 74.2-89.8 96.8-143.6 23.6-55.6 35.4-114.8 35.4-176 0-61-12-120.2-35.4-176-22.8-53.8-55.4-102.2-96.8-143.6zM735 547.6c1.8 40.2-3.6 79.2-17.2 117.2-1.8 4.8-4 6.6-9 5.2-11.2-3.4-22.8-6-33.8-10-30.4-11-58.2-27-85.2-44.4-2.8-1.8-7-3-10.4-2.4-44.2 7.8-88.6 7.4-133 0.6-4.4-0.6-10 0.4-13.6 2.6-31.4 20.4-63.4 40.4-100 50-30.2 8-24 9.6-32.6-17.8-10.2-32.8-14.2-66.8-12-101.2 0.2-2.4-1.6-5.4-3.2-7.6-13.2-15.8-23.4-33.2-29.6-52.8-12-38-9.6-76.4-2-114.6 15-75 65.6-127.6 140.4-140.6 38.6-6.8 78.4-7.4 114.6-10.4 40.4 3 77.8 3.2 114.2 9 63.6 10.2 111.6 44 135.6 105.4 8.4 21.4 13 44.8 15.8 67.6 6.2 50.4-2.4 97.6-36.8 137.4-1.2 1.6-2.2 4.4-2.2 6.8zM702.2 331.8c-6.6-31.2-24.8-52.6-55.2-63.6-29.4-10.8-59.8-15.2-90.8-17.2-15-1-30-0.2-45-0.2-40.4-0.8-80.8 0.8-119.8 12.4-49 14.6-71 43.8-72.4 95-0.6 18.2 1.4 35.8 10 52.2 17 33 46.4 44.6 81.2 45.2 19 0.2 38.2-1.4 57.4-3.2 40.2-3.6 80 0.2 120 2.4 17.6 1 35.6 1.4 52.8-1.6 37-6.4 65-43.2 65.6-84.6 0-12.2-1.4-24.8-3.8-36.8zM398.2 400.4c-11-11.4-14.8-25.8-15.4-38.6 0-19.2 5.6-34.6 15.4-44.6 13.6-13.8 32.2-13.4 45.2 0.6 19.6 21.2 19.4 61 0 82-13 14.2-32 14.4-45.2 0.6zM582.4 402c-22.4-20.6-22.4-66 0-86.4 13-11.8 30.6-11.2 42.8 1.4 11.2 11.6 15.2 26.2 15.6 42-0.4 15.8-4.4 30.2-15.8 41.8-12.2 12.6-29.8 13-42.6 1.2z" />
<glyph unicode="&#xe965;" glyph-name="github-rounded" d="M640.2 453.2c-17.2 3-35.2 2.6-52.8 1.6-40-2.2-80-6-120-2.4-19 1.8-38.2 3.6-57.4 3.2-34.8-0.6-64-12-81.2-45.2-8.6-16.4-10.6-34-10-52.2 1.4-51.2 23.6-80.4 72.4-95 39.2-11.6 79.4-13.2 119.8-12.4 15 0 30-0.8 45 0.2 31 1.8 61.4 6.4 90.8 17.2 30.4 11.2 48.6 32.6 55.2 63.6 2.6 12 3.8 24.6 3.6 36.8-0.4 41.4-28.4 78.4-65.4 84.6zM443.4 317.8c-13-14.2-31.8-14.4-45.2-0.6-9.8 10-15.4 25.4-15.4 44.6 0.4 13 4.2 27.2 15.4 38.6 13.4 13.8 32.2 13.6 45.2-0.4 19.6-21.2 19.6-61 0-82.2zM625.2 316.8c-12.2-12.6-29.8-13-42.8-1.4-22.4 20.4-22.4 65.8 0 86.4 12.8 11.8 30.4 11.4 42.8-1.2 11.4-11.6 15.2-26.2 15.8-41.8-0.6-15.8-4.6-30.2-15.8-42zM944 960h-864c-44.2 0-80-35.8-80-80v-864c0-44.2 35.8-80 80-80h864c44.2 0 80 35.8 80 80v864c0 44.2-35.8 80-80 80zM774.4 403.2c-2.8-22.8-7.6-46.2-15.8-67.6-24-61.4-72-95.2-135.6-105.4-36.4-5.8-73.8-6-114.2-9-36.2 3.2-76 3.6-114.6 10.4-74.8 13.2-125.6 65.6-140.4 140.6-7.6 38.2-9.8 76.6 2 114.6 6.2 19.6 16.4 37 29.6 52.8 1.8 2 3.4 5 3.2 7.6-2.2 34.4 1.8 68.4 12 101.2 8.4 27.4 2.2 25.8 32.6 17.8 36.6-9.6 68.6-29.4 100-50 3.6-2.4 9.2-3.4 13.6-2.6 44.4 6.8 88.6 7.2 133-0.6 3.2-0.6 7.4 0.6 10.4 2.4 27 17.6 54.8 33.4 85.2 44.4 11 4 22.6 6.6 33.8 10 5 1.4 7.2-0.4 9-5.2 13.6-38 19.2-77 17.2-117.2-0.2-2.2 1-5.2 2.4-7 34.2-39.6 42.8-86.8 36.6-137.2z" />
<glyph unicode="&#xe966;" glyph-name="github-rounded-border" d="M944 960h-864c-44.2 0-80-35.8-80-80v-864c0-44.2 35.8-80 80-80h864c44.2 0 80 35.8 80 80v864c0 44.2-35.8 80-80 80zM964 16c0-11-9-20-20-20h-864c-11 0-20 9-20 20v864c0 11 9 20 20 20h864c11 0 20-9 20-20v-864zM735 547.6c1.8 40.2-3.6 79.2-17.2 117.2-1.8 4.8-4 6.6-9 5.2-11.2-3.4-22.8-6-33.8-10-30.4-11-58.2-27-85.2-44.4-2.8-1.8-7-3-10.4-2.4-44.2 7.8-88.6 7.4-133 0.6-4.4-0.6-10 0.4-13.6 2.6-31.4 20.4-63.4 40.4-100 50-30.2 8-24 9.6-32.6-17.8-10.2-32.8-14.2-66.8-12-101.2 0.2-2.4-1.6-5.4-3.2-7.6-13.2-15.8-23.4-33.2-29.6-52.8-12-38-9.6-76.4-2-114.6 15-75 65.6-127.6 140.4-140.6 38.6-6.8 78.4-7.4 114.6-10.4 40.4 3 77.8 3.2 114.2 9 63.6 10.2 111.6 44 135.6 105.4 8.4 21.4 13 44.8 15.8 67.6 6.2 50.4-2.4 97.6-36.8 137.4-1.2 1.6-2.2 4.4-2.2 6.8zM702.2 331.8c-6.6-31.2-24.8-52.6-55.2-63.6-29.4-10.8-59.8-15.2-90.8-17.2-15-1-30-0.2-45-0.2-40.4-0.8-80.8 0.8-119.8 12.4-49 14.6-71 43.8-72.4 95-0.6 18.2 1.4 35.8 10 52.2 17 33 46.4 44.6 81.2 45.2 19 0.2 38.2-1.4 57.4-3.2 40.2-3.6 80 0.2 120 2.4 17.6 1 35.6 1.4 52.8-1.6 37-6.4 65-43.2 65.6-84.6 0-12.2-1.4-24.8-3.8-36.8zM398.2 400.4c-11-11.4-14.8-25.8-15.4-38.6 0-19.2 5.6-34.6 15.4-44.6 13.6-13.8 32.2-13.4 45.2 0.6 19.6 21.2 19.4 61 0 82-13 14.2-32 14.4-45.2 0.6zM582.4 402c-22.4-20.6-22.4-66 0-86.4 13-11.8 30.6-11.2 42.8 1.4 11.2 11.6 15.2 26.2 15.6 42-0.4 15.8-4.4 30.2-15.8 41.8-12.2 12.6-29.8 13-42.6 1.2z" />
<glyph unicode="&#xe967;" glyph-name="github-square" d="M0 960v-1024h1024v1024h-1024zM774.4 403.2c-2.8-22.8-7.6-46.2-15.8-67.6-24-61.4-72-95.2-135.6-105.4-36.4-5.8-73.8-6-114.2-9-36.2 3.2-76 3.6-114.6 10.4-74.8 13.2-125.6 65.6-140.4 140.6-7.6 38.2-9.8 76.6 2 114.6 6.2 19.6 16.4 37 29.6 52.8 1.8 2 3.4 5 3.2 7.6-2.2 34.4 1.8 68.4 12 101.2 8.4 27.4 2.2 25.8 32.6 17.8 36.6-9.6 68.6-29.4 100-50 3.6-2.4 9.2-3.4 13.6-2.6 44.4 6.8 88.6 7.2 133-0.6 3.2-0.6 7.4 0.6 10.4 2.4 27 17.6 54.8 33.4 85.2 44.4 11 4 22.6 6.6 33.8 10 5 1.4 7.2-0.4 9-5.2 13.6-38 19.2-77 17.2-117.2-0.2-2.2 1-5.2 2.4-7 34.2-39.6 42.8-86.8 36.6-137.2zM640.2 453.2c-17.2 3-35.2 2.6-52.8 1.6-40-2.2-80-6-120-2.4-19 1.8-38.2 3.6-57.4 3.2-34.8-0.6-64-12-81.2-45.2-8.6-16.4-10.6-34-10-52.2 1.4-51.2 23.6-80.4 72.4-95 39.2-11.6 79.4-13.2 119.8-12.4 15 0 30-0.8 45 0.2 31 1.8 61.4 6.4 90.8 17.2 30.4 11.2 48.6 32.6 55.2 63.6 2.6 12 3.8 24.6 3.6 36.8-0.4 41.4-28.4 78.4-65.4 84.6zM443.4 317.8c-13-14.2-31.8-14.4-45.2-0.6-9.8 10-15.4 25.4-15.4 44.6 0.4 13 4.2 27.2 15.4 38.6 13.4 13.8 32.2 13.6 45.2-0.4 19.6-21.2 19.6-61 0-82.2zM625.2 316.8c-12.2-12.6-29.8-13-42.8-1.4-22.4 20.4-22.4 65.8 0 86.4 12.8 11.8 30.4 11.4 42.8-1.2 11.4-11.6 15.2-26.2 15.8-41.8-0.6-15.8-4.6-30.2-15.8-42z" />
</font>
</defs>
</svg>
