<?xml version="1.0" encoding="utf-8"?>
<!-- Generator: Adobe Illustrator 19.1.0, SVG Export Plug-In . SVG Version: 6.00 Build 0)  -->
<svg version="1.1" id="Layer_1" xmlns="http://www.w3.org/2000/svg" xmlns:xlink="http://www.w3.org/1999/xlink" x="0px" y="0px"
	 viewBox="-143 145 512 512" style="enable-background:new -143 145 512 512;" xml:space="preserve">
<g>
	<path d="M-143,145v512h512V145H-143z M339,627h-452V175h452V627z"/>
	<path d="M6.8,529h94.4v-51.9l-25.3-17.5l4.2-6l21.1,14.6v-41.6h24v27.3l22-11.1l3.3,6.5l-25.3,12.8v20.1l40.4-20.4l3.3,6.5
		l-43.7,22v38.5h94c2,0,3.8-1,4.9-2.7c1.1-1.6,1.3-3.8,0.5-5.6l-106-244.2c-0.9-2.1-3-3.5-5.4-3.5c-2.3,0-4.5,1.4-5.4,3.5L1.4,520.8
		c-0.8,1.8-0.6,3.9,0.5,5.6C2.9,528,4.8,529,6.8,529z"/>
</g>
</svg>
