<?xml version="1.0" encoding="utf-8"?>
<!-- Generator: Adobe Illustrator 19.1.0, SVG Export Plug-In . SVG Version: 6.00 Build 0)  -->
<svg version="1.1" id="Layer_1" xmlns="http://www.w3.org/2000/svg" xmlns:xlink="http://www.w3.org/1999/xlink" x="0px" y="0px"
	 viewBox="-143 145 512 512" style="enable-background:new -143 145 512 512;" xml:space="preserve">
<g>
	<path d="M113,145c-141.4,0-256,114.6-256,256s114.6,256,256,256s256-114.6,256-256S254.4,145,113,145z M272.8,560.7
		c-20.8,20.8-44.9,37.1-71.8,48.4c-27.8,11.8-57.4,17.7-88,17.7c-30.5,0-60.1-6-88-17.7c-26.9-11.4-51.1-27.7-71.8-48.4
		c-20.8-20.8-37.1-44.9-48.4-71.8C-107,461.1-113,431.5-113,401s6-60.1,17.7-88c11.4-26.9,27.7-51.1,48.4-71.8
		c20.9-20.8,45-37.1,71.9-48.5C52.9,181,82.5,175,113,175s60.1,6,88,17.7c26.9,11.4,51.1,27.7,71.8,48.4
		c20.8,20.8,37.1,44.9,48.4,71.8c11.8,27.8,17.7,57.4,17.7,88c0,30.5-6,60.1-17.7,88C309.8,515.8,293.5,540,272.8,560.7z"/>
	<path d="M118.6,276.5c-0.9-2.1-3-3.5-5.4-3.5c-2.3,0-4.5,1.4-5.4,3.5L1.4,520.8c-0.8,1.8-0.6,3.9,0.5,5.6c1.1,1.7,2.9,2.7,4.9,2.7
		h94.4v-52l-25.3-17.5l4.2-6l21.1,14.6v-41.6h24v27.3l22-11.1l3.3,6.5l-25.3,12.8v20.1l40.4-20.4l3.3,6.5l-43.7,22v38.5h94
		c2,0,3.8-1,4.9-2.7c1.1-1.6,1.3-3.8,0.5-5.6L118.6,276.5z"/>
</g>
</svg>
