<?xml version="1.0" encoding="utf-8"?>
<!-- Generator: Adobe Illustrator 19.1.0, SVG Export Plug-In . SVG Version: 6.00 Build 0)  -->
<svg version="1.1" id="Layer_1" xmlns="http://www.w3.org/2000/svg" xmlns:xlink="http://www.w3.org/1999/xlink" x="0px" y="0px"
	 viewBox="-143 145 512 512" style="enable-background:new -143 145 512 512;" xml:space="preserve">
<path d="M113,145c-141.4,0-256,114.6-256,256s114.6,256,256,256s256-114.6,256-256S254.4,145,113,145z M224.1,526.3
	c-1.1,1.7-2.9,2.7-4.9,2.7h-94v-38.5l43.7-22l-3.3-6.5l-40.4,20.4v-20.3l25.3-12.7l-3.3-6.5l-22,11.1v-27.3h-24v41.6L80,453.6
	l-4.2,6l25.3,17.5V529H6.7c-2,0-3.8-1-4.9-2.7c-1.1-1.7-1.3-3.8-0.5-5.6l106.4-244.2c0.9-2.1,3-3.5,5.4-3.5c2.4,0,4.5,1.4,5.4,3.5
	l106,244.2C225.4,522.6,225.2,524.7,224.1,526.3z"/>
</svg>
