<?xml version="1.0" encoding="utf-8"?>
<!-- Generator: Adobe Illustrator 19.1.0, SVG Export Plug-In . SVG Version: 6.00 Build 0)  -->
<svg version="1.1" id="Layer_1" xmlns="http://www.w3.org/2000/svg" xmlns:xlink="http://www.w3.org/1999/xlink" x="0px" y="0px"
	 viewBox="-287 273 224.2 256" style="enable-background:new -287 273 224.2 256;" xml:space="preserve">
<path d="M-63.3,520.7l-106-244.2c-0.9-2.1-3-3.5-5.4-3.5c-2.3,0-4.5,1.4-5.4,3.5l-106.4,244.2c-0.8,1.8-0.6,3.9,0.5,5.6
	c1.1,1.7,2.9,2.7,4.9,2.7h94.4v-52l-25.3-17.5l4.2-6l21.1,14.6v-41.6h24v27.3l22-11.1l3.3,6.5l-25.3,12.8v20.1l40.4-20.4l3.3,6.5
	l-43.7,22v38.5h94c2,0,3.8-1,4.9-2.7C-62.7,524.6-62.5,522.5-63.3,520.7z"/>
</svg>
