<?xml version="1.0" encoding="utf-8"?>
<!-- Generator: Adobe Illustrator 19.1.0, SVG Export Plug-In . SVG Version: 6.00 Build 0)  -->
<svg version="1.1" id="Layer_1" xmlns="http://www.w3.org/2000/svg" xmlns:xlink="http://www.w3.org/1999/xlink" x="0px" y="0px"
	 viewBox="-271 273.5 256 255.5" style="enable-background:new -271 273.5 256 255.5;" xml:space="preserve">
<g>
	<path d="M-90.2,285c-16.7-7.6-34.5-11.5-52.8-11.5c-15.3,0-30.3,3-44.7,8.4c3.4,3.1,93.1,84.5,97.5,88.5
		C-90.2,364.4-90.2,286.8-90.2,285z"/>
	<path d="M-208.9,510.8c0-5,0-104.2,0-110.1c-4.3,3.9-51.4,46.7-52.9,48.1C-251.5,474.6-232.8,496.4-208.9,510.8z"/>
	<path d="M-201.3,287.7c-43,22.1-69.7,65.6-69.7,113.8c0,11,1.7,22.2,4.7,33.2c3.4-3.2,111.2-101.1,113.4-103.1
		C-155,329.7-199.8,289-201.3,287.7z"/>
	<path d="M-195.4,518.2c13,5.9,26.6,9.5,40.6,10.8h23.5c44.2-4.1,83.7-31.4,103.3-71.8c-4.6,0-164.7,0-167.4,0
		C-195.4,459.8-195.4,516.4-195.4,518.2z"/>
	<path d="M-76.7,292.3c0,5.1,0,148.6,0,151.3c2.6,0,52.4,0,54.5,0c4.8-13.7,7.3-27.8,7.3-42.1C-15,357-38.6,315.5-76.7,292.3z"/>
</g>
</svg>
