<?xml version="1.0" encoding="utf-8"?>
<!-- Generator: Adobe Illustrator 19.1.0, SVG Export Plug-In . SVG Version: 6.00 Build 0)  -->
<svg version="1.1" id="Layer_1" xmlns="http://www.w3.org/2000/svg" xmlns:xlink="http://www.w3.org/1999/xlink" x="0px" y="0px"
	 viewBox="-143 145 512 512" style="enable-background:new -143 145 512 512;" xml:space="preserve">
<g>
	<path d="M329,145h-432c-22.1,0-40,17.9-40,40v432c0,22.1,17.9,40,40,40h432c22.1,0,40-17.9,40-40V185C369,162.9,351.1,145,329,145z
		 M339,617c0,5.5-4.5,10-10,10h-432c-5.5,0-10-4.5-10-10V185c0-5.5,4.5-10,10-10h432c5.5,0,10,4.5,10,10V617z"/>
	<path d="M165.8,282.2c-16.7-7.6-34.5-11.5-52.8-11.5c-15.3,0-30.3,3-44.7,8.4c3.4,3.1,93.1,84.5,97.5,88.5
		C165.8,361.6,165.8,284,165.8,282.2z"/>
	<path d="M47.1,508c0-5,0-104.2,0-110.1c-4.3,3.9-51.4,46.7-52.9,48.1C4.5,471.8,23.2,493.6,47.1,508z"/>
	<path d="M54.7,284.9C11.7,307-15,350.5-15,398.7c0,11,1.7,22.2,4.7,33.2c3.4-3.2,111.2-101.1,113.4-103.1
		C101,326.9,56.2,286.2,54.7,284.9z"/>
	<path d="M60.6,515.4c13,5.9,26.6,9.5,40.6,10.8h23.5c44.2-4.1,83.7-31.4,103.3-71.8c-4.6,0-164.7,0-167.4,0
		C60.6,457,60.6,513.6,60.6,515.4z"/>
	<path d="M179.3,289.5c0,5.1,0,148.6,0,151.3c2.6,0,52.4,0,54.5,0c4.8-13.7,7.3-27.8,7.3-42.1C241,354.2,217.4,312.7,179.3,289.5z"
		/>
</g>
</svg>
