<?xml version="1.0" encoding="utf-8"?>
<!-- Generator: Adobe Illustrator 19.1.0, SVG Export Plug-In . SVG Version: 6.00 Build 0)  -->
<svg version="1.1" id="Layer_1" xmlns="http://www.w3.org/2000/svg" xmlns:xlink="http://www.w3.org/1999/xlink" x="0px" y="0px"
	 viewBox="-143 145 512 512" style="enable-background:new -143 145 512 512;" xml:space="preserve">
<g>
	<path d="M113,145c-141.4,0-256,114.6-256,256s114.6,256,256,256s256-114.6,256-256S254.4,145,113,145z M272.8,560.7
		c-20.8,20.8-44.9,37.1-71.8,48.4c-27.8,11.8-57.4,17.7-88,17.7c-30.5,0-60.1-6-88-17.7c-26.9-11.4-51.1-27.7-71.8-48.4
		c-20.8-20.8-37.1-44.9-48.4-71.8C-107,461.1-113,431.5-113,401s6-60.1,17.7-88c11.4-26.9,27.7-51.1,48.4-71.8
		c20.9-20.8,45-37.1,71.9-48.5C52.9,181,82.5,175,113,175s60.1,6,88,17.7c26.9,11.4,51.1,27.7,71.8,48.4
		c20.8,20.8,37.1,44.9,48.4,71.8c11.8,27.8,17.7,57.4,17.7,88c0,30.5-6,60.1-17.7,88C309.8,515.8,293.5,540,272.8,560.7z"/>
	<path d="M165.8,282.2c-16.7-7.6-34.5-11.5-52.8-11.5c-15.3,0-30.3,3-44.7,8.4c3.4,3.1,93.1,84.5,97.5,88.5
		C165.8,361.6,165.8,284,165.8,282.2z"/>
	<path d="M47.1,508c0-5,0-104.2,0-110.1c-4.3,3.9-51.4,46.7-52.9,48.1C4.5,471.8,23.2,493.6,47.1,508z"/>
	<path d="M54.7,284.8C11.7,306.9-15,350.4-15,398.7c0,11,1.7,22.2,4.7,33.2c3.4-3.2,111.2-101.1,113.4-103.1
		C101,326.9,56.1,286.2,54.7,284.8z"/>
	<path d="M60.6,515.4c13,5.9,26.6,9.5,40.6,10.8h23.5c44.2-4.1,83.7-31.4,103.3-71.8c-4.6-0.1-164.7-0.1-167.4-0.1
		C60.6,457,60.6,513.5,60.6,515.4z"/>
	<path d="M179.3,289.5c0,5.1,0,148.6,0,151.3c2.6,0,52.4,0,54.5,0c4.8-13.7,7.3-27.8,7.3-42.1C241,354.2,217.4,312.7,179.3,289.5z"
		/>
</g>
</svg>
