<?xml version="1.0" encoding="utf-8"?>
<!-- Generator: Adobe Illustrator 19.1.0, SVG Export Plug-In . SVG Version: 6.00 Build 0)  -->
<svg version="1.1" id="Layer_1" xmlns="http://www.w3.org/2000/svg" xmlns:xlink="http://www.w3.org/1999/xlink" x="0px" y="0px"
	 viewBox="-143 145 512 512" style="enable-background:new -143 145 512 512;" xml:space="preserve">
<path d="M329,145h-432c-22.1,0-40,17.9-40,40v432c0,22.1,17.9,40,40,40h432c22.1,0,40-17.9,40-40V185C369,162.9,351.1,145,329,145z
	 M113,270.7c18.3,0,36.1,3.9,52.8,11.5c0,1.8,0,79.5,0,85.4c-4.4-4-94.1-85.4-97.5-88.5C82.7,273.6,97.8,270.7,113,270.7z
	 M-15,398.7c0-48.3,26.7-91.8,69.7-113.8c1.5,1.3,46.3,42,48.4,44c-2.2,2-110,99.9-113.4,103.1C-13.3,420.9-15,409.7-15,398.7z
	 M47.1,508c-23.9-14.5-42.6-36.3-52.9-62c1.5-1.3,48.6-44.2,52.9-48.1C47.1,403.9,47.1,503,47.1,508z M124.7,526.2h-23.5
	c-14-1.3-27.6-4.9-40.6-10.8c0-1.8,0-58.4,0-61.1c2.8,0,162.8,0,167.4,0C208.4,494.8,168.9,522.1,124.7,526.2z M233.8,440.9
	c-2,0-51.8,0-54.5,0c0-2.7,0-146.3,0-151.3c38.1,23.2,61.7,64.7,61.7,109.2C241,413,238.5,427.2,233.8,440.9z"/>
</svg>
