<?xml version="1.0" encoding="utf-8"?>
<!-- Generator: Adobe Illustrator 19.1.0, SVG Export Plug-In . SVG Version: 6.00 Build 0)  -->
<svg version="1.1" id="Layer_1" xmlns="http://www.w3.org/2000/svg" xmlns:xlink="http://www.w3.org/1999/xlink" x="0px" y="0px"
	 viewBox="0 0 512 512" style="enable-background:new 0 0 512 512;" xml:space="preserve">
<g>
	<path d="M256,0C114.6,0,0,114.6,0,256s114.6,256,256,256s256-114.6,256-256S397.4,0,256,0z M415.8,415.7
		c-20.8,20.8-44.9,37.1-71.8,48.4c-27.8,11.8-57.4,17.7-88,17.7c-30.5,0-60.1-6-88-17.7c-26.9-11.4-51.1-27.7-71.8-48.4
		c-20.8-20.8-37.1-44.9-48.4-71.8C36,316.1,30,286.5,30,256s6-60.1,17.7-88c11.4-26.9,27.7-51.1,48.4-71.8
		c20.9-20.8,45-37.1,71.9-48.5C195.9,36,225.5,30,256,30s60.1,6,88,17.7c26.9,11.4,51.1,27.7,71.8,48.4
		c20.8,20.8,37.1,44.9,48.4,71.8c11.8,27.8,17.7,57.4,17.7,88c0,30.5-6,60.1-17.7,88C452.8,370.8,436.5,395,415.8,415.7z"/>
	<path d="M166.5,217H128v77.6h63.5V183.1h-25V217z M166.5,273.8h-13v-35.3h13V273.8z"/>
	<path d="M243.6,295L243.6,295h38.6v12.1h-39v21.8h52.9h11.1V217.3h-63.6V295z M269.2,238.2h13.1v35.3h-13.1V238.2z"/>
	<path d="M320.5,295H359v12.1h-39v21.8h53h11V217.3h-63.5V295z M345.9,238.2h13v35.3h-13V238.2z"/>
	<rect x="204.4" y="216.9" width="25.9" height="78.1"/>
	<rect x="204.4" y="184.5" width="25.9" height="21.2"/>
</g>
</svg>
