<?xml version="1.0" encoding="utf-8"?>
<!-- Generator: Adobe Illustrator 19.1.0, SVG Export Plug-In . SVG Version: 6.00 Build 0)  -->
<svg version="1.1" id="Layer_1" xmlns="http://www.w3.org/2000/svg" xmlns:xlink="http://www.w3.org/1999/xlink" x="0px" y="0px"
	 viewBox="0 0 512 512" style="enable-background:new 0 0 512 512;" xml:space="preserve">
<g>
	<path d="M0,0v512h512V0L0,0L0,0z M482,482H30V30h452V482z"/>
	<path d="M191.5,183.1h-25V217H128v77.6h63.5V183.1z M166.5,273.8h-13v-35.3h13V273.8z"/>
	<path d="M307.3,328.9V217.3h-63.6v77.6h38.5v12.2h-39v21.8h52.9H307.3z M282.2,273.5h-13.1v-35.3h13.1V273.5z"/>
	<path d="M384,328.9V217.3h-63.5v77.6H359v12.2h-39v21.8h53H384z M359,273.5h-13v-35.3h13V273.5z"/>
	<rect x="204.4" y="216.9" width="25.9" height="78.1"/>
	<rect x="204.4" y="184.5" width="25.9" height="21.2"/>
</g>
</svg>
