<?xml version="1.0" encoding="utf-8"?>
<!-- Generator: Adobe Illustrator 19.1.0, SVG Export Plug-In . SVG Version: 6.00 Build 0)  -->
<svg version="1.1" id="Layer_1" xmlns="http://www.w3.org/2000/svg" xmlns:xlink="http://www.w3.org/1999/xlink" x="0px" y="0px"
	 viewBox="0 0 512 512" style="enable-background:new 0 0 512 512;" xml:space="preserve">
<g>
	<rect x="153.5" y="238.5" width="13" height="35.3"/>
	<rect x="345.9" y="238.2" width="13" height="35.3"/>
	<rect x="269.2" y="238.2" width="13.1" height="35.3"/>
	<path d="M256,0C114.6,0,0,114.6,0,256s114.6,256,256,256s256-114.6,256-256S397.4,0,256,0z M191.5,294.6H128V217h38.5v-33.9h25
		V294.6z M230.4,295h-25.9v-78.1h25.9V295z M230.4,205.6h-25.9v-21.2h25.9V205.6z M307.4,328.9h-0.1h-11.1h-52.9v-21.8h39V295h-38.5
		v-77.6h63.6V328.9z M384,328.9h-11h-53v-21.8h39V295h-38.5v-77.6H384V328.9z"/>
</g>
</svg>
