<?xml version="1.0" encoding="utf-8"?>
<!-- Generator: Adobe Illustrator 19.1.0, SVG Export Plug-In . SVG Version: 6.00 Build 0)  -->
<svg version="1.1" id="Layer_1" xmlns="http://www.w3.org/2000/svg" xmlns:xlink="http://www.w3.org/1999/xlink" x="0px" y="0px"
	 viewBox="-127 184.2 256 145.8" style="enable-background:new -127 184.2 256 145.8;" xml:space="preserve">
<g>
	<path d="M-88.5,218.1H-127v77.6h63.5V184.2h-25V218.1z M-88.5,274.9h-13v-35.3h13V274.9z"/>
	<path d="M-11.4,296.1L-11.4,296.1h38.6v12.1h-39V330h52.9h11.1V218.4h-63.6V296.1z M14.2,239.3h13.1v35.3H14.2V239.3z"/>
	<path d="M65.5,218.4V296H104v12.2H65V330h53h11V218.4H65.5z M104,274.6H91v-35.3h13V274.6z"/>
	<rect x="-50.6" y="218" width="25.9" height="78.1"/>
	<rect x="-50.6" y="185.6" width="25.9" height="21.2"/>
</g>
</svg>
