<?xml version="1.0" encoding="utf-8"?>
<!-- Generator: Adobe Illustrator 19.1.0, SVG Export Plug-In . SVG Version: 6.00 Build 0)  -->
<svg version="1.1" id="Layer_1" xmlns="http://www.w3.org/2000/svg" xmlns:xlink="http://www.w3.org/1999/xlink" x="0px" y="0px"
	 viewBox="-143 145 512 512" style="enable-background:new -143 145 512 512;" xml:space="preserve">
<g>
	<path d="M113,145c-141.4,0-256,114.6-256,256s114.6,256,256,256s256-114.6,256-256S254.4,145,113,145z M272.8,560.7
		c-20.8,20.8-44.9,37.1-71.8,48.4c-27.8,11.8-57.4,17.7-88,17.7c-30.5,0-60.1-6-88-17.7c-26.9-11.4-51.1-27.7-71.8-48.4
		c-20.8-20.8-37.1-44.9-48.4-71.8C-107,461.1-113,431.5-113,401s6-60.1,17.7-88c11.4-26.9,27.7-51.1,48.4-71.8
		c20.9-20.8,45-37.1,71.9-48.5C52.9,181,82.5,175,113,175s60.1,6,88,17.7c26.9,11.4,51.1,27.7,71.8,48.4
		c20.8,20.8,37.1,44.9,48.4,71.8c11.8,27.8,17.7,57.4,17.7,88c0,30.5-6,60.1-17.7,88C309.8,515.8,293.5,540,272.8,560.7z"/>
	<path d="M230.9,351.1c-3.2-7.6-7.2-14.9-11.8-21.7c-4.6-6.8-9.8-13.1-15.6-18.9c-5.8-5.8-12.2-11.1-18.9-15.6
		c-6.8-4.6-14.2-8.6-21.7-11.8c-7.7-3.3-15.8-5.8-24.1-7.5c-8.4-1.7-17.1-2.6-25.8-2.6s-17.4,0.9-25.8,2.6c-8.2,1.7-16.3,4.2-24,7.5
		c-7.6,3.2-14.9,7.2-21.7,11.8c-6.8,4.6-13.1,9.8-18.9,15.6c-5.8,5.8-11,12.2-15.6,18.9c-4.6,6.8-8.6,14.1-11.8,21.7
		c-3.3,7.7-5.8,15.8-7.5,24.1c-1.7,8.4-2.6,17.1-2.6,25.8s0.9,17.4,2.6,25.8c1.7,8.2,4.2,16.3,7.5,24c3.2,7.6,7.2,14.9,11.8,21.8
		c4.6,6.8,9.8,13.1,15.6,18.9s12.2,11,18.9,15.6c6.8,4.6,14.2,8.6,21.7,11.8c7.7,3.3,15.8,5.8,24,7.5c8.4,1.7,17.1,2.6,25.8,2.6
		s17.3-0.9,25.8-2.6c8.2-1.7,16.3-4.2,24.1-7.5c7.6-3.2,14.9-7.2,21.7-11.8c6.8-4.6,13.1-9.8,18.9-15.6s11-12.2,15.6-18.9
		c4.6-6.8,8.6-14.2,11.8-21.8c3.3-7.7,5.8-15.8,7.5-24c1.7-8.4,2.6-17.1,2.6-25.8c0-8.7-0.9-17.4-2.6-25.8
		C236.7,367,234.2,358.9,230.9,351.1z M113,291.7c27.7,0,52.9,10.3,72.2,27.3c-0.3,0.4-15.8,24.1-57.1,39.6
		c-18.7-34.3-39.2-61.6-40.9-63.8C95.5,292.8,104.1,291.7,113,291.7z M86.8,294.8C86.8,294.8,86.8,294.8,86.8,294.8
		C86.7,294.8,86.8,294.8,86.8,294.8z M66.4,302.1c1.5,1.9,21.7,29.4,40.6,63C54.5,379,9,378.5,6.1,378.4
		C13.1,344.6,35.9,316.5,66.4,302.1z M31.7,474C31.7,474,31.7,474,31.7,474c-17.4-19.3-28-44.9-28-73c0-1.2,0.1-2.3,0.1-3.4
		c1.9,0,55.9,1.3,112.2-15.6c3.1,6.1,6.1,12.4,8.9,18.6c-1.4,0.4-2.9,0.8-4.3,1.3C61.6,421,31.7,474,31.7,474z M113,510.3
		c-25.5,0-48.8-8.7-67.3-23.3c0.1,0.1,0.1,0.1,0.1,0.1s21-45.7,85.8-68.3c0.2-0.1,0.5-0.2,0.7-0.2c15.4,40,21.7,73.4,23.3,83
		C142.6,507.2,128.1,510.3,113,510.3z M174.1,491.7c-1.1-6.6-6.9-38.7-21.3-78.1c35.3-5.6,65.9,4,68.1,4.8
		C216.1,448.8,198.6,475.1,174.1,491.7z M146.2,396.3c-0.8-1.9-1.6-3.7-2.4-5.6c-2.3-5.4-4.7-10.6-7.3-15.9
		c43.2-17.6,60.7-43,60.9-43.3c15.3,18.7,24.6,42.5,24.9,68.4C220.7,399.6,183.7,391.6,146.2,396.3z"/>
</g>
</svg>
