<?xml version="1.0" encoding="utf-8"?>
<!-- Generator: Adobe Illustrator 19.1.0, SVG Export Plug-In . SVG Version: 6.00 Build 0)  -->
<svg version="1.1" id="Layer_1" xmlns="http://www.w3.org/2000/svg" xmlns:xlink="http://www.w3.org/1999/xlink" x="0px" y="0px"
	 viewBox="-143 145 512 512" style="enable-background:new -143 145 512 512;" xml:space="preserve">
<g>
	<path d="M44.9,486.5c-0.4-0.3-0.9-0.8-1.5-1.2C43.9,485.7,44.4,486.1,44.9,486.5z"/>
	<path d="M120.6,401.8c1.4-0.5,2.9-0.9,4.3-1.3c-2.7-6.2-5.7-12.5-8.9-18.6C59.7,398.7,5.7,397.5,3.8,397.5c0,1.1-0.1,2.3-0.1,3.4
		c0,28.1,10.6,53.7,28,73.1v-0.1C31.7,473.9,61.6,420.9,120.6,401.8z"/>
	<path d="M106.9,365.1c-18.9-33.6-39.1-61-40.6-63C35.8,316.5,13.1,344.6,6,378.4C8.9,378.5,54.5,379.1,106.9,365.1z"/>
	<path d="M185.2,319c-19.3-17-44.5-27.3-72.2-27.3c-8.9,0-17.5,1.1-25.8,3.1c1.6,2.2,22.2,29.4,40.9,63.8
		C169.3,343.1,184.9,319.4,185.2,319z"/>
	<path d="M86.8,294.8c-0.1,0-0.2,0.1-0.4,0.1C86.7,294.9,86.8,294.9,86.8,294.8z"/>
	<path d="M131.6,418.9c-63.8,22.2-85.1,66.8-85.8,68.3c18.6,14.5,41.9,23.1,67.2,23.1c15.1,0,29.6-3.1,42.7-8.7
		c-1.6-9.6-8-43-23.3-83C132.1,418.7,131.8,418.8,131.6,418.9z"/>
	<path d="M45.8,487.2C45.8,487.2,45.8,487.2,45.8,487.2c-0.1-0.1-0.1-0.1-0.2-0.2C45.7,487.1,45.8,487.2,45.8,487.2z"/>
	<path d="M136.5,374.8c2.5,5.2,5,10.5,7.3,15.9c0.8,1.9,1.6,3.8,2.4,5.6c37.6-4.7,74.6,3.2,76.1,3.6c-0.3-25.9-9.5-49.7-24.9-68.3
		C197.2,331.9,179.7,357.2,136.5,374.8z"/>
	<path d="M329,145h-432c-22.1,0-40,17.9-40,40v432c0,22.1,17.9,40,40,40h432c22.1,0,40-17.9,40-40V185C369,162.9,351.1,145,329,145z
		 M238.4,426.8c-1.7,8.2-4.2,16.3-7.5,24c-3.2,7.6-7.2,14.9-11.8,21.8c-4.6,6.8-9.8,13.1-15.6,18.9s-12.2,11-18.9,15.6
		c-6.8,4.6-14.2,8.6-21.7,11.8c-7.7,3.3-15.8,5.8-24.1,7.5c-8.4,1.7-17.1,2.6-25.8,2.6s-17.4-0.9-25.8-2.6c-8.2-1.7-16.3-4.2-24-7.5
		c-7.6-3.2-14.9-7.2-21.7-11.8s-13.1-9.8-18.9-15.6c-5.8-5.8-11-12.2-15.6-18.9c-4.6-6.8-8.6-14.2-11.8-21.8
		c-3.3-7.7-5.8-15.8-7.5-24c-1.7-8.4-2.6-17.1-2.6-25.8c0-8.7,0.9-17.4,2.6-25.8c1.7-8.2,4.2-16.3,7.5-24.1
		c3.2-7.6,7.2-14.9,11.8-21.7c4.6-6.8,9.8-13.1,15.6-18.9s12.2-11.1,18.9-15.6c6.8-4.6,14.2-8.6,21.7-11.8c7.7-3.3,15.8-5.8,24-7.5
		c8.4-1.7,17.1-2.6,25.8-2.6s17.3,0.9,25.8,2.6c8.2,1.7,16.3,4.2,24.1,7.5c7.6,3.2,14.9,7.2,21.7,11.8c6.8,4.6,13.1,9.8,18.9,15.6
		c5.8,5.8,11,12.2,15.6,18.9c4.6,6.8,8.6,14.1,11.8,21.7c3.3,7.7,5.8,15.8,7.5,24.1c1.7,8.4,2.6,17.1,2.6,25.8
		C241,409.7,240.1,418.4,238.4,426.8z"/>
	<path d="M152.8,413.6c14.3,39.4,20.2,71.5,21.3,78.1c24.5-16.6,42-42.8,46.9-73.3C218.7,417.6,188.1,407.9,152.8,413.6z"/>
</g>
</svg>
