<?xml version="1.0" encoding="utf-8"?>
<!-- Generator: Adobe Illustrator 19.1.0, SVG Export Plug-In . SVG Version: 6.00 Build 0)  -->
<svg version="1.1" id="Layer_1" xmlns="http://www.w3.org/2000/svg" xmlns:xlink="http://www.w3.org/1999/xlink" x="0px" y="0px"
	 viewBox="-271 273 255.9 256" style="enable-background:new -271 273 255.9 256;" xml:space="preserve">
<path d="M-18.7,374.8c-1.7-8.2-4.2-16.2-7.5-24c-3.2-7.6-7.2-14.8-11.8-21.6c-4.6-6.8-9.8-13-15.5-18.8
	c-5.8-5.8-12.2-11.1-18.8-15.5c-6.8-4.6-14.2-8.6-21.6-11.8c-7.7-3.3-15.7-5.8-24-7.5c-8.4-1.7-17-2.6-25.7-2.6s-17.3,0.9-25.7,2.6
	c-8.2,1.7-16.2,4.2-23.9,7.5c-7.6,3.2-14.8,7.2-21.6,11.8c-6.8,4.6-13.1,9.8-18.8,15.5s-11,12.2-15.5,18.8
	c-4.6,6.8-8.6,14-11.8,21.6c-3.3,7.7-5.8,15.7-7.5,24c-1.7,8.4-2.6,17-2.6,25.7s0.9,17.3,2.6,25.7c1.7,8.2,4.2,16.2,7.5,23.9
	c3.2,7.6,7.2,14.8,11.8,21.7c4.6,6.8,9.8,13,15.5,18.8c5.8,5.8,12.2,11,18.8,15.5c6.8,4.6,14.2,8.6,21.6,11.8
	c7.7,3.3,15.7,5.8,23.9,7.5c8.4,1.7,17,2.6,25.7,2.6s17.2-0.9,25.7-2.6c8.2-1.7,16.2-4.2,24-7.5c7.6-3.2,14.8-7.2,21.6-11.8
	c6.8-4.6,13.1-9.8,18.8-15.5c5.8-5.8,11-12.2,15.5-18.8c4.6-6.8,8.6-14.1,11.8-21.7c3.3-7.7,5.8-15.7,7.5-23.9
	c1.7-8.4,2.6-17,2.6-25.7S-17,383.2-18.7,374.8z M-143.6,291.6c27.6,0,52.7,10.3,71.9,27.2c-0.3,0.4-15.7,24-56.9,39.4
	c-18.6-34.2-39.1-61.4-40.8-63.6C-161.1,292.7-152.5,291.6-143.6,291.6z M-169.9,294.8C-169.9,294.7-169.8,294.7-169.9,294.8
	L-169.9,294.8z M-190.1,302c1.5,1.9,21.6,29.3,40.5,62.8c-52.3,13.8-97.7,13.3-100.5,13.2C-243.2,344.3-220.5,316.3-190.1,302z
	 M-224.7,473.2c-17.3-19.2-27.9-44.7-27.9-72.7c0-1.2,0.1-2.3,0.1-3.4c1.9,0,55.7,1.3,111.8-15.5c3.1,6.1,6.1,12.4,8.9,18.5
	c-1.4,0.4-2.9,0.8-4.3,1.3C-194.9,420.4-224.7,473.2-224.7,473.2z M-143.6,509.4c-25.4,0-48.5-8.7-67-23.1
	c0.4-0.8,21.5-45.7,85.5-68c0.2-0.1,0.5-0.2,0.7-0.2c15.3,39.8,21.6,73.1,23.2,82.7C-114.2,506.3-128.6,509.4-143.6,509.4z
	 M-82.8,490.8c-1.1-6.6-6.9-38.5-21.2-77.8c35.2-5.6,65.7,4,67.9,4.8C-40.9,448.1-58.4,474.3-82.8,490.8z M-110.6,395.8
	c-0.8-1.9-1.6-3.7-2.4-5.6c-2.3-5.4-4.7-10.6-7.3-15.8c43-17.5,60.5-42.8,60.7-43.1c15.2,18.6,24.5,42.3,24.8,68.1
	C-36.3,399.1-73.2,391.1-110.6,395.8z"/>
</svg>
