<?xml version="1.0" encoding="utf-8"?>
<!-- Generator: Adobe Illustrator 19.1.0, SVG Export Plug-In . SVG Version: 6.00 Build 0)  -->
<svg version="1.1" id="Layer_1" xmlns="http://www.w3.org/2000/svg" xmlns:xlink="http://www.w3.org/1999/xlink" x="0px" y="0px"
	 viewBox="-143 145 512 512" style="enable-background:new -143 145 512 512;" xml:space="preserve">
<g>
	<path d="M-143,145v512h512V145H-143z M339,627h-452V175h452V627z"/>
	<path d="M-4.8,450.8c3.2,7.6,7.2,14.9,11.8,21.8c4.6,6.8,9.8,13.1,15.6,18.9s12.2,11,18.9,15.6c6.8,4.6,14.2,8.6,21.7,11.8
		c7.7,3.3,15.8,5.8,24,7.5c8.4,1.7,17.1,2.6,25.8,2.6s17.3-0.9,25.8-2.6c8.2-1.7,16.3-4.2,24.1-7.5c7.6-3.2,14.9-7.2,21.7-11.8
		c6.8-4.6,13.1-9.8,18.9-15.6s11-12.2,15.6-18.9c4.6-6.8,8.6-14.2,11.8-21.8c3.3-7.7,5.8-15.8,7.5-24c1.7-8.4,2.6-17.1,2.6-25.8
		c0-8.7-0.9-17.4-2.6-25.8c-1.7-8.2-4.2-16.3-7.5-24.1c-3.2-7.6-7.2-14.9-11.8-21.7c-4.6-6.8-9.8-13.1-15.6-18.9
		c-5.8-5.8-12.2-11.1-18.9-15.6c-6.8-4.6-14.2-8.6-21.7-11.8c-7.7-3.3-15.8-5.8-24.1-7.5c-8.4-1.7-17.1-2.6-25.8-2.6
		s-17.4,0.9-25.8,2.6c-8.2,1.7-16.3,4.2-24,7.5c-7.6,3.2-14.9,7.2-21.7,11.8c-6.8,4.6-13.1,9.8-18.9,15.6
		c-5.8,5.8-11,12.2-15.6,18.9c-4.6,6.8-8.6,14.1-11.8,21.7c-3.3,7.7-5.8,15.8-7.5,24.1c-1.7,8.4-2.6,17.1-2.6,25.8
		s0.9,17.4,2.6,25.8C-10.6,435-8.1,443.1-4.8,450.8z M113,510.3c-25.5,0-48.8-8.7-67.3-23.3c0.1,0.1,0.1,0.1,0.1,0.1
		s21-45.7,85.8-68.3c0.2-0.1,0.5-0.2,0.7-0.2c15.4,40,21.7,73.4,23.3,83C142.6,507.2,128.1,510.3,113,510.3z M174.1,491.7
		c-1.1-6.6-6.9-38.7-21.3-78.1c35.3-5.6,65.9,4,68.1,4.8C216.1,448.8,198.6,475.1,174.1,491.7z M197.4,331.5
		c15.3,18.7,24.6,42.5,24.9,68.4c-1.6-0.3-38.6-8.3-76.1-3.6c-0.8-1.9-1.6-3.7-2.4-5.6c-2.3-5.4-4.7-10.6-7.3-15.9
		C179.7,357.2,197.2,331.8,197.4,331.5z M113,291.7c27.7,0,52.9,10.3,72.2,27.3c-0.3,0.4-15.8,24.1-57.1,39.6
		c-18.7-34.3-39.2-61.6-40.9-63.8C95.5,292.8,104.1,291.7,113,291.7z M86.7,294.9C86.7,294.8,86.8,294.8,86.7,294.9
		C86.8,294.8,86.8,294.8,86.7,294.9z M66.4,302.1c1.5,1.9,21.7,29.4,40.6,63C54.5,379,9,378.5,6.1,378.4
		C13.1,344.6,35.9,316.5,66.4,302.1z M3.8,397.6c1.9,0,55.9,1.3,112.2-15.6c3.1,6.1,6.1,12.4,8.9,18.6c-1.4,0.4-2.9,0.8-4.3,1.3
		C61.6,421,31.7,474,31.7,474s0,0,0,0.1c-17.4-19.4-28-45-28-73.1C3.7,399.8,3.8,398.7,3.8,397.6z"/>
</g>
</svg>
