<?xml version="1.0" encoding="utf-8"?>
<!-- Generator: Adobe Illustrator 19.1.0, SVG Export Plug-In . SVG Version: 6.00 Build 0)  -->
<svg version="1.1" id="Layer_1" xmlns="http://www.w3.org/2000/svg" xmlns:xlink="http://www.w3.org/1999/xlink" x="0px" y="0px"
	 viewBox="-143 145 512 512" style="enable-background:new -143 145 512 512;" xml:space="preserve">
<g>
	<path d="M329,145h-432c-22.1,0-40,17.9-40,40v432c0,22.1,17.9,40,40,40h432c22.1,0,40-17.9,40-40V185C369,162.9,351.1,145,329,145z
		 M339,617c0,5.5-4.5,10-10,10h-432c-5.5,0-10-4.5-10-10V185c0-5.5,4.5-10,10-10h432c5.5,0,10,4.5,10,10V617z"/>
	<polygon points="75,447.9 73.6,447.9 72.9,449.1 38.2,509.8 36.1,513.4 40.4,513.4 202.1,513.4 203.5,513.4 204.2,512.2 
		238.9,451.6 241,447.9 236.8,447.9 	"/>
	<polygon points="158,289.8 157.3,288.5 155.9,288.5 86.1,288.8 81.8,288.9 83.9,292.5 164.8,432.6 165.5,433.8 166.9,433.8 
		236.8,433.5 241,433.5 238.9,429.8 	"/>
	<polygon points="106.7,361.4 106,360.1 70.8,299.8 68.7,296.2 66.6,299.8 -14.3,439.9 -15,441.1 -14.3,442.3 20.9,502.7 23,506.3 
		25.1,502.7 106,362.6 	"/>
</g>
</svg>
