<?xml version="1.0" encoding="utf-8"?>
<!-- Generator: Adobe Illustrator 19.1.0, SVG Export Plug-In . SVG Version: 6.00 Build 0)  -->
<svg version="1.1" id="Layer_1" xmlns="http://www.w3.org/2000/svg" xmlns:xlink="http://www.w3.org/1999/xlink" x="0px" y="0px"
	 viewBox="-143 145 512 512" style="enable-background:new -143 145 512 512;" xml:space="preserve">
<g>
	<path d="M113,145c-141.4,0-256,114.6-256,256s114.6,256,256,256s256-114.6,256-256S254.4,145,113,145z M272.8,560.7
		c-20.8,20.8-44.9,37.1-71.8,48.4c-27.8,11.8-57.4,17.7-88,17.7c-30.5,0-60.1-6-88-17.7c-26.9-11.4-51.1-27.7-71.8-48.4
		c-20.8-20.8-37.1-44.9-48.4-71.8C-107,461.1-113,431.5-113,401s6-60.1,17.7-88c11.4-26.9,27.7-51.1,48.4-71.8
		c20.9-20.8,45-37.1,71.9-48.5C52.9,181,82.5,175,113,175s60.1,6,88,17.7c26.9,11.4,51.1,27.7,71.8,48.4
		c20.8,20.8,37.1,44.9,48.4,71.8c11.8,27.8,17.7,57.4,17.7,88c0,30.5-6,60.1-17.7,88C309.8,515.8,293.5,540,272.8,560.7z"/>
	<polygon points="75,447.9 73.6,447.9 72.9,449.1 38.2,509.8 36.1,513.4 40.4,513.4 202.1,513.4 203.5,513.4 204.2,512.2 
		238.9,451.6 241,447.9 236.8,447.9 	"/>
	<polygon points="158,289.8 157.3,288.5 155.9,288.5 86.1,288.8 81.8,288.9 83.9,292.5 164.8,432.6 165.5,433.8 166.9,433.8 
		236.8,433.5 241,433.5 238.9,429.8 	"/>
	<polygon points="106.7,361.4 106,360.1 70.8,299.8 68.7,296.2 66.6,299.8 -14.3,439.9 -15,441.1 -14.3,442.3 20.9,502.7 23,506.3 
		25.1,502.7 106,362.6 	"/>
</g>
</svg>
