<?xml version="1.0" encoding="utf-8"?>
<!-- Generator: Adobe Illustrator 19.1.0, SVG Export Plug-In . SVG Version: 6.00 Build 0)  -->
<svg version="1.1" id="Layer_1" xmlns="http://www.w3.org/2000/svg" xmlns:xlink="http://www.w3.org/1999/xlink" x="0px" y="0px"
	 viewBox="-271 288.1 256 224.9" style="enable-background:new -271 288.1 256 224.9;" xml:space="preserve">
<g>
	<polygon points="-181,447.5 -182.4,447.5 -183.1,448.7 -217.8,509.4 -219.9,513 -215.6,513 -53.9,513 -52.5,513 -51.8,511.8 
		-17.1,451.2 -15,447.5 -19.2,447.5 	"/>
	<polygon points="-91.2,432.2 -90.5,433.4 -89.1,433.4 -19.2,433.1 -15,433.1 -17.1,429.4 -98,289.4 -98.7,288.1 -100.1,288.1 
		-169.9,288.4 -174.2,288.5 -172.1,292.1 	"/>
	<polygon points="-149.3,361 -150,359.7 -185.2,299.4 -187.3,295.8 -189.4,299.4 -270.3,439.5 -271,440.7 -270.3,441.9 
		-235.1,502.3 -233,505.9 -230.9,502.3 -150,362.2 	"/>
</g>
</svg>
