<?xml version="1.0" encoding="utf-8"?>
<!-- Generator: Adobe Illustrator 19.1.0, SVG Export Plug-In . SVG Version: 6.00 Build 0)  -->
<svg version="1.1" id="Layer_1" xmlns="http://www.w3.org/2000/svg" xmlns:xlink="http://www.w3.org/1999/xlink" x="0px" y="0px"
	 viewBox="-143 145 512 512" style="enable-background:new -143 145 512 512;" xml:space="preserve">
<path d="M113,145c-141.4,0-256,114.6-256,256s114.6,256,256,256s256-114.6,256-256S254.4,145,113,145z M23,506.3l-2.1-3.6
	l-35.2-60.3l-0.7-1.3l0.7-1.2l80.9-140.1l2.1-3.6l2.1,3.6l35.2,60.3l0.7,1.2l-0.7,1.2L25.1,502.6L23,506.3z M238.9,451.6l-34.7,60.6
	l-0.7,1.2h-1.4H40.4h-4.2l2.1-3.7L73,449.1l0.7-1.2h1.4h161.7h4.2L238.9,451.6z M236.8,433.5l-69.8,0.3h-1.4l-0.7-1.2L84,292.5
	l-2.1-3.7h4.2l69.9-0.3h1.4l0.7,1.2L239,429.8l2.1,3.7H236.8z"/>
</svg>
