<?xml version="1.0" encoding="utf-8"?>
<!-- Generator: Adobe Illustrator 19.1.0, SVG Export Plug-In . SVG Version: 6.00 Build 0)  -->
<svg version="1.1" id="Layer_1" xmlns="http://www.w3.org/2000/svg" xmlns:xlink="http://www.w3.org/1999/xlink" x="0px" y="0px"
	 viewBox="0 0 512 512" style="enable-background:new 0 0 512 512;" xml:space="preserve">
<g>
	<path d="M167.3,287.8l39.1-10.6L189,241.4C156,262.8,167.3,287.8,167.3,287.8z"/>
	<path d="M0,0v512h512V0L0,0L0,0z M266.7,288.9l-27.2-55.2c13.1-2.2,25.4-1.6,36.2,0.4l11.5,21.3l39.9-10.8
		c0,0-48.4-34.1-106.3-17.4l32.3,65.6l-117.6,33.9c0,0-34.1-75,42.9-106.8l-14.9-30.5l36.5-4.2l12.3,25c0.7-0.1,1.4-0.3,2.1-0.4
		c127-21.5,169.6,45.3,169.6,45.3L266.7,288.9z"/>
</g>
</svg>
