<?xml version="1.0" encoding="utf-8"?>
<!-- Generator: Adobe Illustrator 19.1.0, SVG Export Plug-In . SVG Version: 6.00 Build 0)  -->
<svg version="1.1" id="Layer_1" xmlns="http://www.w3.org/2000/svg" xmlns:xlink="http://www.w3.org/1999/xlink" x="0px" y="0px"
	 viewBox="-127 186.6 256 141.4" style="enable-background:new -127 186.6 256 141.4;" xml:space="preserve">
<path d="M20.6,235.4c-10.8-2-23.1-2.6-36.2-0.4l27.2,55.2l117.3-33.8c0,0-42.6-66.8-169.5-45.2c-0.7,0.1-1.4,0.3-2.1,0.4l-12.3-25
	l-36.5,4.2l14.9,30.5c-77,31.8-42.9,106.8-42.9,106.8l117.4-33.9l-32.3-65.6C23.6,211.9,71.9,246,71.9,246L32,256.8L20.6,235.4z
	 M-87.8,289.1c0,0-11.3-25,21.6-46.4l17.5,35.9L-87.8,289.1z"/>
</svg>
