<?xml version="1.0" encoding="utf-8"?>
<!-- Generator: Adobe Illustrator 19.1.0, SVG Export Plug-In . SVG Version: 6.00 Build 0)  -->
<svg version="1.1" id="Layer_1" xmlns="http://www.w3.org/2000/svg" xmlns:xlink="http://www.w3.org/1999/xlink" x="0px" y="0px"
	 viewBox="0 0 512 512" style="enable-background:new 0 0 512 512;" xml:space="preserve">
<g>
	<path d="M256,0C114.6,0,0,114.6,0,256s114.6,256,256,256s256-114.6,256-256S397.4,0,256,0z M415.8,415.7
		c-20.8,20.8-44.9,37.1-71.8,48.4c-27.8,11.8-57.4,17.7-88,17.7c-30.5,0-60.1-6-88-17.7c-26.9-11.4-51.1-27.7-71.8-48.4
		c-20.8-20.8-37.1-44.9-48.4-71.8C36,316.1,30,286.5,30,256s6-60.1,17.7-88c11.4-26.9,27.7-51.1,48.4-71.8
		c20.9-20.8,45-37.1,71.9-48.5C195.9,36,225.5,30,256,30s60.1,6,88,17.7c26.9,11.4,51.1,27.7,71.8,48.4
		c20.8,20.8,37.1,44.9,48.4,71.8c11.8,27.8,17.7,57.4,17.7,88c0,30.5-6,60.1-17.7,88C452.8,370.8,436.5,395,415.8,415.7z"/>
	<path d="M214.5,209.9c-0.7,0.1-1.4,0.3-2.1,0.4l-12.3-25l-36.5,4.2l14.9,30.5c-77,31.8-42.9,106.8-42.9,106.8L253,292.9l-32.3-65.6
		c58-16.7,106.3,17.4,106.3,17.4l-39.9,10.8l-11.4-21.4c-10.8-2-23.1-2.6-36.2-0.4l27.2,55.2L384,255.1
		C384,255.1,341.4,188.3,214.5,209.9z M167.3,287.8c0,0-11.3-25,21.6-46.4l17.5,35.9L167.3,287.8z"/>
</g>
</svg>
