<?xml version="1.0" encoding="utf-8"?>
<!-- Generator: Adobe Illustrator 19.1.0, SVG Export Plug-In . SVG Version: 6.00 Build 0)  -->
<svg version="1.1" id="Layer_1" xmlns="http://www.w3.org/2000/svg" xmlns:xlink="http://www.w3.org/1999/xlink" x="0px" y="0px"
	 viewBox="0 0 512 512" style="enable-background:new 0 0 512 512;" xml:space="preserve">
<g>
	<path d="M0,0v512h512V0L0,0L0,0z M482,482H30V30h452V482z"/>
	<path d="M253,292.9l-32.3-65.6c58-16.7,106.3,17.4,106.3,17.4l-39.9,10.8l-11.4-21.4c-10.8-2-23.1-2.6-36.2-0.4l27.2,55.2
		L384,255.1c0,0-42.6-66.8-169.5-45.2c-0.7,0.1-1.4,0.3-2.1,0.4l-12.3-25l-36.5,4.2l14.9,30.5c-77,31.8-42.9,106.8-42.9,106.8
		L253,292.9z M189,241.4l17.5,35.9l-39.1,10.6C167.3,287.8,156,262.8,189,241.4z"/>
</g>
</svg>
