<?xml version="1.0" encoding="utf-8"?>
<!-- Generator: Adobe Illustrator 19.1.0, SVG Export Plug-In . SVG Version: 6.00 Build 0)  -->
<svg version="1.1" id="Layer_1" xmlns="http://www.w3.org/2000/svg" xmlns:xlink="http://www.w3.org/1999/xlink" x="0px" y="0px"
	 viewBox="0 0 512 512" style="enable-background:new 0 0 512 512;" xml:space="preserve">
<g>
	<path d="M472,0H40C17.9,0,0,17.9,0,40v432c0,22.1,17.9,40,40,40h432c22.1,0,40-17.9,40-40V40C512,17.9,494.1,0,472,0z M482,472
		c0,5.5-4.5,10-10,10H40c-5.5,0-10-4.5-10-10V40c0-5.5,4.5-10,10-10h432c5.5,0,10,4.5,10,10V472z"/>
	<path d="M214.5,209.9c-0.7,0.1-1.4,0.3-2.1,0.4l-12.3-25l-36.5,4.2l14.9,30.5c-77,31.8-42.9,106.8-42.9,106.8L253,292.9l-32.3-65.6
		c58-16.7,106.3,17.4,106.3,17.4l-39.9,10.8l-11.4-21.4c-10.8-2-23.1-2.6-36.2-0.4l27.2,55.2L384,255.1
		C384,255.1,341.4,188.3,214.5,209.9z M167.3,287.8c0,0-11.3-25,21.6-46.4l17.5,35.9L167.3,287.8z"/>
</g>
</svg>
