<?xml version="1.0" encoding="utf-8"?>
<!-- Generator: Adobe Illustrator 19.1.0, SVG Export Plug-In . SVG Version: 6.00 Build 0)  -->
<svg version="1.1" id="Layer_1" xmlns="http://www.w3.org/2000/svg" xmlns:xlink="http://www.w3.org/1999/xlink" x="0px" y="0px"
	 viewBox="0 0 512 512" style="enable-background:new 0 0 512 512;" xml:space="preserve">
<path d="M0,0v512h512V0H0z M265.1,142.1c9.4-11.4,25.4-20.1,39.1-21.1c2.3,15.6-4.1,30.8-12.5,41.6c-9,11.6-24.5,20.5-39.5,20
	C249.6,167.7,256.6,152.4,265.1,142.1z M349.4,339.9c-10.8,16.4-26,36.9-44.9,37.1c-16.8,0.2-21.1-10.9-43.8-10.8
	c-22.7,0.1-27.5,11-44.3,10.8c-18.9-0.2-33.3-18.7-44.1-35.1c-30.2-46-33.4-99.9-14.7-128.6c13.2-20.4,34.1-32.3,53.8-32.3
	c20,0,32.5,11,49.1,11c16,0,25.8-11,48.9-11c17.5,0,36,9.5,49.2,26c-43.2,23.7-36.2,85.4,7.5,101.9
	C360,322.1,357.1,328.1,349.4,339.9z"/>
</svg>
