<?xml version="1.0" encoding="utf-8"?>
<!-- Generator: Adobe Illustrator 19.1.0, SVG Export Plug-In . SVG Version: 6.00 Build 0)  -->
<svg version="1.1" id="Layer_1" xmlns="http://www.w3.org/2000/svg" xmlns:xlink="http://www.w3.org/1999/xlink" x="0px" y="0px"
	 viewBox="0 0 512 512" style="enable-background:new 0 0 512 512;" xml:space="preserve">
<g>
	<path d="M472,0H40C17.9,0,0,17.9,0,40v432c0,22.1,17.9,40,40,40h432c22.1,0,40-17.9,40-40V40C512,17.9,494.1,0,472,0z M482,472
		c0,5.5-4.5,10-10,10H40c-5.5,0-10-4.5-10-10V40c0-5.5,4.5-10,10-10h432c5.5,0,10,4.5,10,10V472z"/>
	<path d="M291.8,162.6c8.4-10.8,14.8-26,12.5-41.6c-13.7,0.9-29.8,9.7-39.1,21.1c-8.5,10.3-15.5,25.6-12.8,40.5
		C267.3,183.1,282.8,174.1,291.8,162.6z"/>
	<path d="M358.6,206.9c-13.2-16.5-31.7-26-49.2-26c-23.1,0-32.9,11-48.9,11c-16.6,0-29.1-11-49.1-11c-19.7,0-40.6,11.9-53.8,32.3
		c-18.7,28.7-15.5,82.6,14.7,128.6c10.8,16.4,25.2,34.9,44.1,35.1c16.8,0.2,21.6-10.7,44.3-10.8c22.7-0.1,27,11,43.8,10.8
		c18.9-0.2,34.1-20.7,44.9-37.1c7.7-11.7,10.6-17.7,16.6-31C322.3,292.3,315.3,230.6,358.6,206.9z"/>
</g>
</svg>
