<?xml version="1.0" encoding="utf-8"?>
<!-- Generator: Adobe Illustrator 19.1.0, SVG Export Plug-In . SVG Version: 6.00 Build 0)  -->
<svg version="1.1" id="Layer_1" xmlns="http://www.w3.org/2000/svg" xmlns:xlink="http://www.w3.org/1999/xlink" x="0px" y="0px"
	 viewBox="0 0 512 512" style="enable-background:new 0 0 512 512;" xml:space="preserve">
<g>
	<path d="M0,0v512h512V0H0z M482,482H30V30h452V482z"/>
	<path d="M291.8,162.6c8.4-10.8,14.8-26,12.5-41.6c-13.7,0.9-29.8,9.7-39.1,21.1c-8.5,10.3-15.5,25.6-12.8,40.5
		C267.3,183.1,282.8,174.1,291.8,162.6z"/>
	<path d="M216.4,376.9c16.8,0.2,21.6-10.7,44.3-10.8c22.7-0.1,27,11,43.8,10.8c18.9-0.2,34.1-20.7,44.9-37.1
		c7.7-11.7,10.6-17.7,16.6-31c-43.7-16.5-50.7-78.2-7.4-101.9c-13.2-16.5-31.7-26-49.2-26c-23.1,0-32.9,11-48.9,11
		c-16.6,0-29.1-11-49.1-11c-19.7,0-40.6,11.9-53.8,32.3c-18.7,28.7-15.5,82.6,14.7,128.6C183.1,358.2,197.5,376.7,216.4,376.9z"/>
</g>
</svg>
