<?xml version="1.0" encoding="utf-8"?>
<!-- Generator: Adobe Illustrator 19.1.0, SVG Export Plug-In . SVG Version: 6.00 Build 0)  -->
<svg version="1.1" id="Layer_1" xmlns="http://www.w3.org/2000/svg" xmlns:xlink="http://www.w3.org/1999/xlink" x="0px" y="0px"
	 viewBox="0 0 512 512" style="enable-background:new 0 0 512 512;" xml:space="preserve">
<g>
	<path d="M0,0v512h512V0L0,0L0,0z M482,482H30V30h452V482z"/>
	<path d="M130.7,329.6c32.4,28.2,68,54.3,115.8,54.4c0.9,0,1.9,0,2.8,0c30.4-0.7,64.8-11,91.5-27.7l0.2-0.1c3.5-2.1,7-4.5,10.3-7.1
		c2-1.5,3.5-3.9,3.5-6.4c-0.1-4.4-3.8-7.4-7.8-7.4c-1.3,0-2.6,0.3-3.8,0.9c-1.4,0.6-2.8,1.2-4.1,1.7l-1.9,0.8l-2.5,1l0,0
		c-27.5,11.1-56.3,17.7-83,18.2c-1,0-2,0-2.9,0c-42,0-76.2-19.5-110.8-38.6c-1.2-0.6-2.4-1-3.6-1c-1.6,0-3.1,0.6-4.3,1.7
		c-1.2,1.1-1.9,2.7-1.8,4.3C128,326.4,129.1,328.3,130.7,329.6z"/>
	<path d="M331.5,327.1c1.2,1,2.6,1.3,3.8,1.3c0.3,0,0.6,0,0.8-0.1h0.2h0.2c2.4-0.5,5.9-0.8,10-1.4c3.5-0.4,7.3-0.7,10.5-0.7
		c2.3,0,4.4,0.1,5.8,0.5c0.7,0.1,1.2,0.3,1.5,0.5c0.1,0,0.2,0.1,0.2,0.1c0.1,0.2,0.1,0.7,0.1,1.4c0,2.7-1.1,7.7-2.7,12.6
		c-1.5,4.9-3.4,9.8-4.6,13.1c-0.3,0.8-0.5,1.6-0.5,2.5c0,1.3,0.5,2.9,1.6,4s2.6,1.5,3.8,1.5h0.1c1.8,0,3.4-0.7,4.7-1.8
		c12.5-11.2,16.8-29.2,17-39.3v-1.6l0,0c-0.1-2.7-0.7-4.7-1.8-6.4l-0.1-0.2l-0.1-0.2c-1.1-1.2-2.2-1.7-3.4-2.2
		c-3.5-1.3-8.6-2.1-14.7-2.1c-4.4,0-9.3,0.4-14.2,1.5v-0.3l-4.9,1.6h-0.1l-2.8,0.9v0.1c-3.3,1.4-6.2,3-9,5c-1.7,1.3-3.1,3-3.2,5.6
		C329.6,324.5,330.3,326.2,331.5,327.1z"/>
	<path d="M269.7,199.2c-7.3,0.6-15.8,1.1-24.3,2.2c-13,1.7-26,4-36.7,9.1c-20.9,8.5-35,26.5-35,53.1c0,33.3,21.5,50.3,48.6,50.3
		c9,0,16.4-1.1,23.1-2.8c10.8-3.4,19.8-9.6,30.5-20.9c6.2,8.5,7.9,12.4,18.6,21.5c2.8,1.1,5.7,1.1,7.9-0.6
		c6.8-5.7,18.7-15.8,24.9-21.5c2.8-2.3,2.3-5.7,0.6-8.5c-6.2-7.9-12.4-14.7-12.4-30v-50.8c0-21.5,1.7-41.2-14.1-55.9
		c-13-11.9-33.3-16.4-49.2-16.4h-6.8c-28.8,1.7-59.3,14.1-66.1,49.7c-1.1,4.5,2.3,6.2,4.5,6.8l31.6,4c3.4-0.6,5.1-3.4,5.6-6.2
		c2.8-12.4,13-18.7,24.3-19.8h2.3c6.8,0,14.1,2.8,18.1,8.5c4.5,6.8,4,15.8,4,23.7V199.2L269.7,199.2z M263.5,266.4
		c-4,7.9-10.7,13-18.1,14.7c-1.1,0-2.8,0.6-4.5,0.6c-12.4,0-19.8-9.6-19.8-23.7c0-18.1,10.7-26.6,24.3-30.5
		c7.3-1.7,15.8-2.3,24.3-2.3v6.8C269.7,245,270.3,255.1,263.5,266.4z"/>
</g>
</svg>
