<?xml version="1.0" encoding="utf-8"?>
<!-- Generator: Adobe Illustrator 19.1.0, SVG Export Plug-In . SVG Version: 6.00 Build 0)  -->
<svg version="1.1" id="Layer_1" xmlns="http://www.w3.org/2000/svg" xmlns:xlink="http://www.w3.org/1999/xlink" x="0px" y="0px"
	 viewBox="0 0 512 512" style="enable-background:new 0 0 512 512;" xml:space="preserve">
<g>
	<path d="M269.7,225.2c-8.5,0-17,0.6-24.3,2.3c-13.6,4-24.3,12.4-24.3,30.5c0,14.1,7.3,23.7,19.8,23.7c1.7,0,3.4-0.6,4.5-0.6
		c7.3-1.7,14.1-6.8,18.1-14.7c6.8-11.3,6.2-21.5,6.2-34.5V225.2z"/>
	<path d="M472,0H40C17.9,0,0,17.9,0,40v432c0,22.1,17.9,40,40,40h432c22.1,0,40-17.9,40-40V40C512,17.9,494.1,0,472,0z M265.8,171
		c-3.9-5.7-11.3-8.5-18.1-8.5h-2.3c-11.3,1.1-21.5,7.3-24.3,19.8c-0.6,2.8-2.3,5.6-5.6,6.2l-31.6-4c-2.3-0.6-5.7-2.2-4.5-6.8
		c6.8-35.6,37.3-48,66.1-49.7h6.8c15.8,0,36.2,4.5,49.2,16.4c15.8,14.7,14.1,34.4,14.1,55.9v50.8c0,15.3,6.2,22,12.4,30
		c1.7,2.8,2.3,6.2-0.6,8.5c-6.2,5.6-18.1,15.8-24.9,21.5c-2.2,1.7-5.1,1.7-7.9,0.6c-10.7-9-12.4-13-18.6-21.5
		c-10.7,11.3-19.8,17.5-30.5,20.9c-6.8,1.7-14.1,2.8-23.1,2.8c-27.1,0-48.6-16.9-48.6-50.3c0-26.5,14.1-44.6,35-53.1
		c10.7-5.1,23.7-7.3,36.7-9.1c8.5-1.1,17-1.7,24.3-2.2v-4.5C269.7,186.8,270.3,177.7,265.8,171z M351.3,348.9
		c-3.3,2.6-6.8,5-10.3,7.1l-0.2,0.1c-26.7,16.8-61.1,27-91.5,27.7c-0.9,0-1.9,0-2.8,0c-47.8,0-83.4-26.2-115.8-54.4
		c-1.6-1.3-2.7-3.2-2.7-5.3c0-1.6,0.7-3.2,1.8-4.3c1.2-1.1,2.7-1.7,4.3-1.7c1.2,0,2.4,0.3,3.6,1c34.6,19.2,68.8,38.7,110.8,38.6
		c1,0,1.9,0,2.9,0c26.7-0.6,55.5-7.1,83-18.2l0,0l2.5-1l1.9-0.8c1.3-0.6,2.7-1.2,4.1-1.7c1.2-0.6,2.5-0.9,3.8-0.9c4,0,7.7,3,7.8,7.4
		C354.8,345,353.4,347.4,351.3,348.9z M367,360.5c-1.3,1-2.9,1.8-4.7,1.8h-0.1c-1.2,0-2.6-0.4-3.8-1.5c-1.1-1.1-1.7-2.6-1.6-4
		c0-0.9,0.2-1.7,0.5-2.5c1.2-3.3,3.1-8.2,4.6-13.1c1.6-4.9,2.7-9.9,2.7-12.6c0-0.7-0.1-1.2-0.1-1.4c0,0-0.1-0.1-0.2-0.1
		c-0.3-0.1-0.8-0.3-1.5-0.5c-1.4-0.3-3.5-0.5-5.8-0.5c-3.2,0-7,0.3-10.5,0.7c-4.1,0.6-7.6,0.9-10,1.4h-0.2h-0.2
		c-0.2,0-0.5,0.1-0.8,0.1c-1.2,0-2.6-0.3-3.8-1.3c-1.2-1-1.9-2.6-1.9-4c0.1-2.6,1.5-4.3,3.2-5.6c2.8-2,5.7-3.7,9-5v-0.1l2.8-0.9h0.1
		l4.9-1.6v0.3c4.9-1.1,9.8-1.5,14.2-1.5c6.1,0,11.2,0.7,14.7,2.1c1.2,0.5,2.3,1,3.4,2.2l0.1,0.2l0.1,0.2c1.1,1.7,1.7,3.7,1.8,6.4
		l0,0v1.6C383.9,331.4,379.5,349.3,367,360.5z"/>
</g>
</svg>
