<?xml version="1.0" encoding="utf-8"?>
<!-- Generator: Adobe Illustrator 19.1.0, SVG Export Plug-In . SVG Version: 6.00 Build 0)  -->
<svg version="1.1" id="Layer_1" xmlns="http://www.w3.org/2000/svg" xmlns:xlink="http://www.w3.org/1999/xlink" x="0px" y="0px"
	 viewBox="-143 145 512 512" style="enable-background:new -143 145 512 512;" xml:space="preserve">
<g>
	<path d="M113,145c-141.4,0-256,114.6-256,256s114.6,256,256,256s256-114.6,256-256S254.4,145,113,145z M272.8,560.7
		c-20.8,20.8-44.9,37.1-71.8,48.4c-27.8,11.8-57.4,17.7-88,17.7c-30.5,0-60.1-6-88-17.7c-26.9-11.4-51.1-27.7-71.8-48.4
		c-20.8-20.8-37.1-44.9-48.4-71.8C-107,461.1-113,431.5-113,401s6-60.1,17.7-88c11.4-26.9,27.7-51.1,48.4-71.8
		c20.9-20.8,45-37.1,71.9-48.5C52.9,181,82.5,175,113,175s60.1,6,88,17.7c26.9,11.4,51.1,27.7,71.8,48.4
		c20.8,20.8,37.1,44.9,48.4,71.8c11.8,27.8,17.7,57.4,17.7,88c0,30.5-6,60.1-17.7,88C309.8,515.8,293.5,540,272.8,560.7z"/>
	<path d="M117.5,424.7c-0.6-1.3-1.1-2.7-1.5-4.1c-0.9-3.3-1.4-7-1.4-10.9v-0.1c0-5.7,0.9-10.5,2.7-14.4c1.7-3.8,4.1-6.8,7.2-9
		c-3.4-2.3-7.8-3.6-13.9-3.6c-9,0-15,2.3-20.3,9.3H90V349H65.2v35.7c0.4,0.1,0.7,0.3,1.1,0.5c9.5,3.7,15,9,17.9,15.5
		c2.9,6.4,3.2,13.6,2.6,21.5c-0.1,1.5-1.3,2.7-2.8,2.7H65.3v2.4h18h0.1c1.5,0.1,2.7,1.4,2.7,3c-0.2,4.7-2.1,8.9-5.4,12.4
		c-3.1,3.3-7.5,6.1-13.1,8.4c-0.7,0.6-0.9,0.7-1.7,0.8l-0.6,0.3V466h23.6v-8.9h0.4c4.5,7.8,11.3,10.7,21,10.7
		c19.3,0,23.6-14.8,24.7-29.1l-0.3-0.3C126,436.6,120.5,431.5,117.5,424.7z M110.7,424.1c0,20.7-1.4,29.2-10.5,29.2
		c-8.6,0-10.1-8.6-10.1-29.2c0-16.1,0-27.5,10.1-27.5C111.1,396.7,110.7,408.1,110.7,424.1z"/>
	<path d="M66,448.5c10.9-4.4,16.8-10.6,17.2-18.5h-18H52h-0.4H37c0,6.2-3.3,13.1-19.5,13.1c-20,0-20.4-12.8-20.4-21.4h68.2H84
		c1.1-14.8-1.2-27.2-18.7-34c-3.9-1.8-8.3-2.8-13.6-3.8c-8.6-1.7-19.9-2.8-34.1-2.8c-59.8,0-66.2,16.9-66.2,36.5
		c0,22.6,7.6,38.5,66.2,38.5c13.5,0,25.2-1.4,34.5-3c4.9-1.1,9.4-2.5,13.2-4.2C65.6,448.9,65.6,448.9,66,448.5z M17.5,393.6
		c21.8,0,21.1,10,21.1,16.8H-2.9C-2.9,404.5-3.2,393.6,17.5,393.6z"/>
	<path d="M188,403.4h0.2l-2.5-4.6l-24.9-46.1l-0.9-1.7c-2.4-0.2-5-0.4-7.8-0.4c-9.5,0-17.7,1.4-23.4,5.5c-6,3.5-9.4,10-9.4,19.9
		h24.8c0-6.4,0.4-12.7,9.4-12.7c9.1,0,10.1,5.2,10.1,12v6.6c-14.2-0.4-28.1,0-36.9,6.2c-6,4.1-9.4,11-9.4,21.6
		c0,12.4,4.9,23.1,17.7,25.8c1.8,0.4,3.7,0.4,6,0.4c10.9,0,18-4.1,23.2-12.3h0.4l1.1,10.9h23.4c-0.4-5.2-1.1-10.3-1.1-15.5V403.4z
		 M151.4,421.8c-8.3,0-9.5-7.3-9.5-13c0-14.4,9.5-13.5,21.8-14.2C163.7,403.6,166,421.8,151.4,421.8z"/>
	<polygon points="216.5,389.4 193.1,340.4 157.4,340.4 163.3,351.3 188.2,397.4 198.4,416.3 198.4,456.5 231.1,456.5 231.1,416.3 
		274.8,340.4 241.6,340.4 	"/>
</g>
</svg>
