<?xml version="1.0" encoding="utf-8"?>
<!-- Generator: Adobe Illustrator 19.1.0, SVG Export Plug-In . SVG Version: 6.00 Build 0)  -->
<svg version="1.1" id="Layer_1" xmlns="http://www.w3.org/2000/svg" xmlns:xlink="http://www.w3.org/1999/xlink" x="0px" y="0px"
	 viewBox="-143 145 512 512" style="enable-background:new -143 145 512 512;" xml:space="preserve">
<g>
	<path d="M141.9,408.8c0,5.7,1.2,13,9.5,13c14.6,0,12.3-18.2,12.3-27.2C151.4,395.3,141.9,394.3,141.9,408.8z"/>
	<path d="M17.4,393.6C-3.3,393.6-3,404.5-3,410.4h41.5C38.5,403.6,39.3,393.6,17.4,393.6z"/>
	<path d="M-143,145v512h512V145H-143z M17.5,456.2c-58.7,0-66.2-15.8-66.2-38.5c0-19.6,6.4-36.5,66.2-36.5c14.2,0,25.6,1.1,34.1,2.8
		c5.3,0.9,9.8,2,13.6,3.8c17.6,6.8,19.9,19.2,18.7,34H65.2H-2.9c0,8.6,0.4,21.4,20.4,21.4c16.2,0,19.5-6.9,19.5-13.1h14.6H52h13.2
		h18c-0.4,8-6.3,14.1-17.2,18.5c-0.4,0.4-0.4,0.4-0.7,0.4c-3.9,1.8-8.3,3.2-13.2,4.2C42.7,454.8,31,456.2,17.5,456.2z M110.3,467.5
		c-9.8,0-16.6-2.8-21-10.7h-0.4v8.9H65.3v-13.8l0.6-0.3c0.8,0,1-0.1,1.7-0.8c5.6-2.3,10-5.1,13.1-8.4c3.4-3.6,5.2-7.7,5.4-12.4
		c0.1-1.6-1.1-3-2.7-3h-0.1h-18v-2.4H84c1.5,0,2.7-1.2,2.8-2.7c0.6-7.8,0.3-15.1-2.6-21.5c-2.9-6.5-8.4-11.8-17.9-15.5
		c-0.3-0.2-0.7-0.3-1.1-0.5v-35.7H90v42.9h0.4c5.3-6.9,11.3-9.3,20.3-9.3c6.1,0,10.5,1.3,13.9,3.6c-3.1,2.3-5.5,5.3-7.2,9
		c-1.8,3.9-2.7,8.7-2.7,14.4v0.1c0,3.8,0.4,7.5,1.4,10.9c0.4,1.4,0.9,2.7,1.5,4.1c3,6.8,8.5,11.9,17.1,13.7h0.1l0.3,0.1
		C133.9,452.7,129.6,467.5,110.3,467.5z M166,434.5l-1.1-10.9h-0.4c-5.3,8.2-12.3,12.3-23.2,12.3c-2.3,0-4.2,0-6-0.4
		c-12.8-2.7-17.7-13.4-17.7-25.8c0-10.6,3.3-17.5,9.4-21.6c8.7-6.2,22.6-6.6,36.9-6.2v-6.6c0-6.8-1-12-10.1-12
		c-9,0-9.4,6.2-9.4,12.7h-24.8c0-10,3.4-16.4,9.4-19.9c5.6-4.1,13.9-5.5,23.4-5.5c2.8,0,5.4,0.2,7.8,0.4l0.9,1.7l24.9,46.1l2.5,4.6
		V419c0,5.2,0.7,10.3,1.1,15.5H166z M231.1,416.3v40.2h-32.7v-40.2l-10.1-18.9l-24.9-46.1l-5.9-10.9h35.7l23.4,49l25.2-49h33.1
		L231.1,416.3z"/>
	<path d="M100.2,396.7C90,396.7,90,408.1,90,424.1c0,20.7,1.5,29.2,10.1,29.2c9.1,0,10.5-8.6,10.5-29.2
		C110.7,408.1,111.1,396.7,100.2,396.7z"/>
</g>
</svg>
