<?xml version="1.0" encoding="utf-8"?>
<!-- Generator: Adobe Illustrator 19.1.0, SVG Export Plug-In . SVG Version: 6.00 Build 0)  -->
<svg version="1.1" id="Layer_1" xmlns="http://www.w3.org/2000/svg" xmlns:xlink="http://www.w3.org/1999/xlink" x="0px" y="0px"
	 viewBox="-143 145 512 512" style="enable-background:new -143 145 512 512;" xml:space="preserve">
<g>
	<path d="M-143,145v512h512V145H-143z M339,627h-452V175h452V627z"/>
	<path d="M84.2,400.6c2.9,6.4,3.2,13.6,2.6,21.5c-0.1,1.5-1.3,2.7-2.8,2.7H65.3v2.4h18h0.1c1.5,0.1,2.7,1.4,2.7,3
		c-0.2,4.7-2.1,8.9-5.4,12.4c-3.1,3.3-7.5,6.1-13.1,8.4c-0.7,0.6-0.9,0.7-1.7,0.8l-0.6,0.3v13.8h23.6V457h0.4
		c4.5,7.8,11.3,10.7,21,10.7c19.3,0,23.6-14.8,24.7-29.1l-0.3-0.1h-0.1c-8.7-1.8-14.1-6.9-17.1-13.7c-0.6-1.3-1.1-2.7-1.5-4.1
		c-0.9-3.3-1.4-7-1.4-10.9v-0.1c0-5.7,0.9-10.5,2.7-14.4c1.7-3.8,4.1-6.8,7.2-9c-3.4-2.3-7.8-3.6-13.9-3.6c-9,0-15,2.3-20.3,9.3H90
		v-42.9H65.2v35.7c0.4,0.1,0.7,0.3,1.1,0.5C75.8,388.8,81.3,394.1,84.2,400.6z M100.2,396.7c10.9,0,10.5,11.4,10.5,27.5
		c0,20.7-1.4,29.2-10.5,29.2c-8.6,0-10.1-8.6-10.1-29.2C90,408.1,90,396.7,100.2,396.7z"/>
	<path d="M17.5,456.2c13.5,0,25.2-1.4,34.5-3c4.9-1.1,9.4-2.5,13.2-4.2c0.4,0,0.4,0,0.7-0.4c10.9-4.4,16.8-10.6,17.2-18.5h-18H52
		h-0.4H37c0,6.2-3.3,13.1-19.5,13.1c-20,0-20.4-12.8-20.4-21.4h68.2H84c1.1-14.8-1.2-27.2-18.7-34C61.4,386,57,385,51.7,384
		c-8.6-1.7-19.9-2.8-34.1-2.8c-59.8,0-66.2,16.9-66.2,36.5C-48.8,440.3-41.2,456.2,17.5,456.2z M17.5,393.6
		c21.8,0,21.1,10,21.1,16.8H-2.9C-2.9,404.5-3.2,393.6,17.5,393.6z"/>
	<path d="M153.6,363.4c9.1,0,10.1,5.2,10.1,12v6.6c-14.2-0.4-28.1,0-36.9,6.2c-6,4.1-9.4,11-9.4,21.6c0,12.4,4.9,23.1,17.7,25.8
		c1.8,0.4,3.7,0.4,6,0.4c10.9,0,18-4.1,23.2-12.3h0.4l1.1,10.9h23.4c-0.4-5.2-1.1-10.3-1.1-15.5v-15.6l-2.5-4.6l-24.9-46.1l-0.9-1.7
		c-2.4-0.2-5-0.4-7.8-0.4c-9.5,0-17.7,1.4-23.4,5.5c-6,3.5-9.4,10-9.4,19.9H144C144.2,369.6,144.6,363.4,153.6,363.4z M151.4,421.8
		c-8.3,0-9.5-7.3-9.5-13c0-14.4,9.5-13.5,21.8-14.2C163.7,403.6,166,421.8,151.4,421.8z"/>
	<polygon points="188.2,397.4 198.4,416.3 198.4,456.5 231.1,456.5 231.1,416.3 274.8,340.4 241.6,340.4 216.5,389.4 193.1,340.4 
		157.4,340.4 163.3,351.3 	"/>
</g>
</svg>
