<?xml version="1.0" encoding="utf-8"?>
<!-- Generator: Adobe Illustrator 19.1.0, SVG Export Plug-In . SVG Version: 6.00 Build 0)  -->
<svg version="1.1" id="Layer_1" xmlns="http://www.w3.org/2000/svg" xmlns:xlink="http://www.w3.org/1999/xlink" x="0px" y="0px"
	 viewBox="-237 337.9 323.6 127.1" style="enable-background:new -237 337.9 323.6 127.1;" xml:space="preserve">
<g>
	<path d="M-53.7,435.9L-53.7,435.9c-8.7-1.8-14.2-6.9-17.2-13.7c-0.6-1.3-1.1-2.7-1.5-4.1c-0.9-3.3-1.4-7-1.4-10.9v-0.1
		c0-5.7,0.9-10.5,2.7-14.4c1.7-3.8,4.1-6.8,7.2-9c-3.4-2.3-7.8-3.6-13.9-3.6c-9,0-15,2.3-20.3,9.3h-0.3v-42.9h-24.8v35.7
		c0.4,0.1,0.7,0.3,1.1,0.5c9.5,3.7,15,9,17.9,15.5c2.9,6.4,3.2,13.6,2.6,21.5l0,0c-0.1,1.5-1.3,2.7-2.8,2.7h-18.7l0,0v2.4h18l0,0
		h0.1c1.5,0.1,2.7,1.4,2.7,3c-0.2,4.7-2.1,8.9-5.4,12.4c-3.1,3.3-7.5,6.1-13.1,8.4c-0.7,0.6-0.9,0.7-1.7,0.8l-0.6,0.3v13.8h23.6
		v-8.9h0.4c4.5,7.8,11.3,10.7,21,10.7c19.3,0,23.6-14.8,24.7-29.1L-53.7,435.9L-53.7,435.9z M-77.7,421.6c0,20.7-1.4,29.2-10.5,29.2
		c-8.6,0-10.1-8.6-10.1-29.2c0-16.1,0-27.5,10.1-27.5C-77.3,394.2-77.7,405.6-77.7,421.6z"/>
	<path d="M-122.4,446c10.9-4.4,16.8-10.6,17.2-18.5h-18h-13.2h-0.4h-14.6c0,6.2-3.3,13.1-19.5,13.1c-20,0-20.4-12.8-20.4-21.4h68.2
		h18.7c1.1-14.8-1.2-27.2-18.7-34c-3.9-1.8-8.3-2.8-13.6-3.8c-8.6-1.7-19.9-2.8-34.1-2.8c-59.8,0-66.2,16.9-66.2,36.5
		c0,22.6,7.6,38.5,66.2,38.5c13.5,0,25.2-1.4,34.5-3c4.9-1.1,9.4-2.5,13.2-4.2C-122.8,446.4-122.8,446.4-122.4,446z M-170.9,391.1
		c21.8,0,21.1,10,21.1,16.8h-41.5C-191.3,402-191.6,391.1-170.9,391.1z"/>
	<path d="M-0.2,400.9l-2.5-4.6l-24.9-46.1l-0.9-1.7c-2.4-0.2-5-0.4-7.8-0.4c-9.5,0-17.7,1.4-23.4,5.5c-6,3.5-9.4,10-9.4,19.9h24.8
		c0-6.4,0.4-12.7,9.4-12.7c9.1,0,10.1,5.2,10.1,12v6.6c-14.2-0.4-28.1,0-36.9,6.2c-6,4.1-9.4,11-9.4,21.6c0,12.4,4.9,23.1,17.7,25.8
		c1.8,0.4,3.7,0.4,6,0.4c10.9,0,18-4.1,23.2-12.3h0.4l1.1,10.9H0.7c-0.4-5.2-1.1-10.3-1.1-15.5v-15.6L-0.2,400.9L-0.2,400.9z
		 M-37,419.3c-8.3,0-9.5-7.3-9.5-13c0-14.4,9.5-13.5,21.8-14.2C-24.7,401.1-22.4,419.3-37,419.3z"/>
	<polygon points="53.2,337.9 28.1,386.9 4.7,337.9 -31,337.9 -25.1,348.8 -0.2,394.9 10,413.8 10,454 42.7,454 42.7,413.8 
		86.4,337.9 	"/>
</g>
</svg>
