<?xml version="1.0" encoding="utf-8"?>
<!-- Generator: Adobe Illustrator 19.1.0, SVG Export Plug-In . SVG Version: 6.00 Build 0)  -->
<svg version="1.1" id="Layer_1" xmlns="http://www.w3.org/2000/svg" xmlns:xlink="http://www.w3.org/1999/xlink" x="0px" y="0px"
	 viewBox="-143 145 512 512" style="enable-background:new -143 145 512 512;" xml:space="preserve">
<g>
	<path d="M-143,145v512h512V145H-143z M339,627h-452V175h452V627z"/>
	<path d="M69.5,448.3c1.4,0,2.5-1.1,2.6-2.6l1.8-26.7l-1.8-58.2c-0.1-1.4-1.2-2.6-2.6-2.6c-1.4,0-2.5,1.1-2.6,2.6L65.3,419l1.6,26.7
		C66.9,447.1,68.1,448.3,69.5,448.3z"/>
	<path d="M58.9,448.2c1.3,0,2.3-1,2.4-2.4l2-26.9l-2-56.3c-0.1-1.3-1.1-2.4-2.4-2.4c-1.3,0-2.3,1-2.4,2.4l-1.8,56.3l1.8,26.9
		C56.6,447.2,57.6,448.2,58.9,448.2z"/>
	<path d="M80.1,448.3c1.5,0,2.8-1.2,2.8-2.8l1.7-26.5l-1.7-56.7c0-1.6-1.3-2.8-2.8-2.8s-2.8,1.2-2.8,2.8L75.8,419l1.5,26.5
		C77.3,447,78.6,448.3,80.1,448.3z"/>
	<path d="M90.8,448.3c1.7,0,3-1.3,3-3l1.5-26.3l-1.5-54.7c0-1.7-1.4-3-3-3c-1.7,0-3,1.3-3,3L86.4,419l1.4,26.3
		C87.8,447,89.2,448.3,90.8,448.3z"/>
	<path d="M101.6,448.4c1.8,0,3.2-1.5,3.2-3.2l1.4-26.1l-1.4-65c0-1.8-1.5-3.2-3.2-3.2c-1.8,0-3.2,1.4-3.2,3.2l-1.2,65l1.2,26.1
		C98.4,446.9,99.9,448.4,101.6,448.4z"/>
	<path d="M122.2,448.4c0.1,0,86.7,0,87.3,0c17.4,0,31.5-14.1,31.5-31.5c0-17.4-14.1-31.5-31.5-31.5c-4.3,0-8.4,0.9-12.2,2.4
		c-2.5-28.4-26.3-50.6-55.3-50.6c-7.1,0-14,1.4-20.1,3.8c-2.4,0.9-3,1.9-3,3.7v99.9C118.8,446.6,120.3,448.2,122.2,448.4z"/>
	<path d="M112.4,448.2c1.9,0,3.4-1.6,3.5-3.5l1.5-25.8l-1.5-70.9c0-1.9-1.6-3.5-3.5-3.5c-1.9,0-3.4,1.6-3.5,3.5l-1.4,70.9l1.4,25.7
		C108.9,446.6,110.5,448.2,112.4,448.2z"/>
	<path d="M17.6,447.6c0.8,0,1.4-0.6,1.5-1.5l2.6-27.1l-2.6-28c-0.1-0.9-0.7-1.5-1.5-1.5c-0.8,0-1.4,0.6-1.5,1.5l-2.3,28l2.3,27.1
		C16.1,446.9,16.8,447.6,17.6,447.6z"/>
	<path d="M48.5,448.3c1.2,0,2.1-0.9,2.2-2.1l2.1-27.2l-2.1-52c-0.1-1.2-1-2.1-2.2-2.1s-2.1,0.9-2.2,2.1l-1.9,52l1.9,27.2
		C46.4,447.3,47.3,448.3,48.5,448.3z"/>
	<path d="M-12.1,433.9c0.5,0,0.9-0.4,1-1l2.2-14l-2.2-14.2c-0.1-0.6-0.5-1-1-1s-1,0.4-1,1L-15,419l1.9,14
		C-13.1,433.5-12.6,433.9-12.1,433.9z"/>
	<path d="M7.4,446.5c0.7,0,1.2-0.5,1.3-1.2l2.7-26.3l-2.7-27.3c-0.1-0.7-0.6-1.3-1.3-1.3s-1.2,0.5-1.3,1.3L3.7,419l2.4,26.3
		C6.2,446,6.7,446.5,7.4,446.5z"/>
	<path d="M-2.6,442.5c0.5,0,1-0.4,1.1-1L1.4,419l-2.9-23c-0.1-0.6-0.5-1-1.1-1c-0.5,0-1,0.4-1.1,1l-2.5,23l2.5,22.5
		C-3.6,442-3.2,442.5-2.6,442.5z"/>
	<path d="M27.8,448c0.9,0,1.6-0.7,1.7-1.7l2.4-27.3l-2.4-26c-0.1-1-0.8-1.7-1.7-1.7c-0.9,0-1.7,0.7-1.7,1.7L24,419l2.1,27.3
		C26.1,447.3,26.9,448,27.8,448z"/>
	<path d="M38.1,448.2c1,0,1.9-0.8,1.9-1.9l2.3-27.3L40,376.7c-0.1-1.1-0.9-1.9-1.9-1.9s-1.9,0.8-1.9,1.9l-2,42.3l2,27.3
		C36.2,447.4,37,448.2,38.1,448.2z"/>
</g>
</svg>
