<?xml version="1.0" encoding="utf-8"?>
<!-- Generator: Adobe Illustrator 19.1.0, SVG Export Plug-In . SVG Version: 6.00 Build 0)  -->
<svg version="1.1" id="Layer_1" xmlns="http://www.w3.org/2000/svg" xmlns:xlink="http://www.w3.org/1999/xlink" x="0px" y="0px"
	 viewBox="-143 145 512 512" style="enable-background:new -143 145 512 512;" xml:space="preserve">
<path d="M113,145c-141.4,0-256,114.6-256,256s114.6,256,256,256s256-114.6,256-256S254.4,145,113,145z M-11.1,432.9
	c-0.1,0.6-0.5,1-1,1s-1-0.4-1-1l-1.9-14l1.9-14.2c0.1-0.6,0.5-1,1-1s0.9,0.4,1,1l2.2,14.2L-11.1,432.9z M-1.6,441.4
	c-0.1,0.6-0.5,1-1.1,1c-0.5,0-1-0.4-1.1-1l-2.5-22.5l2.5-23c0.1-0.6,0.5-1,1.1-1c0.5,0,1,0.4,1.1,1l2.9,23L-1.6,441.4z M8.7,445.3
	c-0.1,0.7-0.6,1.2-1.3,1.2c-0.7,0-1.2-0.5-1.3-1.3l-2.4-26.3l2.4-27.3c0.1-0.7,0.6-1.3,1.3-1.3c0.7,0,1.2,0.5,1.3,1.3l2.7,27.3
	L8.7,445.3z M19.1,446.1c-0.1,0.8-0.7,1.5-1.5,1.5c-0.8,0-1.4-0.6-1.5-1.5L13.8,419l2.3-28c0.1-0.9,0.7-1.5,1.5-1.5
	c0.8,0,1.4,0.6,1.5,1.5l2.6,28L19.1,446.1z M29.5,446.3c-0.1,1-0.8,1.7-1.7,1.7c-0.9,0-1.7-0.7-1.7-1.7L24,419l2.1-26
	c0.1-1,0.8-1.7,1.7-1.7c0.9,0,1.6,0.7,1.7,1.7l2.4,26L29.5,446.3z M40,446.3c-0.1,1.1-0.9,1.9-1.9,1.9s-1.9-0.8-1.9-1.9l-2-27.3
	l2-42.3c0.1-1.1,0.9-1.9,1.9-1.9s1.9,0.8,1.9,1.9l2.3,42.3L40,446.3z M50.6,446.2c-0.1,1.2-1,2.1-2.2,2.1s-2.1-0.9-2.2-2.1L44.3,419
	l1.9-52c0.1-1.2,1-2.1,2.2-2.1s2.1,0.9,2.2,2.1l2.1,52L50.6,446.2z M61.3,445.9c-0.1,1.3-1.1,2.3-2.4,2.3s-2.3-1-2.4-2.3L54.7,419
	l1.8-56.3c0-1.3,1.1-2.4,2.4-2.4s2.3,1,2.4,2.4l2,56.3L61.3,445.9z M72.1,445.7c-0.1,1.4-1.2,2.6-2.6,2.6c-1.4,0-2.5-1.1-2.6-2.6
	L65.3,419l1.6-58.2c0-1.4,1.2-2.6,2.6-2.6s2.5,1.1,2.6,2.6l1.8,58.2L72.1,445.7z M82.9,445.5c0,1.5-1.3,2.8-2.8,2.8
	s-2.8-1.2-2.8-2.8L75.8,419l1.5-56.7c0-1.6,1.3-2.8,2.8-2.8s2.8,1.2,2.8,2.8l1.7,56.7L82.9,445.5z M93.9,445.3c0,1.7-1.4,3-3,3
	c-1.7,0-3-1.3-3-3L86.5,419l1.4-54.7c0-1.7,1.4-3,3-3c1.7,0,3,1.3,3,3l1.5,54.7L93.9,445.3z M104.9,445.1c0,1.8-1.5,3.2-3.2,3.2
	c-1.8,0-3.2-1.5-3.2-3.2L97.3,419l1.2-65c0-1.8,1.5-3.2,3.2-3.2c1.8,0,3.2,1.4,3.2,3.2l1.4,65L104.9,445.1z M115.9,444.8
	c0,1.9-1.6,3.4-3.5,3.4c-1.9,0-3.4-1.6-3.5-3.4l-1.4-25.7l1.4-70.9c0-1.9,1.6-3.5,3.5-3.5c1.9,0,3.4,1.6,3.5,3.5l1.5,70.9
	L115.9,444.8z M209.5,448.4c-0.6,0-87.2,0-87.3,0c-1.9-0.2-3.4-1.8-3.4-3.7v-99.9c0-1.8,0.7-2.8,3-3.7c6.1-2.4,13-3.8,20.1-3.8
	c29,0,52.8,22.3,55.3,50.6c3.7-1.6,7.9-2.4,12.2-2.4c17.4,0,31.5,14.1,31.5,31.5C241,434.3,226.9,448.4,209.5,448.4z"/>
</svg>
