<?xml version="1.0" encoding="utf-8"?>
<!-- Generator: Adobe Illustrator 19.1.0, SVG Export Plug-In . SVG Version: 6.00 Build 0)  -->
<svg version="1.1" id="Layer_1" xmlns="http://www.w3.org/2000/svg" xmlns:xlink="http://www.w3.org/1999/xlink" x="0px" y="0px"
	 viewBox="-143 145 512 512" style="enable-background:new -143 145 512 512;" xml:space="preserve">
<g>
	<path d="M113,145c-141.4,0-256,114.6-256,256s114.6,256,256,256s256-114.6,256-256S254.4,145,113,145z M272.8,560.7
		c-20.8,20.8-44.9,37.1-71.8,48.4c-27.8,11.8-57.4,17.7-88,17.7c-30.5,0-60.1-6-88-17.7c-26.9-11.4-51.1-27.7-71.8-48.4
		c-20.8-20.8-37.1-44.9-48.4-71.8C-107,461.1-113,431.5-113,401s6-60.1,17.7-88c11.4-26.9,27.7-51.1,48.4-71.8
		c20.9-20.8,45-37.1,71.9-48.5C52.9,181,82.5,175,113,175s60.1,6,88,17.7c26.9,11.4,51.1,27.7,71.8,48.4
		c20.8,20.8,37.1,44.9,48.4,71.8c11.8,27.8,17.7,57.4,17.7,88c0,30.5-6,60.1-17.7,88C309.8,515.8,293.5,540,272.8,560.7z"/>
	<path d="M17.6,389.5c-0.8,0-1.4,0.6-1.5,1.5l-2.3,28l2.3,27.1c0.1,0.8,0.7,1.5,1.5,1.5c0.8,0,1.4-0.6,1.5-1.5l2.6-27.1l-2.6-28
		C19,390.1,18.3,389.5,17.6,389.5z"/>
	<path d="M27.8,391.3c-0.9,0-1.7,0.7-1.7,1.7L24,419l2.1,27.3c0.1,1,0.8,1.7,1.7,1.7c0.9,0,1.6-0.7,1.7-1.7l2.4-27.3l-2.4-26
		C29.4,392,28.7,391.3,27.8,391.3z"/>
	<path d="M38.1,374.8c-1,0-1.9,0.8-1.9,1.9l-2,42.3l2,27.3c0.1,1.1,0.9,1.9,1.9,1.9s1.9-0.8,1.9-1.9l2.3-27.3L40,376.7
		C40,375.6,39.1,374.8,38.1,374.8z"/>
	<path d="M7.4,390.4c-0.7,0-1.2,0.5-1.3,1.3L3.7,419l2.4,26.3c0.1,0.7,0.6,1.3,1.3,1.3c0.7,0,1.2-0.5,1.3-1.2l2.7-26.3l-2.7-27.3
		C8.6,391,8.1,390.4,7.4,390.4z"/>
	<path d="M48.5,364.9c-1.2,0-2.1,0.9-2.2,2.1l-1.9,52l1.9,27.2c0.1,1.2,1,2.1,2.2,2.1s2.1-0.9,2.2-2.1l2.1-27.2l-2.1-52
		C50.6,365.8,49.6,364.9,48.5,364.9z"/>
	<path d="M-2.6,394.9c-0.5,0-1,0.4-1.1,1l-2.5,23l2.5,22.5c0.1,0.6,0.5,1,1.1,1c0.5,0,1-0.4,1.1-1l2.9-22.5l-2.9-23
		C-1.7,395.4-2.1,394.9-2.6,394.9z"/>
	<path d="M-12.1,403.7c-0.5,0-1,0.4-1,1L-15,419l1.9,14c0.1,0.6,0.5,1,1,1s0.9-0.4,1-1l2.2-14l-2.2-14.2
		C-11.2,404.2-11.6,403.7-12.1,403.7z"/>
	<path d="M209.5,385.4c-4.3,0-8.4,0.9-12.2,2.4c-2.5-28.4-26.3-50.6-55.3-50.6c-7.1,0-14,1.4-20.1,3.8c-2.4,0.9-3,1.9-3,3.7v99.9
		c0,1.9,1.5,3.5,3.4,3.7c0.1,0,86.7,0,87.3,0c17.4,0,31.5-14.1,31.5-31.5C241,399.5,226.9,385.4,209.5,385.4z"/>
	<path d="M101.6,350.7c-1.8,0-3.2,1.4-3.2,3.2l-1.2,65l1.2,26.1c0,1.8,1.5,3.2,3.2,3.2c1.8,0,3.2-1.5,3.2-3.2l1.4-26.1l-1.4-65
		C104.9,352.2,103.4,350.7,101.6,350.7z"/>
	<path d="M90.8,361.3c-1.7,0-3,1.3-3,3L86.4,419l1.4,26.3c0,1.7,1.4,3,3,3c1.7,0,3-1.3,3-3l1.5-26.3l-1.5-54.7
		C93.8,362.7,92.5,361.3,90.8,361.3z"/>
	<path d="M112.4,344.6c-1.9,0-3.4,1.6-3.5,3.5l-1.4,70.9l1.4,25.7c0,1.9,1.6,3.4,3.5,3.4c1.9,0,3.4-1.6,3.5-3.5l1.5-25.8l-1.5-70.9
		C115.8,346.2,114.3,344.6,112.4,344.6z"/>
	<path d="M80.1,359.5c-1.5,0-2.8,1.2-2.8,2.8L75.8,419l1.5,26.5c0,1.6,1.3,2.8,2.8,2.8s2.8-1.2,2.8-2.8l1.7-26.5l-1.7-56.7
		C82.9,360.7,81.7,359.5,80.1,359.5z"/>
	<path d="M58.9,360.3c-1.3,0-2.3,1-2.4,2.4L54.7,419l1.8,26.9c0,1.3,1.1,2.3,2.4,2.3s2.3-1,2.4-2.4l2-26.9l-2-56.3
		C61.3,361.4,60.2,360.3,58.9,360.3z"/>
	<path d="M69.5,358.2c-1.4,0-2.5,1.1-2.6,2.6L65.3,419l1.6,26.7c0,1.4,1.2,2.6,2.6,2.6s2.5-1.1,2.6-2.6l1.8-26.7l-1.8-58.2
		C72,359.3,70.9,358.2,69.5,358.2z"/>
</g>
</svg>
