<?xml version="1.0" encoding="utf-8"?>
<!-- Generator: Adobe Illustrator 19.1.0, SVG Export Plug-In . SVG Version: 6.00 Build 0)  -->
<svg version="1.1" id="Layer_1" xmlns="http://www.w3.org/2000/svg" xmlns:xlink="http://www.w3.org/1999/xlink" x="0px" y="0px"
	 viewBox="-127 129 255.1 256" style="enable-background:new -127 129 255.1 256;" xml:space="preserve">
<path d="M127.3,235.3l-2.1-4.4l-3.6-2.8c-4.7-3.7-28.5,0.3-34.9-5.6c-4.5-4.2-5.2-11.7-6.6-21.9c-2.6-19.8-4.2-20.8-7.3-27.5
	c-11.2-23.8-41.6-41.7-62.4-44.1h-56.6c-44.5,0-80.8,36.4-80.8,80.9v94.4c0,44.4,36.4,80.7,80.8,80.7h92.9
	c44.4,0,80.6-36.4,80.8-80.7l0.5-65.4L127.3,235.3z M-45.2,195.1h44.8c8.6,0,15.5,6.9,15.5,15.4S8.2,226-0.4,226h-44.8
	c-8.6,0-15.5-7-15.5-15.5S-53.7,195.1-45.2,195.1z M45.9,318.4h-91.1c-8.6,0-15.5-7-15.5-15.4c0-8.5,6.9-15.4,15.5-15.4h91.1
	c8.5,0,15.4,6.9,15.4,15.4C61.3,311.4,54.4,318.4,45.9,318.4z"/>
</svg>
