<?xml version="1.0" encoding="utf-8"?>
<!-- Generator: Adobe Illustrator 19.1.0, SVG Export Plug-In . SVG Version: 6.00 Build 0)  -->
<svg version="1.1" id="Layer_1" xmlns="http://www.w3.org/2000/svg" xmlns:xlink="http://www.w3.org/1999/xlink" x="0px" y="0px"
	 viewBox="0 0 512 512" style="enable-background:new 0 0 512 512;" xml:space="preserve">
<g>
	<path d="M0,0v512h512V0H0z M482,482H30V30h452V482z"/>
	<path d="M209.3,384h92.9c44.4,0,80.6-36.4,80.8-80.7l0.5-65.4l-0.7-3.6l-2.1-4.4l-3.6-2.8c-4.7-3.7-28.5,0.3-34.9-5.6
		c-4.5-4.2-5.2-11.7-6.6-21.9c-2.6-19.8-4.2-20.8-7.3-27.5c-11.2-23.8-41.6-41.7-62.4-44.1h-56.6c-44.5,0-80.8,36.4-80.8,80.9v94.4
		C128.5,347.7,164.9,384,209.3,384z M210.3,194.1h44.8c8.6,0,15.5,6.9,15.5,15.4s-6.9,15.5-15.5,15.5h-44.8c-8.6,0-15.5-7-15.5-15.5
		S201.8,194.1,210.3,194.1z M210.3,286.6h91.1c8.5,0,15.4,6.9,15.4,15.4c0,8.4-6.9,15.4-15.4,15.4h-91.1c-8.6,0-15.5-7-15.5-15.4
		C194.8,293.5,201.7,286.6,210.3,286.6z"/>
</g>
</svg>
