<?xml version="1.0" encoding="utf-8"?>
<!-- Generator: Adobe Illustrator 19.1.0, SVG Export Plug-In . SVG Version: 6.00 Build 0)  -->
<svg version="1.1" id="Layer_1" xmlns="http://www.w3.org/2000/svg" xmlns:xlink="http://www.w3.org/1999/xlink" x="0px" y="0px"
	 viewBox="0 0 512 512" style="enable-background:new 0 0 512 512;" xml:space="preserve">
<g>
	<path d="M472,0H40C17.9,0,0,17.9,0,40v432c0,22.1,17.9,40,40,40h432c22.1,0,40-17.9,40-40V40C512,17.9,494.1,0,472,0z M482,472
		c0,5.5-4.5,10-10,10H40c-5.5,0-10-4.5-10-10V40c0-5.5,4.5-10,10-10h432c5.5,0,10,4.5,10,10V472z"/>
	<path d="M380.7,229.9l-3.6-2.8c-4.7-3.7-28.5,0.3-34.9-5.6c-4.5-4.2-5.2-11.7-6.6-21.9c-2.6-19.8-4.2-20.8-7.3-27.5
		c-11.2-23.8-41.6-41.7-62.4-44.1h-56.6c-44.5,0-80.8,36.4-80.8,80.9v94.4c0,44.4,36.4,80.7,80.8,80.7h92.9
		c44.4,0,80.6-36.4,80.8-80.7l0.5-65.4l-0.7-3.6L380.7,229.9z M210.3,194.1h44.8c8.6,0,15.5,6.9,15.5,15.4s-6.9,15.5-15.5,15.5
		h-44.8c-8.6,0-15.5-7-15.5-15.5S201.8,194.1,210.3,194.1z M301.4,317.4h-91.1c-8.6,0-15.5-7-15.5-15.4c0-8.5,6.9-15.4,15.5-15.4
		h91.1c8.5,0,15.4,6.9,15.4,15.4C316.8,310.4,309.9,317.4,301.4,317.4z"/>
</g>
</svg>
