<?xml version="1.0" encoding="utf-8"?>
<!-- Generator: Adobe Illustrator 19.1.0, SVG Export Plug-In . SVG Version: 6.00 Build 0)  -->
<svg version="1.1" id="Layer_1" xmlns="http://www.w3.org/2000/svg" xmlns:xlink="http://www.w3.org/1999/xlink" x="0px" y="0px"
	 viewBox="-143 145 512 512" style="enable-background:new -143 145 512 512;" xml:space="preserve">
<g>
	<path d="M-143,145v512h512V145H-143z M339,627h-452V175h452V627z"/>
	<path d="M184.6,457.4c31.2,0,56.4-25.3,56.4-56.4c0-31.1-25.2-56.4-56.4-56.4c-31.2,0-56.4,25.3-56.4,56.4
		C128.2,432.1,153.4,457.4,184.6,457.4z"/>
	<path d="M41.4,457.4c31.2,0,56.4-25.3,56.4-56.4c0-31.1-25.2-56.4-56.4-56.4S-15,369.9-15,401C-15,432.1,10.3,457.4,41.4,457.4z"/>
</g>
</svg>
