<?xml version="1.0" encoding="utf-8"?>
<!-- Generator: Adobe Illustrator 19.1.0, SVG Export Plug-In . SVG Version: 6.00 Build 0)  -->
<svg version="1.1" id="Layer_1" xmlns="http://www.w3.org/2000/svg" xmlns:xlink="http://www.w3.org/1999/xlink" x="0px" y="0px"
	 viewBox="-143 145 512 512" style="enable-background:new -143 145 512 512;" xml:space="preserve">
<path d="M113,145c-141.4,0-256,114.6-256,256s114.6,256,256,256s256-114.6,256-256S254.4,145,113,145z M41.4,457.4
	C10.3,457.4-15,432.1-15,401c0-31.1,25.2-56.4,56.4-56.4c31.2,0,56.4,25.3,56.4,56.4C97.8,432.1,72.6,457.4,41.4,457.4z
	 M184.6,457.4c-31.2,0-56.4-25.3-56.4-56.4c0-31.1,25.2-56.4,56.4-56.4c31.1,0,56.4,25.3,56.4,56.4
	C241,432.1,215.8,457.4,184.6,457.4z"/>
</svg>
