<?xml version="1.0" encoding="utf-8"?>
<!-- Generator: Adobe Illustrator 19.1.0, SVG Export Plug-In . SVG Version: 6.00 Build 0)  -->
<svg version="1.1" id="Layer_1" xmlns="http://www.w3.org/2000/svg" xmlns:xlink="http://www.w3.org/1999/xlink" x="0px" y="0px"
	 viewBox="-143 145 512 512" style="enable-background:new -143 145 512 512;" xml:space="preserve">
<g>
	<path d="M-143,145v512h512V145H-143z M339,627h-452V175h452V627z"/>
	<polygon points="60.3,463.6 113,419.7 37.1,372.8 -15,414.5 	"/>
	<polygon points="60.3,282 -15,331.1 37.1,372.8 113,325.9 	"/>
	<polygon points="241,331.1 165.7,282 113,325.9 188.9,372.8 	"/>
	<polygon points="165.7,463.6 241,414.5 188.9,372.8 113,419.7 	"/>
	<polygon points="113.2,429.1 60.3,473 37.7,458.2 37.7,474.8 113.2,520 188.6,474.8 188.6,458.2 166,473 	"/>
</g>
</svg>
