<?xml version="1.0" encoding="utf-8"?>
<!-- Generator: Adobe Illustrator 19.1.0, SVG Export Plug-In . SVG Version: 6.00 Build 0)  -->
<svg version="1.1" id="Layer_1" xmlns="http://www.w3.org/2000/svg" xmlns:xlink="http://www.w3.org/1999/xlink" x="0px" y="0px"
	 viewBox="-143 145 512 512" style="enable-background:new -143 145 512 512;" xml:space="preserve">
<g>
	<path d="M329,145h-432c-22.1,0-40,17.9-40,40v432c0,22.1,17.9,40,40,40h432c22.1,0,40-17.9,40-40V185C369,162.9,351.1,145,329,145z
		 M339,617c0,5.5-4.5,10-10,10h-432c-5.5,0-10-4.5-10-10V185c0-5.5,4.5-10,10-10h432c5.5,0,10,4.5,10,10V617z"/>
	<polygon points="-15,414.5 60.3,463.6 113,419.7 37.1,372.8 	"/>
	<polygon points="60.3,282 -15,331.1 37.1,372.8 113,325.9 	"/>
	<polygon points="165.7,282 113,325.9 188.9,372.8 241,331.1 	"/>
	<polygon points="165.7,463.6 241,414.5 188.9,372.8 113,419.7 	"/>
	<polygon points="113.2,429.1 60.3,473 37.7,458.2 37.7,474.8 113.2,520 188.6,474.8 188.6,458.2 166,473 	"/>
</g>
</svg>
