<?xml version="1.0" encoding="utf-8"?>
<!-- Generator: Adobe Illustrator 19.1.0, SVG Export Plug-In . SVG Version: 6.00 Build 0)  -->
<svg version="1.1" id="Layer_1" xmlns="http://www.w3.org/2000/svg" xmlns:xlink="http://www.w3.org/1999/xlink" x="0px" y="0px"
	 viewBox="-143 145 512 512" style="enable-background:new -143 145 512 512;" xml:space="preserve">
<path d="M329,145h-432c-22.1,0-40,17.9-40,40v432c0,22.1,17.9,40,40,40h432c22.1,0,40-17.9,40-40V185C369,162.9,351.1,145,329,145z
	 M43.1,518.7c-6.2,6.2-14.7,9.9-24.1,9.9c-9.4,0-17.8-3.8-24-9.9c-6.2-6.2-10-14.6-10-23.9c0-9.4,3.8-17.8,10-24s14.6-10,24-10
	c9.4,0,17.9,3.8,24,10c6.2,6.2,10,14.6,10,24C53,504.2,49.2,512.6,43.1,518.7z M104.8,529c-0.1-32.1-12.5-62.3-35.1-84.9
	c-22.6-22.6-52.8-35.2-84.7-35.2V360c46.6,0,88.7,19,119.3,49.6c30.6,30.6,49.5,72.8,49.6,119.4H104.8z M192,529
	c-0.1-114.2-92.8-207.1-206.9-207.1V273c70.6,0,134.5,28.7,180.8,75.1c46.3,46.4,75,110.3,75.1,180.9H192z"/>
</svg>
