<?xml version="1.0" encoding="utf-8"?>
<!-- Generator: Adobe Illustrator 19.1.0, SVG Export Plug-In . SVG Version: 6.00 Build 0)  -->
<svg version="1.1" id="Layer_1" xmlns="http://www.w3.org/2000/svg" xmlns:xlink="http://www.w3.org/1999/xlink" x="0px" y="0px"
	 viewBox="-143 145 512 512" style="enable-background:new -143 145 512 512;" xml:space="preserve">
<g>
	<path d="M-143,145v512h512V145H-143z M339,627h-452V175h452V627z"/>
	<path d="M104.8,528.9L104.8,528.9l49.1,0.1c0-46.6-19-88.7-49.6-119.4C73.8,379,31.6,360.1-15,360v48.9c31.9,0,62.1,12.6,84.7,35.2
		C92.3,466.7,104.8,496.9,104.8,528.9z"/>
	<path d="M192,529h49c0-70.6-28.7-134.5-75.1-180.9C119.6,301.7,55.7,273-14.9,273v48.9C99.2,322,191.9,414.9,192,529z"/>
	<path d="M19,528.7c9.4,0,17.8-3.7,24-9.9s10-14.6,10-23.9c0-9.4-3.8-17.8-10-24c-6.2-6.2-14.6-10-24-10s-17.8,3.8-24,10
		s-10,14.6-10,24c0,9.3,3.8,17.7,10,23.9C1.2,524.9,9.6,528.7,19,528.7z"/>
</g>
</svg>
