<?xml version="1.0" encoding="utf-8"?>
<!-- Generator: Adobe Illustrator 19.1.0, SVG Export Plug-In . SVG Version: 6.00 Build 0)  -->
<svg version="1.1" id="Layer_1" xmlns="http://www.w3.org/2000/svg" xmlns:xlink="http://www.w3.org/1999/xlink" x="0px" y="0px"
	 viewBox="-143 145 512 512" style="enable-background:new -143 145 512 512;" xml:space="preserve">
<path d="M-143,145v512h512V145H-143z M43.1,518.7c-6.2,6.2-14.7,9.9-24.1,9.9c-9.4,0-17.8-3.8-24-9.9c-6.2-6.2-10-14.6-10-23.9
	c0-9.4,3.8-17.8,10-24s14.6-10,24-10c9.4,0,17.9,3.8,24,10c6.2,6.2,10,14.6,10,24C53,504.2,49.2,512.6,43.1,518.7z M104.8,529
	c-0.1-32.1-12.5-62.3-35.1-84.9c-22.6-22.6-52.8-35.2-84.7-35.2V360c46.6,0,88.7,19,119.3,49.6c30.6,30.6,49.5,72.8,49.6,119.4
	H104.8z M192,529c-0.1-114.2-92.8-207.1-206.9-207.1V273c70.6,0,134.5,28.7,180.8,75.1c46.3,46.4,75,110.3,75.1,180.9H192z"/>
</svg>
