<?xml version="1.0" encoding="utf-8"?>
<!-- Generator: Adobe Illustrator 19.1.0, SVG Export Plug-In . SVG Version: 6.00 Build 0)  -->
<svg version="1.1" id="Layer_1" xmlns="http://www.w3.org/2000/svg" xmlns:xlink="http://www.w3.org/1999/xlink" x="0px" y="0px"
	 viewBox="-143 145 512 512" style="enable-background:new -143 145 512 512;" xml:space="preserve">
<g>
	<path d="M329,145h-432c-22.1,0-40,17.9-40,40v432c0,22.1,17.9,40,40,40h432c22.1,0,40-17.9,40-40V185C369,162.9,351.1,145,329,145z
		 M339,617c0,5.5-4.5,10-10,10h-432c-5.5,0-10-4.5-10-10V185c0-5.5,4.5-10,10-10h432c5.5,0,10,4.5,10,10V617z"/>
	<path d="M19,460.9c-9.4,0-17.8,3.8-24,10s-10,14.6-10,24c0,9.3,3.8,17.7,10,23.9c6.2,6.1,14.6,9.9,24,9.9s17.8-3.7,24-9.9
		s10-14.6,10-23.9c0-9.4-3.8-17.8-10-24C36.8,464.7,28.4,460.9,19,460.9z"/>
	<path d="M-15,360v48.9c31.9,0,62.1,12.6,84.7,35.2c22.6,22.6,35.1,52.8,35.1,84.8v0.1h49.1c0-46.6-19-88.7-49.6-119.4
		C73.8,379,31.6,360.1-15,360z"/>
	<path d="M-14.9,273v48.9C99.2,322,191.9,414.9,192,529h49c0-70.6-28.7-134.5-75.1-180.9C119.6,301.7,55.7,273-14.9,273z"/>
</g>
</svg>
