<?xml version="1.0" encoding="utf-8"?>
<!-- Generator: Adobe Illustrator 19.1.0, SVG Export Plug-In . SVG Version: 6.00 Build 0)  -->
<svg version="1.1" id="Layer_1" xmlns="http://www.w3.org/2000/svg" xmlns:xlink="http://www.w3.org/1999/xlink" x="0px" y="0px"
	 viewBox="-143 145 512 512" style="enable-background:new -143 145 512 512;" xml:space="preserve">
<g>
	<path d="M113,145c-141.4,0-256,114.6-256,256s114.6,256,256,256s256-114.6,256-256S254.4,145,113,145z M272.8,560.7
		c-20.8,20.8-44.9,37.1-71.8,48.4c-27.8,11.8-57.4,17.7-88,17.7c-30.5,0-60.1-6-88-17.7c-26.9-11.4-51.1-27.7-71.8-48.4
		c-20.8-20.8-37.1-44.9-48.4-71.8C-107,461.1-113,431.5-113,401s6-60.1,17.7-88c11.4-26.9,27.7-51.1,48.4-71.8
		c20.9-20.8,45-37.1,71.9-48.5C52.9,181,82.5,175,113,175s60.1,6,88,17.7c26.9,11.4,51.1,27.7,71.8,48.4
		c20.8,20.8,37.1,44.9,48.4,71.8c11.8,27.8,17.7,57.4,17.7,88c0,30.5-6,60.1-17.7,88C309.8,515.8,293.5,540,272.8,560.7z"/>
	<path d="M-15,360v48.9c31.9,0,62.1,12.6,84.7,35.2c22.6,22.6,35.1,52.8,35.1,84.8v0.1h49.1c0-46.6-19-88.7-49.6-119.4
		C73.8,379,31.6,360.1-15,360z"/>
	<path d="M19,460.9c-9.4,0-17.8,3.8-24,10s-10,14.6-10,24c0,9.3,3.8,17.7,10,23.9c6.2,6.1,14.6,9.9,24,9.9s17.8-3.7,24-9.9
		s10-14.6,10-23.9c0-9.4-3.8-17.8-10-24C36.8,464.7,28.4,460.9,19,460.9z"/>
	<path d="M-14.9,273v48.9C99.2,322,191.9,414.9,192,529h49c0-70.6-28.7-134.5-75.1-180.9C119.6,301.7,55.7,273-14.9,273z"/>
</g>
</svg>
