<?xml version="1.0" encoding="utf-8"?>
<!-- Generator: Adobe Illustrator 19.1.0, SVG Export Plug-In . SVG Version: 6.00 Build 0)  -->
<svg version="1.1" id="Layer_1" xmlns="http://www.w3.org/2000/svg" xmlns:xlink="http://www.w3.org/1999/xlink" x="0px" y="0px"
	 viewBox="-143 145 512 512" style="enable-background:new -143 145 512 512;" xml:space="preserve">
<path d="M-143,145v512h512V145H-143z M224,441L224,441c-0.1,24.2-19.8,43.8-43.9,43.8h-7.2c-24.2,0-43.8-19.6-43.8-43.8v-54.6
	c0-8.5-6.5-15.8-15-15.8H54.8c-8.5,0-15.8,6.8-15.8,14.6c0,8.1,7.4,15.3,16.1,15.8l9,0.5c24,1.2,42.9,20.5,42.1,42.9
	c-0.7,22.3-20.8,40.4-44.7,40.4h-93.6v-28.5h93.6c8.6,0,16.1-5.9,16.3-12.9c0.2-6.9-6.7-13.1-15.2-13.5l-9-0.5
	c-23.7-1.2-43-21.1-43-44.2c0-23.5,19.7-42.7,43.8-42.7h59.3c24.2,0,43.8,19.7,43.8,43.8v54.6c0,8.5,6.9,15.4,15.4,15.4h7.2
	c8.5,0,15.4-6.9,15.4-15.4V257.2h25.3c1.1,0,2.1,0.3,3.2,0.3V441z"/>
</svg>
