<?xml version="1.0" encoding="utf-8"?>
<!-- Generator: Adobe Illustrator 19.1.0, SVG Export Plug-In . SVG Version: 6.00 Build 0)  -->
<svg version="1.1" id="Layer_1" xmlns="http://www.w3.org/2000/svg" xmlns:xlink="http://www.w3.org/1999/xlink" x="0px" y="0px"
	 viewBox="-271 287.4 256 227.6" style="enable-background:new -271 287.4 256 227.6;" xml:space="preserve">
<path d="M-18.1,287.4h-25.3v183.7c0,8.5-6.9,15.4-15.4,15.4H-66c-8.5,0-15.4-6.9-15.4-15.4v-54.6c0-24.2-19.7-43.8-43.8-43.8h-59.3
	c-24.2,0-43.8,19.2-43.8,42.7c0,23.1,19.3,43,43,44.2l9,0.5c8.5,0.4,15.4,6.6,15.2,13.5c-0.2,7-7.7,12.9-16.3,12.9H-271V515h93.6
	c23.9,0,44-18.1,44.7-40.4c0.7-22.4-18.2-41.7-42.1-42.9l-9-0.5c-8.7-0.4-16.1-7.7-16.1-15.8c0-7.8,7.3-14.6,15.8-14.6h59.3
	c8.5,0,15,7.3,15,15.8v54.6c0,24.2,19.7,43.8,43.8,43.8h7.2c24.2,0,43.8-19.6,43.8-43.8V287.7C-16,287.7-17.1,287.4-18.1,287.4z"/>
</svg>
