<?xml version="1.0" encoding="utf-8"?>
<!-- Generator: Adobe Illustrator 19.1.0, SVG Export Plug-In . SVG Version: 6.00 Build 0)  -->
<svg version="1.1" id="Layer_1" xmlns="http://www.w3.org/2000/svg" xmlns:xlink="http://www.w3.org/1999/xlink" x="0px" y="0px"
	 viewBox="-143 145 512 512" style="enable-background:new -143 145 512 512;" xml:space="preserve">
<g>
	<path d="M113,145c-141.4,0-256,114.6-256,256s114.6,256,256,256s256-114.6,256-256S254.4,145,113,145z M272.8,560.7
		c-20.8,20.8-44.9,37.1-71.8,48.4c-27.8,11.8-57.4,17.7-88,17.7c-30.5,0-60.1-6-88-17.7c-26.9-11.4-51.1-27.7-71.8-48.4
		c-20.8-20.8-37.1-44.9-48.4-71.8C-107,461.1-113,431.5-113,401s6-60.1,17.7-88c11.4-26.9,27.7-51.1,48.4-71.8
		c20.9-20.8,45-37.1,71.9-48.5C52.9,181,82.5,175,113,175s60.1,6,88,17.7c26.9,11.4,51.1,27.7,71.8,48.4
		c20.8,20.8,37.1,44.9,48.4,71.8c11.8,27.8,17.7,57.4,17.7,88c0,30.5-6,60.1-17.7,88C309.8,515.8,293.5,540,272.8,560.7z"/>
	<path d="M195.5,257.2v183.7c0,8.5-6.9,15.4-15.4,15.4h-7.2c-8.5,0-15.4-6.9-15.4-15.4v-54.6c0-24.2-19.7-43.8-43.8-43.8H54.4
		c-24.2,0-43.8,19.2-43.8,42.7c0,23.1,19.3,43,43,44.2l9,0.5c8.5,0.4,15.4,6.6,15.2,13.5c-0.2,7-7.7,12.9-16.3,12.9h-93.6v28.5h93.6
		c23.9,0,44-18.1,44.7-40.4c0.7-22.4-18.2-41.7-42.1-42.9l-9-0.5c-8.7-0.4-16.1-7.7-16.1-15.8c0-7.8,7.3-14.6,15.8-14.6h59.3
		c8.5,0,15,7.3,15,15.8V441c0,24.2,19.7,43.8,43.8,43.8h7.2c24.2,0,43.8-19.6,43.8-43.8V257.5c-1.1-0.1-2.1-0.3-3.2-0.3H195.5z"/>
</g>
</svg>
