<?xml version="1.0" encoding="utf-8"?>
<!-- Generator: Adobe Illustrator 19.1.0, SVG Export Plug-In . SVG Version: 6.00 Build 0)  -->
<svg version="1.1" id="Layer_1" xmlns="http://www.w3.org/2000/svg" xmlns:xlink="http://www.w3.org/1999/xlink" x="0px" y="0px"
	 viewBox="-143 145 512 512" style="enable-background:new -143 145 512 512;" xml:space="preserve">
<g>
	<path d="M-143,145v512h512V145H-143z M339,627h-452V175h452V627z"/>
	<path d="M106.3,444.4c0.7-22.4-18.2-41.7-42.1-42.9l-9-0.5c-8.7-0.4-16.1-7.7-16.1-15.8c0-7.8,7.3-14.6,15.8-14.6h59.3
		c8.5,0,15,7.3,15,15.8V441c0,24.2,19.7,43.8,43.8,43.8h7.2c24.2,0,43.8-19.6,43.8-43.8V257.5c-1.1-0.1-2.1-0.3-3.2-0.3h-25.3v183.7
		c0,8.5-6.9,15.4-15.4,15.4h-7.2c-8.5,0-15.4-6.9-15.4-15.4v-54.6c0-24.2-19.7-43.8-43.8-43.8H54.4c-24.2,0-43.8,19.2-43.8,42.7
		c0,23.1,19.3,43,43,44.2l9,0.5c8.5,0.4,15.4,6.6,15.2,13.5c-0.2,7-7.7,12.9-16.3,12.9h-93.6v28.5h93.6
		C85.5,484.8,105.5,466.7,106.3,444.4z"/>
</g>
</svg>
