<?xml version="1.0" encoding="utf-8"?>
<!-- Generator: Adobe Illustrator 19.1.0, SVG Export Plug-In . SVG Version: 6.00 Build 0)  -->
<svg version="1.1" id="Layer_1" xmlns="http://www.w3.org/2000/svg" xmlns:xlink="http://www.w3.org/1999/xlink" x="0px" y="0px"
	 viewBox="0 0 512 512" style="enable-background:new 0 0 512 512;" xml:space="preserve">
<g>
	<path d="M472,0H40C17.9,0,0,17.9,0,40v432c0,22.1,17.9,40,40,40h432c22.1,0,40-17.9,40-40V40C512,17.9,494.1,0,472,0z M482,472
		c0,5.5-4.5,10-10,10H40c-5.5,0-10-4.5-10-10V40c0-5.5,4.5-10,10-10h432c5.5,0,10,4.5,10,10V472z"/>
	<path d="M294.2,150.3l2.8-4.2l2.8-4.1l6.2-9.3c0.8-1.1,0.5-2.7-0.7-3.4c-1.1-0.8-2.7-0.5-3.4,0.7l-6.6,9.9l-2.8,4.2l-2.8,4.2
		c-9-3.5-18.9-5.4-29.5-5.4c-10.5,0-20.5,1.9-29.5,5.4l-2.8-4.2l-2.8-4.2l-6.6-9.9c-0.8-1.1-2.3-1.4-3.4-0.7
		c-1.1,0.8-1.4,2.3-0.7,3.4l6.2,9.3l2.8,4.1l2.8,4.2c-21,9.8-35.3,28.3-35.3,49.6h138.7C329.5,178.6,315.3,160.1,294.2,150.3z
		 M230.4,180c-4.1,0-7.4-3.3-7.4-7.4s3.3-7.4,7.4-7.4c4.1,0,7.4,3.3,7.4,7.4C237.8,176.7,234.5,180,230.4,180z M289.8,180
		c-4.1,0-7.4-3.3-7.4-7.4s3.3-7.4,7.4-7.4c4.1,0,7.4,3.3,7.4,7.4C297.3,176.7,294,180,289.8,180z"/>
	<path d="M191.8,209.8h-1.1v12.3v10.1v86.6c0,8.7,7,15.7,15.7,15.7h11.3c-0.4,1.3-0.6,2.7-0.6,4.1v0.8v5V370
		c0,8.2,6.7,14.9,14.9,14.9s14.9-6.7,14.9-14.9v-25.6v-5v-0.8c0-1.4-0.2-2.8-0.6-4.1h27.6c-0.4,1.3-0.6,2.7-0.6,4.1v0.8v5V370
		c0,8.2,6.7,14.9,14.9,14.9c8.2,0,14.9-6.7,14.9-14.9v-25.6v-5v-0.8c0-1.4-0.2-2.8-0.6-4.1h11.3c8.7,0,15.7-7,15.7-15.7v-86.6v-10.1
		v-12.4h-1.1H191.8V209.8z"/>
	<path d="M166,209.8c-8.2,0-14.9,6.7-14.9,14.9v63.6c0,8.2,6.7,14.9,14.9,14.9c8.2,0,14.9-6.7,14.9-14.9v-63.6
		C180.8,216.4,174.2,209.8,166,209.8z"/>
	<path d="M354.3,209.8c-8.2,0-14.9,6.7-14.9,14.9v63.6c0,8.2,6.7,14.9,14.9,14.9c8.2,0,14.9-6.7,14.9-14.9v-63.6
		C369.1,216.4,362.5,209.8,354.3,209.8z"/>
</g>
</svg>
