<?xml version="1.0" encoding="utf-8"?>
<!-- Generator: Adobe Illustrator 19.1.0, SVG Export Plug-In . SVG Version: 6.00 Build 0)  -->
<svg version="1.1" id="Layer_1" xmlns="http://www.w3.org/2000/svg" xmlns:xlink="http://www.w3.org/1999/xlink" x="0px" y="0px"
	 viewBox="0 0 512 512" style="enable-background:new 0 0 512 512;" xml:space="preserve">
<g>
	<path d="M256,0C114.6,0,0,114.6,0,256s114.6,256,256,256s256-114.6,256-256S397.4,0,256,0z M415.8,415.7
		c-20.8,20.8-44.9,37.1-71.8,48.4c-27.8,11.8-57.4,17.7-88,17.7c-30.5,0-60.1-6-88-17.7c-26.9-11.4-51.1-27.7-71.8-48.4
		c-20.8-20.8-37.1-44.9-48.4-71.8C36,316.1,30,286.5,30,256s6-60.1,17.7-88c11.4-26.9,27.7-51.1,48.4-71.8
		c20.9-20.8,45-37.1,71.9-48.5C195.9,36,225.5,30,256,30s60.1,6,88,17.7c26.9,11.4,51.1,27.7,71.8,48.4
		c20.8,20.8,37.1,44.9,48.4,71.8c11.8,27.8,17.7,57.4,17.7,88c0,30.5-6,60.1-17.7,88C452.8,370.8,436.5,395,415.8,415.7z"/>
	<path d="M294.2,150.3l2.8-4.2l2.8-4.1l6.2-9.3c0.8-1.1,0.5-2.7-0.7-3.4c-1.1-0.8-2.7-0.5-3.4,0.7l-6.6,9.9l-2.8,4.2l-2.8,4.2
		c-9-3.5-18.9-5.4-29.5-5.4c-10.5,0-20.5,1.9-29.5,5.4l-2.8-4.2l-2.8-4.2l-6.6-9.9c-0.8-1.1-2.3-1.4-3.4-0.7
		c-1.1,0.8-1.4,2.3-0.7,3.4l6.2,9.3l2.8,4.1l2.8,4.2c-21,9.8-35.3,28.3-35.3,49.6h138.7C329.5,178.6,315.3,160.1,294.2,150.3z
		 M230.4,180c-4.1,0-7.4-3.3-7.4-7.4s3.3-7.4,7.4-7.4c4.1,0,7.4,3.3,7.4,7.4C237.8,176.7,234.5,180,230.4,180z M289.8,180
		c-4.1,0-7.4-3.3-7.4-7.4s3.3-7.4,7.4-7.4c4.1,0,7.4,3.3,7.4,7.4C297.3,176.7,294,180,289.8,180z"/>
	<path d="M191.8,209.8h-1.1v12.3v10.1v86.6c0,8.7,7,15.7,15.7,15.7h11.3c-0.4,1.3-0.6,2.7-0.6,4.1v0.8v5V370
		c0,8.2,6.7,14.9,14.9,14.9s14.9-6.7,14.9-14.9v-25.6v-5v-0.8c0-1.4-0.2-2.8-0.6-4.1h27.6c-0.4,1.3-0.6,2.7-0.6,4.1v0.8v5V370
		c0,8.2,6.7,14.9,14.9,14.9c8.2,0,14.9-6.7,14.9-14.9v-25.6v-5v-0.8c0-1.4-0.2-2.8-0.6-4.1h11.3c8.7,0,15.7-7,15.7-15.7v-86.6v-10.1
		v-12.4h-1.1H191.8V209.8z"/>
	<path d="M166,209.8c-8.2,0-14.9,6.7-14.9,14.9v63.6c0,8.2,6.7,14.9,14.9,14.9c8.2,0,14.9-6.7,14.9-14.9v-63.6
		C180.8,216.4,174.2,209.8,166,209.8z"/>
	<path d="M354.3,209.8c-8.2,0-14.9,6.7-14.9,14.9v63.6c0,8.2,6.7,14.9,14.9,14.9c8.2,0,14.9-6.7,14.9-14.9v-63.6
		C369.1,216.4,362.5,209.8,354.3,209.8z"/>
</g>
</svg>
