<?xml version="1.0" encoding="utf-8"?>
<!-- Generator: Adobe Illustrator 19.1.0, SVG Export Plug-In . SVG Version: 6.00 Build 0)  -->
<svg version="1.1" id="Layer_1" xmlns="http://www.w3.org/2000/svg" xmlns:xlink="http://www.w3.org/1999/xlink" x="0px" y="0px"
	 viewBox="-146 129 218 256" style="enable-background:new -146 129 218 256;" xml:space="preserve">
<g>
	<path d="M-2.9,150.4l2.8-4.2l2.8-4.1l6.2-9.3c0.8-1.1,0.5-2.7-0.7-3.4c-1.1-0.8-2.7-0.5-3.4,0.7l-6.6,9.9l-2.8,4.2l-2.8,4.2
		c-9-3.5-18.9-5.4-29.5-5.4c-10.5,0-20.5,1.9-29.5,5.4l-2.8-4.2L-72,140l-6.6-9.9c-0.8-1.1-2.3-1.4-3.4-0.7
		c-1.1,0.8-1.4,2.3-0.7,3.4l6.2,9.3l2.8,4.1l2.8,4.2c-21,9.8-35.3,28.3-35.3,49.6H32.5C32.4,178.7,18.2,160.2-2.9,150.4z
		 M-66.7,180.1c-4.1,0-7.4-3.3-7.4-7.4c0-4.1,3.3-7.4,7.4-7.4c4.1,0,7.4,3.3,7.4,7.4S-62.6,180.1-66.7,180.1z M-7.3,180.1
		c-4.1,0-7.4-3.3-7.4-7.4c0-4.1,3.3-7.4,7.4-7.4c4.1,0,7.4,3.3,7.4,7.4C0.2,176.8-3.1,180.1-7.3,180.1z"/>
	<path d="M-105.3,209.8l-1.1,0.1v12.3v10.1v86.6c0,8.7,7,15.7,15.7,15.7h11.3c-0.4,1.3-0.6,2.7-0.6,4.1v0.8v5v25.6
		c0,8.2,6.7,14.9,14.9,14.9s14.9-6.7,14.9-14.9v-25.6v-5v-0.8c0-1.4-0.2-2.8-0.6-4.1h27.6c-0.4,1.3-0.6,2.7-0.6,4.1v0.8v5v25.6
		c0,8.2,6.7,14.9,14.9,14.9c8.2,0,14.9-6.7,14.9-14.9v-25.6v-5v-0.8c0-1.4-0.2-2.8-0.6-4.1h11.3c8.7,0,15.7-7,15.7-15.7v-86.6v-10.1
		v-12.4h-1.1H-105.3z"/>
	<path d="M-131.1,209.9c-8.2,0-14.9,6.7-14.9,14.9v63.6c0,8.2,6.7,14.9,14.9,14.9c8.2,0,14.9-6.7,14.9-14.9v-63.6
		C-116.3,216.5-122.9,209.9-131.1,209.9z"/>
	<path d="M57.2,209.9c-8.2,0-14.9,6.7-14.9,14.9v63.6c0,8.2,6.7,14.9,14.9,14.9s14.9-6.7,14.9-14.9v-63.6
		C72,216.5,65.4,209.9,57.2,209.9z"/>
</g>
</svg>
