<?xml version="1.0" encoding="utf-8"?>
<!-- Generator: Adobe Illustrator 19.1.0, SVG Export Plug-In . SVG Version: 6.00 Build 0)  -->
<svg version="1.1" id="Layer_1" xmlns="http://www.w3.org/2000/svg" xmlns:xlink="http://www.w3.org/1999/xlink" x="0px" y="0px"
	 viewBox="-143 145 512 512" style="enable-background:new -143 145 512 512;" xml:space="preserve">
<g>
	<path d="M-143,145v512h512V145H-143z M339,627h-452V175h452V627z"/>
	<path d="M54,509.2c19.3,3.4,39.2,3.7,57.3,5.2c20.2-1.5,38.9-1.6,57.1-4.5c31.8-5.1,55.8-22,67.8-52.7c4.2-10.7,6.5-22.4,7.9-33.8
		c3.1-25.2-1.2-48.8-18.4-68.7c-0.8-0.9-1.3-2.3-1.2-3.5c0.9-20.1-1.8-39.6-8.6-58.6c-0.9-2.4-2-3.3-4.5-2.6c-5.6,1.7-11.4,3-16.9,5
		c-15.2,5.5-29.1,13.5-42.6,22.2c-1.4,0.9-3.5,1.5-5.2,1.2c-22.1-3.9-44.3-3.7-66.5-0.3c-2.2,0.3-5-0.2-6.8-1.3
		c-15.7-10.2-31.7-20.2-50-25c-15.1-4-12-4.8-16.3,8.9c-5.1,16.4-7.1,33.4-6,50.6c0.1,1.2-0.8,2.7-1.6,3.8
		c-6.6,7.9-11.7,16.6-14.8,26.4c-6,19-4.8,38.2-1,57.3C-8.8,476.5,16.6,502.7,54,509.2z M21.4,419.7c8.5-16.5,23.2-22.3,40.6-22.6
		c9.5-0.1,19.1,0.7,28.7,1.6c20.1,1.8,40-0.1,60-1.2c8.8-0.5,17.8-0.7,26.4,0.8c18.5,3.2,32.5,21.6,32.8,42.3
		c0.1,6.1-0.6,12.4-1.8,18.4c-3.3,15.6-12.4,26.3-27.6,31.8c-14.7,5.4-29.9,7.6-45.4,8.6c-7.5,0.5-15,0.1-22.5,0.1
		c-20.2,0.4-40.4-0.4-59.9-6.2c-24.5-7.3-35.5-21.9-36.2-47.5C16.2,436.7,17.2,427.9,21.4,419.7z"/>
	<path d="M78.7,466.1c9.8-10.6,9.7-30.5,0-41c-6.5-7-15.9-7.2-22.6-0.2c-5.5,5.7-7.4,12.9-7.7,19.3c0,9.6,2.8,17.3,7.7,22.3
		C62.9,473.3,72.2,473.2,78.7,466.1z"/>
	<path d="M148.2,467.2c6.5,5.9,15.3,5.6,21.4-0.7c5.6-5.8,7.6-13.1,7.8-21c-0.2-7.9-2.2-15.1-7.9-20.9c-6.1-6.3-14.9-6.5-21.4-0.6
		C137,434.3,137,457,148.2,467.2z"/>
</g>
</svg>
