<?xml version="1.0" encoding="utf-8"?>
<!-- Generator: Adobe Illustrator 19.1.0, SVG Export Plug-In . SVG Version: 6.00 Build 0)  -->
<svg version="1.1" id="Layer_1" xmlns="http://www.w3.org/2000/svg" xmlns:xlink="http://www.w3.org/1999/xlink" x="0px" y="0px"
	 viewBox="-127 175.8 256 162.2" style="enable-background:new -127 175.8 256 162.2;" xml:space="preserve">
<path d="M-9.5,192.7c4.8,6.7,7.2,14.8,7.2,24.2c0,9.6-2.4,17.4-7.3,23.3c-2.7,3.3-6.8,6.3-12.1,9c8.1,3,14.2,7.6,18.3,14
	c4.1,6.4,6.2,14.1,6.2,23.2c0,9.4-2.3,17.8-7.1,25.2c-3,4.9-6.7,9.1-11.2,12.4c-5,3.9-11,6.5-17.9,8c-6.9,1.4-14.3,2.1-22.4,2.1
	H-127V175.8h76.5C-31.3,176.1-17.6,181.7-9.5,192.7z M-95.5,203.3v34.9H-57c6.9,0,12.4-1.3,16.7-3.9s6.4-7.3,6.4-13.9
	c0-7.4-2.8-12.2-8.5-14.6c-4.9-1.6-11.1-2.5-18.7-2.5H-95.5z M-95.5,264.3v42.2H-57c6.9,0,12.2-0.9,16-2.8c7-3.5,10.4-10,10.4-19.7
	c0-8.2-3.3-13.9-10.1-17c-3.8-1.7-9-2.6-15.8-2.7H-95.5z M98.4,219.4c8.2,3.6,14.9,9.4,20.2,17.3c4.8,6.9,7.9,15,9.3,24.2
	c0.8,5.4,1.2,13.1,1,23.2H43.7c0.5,11.7,4.5,20,12.2,24.7c4.7,2.9,10.3,4.4,16.9,4.4c6.9,0,12.6-1.8,17-5.4c2.4-1.9,4.5-4.6,6.3-8.1
	h31.2c-0.8,6.9-4.6,14-11.3,21.2C105.5,332.3,90.9,338,72,338c-15.6,0-29.3-4.8-41.2-14.4c-11.9-9.6-17.9-25.2-17.9-46.8
	c0-20.3,5.4-35.8,16.1-46.6C39.8,219.4,53.7,214,70.8,214C81.1,213.9,90.3,215.7,98.4,219.4z M52.7,245.8c-4.3,4.5-7,10.5-8.2,18.1
	h52.7c-0.6-8.1-3.3-14.3-8.1-18.5c-4.9-4.2-11-6.3-18.2-6.3C63.1,239.1,57,241.4,52.7,245.8z M104.4,183.2H36.6v19.7h67.8V183.2z"/>
</svg>
