<?xml version="1.0" encoding="utf-8"?>
<!-- Generator: Adobe Illustrator 19.1.0, SVG Export Plug-In . SVG Version: 6.00 Build 0)  -->
<svg version="1.1" id="Layer_1" xmlns="http://www.w3.org/2000/svg" xmlns:xlink="http://www.w3.org/1999/xlink" x="0px" y="0px"
	 viewBox="0 0 512 512" style="enable-background:new 0 0 512 512;" xml:space="preserve">
<g>
	<path d="M0,0v512h512V0H0z M482,482H30V30h452V482z"/>
	<rect x="291.6" y="182.3" width="67.8" height="19.7"/>
	<path d="M285.8,322.7c11.9,9.6,25.6,14.4,41.2,14.4c18.9,0,33.5-5.7,44-17.1c6.7-7.2,10.5-14.3,11.3-21.2h-31.2
		c-1.8,3.5-3.9,6.2-6.3,8.1c-4.4,3.6-10.1,5.4-17,5.4c-6.6,0-12.2-1.5-16.9-4.4c-7.7-4.7-11.7-13-12.2-24.7h85.2
		c0.2-10.1-0.2-17.8-1-23.2c-1.4-9.2-4.5-17.3-9.3-24.2c-5.3-7.9-12-13.7-20.2-17.3c-8.1-3.7-17.3-5.5-27.6-5.4
		c-17.1,0-31,5.4-41.8,16.2c-10.7,10.8-16.1,26.3-16.1,46.6C267.9,297.5,273.9,313.1,285.8,322.7z M307.7,244.9
		c4.3-4.4,10.4-6.7,18.2-6.7c7.2,0,13.3,2.1,18.2,6.3c4.8,4.2,7.5,10.4,8.1,18.5h-52.7C300.7,255.4,303.4,249.4,307.7,244.9z"/>
	<path d="M221.6,331.1c6.9-1.5,12.9-4.1,17.9-8c4.5-3.3,8.2-7.5,11.2-12.4c4.8-7.4,7.1-15.8,7.1-25.2c0-9.1-2.1-16.8-6.2-23.2
		c-4.1-6.4-10.2-11-18.3-14c5.3-2.7,9.4-5.7,12.1-9c4.9-5.9,7.3-13.7,7.3-23.3c0-9.4-2.4-17.5-7.2-24.2c-8.1-11-21.8-16.6-41-16.9
		H128v158.3h71.2C207.3,333.2,214.7,332.5,221.6,331.1z M159.5,202.4h34.4c7.6,0,13.8,0.9,18.7,2.5c5.7,2.4,8.5,7.2,8.5,14.6
		c0,6.6-2.1,11.3-6.4,13.9c-4.3,2.6-9.8,3.9-16.7,3.9h-38.5V202.4z M159.5,305.6v-42.2h39c6.8,0.1,12,1,15.8,2.7
		c6.8,3.1,10.1,8.8,10.1,17c0,9.7-3.4,16.2-10.4,19.7c-3.8,1.9-9.1,2.8-16,2.8H159.5z"/>
</g>
</svg>
