<?xml version="1.0" encoding="utf-8"?>
<!-- Generator: Adobe Illustrator 19.1.0, SVG Export Plug-In . SVG Version: 6.00 Build 0)  -->
<svg version="1.1" id="Layer_1" xmlns="http://www.w3.org/2000/svg" xmlns:xlink="http://www.w3.org/1999/xlink" x="0px" y="0px"
	 viewBox="0 0 512 512" style="enable-background:new 0 0 512 512;" xml:space="preserve">
<g>
	<path d="M256,0C114.6,0,0,114.6,0,256s114.6,256,256,256s256-114.6,256-256S397.4,0,256,0z M415.8,415.7
		c-20.8,20.8-44.9,37.1-71.8,48.4c-27.8,11.8-57.4,17.7-88,17.7c-30.5,0-60.1-6-88-17.7c-26.9-11.4-51.1-27.7-71.8-48.4
		c-20.8-20.8-37.1-44.9-48.4-71.8C36,316.1,30,286.5,30,256s6-60.1,17.7-88c11.4-26.9,27.7-51.1,48.4-71.8
		c20.9-20.8,45-37.1,71.9-48.5C195.9,36,225.5,30,256,30s60.1,6,88,17.7c26.9,11.4,51.1,27.7,71.8,48.4
		c20.8,20.8,37.1,44.9,48.4,71.8c11.8,27.8,17.7,57.4,17.7,88c0,30.5-6,60.1-17.7,88C452.8,370.8,436.5,395,415.8,415.7z"/>
	<rect x="291.6" y="182.3" width="67.8" height="19.7"/>
	<path d="M373.6,235.8c-5.3-7.9-12-13.7-20.2-17.3c-8.1-3.7-17.3-5.5-27.6-5.4c-17.1,0-31,5.4-41.8,16.2
		c-10.7,10.8-16.1,26.3-16.1,46.6c0,21.6,6,37.2,17.9,46.8c11.9,9.6,25.6,14.4,41.2,14.4c18.9,0,33.5-5.7,44-17.1
		c6.7-7.2,10.5-14.3,11.3-21.2h-31.2c-1.8,3.5-3.9,6.2-6.3,8.1c-4.4,3.6-10.1,5.4-17,5.4c-6.6,0-12.2-1.5-16.9-4.4
		c-7.7-4.7-11.7-13-12.2-24.7h85.2c0.2-10.1-0.2-17.8-1-23.2C381.5,250.8,378.4,242.7,373.6,235.8z M299.5,263
		c1.2-7.6,3.9-13.6,8.2-18.1c4.3-4.4,10.4-6.7,18.2-6.7c7.2,0,13.3,2.1,18.2,6.3c4.8,4.2,7.5,10.4,8.1,18.5H299.5z"/>
	<path d="M233.3,248.3c5.3-2.7,9.4-5.7,12.1-9c4.9-5.9,7.3-13.7,7.3-23.3c0-9.4-2.4-17.5-7.2-24.2c-8.1-11-21.8-16.6-41-16.9H128
		v158.3h71.2c8.1,0,15.5-0.7,22.4-2.1c6.9-1.5,12.9-4.1,17.9-8c4.5-3.3,8.2-7.5,11.2-12.4c4.8-7.4,7.1-15.8,7.1-25.2
		c0-9.1-2.1-16.8-6.2-23.2C247.5,255.9,241.4,251.3,233.3,248.3z M159.5,202.4h34.4c7.6,0,13.8,0.9,18.7,2.5
		c5.7,2.4,8.5,7.2,8.5,14.6c0,6.6-2.1,11.3-6.4,13.9c-4.3,2.6-9.8,3.9-16.7,3.9h-38.5V202.4z M214,302.8c-3.8,1.9-9.1,2.8-16,2.8
		h-38.5v-42.2h39c6.8,0.1,12,1,15.8,2.7c6.8,3.1,10.1,8.8,10.1,17C224.4,292.8,221,299.3,214,302.8z"/>
</g>
</svg>
