<?xml version="1.0" encoding="utf-8"?>
<!-- Generator: Adobe Illustrator 19.1.0, SVG Export Plug-In . SVG Version: 6.00 Build 0)  -->
<svg version="1.1" id="Layer_1" xmlns="http://www.w3.org/2000/svg" xmlns:xlink="http://www.w3.org/1999/xlink" x="0px" y="0px"
	 viewBox="-143 145 512 512" style="enable-background:new -143 145 512 512;" xml:space="preserve">
<g>
	<path d="M-143,145v512h512V145H-143z M339,627h-452V175h452V627z"/>
	<polygon points="149.8,407.1 180.7,407.1 180.7,438 205.5,438 205.5,407.1 236.4,407.1 236.4,382.3 205.5,382.3 205.5,351.4 
		180.7,351.4 180.7,382.3 149.8,382.3 	"/>
	<path d="M70.7,528.2c50.2,0,77.9-28.5,77.9-57.1c0.1-22.9-6.7-36.6-27.6-51.4c-7.2-5.1-20.9-17.4-20.9-24.7
		c0-8.5,2.4-12.7,15.2-22.7c13.1-10.3,22.4-24.7,22.4-41.4c0-19.9-8.9-39.4-25.6-45.8h25.1l17.7-12.8H75.6c-35.5,0-69,26.9-69,58.1
		C6.6,362.3,30.8,388,67,388c2.5,0,5-0.1,7.3-0.2c-2.3,4.5-4,9.6-4,14.8c0,8.9,4.8,16.1,10.8,21.9c-4.6,0-9,0.1-13.7,0.1
		c-44,0-77.9,28-77.9,57.1C-10.5,510.3,26.7,528.2,70.7,528.2z M78.6,379.9c-20.4-0.6-39.8-22.8-43.4-49.7
		c-3.5-26.8,10.2-47.4,30.6-46.7c20.4,0.6,39.8,22.1,43.4,49C112.8,359.3,99.1,380.6,78.6,379.9z M76,432c7.1,0.1,13.7,1.2,19.7,3.2
		c16.5,11.5,28.4,18,31.7,31.1c0.6,2.7,1,5.4,1,8.2c-0.1,23.1-15,41.1-57.7,41.1c-30.4,0-52.4-19.3-52.4-42.4
		C18.3,450.5,45.6,431.6,76,432z"/>
</g>
</svg>
