<?xml version="1.0" encoding="utf-8"?>
<!-- Generator: Adobe Illustrator 19.1.0, SVG Export Plug-In . SVG Version: 6.00 Build 0)  -->
<svg version="1.1" id="Layer_1" xmlns="http://www.w3.org/2000/svg" xmlns:xlink="http://www.w3.org/1999/xlink" x="0px" y="0px"
	 viewBox="-143 145 512 512" style="enable-background:new -143 145 512 512;" xml:space="preserve">
<g>
	<path d="M-143,145v512h512V145H-143z M70.8,528.3c-44,0-81.2-17.9-81.2-46.5c0-29.1,33.9-57.1,77.9-57.1c4.8,0,9.2-0.1,13.7-0.1
		c-6-5.9-10.8-13.1-10.8-21.9c0-5.2,1.7-10.3,4-14.8c-2.4,0.2-4.8,0.2-7.3,0.2c-36.2,0-60.4-25.7-60.4-57.6
		c0-31.2,33.5-58.1,69-58.1H155l-17.7,12.7h-25.1c16.7,6.4,25.6,25.9,25.6,45.8c0,16.7-9.3,31.1-22.4,41.4
		c-12.8,10-15.2,14.2-15.2,22.7c0,7.3,13.7,19.6,20.9,24.7c21,14.8,27.7,28.6,27.7,51.5C148.7,499.8,121,528.3,70.8,528.3z
		 M236.4,407.1h-30.9V438h-24.8v-30.9h-30.9v-24.8h30.9v-30.9h24.8v30.9h30.9V407.1z"/>
	<path d="M109.2,332.5c-3.5-26.8-22.9-48.3-43.4-49c-20.4-0.6-34.1,19.9-30.6,46.7c3.5,26.8,22.9,49.1,43.4,49.7
		C99.1,380.6,112.8,359.3,109.2,332.5z"/>
	<path d="M95.7,435.2c-6-1.9-12.6-3.1-19.7-3.2c-30.4-0.3-57.7,18.6-57.7,41.2c0,23.1,22,42.4,52.4,42.4c42.8,0,57.7-18.1,57.7-41.2
		c0-2.8-0.3-5.5-1-8.2C124,453.2,112.2,446.7,95.7,435.2z"/>
</g>
</svg>
