<?xml version="1.0" encoding="utf-8"?>
<!-- Generator: Adobe Illustrator 19.1.0, SVG Export Plug-In . SVG Version: 6.00 Build 0)  -->
<svg version="1.1" id="Layer_1" xmlns="http://www.w3.org/2000/svg" xmlns:xlink="http://www.w3.org/1999/xlink" x="0px" y="0px"
	 viewBox="-143 145 512 512" style="enable-background:new -143 145 512 512;" xml:space="preserve">
<g>
	<path d="M113,145c-141.4,0-256,114.6-256,256s114.6,256,256,256s256-114.6,256-256S254.4,145,113,145z M272.8,560.7
		c-20.8,20.8-44.9,37.1-71.8,48.4c-27.8,11.8-57.4,17.7-88,17.7c-30.5,0-60.1-6-88-17.7c-26.9-11.4-51.1-27.7-71.8-48.4
		c-20.8-20.8-37.1-44.9-48.4-71.8C-107,461.1-113,431.5-113,401s6-60.1,17.7-88c11.4-26.9,27.7-51.1,48.4-71.8
		c20.9-20.8,45-37.1,71.9-48.5C52.9,181,82.5,175,113,175s60.1,6,88,17.7c26.9,11.4,51.1,27.7,71.8,48.4
		c20.8,20.8,37.1,44.9,48.4,71.8c11.8,27.8,17.7,57.4,17.7,88c0,30.5-6,60.1-17.7,88C309.8,515.8,293.5,540,272.8,560.7z"/>
	<polygon points="205.5,351.4 180.7,351.4 180.7,382.3 149.8,382.3 149.8,407.1 180.7,407.1 180.7,438 205.5,438 205.5,407.1 
		236.4,407.1 236.4,382.3 205.5,382.3 	"/>
	<path d="M121,419.7c-7.2-5.1-20.9-17.4-20.9-24.7c0-8.5,2.4-12.7,15.2-22.7c13.1-10.3,22.4-24.7,22.4-41.4
		c0-19.9-8.9-39.4-25.6-45.8h25.1l17.7-12.8H75.6c-35.5,0-69,26.9-69,58.1C6.6,362.3,30.8,388,67,388c2.5,0,5-0.1,7.3-0.2
		c-2.3,4.5-4,9.6-4,14.8c0,8.9,4.8,16.1,10.8,21.9c-4.6,0-9,0.1-13.7,0.1c-44,0-77.9,28-77.9,57.1c0,28.6,37.2,46.5,81.2,46.5
		c50.2,0,77.9-28.5,77.9-57.1C148.7,448.2,141.9,434.5,121,419.7z M78.6,379.9c-20.4-0.6-39.8-22.8-43.4-49.7
		c-3.5-26.8,10.2-47.4,30.6-46.7c20.4,0.6,39.8,22.1,43.4,49C112.8,359.3,99.1,380.6,78.6,379.9z M70.7,515.6
		c-30.4,0-52.4-19.3-52.4-42.4c0-22.7,27.3-41.6,57.7-41.2c7.1,0.1,13.7,1.2,19.7,3.2c16.5,11.5,28.4,18,31.7,31.1
		c0.6,2.7,1,5.4,1,8.2C128.3,497.6,113.4,515.6,70.7,515.6z"/>
</g>
</svg>
