<?xml version="1.0" encoding="utf-8"?>
<!-- Generator: Adobe Illustrator 19.1.0, SVG Export Plug-In . SVG Version: 6.00 Build 0)  -->
<svg version="1.1" id="Layer_1" xmlns="http://www.w3.org/2000/svg" xmlns:xlink="http://www.w3.org/1999/xlink" x="0px" y="0px"
	 viewBox="-276 273 246.7 256" style="enable-background:new -276 273 246.7 256;" xml:space="preserve">
<g>
	<polygon points="-60,383 -60,352.1 -84.8,352.1 -84.8,383 -115.7,383 -115.7,407.8 -84.8,407.8 -84.8,438.7 -60,438.7 -60,407.8 
		-29.1,407.8 -29.1,383 	"/>
	<path d="M-144.5,420.4c-7.2-5.1-20.9-17.4-20.9-24.7c0-8.5,2.4-12.7,15.2-22.7c13.1-10.3,22.4-24.7,22.4-41.4
		c0-19.9-8.9-39.4-25.6-45.8h25.1l17.7-12.8h-79.3c-35.5,0-69,26.9-69,58.1c0,31.9,24.2,57.6,60.4,57.6c2.5,0,5-0.1,7.3-0.2
		c-2.3,4.5-4,9.6-4,14.8c0,8.9,4.8,16.1,10.8,21.9c-4.6,0-9,0.1-13.7,0.1c-44,0-77.9,28-77.9,57.1c0,28.6,37.2,46.5,81.2,46.5
		c50.2,0,77.9-28.5,77.9-57.1C-116.8,448.9-123.6,435.2-144.5,420.4z M-186.9,380.6c-20.4-0.6-39.8-22.8-43.4-49.7
		c-3.5-26.8,10.2-47.4,30.6-46.7c20.4,0.6,39.8,22.1,43.4,49C-152.7,360-166.4,381.3-186.9,380.6z M-194.8,516.3
		c-30.4,0-52.4-19.3-52.4-42.4c0-22.7,27.3-41.6,57.7-41.2c7.1,0.1,13.7,1.2,19.7,3.2c16.5,11.5,28.4,18,31.7,31.1
		c0.6,2.7,1,5.4,1,8.2C-137.2,498.3-152.1,516.3-194.8,516.3z"/>
</g>
</svg>
