<?xml version="1.0" encoding="utf-8"?>
<!-- Generator: Adobe Illustrator 19.1.0, SVG Export Plug-In . SVG Version: 6.00 Build 0)  -->
<svg version="1.1" id="Layer_1" xmlns="http://www.w3.org/2000/svg" xmlns:xlink="http://www.w3.org/1999/xlink" x="0px" y="0px"
	 viewBox="-143 145 512 512" style="enable-background:new -143 145 512 512;" xml:space="preserve">
<g>
	<path d="M329,145h-432c-22.1,0-40,17.9-40,40v432c0,22.1,17.9,40,40,40h432c22.1,0,40-17.9,40-40V185C369,162.9,351.1,145,329,145z
		 M339,617c0,5.5-4.5,10-10,10h-432c-5.5,0-10-4.5-10-10V185c0-5.5,4.5-10,10-10h432c5.5,0,10,4.5,10,10V617z"/>
	<path d="M121,419.7c-7.2-5.1-20.9-17.4-20.9-24.7c0-8.5,2.4-12.7,15.2-22.7c13.1-10.3,22.4-24.7,22.4-41.4
		c0-19.9-8.9-39.4-25.6-45.8h25.1l17.7-12.8H75.6c-35.5,0-69,26.9-69,58.1C6.6,362.3,30.8,388,67,388c2.5,0,5-0.1,7.3-0.2
		c-2.3,4.5-4,9.6-4,14.8c0,8.9,4.8,16.1,10.8,21.9c-4.6,0-9,0.1-13.7,0.1c-44,0-77.9,28-77.9,57.1c0,28.6,37.2,46.5,81.2,46.5
		c50.2,0,77.9-28.5,77.9-57.1C148.7,448.2,141.9,434.5,121,419.7z M78.6,379.9c-20.4-0.6-39.8-22.8-43.4-49.7
		c-3.5-26.8,10.2-47.4,30.6-46.7c20.4,0.6,39.8,22.1,43.4,49C112.8,359.3,99.1,380.6,78.6,379.9z M70.7,515.6
		c-30.4,0-52.4-19.3-52.4-42.4c0-22.7,27.3-41.6,57.7-41.2c7.1,0.1,13.7,1.2,19.7,3.2c16.5,11.5,28.4,18,31.7,31.1
		c0.6,2.7,1,5.4,1,8.2C128.3,497.6,113.4,515.6,70.7,515.6z"/>
	<polygon points="205.5,351.4 180.7,351.4 180.7,382.3 149.8,382.3 149.8,407.1 180.7,407.1 180.7,438 205.5,438 205.5,407.1 
		236.4,407.1 236.4,382.3 205.5,382.3 	"/>
</g>
</svg>
